G04*
G04 #@! TF.GenerationSoftware,Altium Limited,Altium Designer,21.9.2 (33)*
G04*
G04 Layer_Color=8421504*
%FSLAX25Y25*%
%MOIN*%
G70*
G04*
G04 #@! TF.SameCoordinates,2E303187-FE1F-4BD8-B44E-E95B7E70DBC6*
G04*
G04*
G04 #@! TF.FilePolarity,Positive*
G04*
G01*
G75*
%ADD16R,0.04331X0.03937*%
%ADD17R,0.03150X0.03150*%
%ADD18R,0.02756X0.03543*%
%ADD19R,0.03937X0.04331*%
%ADD20R,0.02559X0.04331*%
%ADD21R,0.07480X0.03150*%
%ADD22R,0.05906X0.05906*%
%ADD23R,0.07874X0.03937*%
%ADD24R,0.03937X0.07284*%
%ADD25R,0.09449X0.10236*%
%ADD26R,0.03543X0.01575*%
%ADD27R,0.03543X0.02756*%
%ADD28R,0.07795X0.02087*%
%ADD29R,0.09449X0.08858*%
%ADD30R,0.11417X0.08858*%
%ADD31R,0.11417X0.06890*%
%ADD32R,0.04000X0.05000*%
%ADD33R,0.05000X0.04000*%
%ADD34R,0.04331X0.02559*%
%ADD35R,0.08268X0.05512*%
%ADD36O,0.00787X0.02756*%
%ADD37O,0.02756X0.00787*%
%ADD38R,0.03937X0.03937*%
D16*
X166347Y213000D02*
D03*
X159653D02*
D03*
X20154Y96000D02*
D03*
X26847D02*
D03*
X34846Y286000D02*
D03*
X28153D02*
D03*
X68846Y247500D02*
D03*
X62154D02*
D03*
X69346Y213500D02*
D03*
X62653D02*
D03*
X210347Y178500D02*
D03*
X203654D02*
D03*
X203654Y184500D02*
D03*
X210347D02*
D03*
D17*
X159752Y222000D02*
D03*
X166248D02*
D03*
D18*
X251886Y276957D02*
D03*
Y282075D02*
D03*
X183000Y100441D02*
D03*
Y105559D02*
D03*
X152500Y109059D02*
D03*
Y103941D02*
D03*
X237386Y276957D02*
D03*
Y282075D02*
D03*
X176500Y106559D02*
D03*
Y101441D02*
D03*
X158358Y65146D02*
D03*
Y70264D02*
D03*
X175205Y82083D02*
D03*
Y87201D02*
D03*
X59500Y107059D02*
D03*
Y101941D02*
D03*
X37705Y105701D02*
D03*
Y100583D02*
D03*
X207654Y77472D02*
D03*
Y82590D02*
D03*
X220065Y77472D02*
D03*
Y82590D02*
D03*
X241500Y75941D02*
D03*
Y81059D02*
D03*
D19*
X57500Y136346D02*
D03*
Y129654D02*
D03*
X64000Y136346D02*
D03*
Y129654D02*
D03*
D20*
X145118Y63929D02*
D03*
X152598D02*
D03*
Y54480D02*
D03*
X148858D02*
D03*
X145118D02*
D03*
X245240Y289791D02*
D03*
X237760D02*
D03*
Y299240D02*
D03*
X241500D02*
D03*
X245240D02*
D03*
D21*
X270051Y254803D02*
D03*
Y250472D02*
D03*
Y246142D02*
D03*
Y241811D02*
D03*
Y237480D02*
D03*
Y233150D02*
D03*
Y228819D02*
D03*
Y224488D02*
D03*
D22*
X269500Y217500D02*
D03*
X269000Y264000D02*
D03*
D23*
X230532Y265000D02*
D03*
D24*
X233878Y217791D02*
D03*
D25*
X266000Y288402D02*
D03*
Y313598D02*
D03*
D26*
X162169Y108059D02*
D03*
Y105500D02*
D03*
Y102941D02*
D03*
X170831D02*
D03*
Y108059D02*
D03*
D27*
X240000Y310500D02*
D03*
X245118D02*
D03*
X164941Y61000D02*
D03*
X170059D02*
D03*
X164441Y55500D02*
D03*
X169559D02*
D03*
X144941Y69000D02*
D03*
X150059D02*
D03*
X144441Y48000D02*
D03*
X149559D02*
D03*
X181705Y68142D02*
D03*
X176587D02*
D03*
X225764Y90642D02*
D03*
X220646D02*
D03*
X139441Y33500D02*
D03*
X144559D02*
D03*
X136441Y23500D02*
D03*
X141559D02*
D03*
X73764Y310642D02*
D03*
X68646D02*
D03*
X60941Y96500D02*
D03*
X66059D02*
D03*
D28*
X17000Y197500D02*
D03*
Y192500D02*
D03*
Y187500D02*
D03*
Y182500D02*
D03*
Y177500D02*
D03*
Y172500D02*
D03*
Y167500D02*
D03*
Y162500D02*
D03*
X53890Y197500D02*
D03*
Y192500D02*
D03*
Y187500D02*
D03*
Y182500D02*
D03*
Y177500D02*
D03*
Y172500D02*
D03*
Y167500D02*
D03*
Y162500D02*
D03*
D29*
X17169Y-146D02*
D03*
D30*
X34492D02*
D03*
D31*
X8902Y45130D02*
D03*
D32*
X149650Y76000D02*
D03*
X144350D02*
D03*
X68555Y316142D02*
D03*
X73855D02*
D03*
D33*
X66000Y101850D02*
D03*
Y107150D02*
D03*
X213706Y82113D02*
D03*
Y76813D02*
D03*
D34*
X43980Y105382D02*
D03*
Y101642D02*
D03*
Y97902D02*
D03*
X53429D02*
D03*
Y105382D02*
D03*
X235224Y76760D02*
D03*
Y80500D02*
D03*
Y84240D02*
D03*
X225776D02*
D03*
Y76760D02*
D03*
D35*
X116532Y247425D02*
D03*
Y265142D02*
D03*
X80705Y247425D02*
D03*
Y265142D02*
D03*
X116532Y211925D02*
D03*
Y229642D02*
D03*
X80705Y211925D02*
D03*
Y229642D02*
D03*
X116532Y283425D02*
D03*
Y301142D02*
D03*
X80705Y283425D02*
D03*
Y301142D02*
D03*
D36*
X182815Y92984D02*
D03*
X184783D02*
D03*
X186752D02*
D03*
X188721D02*
D03*
X190689D02*
D03*
X192657D02*
D03*
X194626D02*
D03*
X196595D02*
D03*
Y73299D02*
D03*
X194626D02*
D03*
X192657D02*
D03*
X190689D02*
D03*
X188721D02*
D03*
X186752D02*
D03*
X184783D02*
D03*
X182815D02*
D03*
D37*
X199547Y90031D02*
D03*
Y88063D02*
D03*
Y86094D02*
D03*
Y84126D02*
D03*
Y82157D02*
D03*
Y80189D02*
D03*
Y78220D02*
D03*
Y76252D02*
D03*
X179862D02*
D03*
Y78220D02*
D03*
Y80189D02*
D03*
Y82157D02*
D03*
Y84126D02*
D03*
Y86094D02*
D03*
Y88063D02*
D03*
Y90031D02*
D03*
D38*
X189705Y83142D02*
D03*
M02*
