G04*
G04 #@! TF.GenerationSoftware,Altium Limited,Altium Designer,21.9.2 (33)*
G04*
G04 Layer_Color=16711935*
%FSLAX25Y25*%
%MOIN*%
G70*
G04*
G04 #@! TF.SameCoordinates,2E303187-FE1F-4BD8-B44E-E95B7E70DBC6*
G04*
G04*
G04 #@! TF.FilePolarity,Positive*
G04*
G01*
G75*
%ADD13C,0.00394*%
%ADD14C,0.00500*%
D13*
X185374Y89441D02*
G03*
X185374Y89441I-1969J0D01*
G01*
X154961Y55661D02*
Y62748D01*
X142756Y55661D02*
Y62748D01*
X154961D01*
X142756Y55661D02*
X154961D01*
X164039Y101563D02*
Y109437D01*
X168961Y101563D02*
Y109437D01*
X164039D02*
X168961D01*
X164039Y101563D02*
X168961D01*
X235398Y290972D02*
Y298059D01*
X247602Y290972D02*
Y298059D01*
X235398Y290972D02*
X247602D01*
X235398Y298059D02*
X247602D01*
X45161Y95539D02*
Y107744D01*
X52248Y95539D02*
Y107744D01*
X45161D02*
X52248D01*
X45161Y95539D02*
X52248D01*
X234043Y74398D02*
Y86602D01*
X226957Y74398D02*
Y86602D01*
Y74398D02*
X234043D01*
X226957Y86602D02*
X234043D01*
X179862Y73299D02*
X199547D01*
X179862Y92984D02*
X199547D01*
Y73299D02*
Y92984D01*
X179862Y73299D02*
Y92984D01*
D14*
X-13933Y12157D02*
X-2122D01*
X-13933D02*
Y31842D01*
X-2122D01*
Y41685D01*
Y12157D02*
Y31842D01*
Y4284D02*
Y12157D01*
Y4284D02*
X45122D01*
Y41685D01*
X-2122D02*
X45122D01*
M02*
