M48
;Layer_Color=9474304
;FILE_FORMAT=2:5
INCH,LZ
;TYPE=PLATED
T1F00S00C0.01400
T2F00S00C0.02756
T3F00S00C0.02800
T4F00S00C0.03543
T5F00S00C0.12500
;TYPE=NON_PLATED
T6F00S00C0.06299
%
T01
X0146Y00995
X01715Y0098
X0175205Y0091642
X0260716Y023316
X0166Y0228
X0173Y02165
X01815Y0212
X0169Y0245
X0155Y01675
X021048Y017202
X023007Y0300269
T02
X00025Y0125
Y013
Y0135
Y014
X00045Y0237
Y0242
Y0247
Y0252
T03
X00365Y009
X0027Y0105
X0047205Y0120142
X0137205Y0118642
Y0103642
X01455Y0107
X0157Y00985
X0171705Y0074642
X0165Y0067
X01645Y005
X0156Y0045
X0144358Y0041705
X0197205Y0067142
X0213705Y0089142
X0212205Y0108642
X0203205Y0104142
X0234705Y0092642
X0240205Y0065142
X02465Y02015
X02535Y02095
X0261Y01995
X0204Y0171
X0064158Y0182342
X0055Y02135
X00625Y02395
X0033Y0260354
X00185Y0286
X0007Y01925
X023Y03085
X0266Y0326
T04
X0003Y00595
X0013
X00485Y0079
X00585
X0076Y0088
X0086
X0074205Y0129642
X01075Y00995
X01175
X01275
Y00885
X01175
X01075
X0147705Y0088642
X0157705
X0167705
X02162Y0028142
Y0018142
Y0008142
X0191705Y0150142
X0181705
X0171705
X0161705
X0151705
X0141705
X0131705
Y0160142
Y0170142
Y0180142
Y0190142
Y0200142
Y0210142
Y0220142
Y0230142
Y0240142
Y0250142
Y0260142
Y0270142
Y0280142
X0181705Y0270142
X0191705
Y0260142
Y0250142
Y0240142
Y0230142
Y0220142
Y0210142
Y0200142
Y0190142
Y0180142
Y0170142
Y0160142
X0181705Y0230142
Y0240142
Y0250142
X0191705Y0280142
X-0001795
Y0270142
X0074205Y0159642
Y0149642
Y0139642
X00375Y0311
X00275
X00175
X-0001795Y0310142
Y0300142
Y0290142
Y0320142
X0091Y0325
X0101
X0111
X01435Y02965
X01535
X0177
X0187
T05
X0055705Y0058142
X0215705
Y0278142
X0055705
T06
X0009689Y0022
X0033311
M30
