G04*
G04 #@! TF.GenerationSoftware,Altium Limited,Altium Designer,21.9.2 (33)*
G04*
G04 Layer_Color=16711935*
%FSLAX25Y25*%
%MOIN*%
G70*
G04*
G04 #@! TF.SameCoordinates,2E303187-FE1F-4BD8-B44E-E95B7E70DBC6*
G04*
G04*
G04 #@! TF.FilePolarity,Negative*
G04*
G01*
G75*
%ADD45R,0.06706X0.06706*%
%ADD63C,0.06800*%
%ADD64C,0.06706*%
%ADD65C,0.07099*%
%ADD66R,0.06706X0.06706*%
%ADD67C,0.25800*%
%ADD68C,0.04147*%
%ADD69C,0.03300*%
%ADD98R,0.17335X0.13398*%
D45*
X187000Y296500D02*
D03*
X17500Y311000D02*
D03*
X127500Y99500D02*
D03*
X86000Y88000D02*
D03*
X58500Y79000D02*
D03*
X13000Y59500D02*
D03*
X167705Y88642D02*
D03*
X127500Y88500D02*
D03*
X153500Y296500D02*
D03*
X111000Y325000D02*
D03*
D63*
X191705Y260142D02*
D03*
X181705Y270142D02*
D03*
X131705Y280142D02*
D03*
Y270142D02*
D03*
Y260142D02*
D03*
Y250142D02*
D03*
Y240142D02*
D03*
Y230142D02*
D03*
Y220142D02*
D03*
Y210142D02*
D03*
Y200142D02*
D03*
Y190142D02*
D03*
Y180142D02*
D03*
Y170142D02*
D03*
Y160142D02*
D03*
Y150142D02*
D03*
X141705D02*
D03*
X151705D02*
D03*
X161705D02*
D03*
X181705D02*
D03*
X191705D02*
D03*
Y160142D02*
D03*
Y170142D02*
D03*
Y180142D02*
D03*
Y190142D02*
D03*
Y200142D02*
D03*
Y210142D02*
D03*
Y220142D02*
D03*
Y230142D02*
D03*
Y240142D02*
D03*
Y250142D02*
D03*
Y270142D02*
D03*
Y280142D02*
D03*
X171705Y150142D02*
D03*
X181705Y250142D02*
D03*
Y240142D02*
D03*
Y230142D02*
D03*
D64*
X177000Y296500D02*
D03*
X37500Y311000D02*
D03*
X27500D02*
D03*
X107500Y99500D02*
D03*
X117500D02*
D03*
X76000Y88000D02*
D03*
X48500Y79000D02*
D03*
X3000Y59500D02*
D03*
X216200Y18142D02*
D03*
Y28142D02*
D03*
X-1795Y280142D02*
D03*
Y290142D02*
D03*
Y300142D02*
D03*
Y310142D02*
D03*
Y320142D02*
D03*
X157705Y88642D02*
D03*
X147705D02*
D03*
X117500Y88500D02*
D03*
X107500D02*
D03*
X143500Y296500D02*
D03*
X74205Y159642D02*
D03*
Y149642D02*
D03*
Y139642D02*
D03*
X101000Y325000D02*
D03*
X91000D02*
D03*
D65*
X33311Y22000D02*
D03*
X9689D02*
D03*
D66*
X216200Y8142D02*
D03*
X-1795Y270142D02*
D03*
X74205Y129642D02*
D03*
D67*
X215705Y58142D02*
D03*
X55705D02*
D03*
X215705Y278142D02*
D03*
X55705D02*
D03*
D68*
X2500Y140000D02*
D03*
Y135000D02*
D03*
Y130000D02*
D03*
Y125000D02*
D03*
X4500Y252000D02*
D03*
Y247000D02*
D03*
Y242000D02*
D03*
Y237000D02*
D03*
D69*
X171500Y98000D02*
D03*
X175205Y91642D02*
D03*
D98*
X32500Y245354D02*
D03*
Y130000D02*
D03*
M02*
