G04*
G04 #@! TF.GenerationSoftware,Altium Limited,Altium Designer,21.9.2 (33)*
G04*
G04 Layer_Color=65535*
%FSLAX25Y25*%
%MOIN*%
G70*
G04*
G04 #@! TF.SameCoordinates,2E303187-FE1F-4BD8-B44E-E95B7E70DBC6*
G04*
G04*
G04 #@! TF.FilePolarity,Positive*
G04*
G01*
G75*
%ADD10C,0.00984*%
%ADD11C,0.00787*%
%ADD12C,0.01575*%
%ADD13C,0.00394*%
%ADD14C,0.00500*%
%ADD15C,0.01000*%
G36*
X-10294Y283915D02*
X-10205D01*
X-10109Y283907D01*
X-10005Y283900D01*
X-9769Y283878D01*
X-9524Y283841D01*
X-9288Y283796D01*
X-9177Y283767D01*
X-9066Y283730D01*
X-9058D01*
X-9043Y283722D01*
X-9014Y283708D01*
X-8977Y283693D01*
X-8925Y283678D01*
X-8873Y283648D01*
X-8747Y283589D01*
X-8614Y283515D01*
X-8466Y283419D01*
X-8333Y283308D01*
X-8207Y283175D01*
Y283167D01*
X-8192Y283160D01*
X-8178Y283138D01*
X-8163Y283108D01*
X-8141Y283071D01*
X-8111Y283034D01*
X-8059Y282923D01*
X-8007Y282790D01*
X-7956Y282635D01*
X-7926Y282450D01*
X-7911Y282250D01*
Y282176D01*
X-7919Y282124D01*
X-7926Y282065D01*
X-7941Y281991D01*
X-7956Y281909D01*
X-7978Y281821D01*
X-8007Y281732D01*
X-8037Y281636D01*
X-8081Y281539D01*
X-8133Y281443D01*
X-8192Y281347D01*
X-8266Y281251D01*
X-8348Y281162D01*
X-8437Y281081D01*
X-8444Y281073D01*
X-8466Y281058D01*
X-8503Y281036D01*
X-8562Y280999D01*
X-8629Y280962D01*
X-8718Y280925D01*
X-8821Y280873D01*
X-8940Y280829D01*
X-9073Y280785D01*
X-9228Y280740D01*
X-9399Y280696D01*
X-9591Y280659D01*
X-9798Y280622D01*
X-10020Y280600D01*
X-10264Y280585D01*
X-10523Y280577D01*
X-10531D01*
X-10560D01*
X-10612D01*
X-10671D01*
X-10753Y280585D01*
X-10842D01*
X-10938Y280592D01*
X-11049Y280600D01*
X-11278Y280622D01*
X-11522Y280659D01*
X-11767Y280703D01*
X-11878Y280733D01*
X-11989Y280762D01*
X-11996D01*
X-12011Y280770D01*
X-12040Y280785D01*
X-12077Y280799D01*
X-12129Y280814D01*
X-12181Y280844D01*
X-12307Y280903D01*
X-12440Y280977D01*
X-12581Y281073D01*
X-12721Y281184D01*
X-12840Y281317D01*
Y281325D01*
X-12854Y281332D01*
X-12869Y281354D01*
X-12884Y281384D01*
X-12914Y281421D01*
X-12936Y281465D01*
X-12995Y281576D01*
X-13047Y281710D01*
X-13099Y281865D01*
X-13128Y282050D01*
X-13143Y282250D01*
Y282316D01*
X-13136Y282398D01*
X-13121Y282494D01*
X-13099Y282605D01*
X-13069Y282723D01*
X-13032Y282849D01*
X-12973Y282968D01*
Y282975D01*
X-12965Y282982D01*
X-12943Y283019D01*
X-12906Y283079D01*
X-12854Y283153D01*
X-12780Y283234D01*
X-12699Y283323D01*
X-12603Y283404D01*
X-12492Y283486D01*
X-12477Y283493D01*
X-12440Y283523D01*
X-12373Y283552D01*
X-12277Y283604D01*
X-12166Y283648D01*
X-12040Y283708D01*
X-11892Y283759D01*
X-11730Y283804D01*
X-11722D01*
X-11707Y283811D01*
X-11685Y283819D01*
X-11648Y283826D01*
X-11604Y283833D01*
X-11552Y283841D01*
X-11485Y283856D01*
X-11411Y283863D01*
X-11330Y283878D01*
X-11241Y283885D01*
X-11138Y283893D01*
X-11034Y283907D01*
X-10916Y283915D01*
X-10797D01*
X-10664Y283922D01*
X-10523D01*
X-10516D01*
X-10486D01*
X-10435D01*
X-10375D01*
X-10294Y283915D01*
D02*
G37*
G36*
X-8000Y276507D02*
X-8007D01*
X-8037D01*
X-8081D01*
X-8141Y276515D01*
X-8207Y276522D01*
X-8281Y276537D01*
X-8355Y276552D01*
X-8437Y276581D01*
X-8444D01*
X-8451Y276589D01*
X-8496Y276604D01*
X-8562Y276633D01*
X-8651Y276678D01*
X-8755Y276737D01*
X-8873Y276811D01*
X-8992Y276892D01*
X-9117Y276996D01*
X-9125D01*
X-9132Y277011D01*
X-9177Y277048D01*
X-9243Y277114D01*
X-9339Y277210D01*
X-9450Y277321D01*
X-9584Y277462D01*
X-9732Y277632D01*
X-9887Y277817D01*
X-9894Y277825D01*
X-9917Y277854D01*
X-9954Y277899D01*
X-9998Y277950D01*
X-10057Y278017D01*
X-10124Y278098D01*
X-10198Y278180D01*
X-10279Y278276D01*
X-10457Y278461D01*
X-10634Y278646D01*
X-10723Y278735D01*
X-10812Y278816D01*
X-10893Y278890D01*
X-10975Y278949D01*
X-10982D01*
X-10990Y278964D01*
X-11012Y278979D01*
X-11041Y278994D01*
X-11123Y279046D01*
X-11219Y279105D01*
X-11337Y279157D01*
X-11463Y279208D01*
X-11604Y279238D01*
X-11737Y279253D01*
X-11744D01*
X-11752D01*
X-11796Y279245D01*
X-11870Y279238D01*
X-11952Y279216D01*
X-12055Y279186D01*
X-12159Y279134D01*
X-12262Y279068D01*
X-12366Y278979D01*
X-12381Y278964D01*
X-12410Y278927D01*
X-12447Y278875D01*
X-12499Y278794D01*
X-12544Y278690D01*
X-12588Y278572D01*
X-12618Y278431D01*
X-12625Y278276D01*
Y278232D01*
X-12618Y278202D01*
X-12610Y278113D01*
X-12588Y278010D01*
X-12558Y277899D01*
X-12507Y277773D01*
X-12440Y277654D01*
X-12351Y277543D01*
X-12336Y277529D01*
X-12299Y277499D01*
X-12240Y277455D01*
X-12151Y277410D01*
X-12048Y277358D01*
X-11915Y277314D01*
X-11767Y277284D01*
X-11596Y277270D01*
X-11663Y276626D01*
X-11670D01*
X-11693Y276633D01*
X-11730D01*
X-11781Y276641D01*
X-11841Y276655D01*
X-11907Y276670D01*
X-11989Y276692D01*
X-12070Y276715D01*
X-12248Y276774D01*
X-12425Y276863D01*
X-12514Y276914D01*
X-12603Y276981D01*
X-12684Y277048D01*
X-12758Y277122D01*
X-12766Y277129D01*
X-12773Y277144D01*
X-12795Y277166D01*
X-12817Y277203D01*
X-12847Y277247D01*
X-12877Y277299D01*
X-12914Y277358D01*
X-12951Y277432D01*
X-12988Y277514D01*
X-13025Y277603D01*
X-13054Y277699D01*
X-13084Y277802D01*
X-13106Y277913D01*
X-13128Y278032D01*
X-13136Y278158D01*
X-13143Y278291D01*
Y278365D01*
X-13136Y278417D01*
X-13128Y278476D01*
X-13121Y278550D01*
X-13106Y278631D01*
X-13091Y278713D01*
X-13039Y278905D01*
X-12965Y279097D01*
X-12921Y279194D01*
X-12869Y279290D01*
X-12803Y279379D01*
X-12729Y279460D01*
X-12721Y279467D01*
X-12714Y279482D01*
X-12684Y279497D01*
X-12655Y279527D01*
X-12618Y279564D01*
X-12566Y279601D01*
X-12514Y279638D01*
X-12447Y279682D01*
X-12307Y279756D01*
X-12129Y279830D01*
X-12040Y279860D01*
X-11937Y279874D01*
X-11833Y279889D01*
X-11722Y279897D01*
X-11707D01*
X-11670D01*
X-11611Y279889D01*
X-11530Y279882D01*
X-11441Y279867D01*
X-11337Y279837D01*
X-11226Y279808D01*
X-11115Y279763D01*
X-11101Y279756D01*
X-11064Y279741D01*
X-11004Y279712D01*
X-10923Y279667D01*
X-10834Y279608D01*
X-10723Y279534D01*
X-10612Y279445D01*
X-10486Y279342D01*
X-10472Y279327D01*
X-10427Y279290D01*
X-10390Y279253D01*
X-10353Y279216D01*
X-10309Y279171D01*
X-10250Y279112D01*
X-10190Y279053D01*
X-10124Y278979D01*
X-10050Y278905D01*
X-9968Y278816D01*
X-9887Y278720D01*
X-9791Y278616D01*
X-9695Y278498D01*
X-9591Y278380D01*
X-9584Y278372D01*
X-9569Y278357D01*
X-9547Y278328D01*
X-9517Y278291D01*
X-9473Y278246D01*
X-9428Y278195D01*
X-9332Y278076D01*
X-9221Y277950D01*
X-9110Y277832D01*
X-9014Y277728D01*
X-8977Y277684D01*
X-8940Y277647D01*
X-8932Y277640D01*
X-8910Y277617D01*
X-8881Y277588D01*
X-8836Y277551D01*
X-8784Y277514D01*
X-8733Y277469D01*
X-8607Y277381D01*
Y279904D01*
X-8000D01*
Y276507D01*
D02*
G37*
G36*
X12492Y142494D02*
X12542D01*
X12603Y142489D01*
X12664Y142478D01*
X12737Y142472D01*
X12814Y142456D01*
X12898Y142445D01*
X13075Y142400D01*
X13258Y142345D01*
X13442Y142267D01*
X13447Y142261D01*
X13464Y142256D01*
X13486Y142245D01*
X13519Y142222D01*
X13564Y142200D01*
X13608Y142173D01*
X13713Y142095D01*
X13836Y142000D01*
X13952Y141884D01*
X14069Y141751D01*
X14119Y141673D01*
X14168Y141595D01*
X14174Y141590D01*
X14180Y141573D01*
X14191Y141551D01*
X14207Y141518D01*
X14224Y141473D01*
X14246Y141423D01*
X14268Y141368D01*
X14291Y141301D01*
X14313Y141229D01*
X14330Y141151D01*
X14352Y141068D01*
X14368Y140979D01*
X14396Y140785D01*
X14407Y140685D01*
Y140507D01*
X14402Y140474D01*
Y140430D01*
X14390Y140324D01*
X14374Y140208D01*
X14346Y140086D01*
X14313Y139953D01*
X14268Y139825D01*
Y139819D01*
X14263Y139808D01*
X14257Y139792D01*
X14246Y139769D01*
X14213Y139708D01*
X14174Y139631D01*
X14119Y139547D01*
X14052Y139459D01*
X13980Y139375D01*
X13891Y139298D01*
X13880Y139287D01*
X13847Y139264D01*
X13797Y139231D01*
X13724Y139187D01*
X13636Y139142D01*
X13525Y139092D01*
X13403Y139042D01*
X13264Y139004D01*
X13142Y139464D01*
X13147D01*
X13153Y139470D01*
X13170Y139475D01*
X13192Y139481D01*
X13242Y139497D01*
X13308Y139520D01*
X13386Y139553D01*
X13458Y139592D01*
X13536Y139631D01*
X13602Y139681D01*
X13608Y139686D01*
X13630Y139703D01*
X13658Y139736D01*
X13697Y139775D01*
X13741Y139825D01*
X13786Y139892D01*
X13830Y139964D01*
X13869Y140047D01*
X13874Y140058D01*
X13885Y140086D01*
X13902Y140136D01*
X13924Y140202D01*
X13941Y140280D01*
X13958Y140369D01*
X13969Y140469D01*
X13974Y140574D01*
Y140635D01*
X13969Y140663D01*
Y140696D01*
X13963Y140779D01*
X13947Y140874D01*
X13930Y140979D01*
X13902Y141079D01*
X13863Y141179D01*
X13858Y141190D01*
X13847Y141224D01*
X13819Y141268D01*
X13791Y141323D01*
X13747Y141390D01*
X13702Y141462D01*
X13647Y141529D01*
X13586Y141590D01*
X13580Y141595D01*
X13558Y141618D01*
X13519Y141645D01*
X13475Y141679D01*
X13419Y141718D01*
X13353Y141756D01*
X13281Y141795D01*
X13203Y141834D01*
X13197D01*
X13186Y141840D01*
X13170Y141845D01*
X13142Y141856D01*
X13108Y141867D01*
X13070Y141878D01*
X13025Y141895D01*
X12975Y141906D01*
X12859Y141934D01*
X12725Y141956D01*
X12587Y141973D01*
X12431Y141978D01*
X12426D01*
X12409D01*
X12381D01*
X12348Y141973D01*
X12304D01*
X12248Y141967D01*
X12193Y141962D01*
X12132Y141956D01*
X11993Y141934D01*
X11849Y141906D01*
X11704Y141862D01*
X11566Y141806D01*
X11560D01*
X11549Y141795D01*
X11532Y141790D01*
X11510Y141773D01*
X11449Y141734D01*
X11371Y141673D01*
X11288Y141601D01*
X11205Y141512D01*
X11127Y141407D01*
X11055Y141290D01*
Y141285D01*
X11050Y141273D01*
X11038Y141257D01*
X11027Y141229D01*
X11016Y141201D01*
X11005Y141162D01*
X10972Y141074D01*
X10944Y140963D01*
X10916Y140841D01*
X10894Y140707D01*
X10888Y140569D01*
Y140513D01*
X10894Y140480D01*
Y140446D01*
X10905Y140363D01*
X10916Y140263D01*
X10938Y140158D01*
X10972Y140041D01*
X11011Y139925D01*
Y139919D01*
X11016Y139908D01*
X11022Y139897D01*
X11033Y139875D01*
X11061Y139814D01*
X11094Y139747D01*
X11133Y139670D01*
X11177Y139586D01*
X11227Y139508D01*
X11283Y139442D01*
X12004D01*
Y140574D01*
X12459D01*
Y138943D01*
X11033D01*
X11027Y138948D01*
X11022Y138959D01*
X11005Y138981D01*
X10983Y139009D01*
X10961Y139042D01*
X10933Y139081D01*
X10900Y139131D01*
X10866Y139181D01*
X10794Y139298D01*
X10717Y139431D01*
X10644Y139570D01*
X10583Y139719D01*
Y139725D01*
X10578Y139736D01*
X10572Y139758D01*
X10561Y139786D01*
X10550Y139825D01*
X10533Y139869D01*
X10522Y139919D01*
X10511Y139969D01*
X10483Y140091D01*
X10456Y140230D01*
X10439Y140380D01*
X10433Y140535D01*
Y140591D01*
X10439Y140630D01*
Y140680D01*
X10445Y140741D01*
X10456Y140807D01*
X10461Y140879D01*
X10494Y141040D01*
X10533Y141212D01*
X10594Y141390D01*
X10628Y141479D01*
X10672Y141568D01*
X10678Y141573D01*
X10683Y141590D01*
X10700Y141612D01*
X10717Y141645D01*
X10744Y141684D01*
X10772Y141723D01*
X10850Y141828D01*
X10950Y141939D01*
X11072Y142056D01*
X11210Y142167D01*
X11371Y142267D01*
X11377D01*
X11394Y142278D01*
X11416Y142289D01*
X11455Y142306D01*
X11493Y142322D01*
X11549Y142339D01*
X11604Y142361D01*
X11671Y142383D01*
X11743Y142406D01*
X11826Y142428D01*
X11910Y142445D01*
X11998Y142461D01*
X12193Y142489D01*
X12398Y142500D01*
X12404D01*
X12426D01*
X12454D01*
X12492Y142494D01*
D02*
G37*
G36*
X14341Y136024D02*
X14335Y135924D01*
X14330Y135813D01*
X14318Y135702D01*
X14302Y135591D01*
X14285Y135496D01*
Y135491D01*
X14280Y135480D01*
Y135463D01*
X14268Y135441D01*
X14252Y135380D01*
X14224Y135302D01*
X14185Y135213D01*
X14135Y135119D01*
X14080Y135025D01*
X14008Y134936D01*
X14002Y134930D01*
X13996Y134925D01*
X13980Y134908D01*
X13963Y134886D01*
X13908Y134830D01*
X13830Y134764D01*
X13736Y134692D01*
X13625Y134614D01*
X13497Y134542D01*
X13353Y134481D01*
X13347D01*
X13336Y134475D01*
X13314Y134464D01*
X13281Y134459D01*
X13242Y134442D01*
X13197Y134431D01*
X13147Y134420D01*
X13086Y134403D01*
X13025Y134386D01*
X12953Y134375D01*
X12798Y134348D01*
X12626Y134331D01*
X12437Y134325D01*
X12431D01*
X12420D01*
X12393D01*
X12365D01*
X12326Y134331D01*
X12282D01*
X12176Y134336D01*
X12054Y134353D01*
X11926Y134370D01*
X11793Y134398D01*
X11660Y134431D01*
X11654D01*
X11643Y134436D01*
X11627Y134442D01*
X11604Y134448D01*
X11543Y134470D01*
X11466Y134503D01*
X11377Y134536D01*
X11288Y134581D01*
X11194Y134636D01*
X11105Y134692D01*
X11094Y134697D01*
X11066Y134720D01*
X11027Y134753D01*
X10977Y134797D01*
X10922Y134847D01*
X10866Y134908D01*
X10805Y134969D01*
X10755Y135041D01*
X10750Y135052D01*
X10733Y135075D01*
X10711Y135114D01*
X10683Y135169D01*
X10650Y135236D01*
X10622Y135313D01*
X10589Y135402D01*
X10561Y135502D01*
Y135513D01*
X10555Y135530D01*
X10550Y135546D01*
X10544Y135602D01*
X10533Y135680D01*
X10522Y135768D01*
X10511Y135874D01*
X10505Y135990D01*
X10500Y136118D01*
Y137500D01*
X14341D01*
Y136024D01*
D02*
G37*
G36*
X12548Y131994D02*
X12603D01*
X12659Y131989D01*
X12731Y131983D01*
X12803Y131972D01*
X12964Y131945D01*
X13142Y131906D01*
X13319Y131850D01*
X13491Y131772D01*
X13497Y131767D01*
X13514Y131761D01*
X13536Y131750D01*
X13564Y131728D01*
X13602Y131706D01*
X13647Y131678D01*
X13747Y131606D01*
X13858Y131512D01*
X13969Y131401D01*
X14080Y131273D01*
X14174Y131123D01*
X14180Y131118D01*
X14185Y131101D01*
X14196Y131079D01*
X14213Y131051D01*
X14230Y131007D01*
X14246Y130962D01*
X14268Y130907D01*
X14291Y130846D01*
X14313Y130779D01*
X14335Y130707D01*
X14368Y130551D01*
X14396Y130374D01*
X14407Y130191D01*
Y130135D01*
X14402Y130096D01*
X14396Y130046D01*
X14390Y129985D01*
X14385Y129924D01*
X14368Y129852D01*
X14335Y129702D01*
X14285Y129536D01*
X14252Y129453D01*
X14213Y129375D01*
X14163Y129297D01*
X14113Y129219D01*
X14108Y129214D01*
X14102Y129203D01*
X14085Y129181D01*
X14058Y129153D01*
X14030Y129125D01*
X13991Y129086D01*
X13947Y129047D01*
X13902Y129003D01*
X13847Y128959D01*
X13780Y128914D01*
X13713Y128864D01*
X13641Y128820D01*
X13558Y128781D01*
X13475Y128737D01*
X13386Y128703D01*
X13286Y128670D01*
X13170Y129169D01*
X13175D01*
X13186Y129175D01*
X13208Y129186D01*
X13236Y129197D01*
X13270Y129208D01*
X13314Y129225D01*
X13403Y129269D01*
X13502Y129325D01*
X13602Y129392D01*
X13697Y129475D01*
X13780Y129564D01*
X13791Y129575D01*
X13813Y129608D01*
X13841Y129663D01*
X13880Y129736D01*
X13913Y129830D01*
X13947Y129935D01*
X13969Y130063D01*
X13974Y130202D01*
Y130246D01*
X13969Y130274D01*
Y130313D01*
X13963Y130357D01*
X13947Y130463D01*
X13924Y130579D01*
X13885Y130701D01*
X13830Y130829D01*
X13758Y130946D01*
Y130951D01*
X13747Y130957D01*
X13719Y130996D01*
X13675Y131045D01*
X13608Y131106D01*
X13525Y131179D01*
X13430Y131245D01*
X13314Y131306D01*
X13186Y131362D01*
X13181D01*
X13170Y131367D01*
X13153Y131373D01*
X13125Y131378D01*
X13092Y131389D01*
X13053Y131401D01*
X12959Y131417D01*
X12848Y131439D01*
X12725Y131462D01*
X12592Y131473D01*
X12448Y131478D01*
X12443D01*
X12426D01*
X12398D01*
X12365D01*
X12326Y131473D01*
X12276D01*
X12220Y131467D01*
X12159Y131462D01*
X12026Y131445D01*
X11882Y131417D01*
X11738Y131384D01*
X11593Y131340D01*
X11588D01*
X11577Y131334D01*
X11560Y131323D01*
X11532Y131312D01*
X11466Y131279D01*
X11388Y131228D01*
X11299Y131167D01*
X11205Y131090D01*
X11122Y131001D01*
X11044Y130896D01*
Y130890D01*
X11038Y130879D01*
X11027Y130862D01*
X11016Y130840D01*
X11005Y130812D01*
X10988Y130779D01*
X10955Y130701D01*
X10922Y130601D01*
X10894Y130490D01*
X10872Y130368D01*
X10866Y130241D01*
Y130202D01*
X10872Y130168D01*
Y130130D01*
X10877Y130091D01*
X10900Y129991D01*
X10927Y129874D01*
X10972Y129758D01*
X11033Y129636D01*
X11066Y129575D01*
X11111Y129519D01*
X11116Y129514D01*
X11122Y129508D01*
X11138Y129491D01*
X11155Y129469D01*
X11183Y129447D01*
X11216Y129419D01*
X11249Y129386D01*
X11294Y129358D01*
X11344Y129325D01*
X11399Y129286D01*
X11455Y129253D01*
X11521Y129219D01*
X11593Y129192D01*
X11671Y129164D01*
X11754Y129136D01*
X11843Y129114D01*
X11715Y128603D01*
X11710D01*
X11688Y128609D01*
X11654Y128620D01*
X11610Y128637D01*
X11560Y128653D01*
X11499Y128675D01*
X11432Y128703D01*
X11360Y128737D01*
X11205Y128814D01*
X11050Y128914D01*
X10972Y128975D01*
X10894Y129036D01*
X10827Y129103D01*
X10761Y129181D01*
X10755Y129186D01*
X10744Y129197D01*
X10733Y129225D01*
X10711Y129253D01*
X10683Y129297D01*
X10655Y129342D01*
X10628Y129403D01*
X10600Y129464D01*
X10567Y129536D01*
X10539Y129613D01*
X10511Y129697D01*
X10483Y129786D01*
X10461Y129880D01*
X10450Y129980D01*
X10439Y130085D01*
X10433Y130196D01*
Y130257D01*
X10439Y130302D01*
Y130352D01*
X10445Y130413D01*
X10456Y130479D01*
X10467Y130557D01*
X10494Y130718D01*
X10539Y130884D01*
X10600Y131051D01*
X10639Y131129D01*
X10683Y131206D01*
X10689Y131212D01*
X10694Y131223D01*
X10711Y131245D01*
X10733Y131267D01*
X10755Y131301D01*
X10789Y131340D01*
X10827Y131384D01*
X10872Y131428D01*
X10922Y131473D01*
X10972Y131523D01*
X11099Y131623D01*
X11249Y131717D01*
X11416Y131800D01*
X11421D01*
X11438Y131811D01*
X11466Y131817D01*
X11499Y131834D01*
X11543Y131845D01*
X11599Y131861D01*
X11660Y131883D01*
X11727Y131900D01*
X11799Y131917D01*
X11882Y131939D01*
X12054Y131967D01*
X12248Y131989D01*
X12448Y132000D01*
X12454D01*
X12476D01*
X12509D01*
X12548Y131994D01*
D02*
G37*
G36*
X14341Y126451D02*
X11549Y125452D01*
X11543D01*
X11532Y125446D01*
X11516Y125441D01*
X11493Y125429D01*
X11460Y125424D01*
X11427Y125413D01*
X11344Y125385D01*
X11249Y125352D01*
X11144Y125318D01*
X10922Y125252D01*
X10927D01*
X10938Y125246D01*
X10955Y125241D01*
X10977Y125235D01*
X11038Y125218D01*
X11122Y125191D01*
X11216Y125163D01*
X11321Y125130D01*
X11432Y125091D01*
X11549Y125046D01*
X14341Y124003D01*
Y123487D01*
X10500Y124985D01*
Y125518D01*
X14341Y127006D01*
Y126451D01*
D02*
G37*
G36*
X14992Y254495D02*
X15042D01*
X15103Y254489D01*
X15165Y254478D01*
X15237Y254472D01*
X15314Y254456D01*
X15398Y254445D01*
X15575Y254400D01*
X15758Y254345D01*
X15942Y254267D01*
X15947Y254261D01*
X15964Y254256D01*
X15986Y254245D01*
X16019Y254222D01*
X16064Y254200D01*
X16108Y254173D01*
X16214Y254095D01*
X16336Y254000D01*
X16452Y253884D01*
X16569Y253751D01*
X16619Y253673D01*
X16669Y253595D01*
X16674Y253590D01*
X16680Y253573D01*
X16691Y253551D01*
X16707Y253518D01*
X16724Y253473D01*
X16746Y253423D01*
X16769Y253368D01*
X16791Y253301D01*
X16813Y253229D01*
X16829Y253151D01*
X16852Y253068D01*
X16868Y252979D01*
X16896Y252785D01*
X16907Y252685D01*
Y252507D01*
X16902Y252474D01*
Y252430D01*
X16891Y252324D01*
X16874Y252208D01*
X16846Y252086D01*
X16813Y251953D01*
X16769Y251825D01*
Y251819D01*
X16763Y251808D01*
X16757Y251792D01*
X16746Y251769D01*
X16713Y251708D01*
X16674Y251631D01*
X16619Y251547D01*
X16552Y251459D01*
X16480Y251375D01*
X16391Y251298D01*
X16380Y251287D01*
X16347Y251264D01*
X16297Y251231D01*
X16225Y251187D01*
X16136Y251142D01*
X16025Y251092D01*
X15903Y251042D01*
X15764Y251004D01*
X15642Y251464D01*
X15647D01*
X15653Y251470D01*
X15670Y251475D01*
X15692Y251481D01*
X15742Y251497D01*
X15808Y251520D01*
X15886Y251553D01*
X15958Y251592D01*
X16036Y251631D01*
X16102Y251681D01*
X16108Y251686D01*
X16130Y251703D01*
X16158Y251736D01*
X16197Y251775D01*
X16241Y251825D01*
X16286Y251891D01*
X16330Y251964D01*
X16369Y252047D01*
X16374Y252058D01*
X16386Y252086D01*
X16402Y252136D01*
X16424Y252202D01*
X16441Y252280D01*
X16458Y252369D01*
X16469Y252469D01*
X16474Y252574D01*
Y252635D01*
X16469Y252663D01*
Y252696D01*
X16463Y252780D01*
X16446Y252874D01*
X16430Y252979D01*
X16402Y253079D01*
X16363Y253179D01*
X16358Y253190D01*
X16347Y253223D01*
X16319Y253268D01*
X16291Y253323D01*
X16247Y253390D01*
X16202Y253462D01*
X16147Y253529D01*
X16086Y253590D01*
X16080Y253595D01*
X16058Y253618D01*
X16019Y253645D01*
X15975Y253679D01*
X15919Y253717D01*
X15853Y253756D01*
X15780Y253795D01*
X15703Y253834D01*
X15697D01*
X15686Y253840D01*
X15670Y253845D01*
X15642Y253856D01*
X15608Y253867D01*
X15570Y253878D01*
X15525Y253895D01*
X15475Y253906D01*
X15359Y253934D01*
X15226Y253956D01*
X15087Y253973D01*
X14931Y253978D01*
X14926D01*
X14909D01*
X14882D01*
X14848Y253973D01*
X14804D01*
X14748Y253967D01*
X14693Y253962D01*
X14632Y253956D01*
X14493Y253934D01*
X14349Y253906D01*
X14204Y253862D01*
X14066Y253806D01*
X14060D01*
X14049Y253795D01*
X14032Y253790D01*
X14010Y253773D01*
X13949Y253734D01*
X13871Y253673D01*
X13788Y253601D01*
X13705Y253512D01*
X13627Y253407D01*
X13555Y253290D01*
Y253285D01*
X13549Y253274D01*
X13538Y253257D01*
X13527Y253229D01*
X13516Y253201D01*
X13505Y253162D01*
X13472Y253074D01*
X13444Y252963D01*
X13416Y252840D01*
X13394Y252707D01*
X13388Y252569D01*
Y252513D01*
X13394Y252480D01*
Y252447D01*
X13405Y252363D01*
X13416Y252263D01*
X13439Y252158D01*
X13472Y252041D01*
X13511Y251925D01*
Y251919D01*
X13516Y251908D01*
X13522Y251897D01*
X13533Y251875D01*
X13561Y251814D01*
X13594Y251747D01*
X13633Y251670D01*
X13677Y251586D01*
X13727Y251509D01*
X13783Y251442D01*
X14504D01*
Y252574D01*
X14959D01*
Y250942D01*
X13533D01*
X13527Y250948D01*
X13522Y250959D01*
X13505Y250981D01*
X13483Y251009D01*
X13461Y251042D01*
X13433Y251081D01*
X13400Y251131D01*
X13366Y251181D01*
X13294Y251298D01*
X13216Y251431D01*
X13144Y251570D01*
X13083Y251719D01*
Y251725D01*
X13078Y251736D01*
X13072Y251758D01*
X13061Y251786D01*
X13050Y251825D01*
X13033Y251869D01*
X13022Y251919D01*
X13011Y251969D01*
X12983Y252091D01*
X12956Y252230D01*
X12939Y252380D01*
X12933Y252535D01*
Y252591D01*
X12939Y252630D01*
Y252680D01*
X12945Y252741D01*
X12956Y252807D01*
X12961Y252879D01*
X12994Y253040D01*
X13033Y253212D01*
X13094Y253390D01*
X13128Y253479D01*
X13172Y253568D01*
X13178Y253573D01*
X13183Y253590D01*
X13200Y253612D01*
X13216Y253645D01*
X13244Y253684D01*
X13272Y253723D01*
X13350Y253829D01*
X13450Y253939D01*
X13572Y254056D01*
X13710Y254167D01*
X13871Y254267D01*
X13877D01*
X13893Y254278D01*
X13916Y254289D01*
X13955Y254306D01*
X13994Y254322D01*
X14049Y254339D01*
X14104Y254361D01*
X14171Y254383D01*
X14243Y254406D01*
X14326Y254428D01*
X14410Y254445D01*
X14499Y254461D01*
X14693Y254489D01*
X14898Y254500D01*
X14904D01*
X14926D01*
X14954D01*
X14992Y254495D01*
D02*
G37*
G36*
X16841Y248024D02*
X16835Y247924D01*
X16829Y247813D01*
X16818Y247702D01*
X16802Y247591D01*
X16785Y247497D01*
Y247491D01*
X16780Y247480D01*
Y247463D01*
X16769Y247441D01*
X16752Y247380D01*
X16724Y247302D01*
X16685Y247213D01*
X16635Y247119D01*
X16580Y247025D01*
X16508Y246936D01*
X16502Y246930D01*
X16497Y246925D01*
X16480Y246908D01*
X16463Y246886D01*
X16408Y246831D01*
X16330Y246764D01*
X16236Y246692D01*
X16125Y246614D01*
X15997Y246542D01*
X15853Y246481D01*
X15847D01*
X15836Y246475D01*
X15814Y246464D01*
X15780Y246459D01*
X15742Y246442D01*
X15697Y246431D01*
X15647Y246420D01*
X15586Y246403D01*
X15525Y246387D01*
X15453Y246375D01*
X15298Y246348D01*
X15126Y246331D01*
X14937Y246325D01*
X14931D01*
X14920D01*
X14893D01*
X14865D01*
X14826Y246331D01*
X14782D01*
X14676Y246337D01*
X14554Y246353D01*
X14426Y246370D01*
X14293Y246398D01*
X14160Y246431D01*
X14154D01*
X14143Y246436D01*
X14127Y246442D01*
X14104Y246447D01*
X14043Y246470D01*
X13966Y246503D01*
X13877Y246536D01*
X13788Y246581D01*
X13694Y246636D01*
X13605Y246692D01*
X13594Y246697D01*
X13566Y246720D01*
X13527Y246753D01*
X13477Y246797D01*
X13422Y246847D01*
X13366Y246908D01*
X13305Y246969D01*
X13255Y247041D01*
X13250Y247052D01*
X13233Y247075D01*
X13211Y247113D01*
X13183Y247169D01*
X13150Y247236D01*
X13122Y247313D01*
X13089Y247402D01*
X13061Y247502D01*
Y247513D01*
X13056Y247530D01*
X13050Y247546D01*
X13044Y247602D01*
X13033Y247680D01*
X13022Y247768D01*
X13011Y247874D01*
X13005Y247990D01*
X13000Y248118D01*
Y249500D01*
X16841D01*
Y248024D01*
D02*
G37*
G36*
X15048Y243994D02*
X15103D01*
X15159Y243989D01*
X15231Y243983D01*
X15303Y243972D01*
X15464Y243945D01*
X15642Y243906D01*
X15819Y243850D01*
X15992Y243772D01*
X15997Y243767D01*
X16014Y243761D01*
X16036Y243750D01*
X16064Y243728D01*
X16102Y243706D01*
X16147Y243678D01*
X16247Y243606D01*
X16358Y243512D01*
X16469Y243401D01*
X16580Y243273D01*
X16674Y243123D01*
X16680Y243117D01*
X16685Y243101D01*
X16696Y243079D01*
X16713Y243051D01*
X16730Y243007D01*
X16746Y242962D01*
X16769Y242907D01*
X16791Y242846D01*
X16813Y242779D01*
X16835Y242707D01*
X16868Y242551D01*
X16896Y242374D01*
X16907Y242191D01*
Y242135D01*
X16902Y242096D01*
X16896Y242046D01*
X16891Y241985D01*
X16885Y241924D01*
X16868Y241852D01*
X16835Y241702D01*
X16785Y241536D01*
X16752Y241453D01*
X16713Y241375D01*
X16663Y241297D01*
X16613Y241219D01*
X16608Y241214D01*
X16602Y241203D01*
X16585Y241181D01*
X16558Y241153D01*
X16530Y241125D01*
X16491Y241086D01*
X16446Y241047D01*
X16402Y241003D01*
X16347Y240959D01*
X16280Y240914D01*
X16214Y240864D01*
X16141Y240820D01*
X16058Y240781D01*
X15975Y240737D01*
X15886Y240703D01*
X15786Y240670D01*
X15670Y241170D01*
X15675D01*
X15686Y241175D01*
X15708Y241186D01*
X15736Y241197D01*
X15769Y241208D01*
X15814Y241225D01*
X15903Y241269D01*
X16003Y241325D01*
X16102Y241391D01*
X16197Y241475D01*
X16280Y241564D01*
X16291Y241575D01*
X16313Y241608D01*
X16341Y241664D01*
X16380Y241736D01*
X16413Y241830D01*
X16446Y241935D01*
X16469Y242063D01*
X16474Y242202D01*
Y242246D01*
X16469Y242274D01*
Y242313D01*
X16463Y242357D01*
X16446Y242463D01*
X16424Y242579D01*
X16386Y242701D01*
X16330Y242829D01*
X16258Y242946D01*
Y242951D01*
X16247Y242957D01*
X16219Y242995D01*
X16175Y243045D01*
X16108Y243106D01*
X16025Y243179D01*
X15930Y243245D01*
X15814Y243306D01*
X15686Y243362D01*
X15681D01*
X15670Y243367D01*
X15653Y243373D01*
X15625Y243378D01*
X15592Y243390D01*
X15553Y243401D01*
X15459Y243417D01*
X15348Y243439D01*
X15226Y243462D01*
X15092Y243473D01*
X14948Y243478D01*
X14942D01*
X14926D01*
X14898D01*
X14865D01*
X14826Y243473D01*
X14776D01*
X14720Y243467D01*
X14660Y243462D01*
X14526Y243445D01*
X14382Y243417D01*
X14238Y243384D01*
X14093Y243340D01*
X14088D01*
X14077Y243334D01*
X14060Y243323D01*
X14032Y243312D01*
X13966Y243279D01*
X13888Y243229D01*
X13799Y243167D01*
X13705Y243090D01*
X13622Y243001D01*
X13544Y242896D01*
Y242890D01*
X13538Y242879D01*
X13527Y242862D01*
X13516Y242840D01*
X13505Y242812D01*
X13488Y242779D01*
X13455Y242701D01*
X13422Y242601D01*
X13394Y242490D01*
X13372Y242368D01*
X13366Y242241D01*
Y242202D01*
X13372Y242168D01*
Y242130D01*
X13377Y242091D01*
X13400Y241991D01*
X13427Y241874D01*
X13472Y241758D01*
X13533Y241636D01*
X13566Y241575D01*
X13611Y241519D01*
X13616Y241514D01*
X13622Y241508D01*
X13638Y241491D01*
X13655Y241469D01*
X13683Y241447D01*
X13716Y241419D01*
X13749Y241386D01*
X13794Y241358D01*
X13844Y241325D01*
X13899Y241286D01*
X13955Y241253D01*
X14021Y241219D01*
X14093Y241192D01*
X14171Y241164D01*
X14254Y241136D01*
X14343Y241114D01*
X14216Y240603D01*
X14210D01*
X14188Y240609D01*
X14154Y240620D01*
X14110Y240637D01*
X14060Y240653D01*
X13999Y240676D01*
X13932Y240703D01*
X13860Y240737D01*
X13705Y240814D01*
X13549Y240914D01*
X13472Y240975D01*
X13394Y241036D01*
X13327Y241103D01*
X13261Y241181D01*
X13255Y241186D01*
X13244Y241197D01*
X13233Y241225D01*
X13211Y241253D01*
X13183Y241297D01*
X13155Y241342D01*
X13128Y241403D01*
X13100Y241464D01*
X13067Y241536D01*
X13039Y241614D01*
X13011Y241697D01*
X12983Y241786D01*
X12961Y241880D01*
X12950Y241980D01*
X12939Y242085D01*
X12933Y242196D01*
Y242257D01*
X12939Y242302D01*
Y242352D01*
X12945Y242413D01*
X12956Y242479D01*
X12967Y242557D01*
X12994Y242718D01*
X13039Y242884D01*
X13100Y243051D01*
X13139Y243129D01*
X13183Y243206D01*
X13189Y243212D01*
X13194Y243223D01*
X13211Y243245D01*
X13233Y243267D01*
X13255Y243301D01*
X13289Y243340D01*
X13327Y243384D01*
X13372Y243428D01*
X13422Y243473D01*
X13472Y243523D01*
X13599Y243623D01*
X13749Y243717D01*
X13916Y243800D01*
X13921D01*
X13938Y243811D01*
X13966Y243817D01*
X13999Y243833D01*
X14043Y243845D01*
X14099Y243861D01*
X14160Y243883D01*
X14227Y243900D01*
X14299Y243917D01*
X14382Y243939D01*
X14554Y243967D01*
X14748Y243989D01*
X14948Y244000D01*
X14954D01*
X14976D01*
X15009D01*
X15048Y243994D01*
D02*
G37*
G36*
X16841Y238451D02*
X14049Y237452D01*
X14043D01*
X14032Y237446D01*
X14016Y237440D01*
X13994Y237429D01*
X13960Y237424D01*
X13927Y237413D01*
X13844Y237385D01*
X13749Y237352D01*
X13644Y237318D01*
X13422Y237252D01*
X13427D01*
X13439Y237246D01*
X13455Y237241D01*
X13477Y237235D01*
X13538Y237218D01*
X13622Y237191D01*
X13716Y237163D01*
X13821Y237130D01*
X13932Y237091D01*
X14049Y237046D01*
X16841Y236003D01*
Y235487D01*
X13000Y236985D01*
Y237518D01*
X16841Y239005D01*
Y238451D01*
D02*
G37*
G36*
X-9113Y271889D02*
X-9054Y271882D01*
X-8987Y271874D01*
X-8906Y271860D01*
X-8825Y271845D01*
X-8632Y271800D01*
X-8432Y271726D01*
X-8329Y271682D01*
X-8233Y271623D01*
X-8129Y271564D01*
X-8033Y271490D01*
X-8025Y271482D01*
X-8003Y271467D01*
X-7974Y271438D01*
X-7937Y271401D01*
X-7892Y271349D01*
X-7833Y271290D01*
X-7781Y271216D01*
X-7722Y271134D01*
X-7663Y271046D01*
X-7611Y270942D01*
X-7559Y270831D01*
X-7507Y270713D01*
X-7470Y270587D01*
X-7441Y270446D01*
X-7419Y270298D01*
X-7411Y270143D01*
Y270076D01*
X-7419Y270024D01*
X-7426Y269965D01*
X-7433Y269899D01*
X-7441Y269817D01*
X-7463Y269736D01*
X-7507Y269551D01*
X-7574Y269366D01*
X-7618Y269270D01*
X-7670Y269173D01*
X-7729Y269085D01*
X-7796Y268996D01*
X-7803Y268988D01*
X-7811Y268974D01*
X-7840Y268959D01*
X-7870Y268929D01*
X-7907Y268892D01*
X-7951Y268855D01*
X-8011Y268811D01*
X-8077Y268774D01*
X-8144Y268729D01*
X-8225Y268685D01*
X-8403Y268604D01*
X-8610Y268537D01*
X-8721Y268515D01*
X-8839Y268500D01*
X-8891Y269159D01*
X-8884D01*
X-8869D01*
X-8847Y269166D01*
X-8810Y269173D01*
X-8728Y269196D01*
X-8617Y269225D01*
X-8506Y269270D01*
X-8381Y269329D01*
X-8270Y269403D01*
X-8166Y269492D01*
X-8159Y269506D01*
X-8129Y269536D01*
X-8092Y269595D01*
X-8048Y269677D01*
X-8003Y269765D01*
X-7966Y269876D01*
X-7937Y270002D01*
X-7929Y270143D01*
Y270187D01*
X-7937Y270217D01*
X-7944Y270306D01*
X-7974Y270409D01*
X-8011Y270535D01*
X-8070Y270661D01*
X-8159Y270794D01*
X-8210Y270853D01*
X-8270Y270912D01*
X-8277Y270920D01*
X-8284Y270927D01*
X-8307Y270942D01*
X-8329Y270964D01*
X-8410Y271016D01*
X-8514Y271075D01*
X-8640Y271127D01*
X-8795Y271179D01*
X-8980Y271216D01*
X-9076Y271231D01*
X-9180D01*
X-9187D01*
X-9202D01*
X-9232D01*
X-9269Y271223D01*
X-9313D01*
X-9365Y271216D01*
X-9483Y271194D01*
X-9624Y271157D01*
X-9764Y271105D01*
X-9898Y271031D01*
X-10023Y270927D01*
X-10031D01*
X-10038Y270912D01*
X-10075Y270875D01*
X-10127Y270809D01*
X-10186Y270720D01*
X-10238Y270602D01*
X-10290Y270468D01*
X-10327Y270313D01*
X-10342Y270224D01*
Y270084D01*
X-10334Y270024D01*
X-10327Y269950D01*
X-10305Y269862D01*
X-10282Y269773D01*
X-10245Y269677D01*
X-10201Y269580D01*
X-10194Y269573D01*
X-10179Y269543D01*
X-10142Y269499D01*
X-10105Y269440D01*
X-10053Y269381D01*
X-9986Y269321D01*
X-9920Y269255D01*
X-9838Y269203D01*
X-9920Y268611D01*
X-12554Y269107D01*
Y271652D01*
X-11955D01*
Y269603D01*
X-10571Y269329D01*
X-10578Y269336D01*
X-10586Y269351D01*
X-10601Y269373D01*
X-10623Y269410D01*
X-10645Y269455D01*
X-10675Y269506D01*
X-10734Y269625D01*
X-10793Y269773D01*
X-10845Y269936D01*
X-10882Y270113D01*
X-10897Y270202D01*
Y270365D01*
X-10889Y270409D01*
X-10882Y270468D01*
X-10874Y270535D01*
X-10860Y270609D01*
X-10837Y270690D01*
X-10786Y270868D01*
X-10749Y270964D01*
X-10697Y271060D01*
X-10645Y271157D01*
X-10586Y271253D01*
X-10512Y271342D01*
X-10430Y271430D01*
X-10423Y271438D01*
X-10408Y271453D01*
X-10386Y271475D01*
X-10349Y271504D01*
X-10297Y271541D01*
X-10245Y271578D01*
X-10179Y271623D01*
X-10105Y271667D01*
X-10023Y271704D01*
X-9935Y271749D01*
X-9831Y271786D01*
X-9727Y271823D01*
X-9616Y271852D01*
X-9491Y271874D01*
X-9365Y271889D01*
X-9232Y271897D01*
X-9224D01*
X-9202D01*
X-9165D01*
X-9113Y271889D01*
D02*
G37*
G36*
X-3159Y71489D02*
X-4736D01*
Y69503D01*
X-3159D01*
Y68992D01*
X-7000D01*
Y69503D01*
X-5191D01*
Y71489D01*
X-7000D01*
Y72000D01*
X-3159D01*
Y71489D01*
D02*
G37*
G36*
X-4214Y67976D02*
X-5829Y67393D01*
X-5835D01*
X-5840Y67388D01*
X-5857Y67382D01*
X-5884Y67377D01*
X-5912Y67366D01*
X-5945Y67355D01*
X-6023Y67327D01*
X-6117Y67294D01*
X-6228Y67260D01*
X-6345Y67227D01*
X-6473Y67194D01*
X-6467D01*
X-6456Y67188D01*
X-6439Y67183D01*
X-6417Y67177D01*
X-6390Y67172D01*
X-6356Y67160D01*
X-6273Y67138D01*
X-6179Y67111D01*
X-6068Y67072D01*
X-5957Y67038D01*
X-5840Y66994D01*
X-4214Y66395D01*
Y65923D01*
X-7044Y66983D01*
X-7050D01*
X-7067Y66988D01*
X-7089Y67000D01*
X-7117Y67011D01*
X-7155Y67027D01*
X-7200Y67044D01*
X-7294Y67083D01*
X-7400Y67122D01*
X-7505Y67166D01*
X-7599Y67210D01*
X-7638Y67233D01*
X-7677Y67249D01*
X-7688Y67255D01*
X-7716Y67271D01*
X-7755Y67299D01*
X-7805Y67332D01*
X-7860Y67377D01*
X-7916Y67427D01*
X-7971Y67477D01*
X-8016Y67538D01*
X-8021Y67543D01*
X-8032Y67566D01*
X-8049Y67599D01*
X-8071Y67649D01*
X-8093Y67704D01*
X-8110Y67771D01*
X-8121Y67843D01*
X-8127Y67926D01*
Y67949D01*
X-8121Y67976D01*
Y68015D01*
X-8110Y68059D01*
X-8099Y68110D01*
X-8088Y68165D01*
X-8066Y68226D01*
X-7627Y68276D01*
Y68270D01*
X-7633Y68248D01*
X-7638Y68221D01*
X-7649Y68187D01*
X-7666Y68098D01*
X-7672Y68010D01*
Y67982D01*
X-7666Y67954D01*
Y67921D01*
X-7649Y67838D01*
X-7633Y67799D01*
X-7616Y67760D01*
Y67754D01*
X-7605Y67743D01*
X-7594Y67726D01*
X-7577Y67704D01*
X-7533Y67654D01*
X-7472Y67610D01*
X-7466D01*
X-7455Y67599D01*
X-7433Y67588D01*
X-7400Y67577D01*
X-7355Y67554D01*
X-7289Y67532D01*
X-7211Y67499D01*
X-7117Y67466D01*
X-7111D01*
X-7089Y67454D01*
X-7050Y67443D01*
X-7000Y67421D01*
X-4214Y68476D01*
Y67976D01*
D02*
G37*
G36*
X-5507Y65690D02*
X-5463D01*
X-5363Y65679D01*
X-5246Y65662D01*
X-5119Y65634D01*
X-4985Y65601D01*
X-4858Y65556D01*
X-4852D01*
X-4841Y65551D01*
X-4824Y65540D01*
X-4802Y65529D01*
X-4741Y65495D01*
X-4663Y65451D01*
X-4580Y65395D01*
X-4497Y65323D01*
X-4408Y65240D01*
X-4336Y65140D01*
Y65135D01*
X-4330Y65129D01*
X-4319Y65113D01*
X-4308Y65090D01*
X-4281Y65035D01*
X-4242Y64957D01*
X-4208Y64868D01*
X-4181Y64763D01*
X-4158Y64646D01*
X-4153Y64524D01*
Y64480D01*
X-4158Y64435D01*
X-4164Y64374D01*
X-4181Y64302D01*
X-4197Y64224D01*
X-4225Y64147D01*
X-4264Y64075D01*
X-4269Y64064D01*
X-4281Y64041D01*
X-4308Y64008D01*
X-4336Y63964D01*
X-4375Y63908D01*
X-4425Y63858D01*
X-4475Y63803D01*
X-4536Y63753D01*
X-3159D01*
Y63281D01*
X-7000D01*
Y63719D01*
X-6650D01*
X-6656Y63725D01*
X-6667Y63731D01*
X-6689Y63747D01*
X-6717Y63769D01*
X-6745Y63797D01*
X-6778Y63830D01*
X-6817Y63869D01*
X-6856Y63919D01*
X-6894Y63969D01*
X-6933Y64025D01*
X-6967Y64091D01*
X-6995Y64163D01*
X-7022Y64236D01*
X-7044Y64319D01*
X-7056Y64408D01*
X-7061Y64502D01*
Y64535D01*
X-7056Y64557D01*
X-7050Y64624D01*
X-7039Y64702D01*
X-7017Y64796D01*
X-6983Y64902D01*
X-6939Y65007D01*
X-6878Y65113D01*
Y65118D01*
X-6867Y65124D01*
X-6845Y65157D01*
X-6800Y65207D01*
X-6745Y65268D01*
X-6673Y65340D01*
X-6584Y65412D01*
X-6484Y65484D01*
X-6367Y65545D01*
X-6362D01*
X-6351Y65551D01*
X-6334Y65556D01*
X-6312Y65568D01*
X-6278Y65579D01*
X-6240Y65595D01*
X-6201Y65606D01*
X-6151Y65618D01*
X-6040Y65645D01*
X-5912Y65673D01*
X-5768Y65690D01*
X-5613Y65695D01*
X-5607D01*
X-5596D01*
X-5574D01*
X-5540D01*
X-5507Y65690D01*
D02*
G37*
G36*
X-4214Y62110D02*
X-4636D01*
X-4630Y62104D01*
X-4591Y62082D01*
X-4541Y62054D01*
X-4480Y62010D01*
X-4419Y61966D01*
X-4353Y61916D01*
X-4297Y61866D01*
X-4253Y61816D01*
X-4247Y61810D01*
X-4236Y61794D01*
X-4219Y61760D01*
X-4203Y61727D01*
X-4186Y61683D01*
X-4169Y61627D01*
X-4158Y61572D01*
X-4153Y61510D01*
Y61472D01*
X-4158Y61422D01*
X-4169Y61361D01*
X-4192Y61288D01*
X-4219Y61211D01*
X-4258Y61122D01*
X-4308Y61028D01*
X-4741Y61200D01*
X-4736Y61205D01*
X-4724Y61227D01*
X-4708Y61261D01*
X-4691Y61305D01*
X-4674Y61355D01*
X-4658Y61416D01*
X-4647Y61477D01*
X-4641Y61538D01*
Y61566D01*
X-4647Y61594D01*
X-4652Y61633D01*
X-4663Y61672D01*
X-4680Y61721D01*
X-4702Y61771D01*
X-4736Y61816D01*
X-4741Y61821D01*
X-4752Y61838D01*
X-4775Y61855D01*
X-4802Y61882D01*
X-4841Y61910D01*
X-4885Y61938D01*
X-4935Y61966D01*
X-4997Y61988D01*
X-5007Y61993D01*
X-5041Y61999D01*
X-5091Y62010D01*
X-5157Y62027D01*
X-5241Y62043D01*
X-5335Y62054D01*
X-5435Y62060D01*
X-5546Y62066D01*
X-7000D01*
Y62537D01*
X-4214D01*
Y62110D01*
D02*
G37*
G36*
X-5535Y60917D02*
X-5479D01*
X-5418Y60911D01*
X-5341Y60900D01*
X-5263Y60889D01*
X-5174Y60867D01*
X-5085Y60844D01*
X-4991Y60817D01*
X-4891Y60783D01*
X-4797Y60739D01*
X-4708Y60695D01*
X-4619Y60634D01*
X-4536Y60573D01*
X-4464Y60495D01*
X-4458Y60489D01*
X-4453Y60478D01*
X-4436Y60456D01*
X-4414Y60428D01*
X-4391Y60395D01*
X-4364Y60351D01*
X-4336Y60306D01*
X-4308Y60251D01*
X-4281Y60190D01*
X-4253Y60123D01*
X-4203Y59973D01*
X-4164Y59801D01*
X-4158Y59712D01*
X-4153Y59618D01*
Y59562D01*
X-4158Y59524D01*
X-4164Y59474D01*
X-4175Y59418D01*
X-4186Y59357D01*
X-4197Y59285D01*
X-4247Y59135D01*
X-4275Y59057D01*
X-4314Y58980D01*
X-4353Y58902D01*
X-4408Y58824D01*
X-4464Y58752D01*
X-4530Y58680D01*
X-4536Y58675D01*
X-4547Y58663D01*
X-4569Y58647D01*
X-4597Y58625D01*
X-4636Y58597D01*
X-4686Y58564D01*
X-4741Y58530D01*
X-4802Y58497D01*
X-4869Y58464D01*
X-4952Y58430D01*
X-5035Y58397D01*
X-5130Y58369D01*
X-5229Y58347D01*
X-5335Y58330D01*
X-5446Y58319D01*
X-5568Y58314D01*
X-5574D01*
X-5590D01*
X-5618D01*
X-5657D01*
X-5701Y58319D01*
X-5757Y58325D01*
X-5812D01*
X-5873Y58336D01*
X-6012Y58353D01*
X-6151Y58386D01*
X-6290Y58425D01*
X-6417Y58480D01*
X-6423D01*
X-6428Y58486D01*
X-6445Y58497D01*
X-6467Y58508D01*
X-6523Y58547D01*
X-6589Y58597D01*
X-6667Y58663D01*
X-6745Y58747D01*
X-6822Y58841D01*
X-6894Y58952D01*
Y58957D01*
X-6900Y58963D01*
X-6911Y58980D01*
X-6922Y59007D01*
X-6933Y59035D01*
X-6944Y59069D01*
X-6978Y59152D01*
X-7006Y59246D01*
X-7033Y59363D01*
X-7056Y59485D01*
X-7061Y59618D01*
Y59674D01*
X-7056Y59718D01*
X-7050Y59768D01*
X-7039Y59823D01*
X-7028Y59890D01*
X-7017Y59957D01*
X-6972Y60106D01*
X-6939Y60190D01*
X-6906Y60267D01*
X-6861Y60345D01*
X-6811Y60423D01*
X-6756Y60495D01*
X-6689Y60567D01*
X-6684Y60573D01*
X-6673Y60584D01*
X-6650Y60600D01*
X-6617Y60623D01*
X-6578Y60650D01*
X-6534Y60678D01*
X-6478Y60711D01*
X-6412Y60745D01*
X-6340Y60778D01*
X-6256Y60811D01*
X-6168Y60839D01*
X-6073Y60867D01*
X-5968Y60889D01*
X-5857Y60906D01*
X-5735Y60917D01*
X-5607Y60922D01*
X-5596D01*
X-5574D01*
X-5535Y60917D01*
D02*
G37*
G36*
X-3159Y54717D02*
X-3165Y54678D01*
Y54634D01*
X-3176Y54534D01*
X-3187Y54423D01*
X-3209Y54307D01*
X-3237Y54190D01*
X-3276Y54085D01*
Y54079D01*
X-3281Y54074D01*
X-3298Y54040D01*
X-3326Y53990D01*
X-3365Y53935D01*
X-3415Y53868D01*
X-3476Y53796D01*
X-3554Y53729D01*
X-3637Y53668D01*
X-3648Y53663D01*
X-3681Y53646D01*
X-3726Y53618D01*
X-3792Y53591D01*
X-3870Y53563D01*
X-3953Y53535D01*
X-4047Y53518D01*
X-4142Y53513D01*
X-4153D01*
X-4181D01*
X-4231Y53518D01*
X-4292Y53530D01*
X-4364Y53546D01*
X-4441Y53574D01*
X-4519Y53607D01*
X-4602Y53652D01*
X-4614Y53657D01*
X-4636Y53674D01*
X-4680Y53707D01*
X-4724Y53752D01*
X-4780Y53807D01*
X-4841Y53874D01*
X-4896Y53957D01*
X-4952Y54051D01*
Y54046D01*
X-4958Y54035D01*
X-4963Y54018D01*
X-4974Y53996D01*
X-4997Y53929D01*
X-5035Y53851D01*
X-5085Y53768D01*
X-5146Y53674D01*
X-5218Y53591D01*
X-5307Y53513D01*
X-5318Y53507D01*
X-5352Y53485D01*
X-5402Y53452D01*
X-5468Y53419D01*
X-5557Y53385D01*
X-5651Y53352D01*
X-5762Y53330D01*
X-5884Y53324D01*
X-5890D01*
X-5896D01*
X-5929D01*
X-5984Y53330D01*
X-6051Y53341D01*
X-6129Y53352D01*
X-6212Y53374D01*
X-6301Y53402D01*
X-6390Y53441D01*
X-6401Y53446D01*
X-6428Y53463D01*
X-6467Y53485D01*
X-6523Y53518D01*
X-6578Y53563D01*
X-6639Y53607D01*
X-6700Y53663D01*
X-6750Y53724D01*
X-6756Y53729D01*
X-6773Y53752D01*
X-6795Y53790D01*
X-6817Y53840D01*
X-6850Y53901D01*
X-6883Y53974D01*
X-6911Y54051D01*
X-6939Y54146D01*
Y54157D01*
X-6950Y54190D01*
X-6956Y54246D01*
X-6967Y54318D01*
X-6978Y54406D01*
X-6989Y54512D01*
X-6995Y54628D01*
X-7000Y54762D01*
Y56227D01*
X-3159D01*
Y54717D01*
D02*
G37*
G36*
X-6195Y52841D02*
X-6145Y52836D01*
X-6084Y52825D01*
X-6023Y52808D01*
X-5957Y52786D01*
X-5896Y52758D01*
X-5890Y52753D01*
X-5868Y52741D01*
X-5835Y52719D01*
X-5796Y52692D01*
X-5751Y52658D01*
X-5707Y52614D01*
X-5662Y52569D01*
X-5624Y52514D01*
X-5618Y52508D01*
X-5607Y52486D01*
X-5585Y52459D01*
X-5563Y52414D01*
X-5540Y52364D01*
X-5513Y52303D01*
X-5490Y52242D01*
X-5468Y52170D01*
Y52164D01*
X-5463Y52142D01*
X-5452Y52109D01*
X-5446Y52064D01*
X-5435Y52009D01*
X-5424Y51937D01*
X-5407Y51854D01*
X-5396Y51754D01*
Y51748D01*
X-5390Y51726D01*
Y51698D01*
X-5385Y51659D01*
X-5379Y51615D01*
X-5368Y51559D01*
X-5363Y51498D01*
X-5352Y51432D01*
X-5324Y51298D01*
X-5296Y51154D01*
X-5263Y51026D01*
X-5246Y50965D01*
X-5229Y50910D01*
X-5224D01*
X-5213D01*
X-5180Y50905D01*
X-5141D01*
X-5119D01*
X-5108D01*
X-5102D01*
X-5096D01*
X-5063D01*
X-5007Y50910D01*
X-4947Y50921D01*
X-4880Y50938D01*
X-4813Y50965D01*
X-4752Y50999D01*
X-4702Y51043D01*
X-4697Y51049D01*
X-4674Y51077D01*
X-4652Y51121D01*
X-4619Y51176D01*
X-4591Y51254D01*
X-4564Y51343D01*
X-4547Y51454D01*
X-4541Y51582D01*
Y51637D01*
X-4547Y51693D01*
X-4558Y51770D01*
X-4569Y51848D01*
X-4591Y51931D01*
X-4619Y52009D01*
X-4658Y52075D01*
X-4663Y52081D01*
X-4680Y52103D01*
X-4708Y52131D01*
X-4752Y52164D01*
X-4808Y52198D01*
X-4880Y52236D01*
X-4969Y52270D01*
X-5069Y52303D01*
X-5007Y52764D01*
X-5002D01*
X-4997Y52758D01*
X-4980D01*
X-4958Y52753D01*
X-4908Y52736D01*
X-4835Y52714D01*
X-4763Y52686D01*
X-4686Y52653D01*
X-4608Y52608D01*
X-4536Y52558D01*
X-4530Y52553D01*
X-4508Y52531D01*
X-4475Y52497D01*
X-4430Y52453D01*
X-4386Y52392D01*
X-4342Y52320D01*
X-4292Y52236D01*
X-4253Y52142D01*
Y52136D01*
X-4247Y52131D01*
X-4242Y52114D01*
X-4236Y52092D01*
X-4219Y52037D01*
X-4203Y51959D01*
X-4186Y51870D01*
X-4169Y51759D01*
X-4158Y51643D01*
X-4153Y51509D01*
Y51448D01*
X-4158Y51387D01*
X-4164Y51304D01*
X-4175Y51210D01*
X-4192Y51115D01*
X-4214Y51021D01*
X-4242Y50932D01*
X-4247Y50921D01*
X-4258Y50893D01*
X-4275Y50854D01*
X-4297Y50805D01*
X-4330Y50749D01*
X-4364Y50694D01*
X-4408Y50644D01*
X-4453Y50599D01*
X-4458Y50594D01*
X-4475Y50582D01*
X-4502Y50566D01*
X-4536Y50544D01*
X-4586Y50516D01*
X-4636Y50494D01*
X-4697Y50472D01*
X-4769Y50455D01*
X-4775D01*
X-4791Y50449D01*
X-4824Y50444D01*
X-4869Y50438D01*
X-4930D01*
X-5002Y50433D01*
X-5096Y50427D01*
X-5202D01*
X-5835D01*
X-5840D01*
X-5862D01*
X-5896D01*
X-5940D01*
X-5990D01*
X-6051D01*
X-6184Y50422D01*
X-6323D01*
X-6462Y50416D01*
X-6523Y50410D01*
X-6578D01*
X-6628Y50405D01*
X-6667Y50399D01*
X-6673D01*
X-6695Y50394D01*
X-6728Y50388D01*
X-6773Y50372D01*
X-6822Y50361D01*
X-6878Y50338D01*
X-6939Y50311D01*
X-7000Y50283D01*
Y50777D01*
X-6995Y50782D01*
X-6972Y50788D01*
X-6944Y50799D01*
X-6900Y50816D01*
X-6850Y50832D01*
X-6789Y50843D01*
X-6723Y50854D01*
X-6650Y50866D01*
Y50871D01*
X-6662Y50877D01*
X-6689Y50910D01*
X-6728Y50960D01*
X-6778Y51026D01*
X-6828Y51110D01*
X-6883Y51193D01*
X-6933Y51282D01*
X-6972Y51376D01*
X-6978Y51387D01*
X-6983Y51421D01*
X-7000Y51471D01*
X-7017Y51532D01*
X-7033Y51609D01*
X-7044Y51698D01*
X-7056Y51798D01*
X-7061Y51898D01*
Y51942D01*
X-7056Y51976D01*
Y52014D01*
X-7050Y52059D01*
X-7033Y52159D01*
X-7006Y52270D01*
X-6967Y52392D01*
X-6911Y52503D01*
X-6839Y52603D01*
X-6828Y52614D01*
X-6800Y52642D01*
X-6750Y52680D01*
X-6684Y52725D01*
X-6600Y52769D01*
X-6506Y52808D01*
X-6390Y52836D01*
X-6334Y52841D01*
X-6267Y52847D01*
X-6256D01*
X-6234D01*
X-6195Y52841D01*
D02*
G37*
G36*
X-4214Y49622D02*
X-3526D01*
X-3243Y49151D01*
X-4214D01*
Y48673D01*
X-4580D01*
Y49151D01*
X-6217D01*
X-6228D01*
X-6251D01*
X-6284D01*
X-6323Y49145D01*
X-6412Y49140D01*
X-6451Y49134D01*
X-6478Y49128D01*
X-6489Y49123D01*
X-6512Y49106D01*
X-6539Y49084D01*
X-6567Y49045D01*
X-6573Y49034D01*
X-6584Y49006D01*
X-6595Y48956D01*
X-6600Y48884D01*
Y48829D01*
X-6595Y48801D01*
Y48762D01*
X-6589Y48718D01*
X-6584Y48673D01*
X-7000Y48612D01*
Y48623D01*
X-7006Y48646D01*
X-7011Y48684D01*
X-7017Y48734D01*
X-7028Y48790D01*
X-7033Y48851D01*
X-7039Y48973D01*
Y49018D01*
X-7033Y49062D01*
X-7028Y49117D01*
X-7022Y49184D01*
X-7006Y49251D01*
X-6989Y49312D01*
X-6961Y49373D01*
X-6956Y49378D01*
X-6944Y49395D01*
X-6928Y49417D01*
X-6900Y49450D01*
X-6872Y49478D01*
X-6833Y49511D01*
X-6795Y49545D01*
X-6745Y49567D01*
X-6739D01*
X-6717Y49578D01*
X-6678Y49584D01*
X-6623Y49595D01*
X-6550Y49606D01*
X-6506Y49611D01*
X-6456D01*
X-6395Y49617D01*
X-6334Y49622D01*
X-6267D01*
X-6190D01*
X-4580D01*
Y49972D01*
X-4214D01*
Y49622D01*
D02*
G37*
G36*
X48526Y89902D02*
X48570D01*
X48676Y89890D01*
X48792Y89874D01*
X48914Y89846D01*
X49047Y89813D01*
X49175Y89768D01*
X49181D01*
X49192Y89763D01*
X49208Y89757D01*
X49231Y89746D01*
X49292Y89713D01*
X49369Y89674D01*
X49453Y89619D01*
X49541Y89552D01*
X49625Y89480D01*
X49702Y89391D01*
X49714Y89380D01*
X49736Y89347D01*
X49769Y89297D01*
X49813Y89224D01*
X49858Y89136D01*
X49908Y89025D01*
X49958Y88903D01*
X49997Y88764D01*
X49536Y88642D01*
Y88647D01*
X49530Y88653D01*
X49525Y88670D01*
X49519Y88692D01*
X49503Y88742D01*
X49480Y88808D01*
X49447Y88886D01*
X49408Y88958D01*
X49369Y89036D01*
X49319Y89102D01*
X49314Y89108D01*
X49297Y89130D01*
X49264Y89158D01*
X49225Y89197D01*
X49175Y89241D01*
X49108Y89286D01*
X49036Y89330D01*
X48953Y89369D01*
X48942Y89374D01*
X48914Y89385D01*
X48864Y89402D01*
X48798Y89424D01*
X48720Y89441D01*
X48631Y89458D01*
X48531Y89469D01*
X48426Y89474D01*
X48365D01*
X48337Y89469D01*
X48304D01*
X48221Y89463D01*
X48126Y89447D01*
X48021Y89430D01*
X47921Y89402D01*
X47821Y89363D01*
X47810Y89358D01*
X47776Y89347D01*
X47732Y89319D01*
X47677Y89291D01*
X47610Y89247D01*
X47538Y89202D01*
X47471Y89147D01*
X47410Y89086D01*
X47405Y89080D01*
X47383Y89058D01*
X47355Y89019D01*
X47321Y88975D01*
X47282Y88919D01*
X47244Y88853D01*
X47205Y88781D01*
X47166Y88703D01*
Y88697D01*
X47160Y88686D01*
X47155Y88670D01*
X47144Y88642D01*
X47133Y88608D01*
X47122Y88570D01*
X47105Y88525D01*
X47094Y88475D01*
X47066Y88359D01*
X47044Y88226D01*
X47027Y88087D01*
X47022Y87931D01*
Y87926D01*
Y87909D01*
Y87881D01*
X47027Y87848D01*
Y87804D01*
X47033Y87748D01*
X47038Y87693D01*
X47044Y87632D01*
X47066Y87493D01*
X47094Y87349D01*
X47138Y87204D01*
X47194Y87066D01*
Y87060D01*
X47205Y87049D01*
X47210Y87032D01*
X47227Y87010D01*
X47266Y86949D01*
X47327Y86871D01*
X47399Y86788D01*
X47488Y86705D01*
X47593Y86627D01*
X47710Y86555D01*
X47715D01*
X47727Y86550D01*
X47743Y86538D01*
X47771Y86527D01*
X47799Y86516D01*
X47837Y86505D01*
X47926Y86472D01*
X48037Y86444D01*
X48159Y86416D01*
X48293Y86394D01*
X48431Y86388D01*
X48487D01*
X48520Y86394D01*
X48553D01*
X48637Y86405D01*
X48737Y86416D01*
X48842Y86439D01*
X48959Y86472D01*
X49075Y86511D01*
X49081D01*
X49092Y86516D01*
X49103Y86522D01*
X49125Y86533D01*
X49186Y86561D01*
X49253Y86594D01*
X49330Y86633D01*
X49414Y86677D01*
X49491Y86727D01*
X49558Y86783D01*
Y87504D01*
X48426D01*
Y87959D01*
X50058D01*
Y86533D01*
X50052Y86527D01*
X50041Y86522D01*
X50019Y86505D01*
X49991Y86483D01*
X49958Y86461D01*
X49919Y86433D01*
X49869Y86400D01*
X49819Y86366D01*
X49702Y86294D01*
X49569Y86216D01*
X49430Y86144D01*
X49281Y86083D01*
X49275D01*
X49264Y86078D01*
X49242Y86072D01*
X49214Y86061D01*
X49175Y86050D01*
X49131Y86033D01*
X49081Y86022D01*
X49031Y86011D01*
X48909Y85983D01*
X48770Y85956D01*
X48620Y85939D01*
X48465Y85933D01*
X48409D01*
X48370Y85939D01*
X48320D01*
X48259Y85944D01*
X48193Y85956D01*
X48121Y85961D01*
X47960Y85994D01*
X47788Y86033D01*
X47610Y86094D01*
X47521Y86128D01*
X47432Y86172D01*
X47427Y86178D01*
X47410Y86183D01*
X47388Y86200D01*
X47355Y86216D01*
X47316Y86244D01*
X47277Y86272D01*
X47172Y86350D01*
X47061Y86449D01*
X46944Y86572D01*
X46833Y86710D01*
X46733Y86871D01*
Y86877D01*
X46722Y86894D01*
X46711Y86916D01*
X46694Y86955D01*
X46678Y86993D01*
X46661Y87049D01*
X46639Y87104D01*
X46617Y87171D01*
X46594Y87243D01*
X46572Y87326D01*
X46556Y87410D01*
X46539Y87498D01*
X46511Y87693D01*
X46500Y87898D01*
Y87904D01*
Y87926D01*
Y87954D01*
X46505Y87992D01*
Y88042D01*
X46511Y88103D01*
X46522Y88165D01*
X46528Y88237D01*
X46544Y88314D01*
X46556Y88398D01*
X46600Y88575D01*
X46655Y88758D01*
X46733Y88942D01*
X46739Y88947D01*
X46744Y88964D01*
X46755Y88986D01*
X46777Y89019D01*
X46800Y89064D01*
X46827Y89108D01*
X46905Y89214D01*
X46999Y89336D01*
X47116Y89452D01*
X47249Y89569D01*
X47327Y89619D01*
X47405Y89669D01*
X47410Y89674D01*
X47427Y89680D01*
X47449Y89691D01*
X47482Y89707D01*
X47527Y89724D01*
X47577Y89746D01*
X47632Y89768D01*
X47699Y89791D01*
X47771Y89813D01*
X47849Y89829D01*
X47932Y89852D01*
X48021Y89868D01*
X48215Y89896D01*
X48315Y89907D01*
X48493D01*
X48526Y89902D01*
D02*
G37*
G36*
X56604Y89402D02*
X56643D01*
X56748Y89390D01*
X56865Y89374D01*
X56987Y89346D01*
X57120Y89313D01*
X57242Y89268D01*
X57248D01*
X57259Y89263D01*
X57275Y89252D01*
X57298Y89241D01*
X57353Y89213D01*
X57425Y89163D01*
X57509Y89108D01*
X57592Y89035D01*
X57670Y88952D01*
X57742Y88858D01*
Y88852D01*
X57747Y88847D01*
X57758Y88830D01*
X57769Y88813D01*
X57797Y88758D01*
X57831Y88686D01*
X57869Y88597D01*
X57897Y88491D01*
X57925Y88380D01*
X57936Y88258D01*
X57448Y88219D01*
Y88225D01*
Y88236D01*
X57442Y88253D01*
X57437Y88281D01*
X57420Y88342D01*
X57398Y88425D01*
X57364Y88514D01*
X57314Y88602D01*
X57253Y88686D01*
X57176Y88763D01*
X57165Y88769D01*
X57137Y88791D01*
X57081Y88824D01*
X57009Y88858D01*
X56915Y88891D01*
X56804Y88924D01*
X56665Y88947D01*
X56510Y88952D01*
X56432D01*
X56399Y88947D01*
X56354Y88941D01*
X56254Y88930D01*
X56143Y88908D01*
X56032Y88880D01*
X55927Y88836D01*
X55882Y88808D01*
X55838Y88780D01*
X55827Y88775D01*
X55805Y88752D01*
X55771Y88714D01*
X55738Y88669D01*
X55699Y88608D01*
X55666Y88541D01*
X55644Y88464D01*
X55633Y88375D01*
Y88364D01*
Y88342D01*
X55638Y88303D01*
X55649Y88258D01*
X55666Y88203D01*
X55694Y88147D01*
X55727Y88092D01*
X55777Y88036D01*
X55783Y88031D01*
X55810Y88014D01*
X55832Y87998D01*
X55855Y87986D01*
X55888Y87970D01*
X55927Y87948D01*
X55977Y87931D01*
X56032Y87909D01*
X56093Y87887D01*
X56165Y87859D01*
X56243Y87836D01*
X56332Y87809D01*
X56432Y87787D01*
X56543Y87759D01*
X56549D01*
X56571Y87753D01*
X56604Y87748D01*
X56643Y87737D01*
X56693Y87726D01*
X56754Y87709D01*
X56815Y87692D01*
X56881Y87676D01*
X57026Y87637D01*
X57165Y87598D01*
X57231Y87576D01*
X57292Y87554D01*
X57348Y87537D01*
X57392Y87515D01*
X57398D01*
X57409Y87509D01*
X57425Y87498D01*
X57448Y87487D01*
X57509Y87454D01*
X57581Y87409D01*
X57664Y87348D01*
X57747Y87282D01*
X57825Y87204D01*
X57891Y87121D01*
X57897Y87110D01*
X57919Y87082D01*
X57942Y87032D01*
X57975Y86965D01*
X58003Y86888D01*
X58030Y86793D01*
X58047Y86688D01*
X58052Y86577D01*
Y86571D01*
Y86566D01*
Y86549D01*
Y86527D01*
X58041Y86466D01*
X58030Y86388D01*
X58008Y86299D01*
X57980Y86205D01*
X57936Y86105D01*
X57875Y86000D01*
Y85994D01*
X57869Y85988D01*
X57842Y85955D01*
X57803Y85905D01*
X57747Y85850D01*
X57675Y85783D01*
X57586Y85711D01*
X57486Y85644D01*
X57370Y85583D01*
X57364D01*
X57353Y85578D01*
X57336Y85572D01*
X57314Y85561D01*
X57281Y85550D01*
X57242Y85533D01*
X57153Y85511D01*
X57048Y85483D01*
X56920Y85456D01*
X56782Y85439D01*
X56632Y85433D01*
X56543D01*
X56498Y85439D01*
X56449D01*
X56393Y85444D01*
X56326Y85450D01*
X56188Y85472D01*
X56043Y85494D01*
X55899Y85533D01*
X55760Y85583D01*
X55755D01*
X55744Y85589D01*
X55727Y85600D01*
X55705Y85611D01*
X55638Y85644D01*
X55561Y85694D01*
X55472Y85761D01*
X55377Y85839D01*
X55289Y85933D01*
X55205Y86038D01*
Y86044D01*
X55194Y86055D01*
X55189Y86072D01*
X55172Y86094D01*
X55161Y86122D01*
X55144Y86155D01*
X55105Y86238D01*
X55067Y86344D01*
X55033Y86460D01*
X55011Y86593D01*
X55000Y86732D01*
X55477Y86777D01*
Y86771D01*
Y86765D01*
X55483Y86749D01*
Y86726D01*
X55494Y86677D01*
X55511Y86604D01*
X55533Y86532D01*
X55555Y86449D01*
X55594Y86371D01*
X55633Y86299D01*
X55638Y86294D01*
X55655Y86272D01*
X55683Y86233D01*
X55727Y86194D01*
X55783Y86144D01*
X55844Y86094D01*
X55927Y86044D01*
X56016Y86000D01*
X56021D01*
X56027Y85994D01*
X56043Y85988D01*
X56060Y85983D01*
X56116Y85966D01*
X56188Y85944D01*
X56277Y85922D01*
X56376Y85905D01*
X56487Y85894D01*
X56609Y85888D01*
X56660D01*
X56715Y85894D01*
X56782Y85900D01*
X56859Y85911D01*
X56948Y85922D01*
X57037Y85944D01*
X57120Y85972D01*
X57131Y85977D01*
X57159Y85988D01*
X57198Y86011D01*
X57248Y86033D01*
X57298Y86072D01*
X57353Y86111D01*
X57409Y86155D01*
X57453Y86210D01*
X57459Y86216D01*
X57470Y86238D01*
X57486Y86266D01*
X57509Y86310D01*
X57531Y86355D01*
X57547Y86410D01*
X57559Y86471D01*
X57564Y86538D01*
Y86543D01*
Y86571D01*
X57559Y86604D01*
X57553Y86649D01*
X57536Y86693D01*
X57520Y86749D01*
X57492Y86804D01*
X57453Y86854D01*
X57448Y86860D01*
X57431Y86876D01*
X57409Y86899D01*
X57370Y86932D01*
X57326Y86965D01*
X57264Y87004D01*
X57192Y87043D01*
X57109Y87076D01*
X57103Y87082D01*
X57076Y87087D01*
X57031Y87104D01*
X57003Y87110D01*
X56965Y87121D01*
X56926Y87137D01*
X56876Y87148D01*
X56820Y87165D01*
X56754Y87182D01*
X56687Y87198D01*
X56609Y87221D01*
X56521Y87243D01*
X56426Y87265D01*
X56421D01*
X56404Y87270D01*
X56376Y87276D01*
X56343Y87287D01*
X56299Y87298D01*
X56249Y87309D01*
X56138Y87343D01*
X56016Y87381D01*
X55888Y87420D01*
X55777Y87459D01*
X55727Y87481D01*
X55683Y87503D01*
X55677D01*
X55672Y87509D01*
X55638Y87531D01*
X55588Y87559D01*
X55533Y87603D01*
X55466Y87653D01*
X55400Y87714D01*
X55333Y87787D01*
X55278Y87864D01*
X55272Y87875D01*
X55255Y87903D01*
X55233Y87948D01*
X55211Y88003D01*
X55189Y88075D01*
X55167Y88159D01*
X55150Y88247D01*
X55144Y88342D01*
Y88347D01*
Y88353D01*
Y88369D01*
Y88392D01*
X55155Y88447D01*
X55167Y88519D01*
X55183Y88602D01*
X55211Y88697D01*
X55250Y88791D01*
X55305Y88885D01*
Y88891D01*
X55311Y88897D01*
X55339Y88930D01*
X55377Y88974D01*
X55427Y89030D01*
X55494Y89091D01*
X55577Y89157D01*
X55677Y89218D01*
X55788Y89274D01*
X55794D01*
X55805Y89280D01*
X55821Y89285D01*
X55844Y89296D01*
X55871Y89307D01*
X55910Y89318D01*
X55993Y89341D01*
X56099Y89363D01*
X56221Y89385D01*
X56349Y89402D01*
X56493Y89407D01*
X56565D01*
X56604Y89402D01*
D02*
G37*
G36*
X59162Y87964D02*
X59168Y87970D01*
X59179Y87981D01*
X59196Y87998D01*
X59224Y88025D01*
X59251Y88053D01*
X59290Y88086D01*
X59340Y88120D01*
X59390Y88159D01*
X59446Y88192D01*
X59507Y88225D01*
X59651Y88286D01*
X59729Y88314D01*
X59812Y88331D01*
X59901Y88342D01*
X59989Y88347D01*
X60039D01*
X60101Y88342D01*
X60173Y88331D01*
X60256Y88319D01*
X60345Y88297D01*
X60434Y88264D01*
X60522Y88225D01*
X60533Y88219D01*
X60561Y88203D01*
X60600Y88175D01*
X60650Y88136D01*
X60700Y88086D01*
X60755Y88031D01*
X60805Y87964D01*
X60850Y87887D01*
X60855Y87875D01*
X60866Y87848D01*
X60883Y87798D01*
X60900Y87726D01*
X60916Y87637D01*
X60933Y87531D01*
X60944Y87404D01*
X60950Y87259D01*
Y85500D01*
X60478D01*
Y87265D01*
Y87270D01*
Y87282D01*
Y87298D01*
Y87320D01*
X60472Y87381D01*
X60461Y87459D01*
X60439Y87542D01*
X60411Y87626D01*
X60372Y87709D01*
X60322Y87775D01*
X60317Y87781D01*
X60295Y87803D01*
X60261Y87831D01*
X60211Y87859D01*
X60150Y87892D01*
X60078Y87914D01*
X59989Y87937D01*
X59890Y87942D01*
X59856D01*
X59817Y87937D01*
X59762Y87931D01*
X59706Y87914D01*
X59640Y87898D01*
X59573Y87870D01*
X59501Y87831D01*
X59496Y87826D01*
X59473Y87809D01*
X59440Y87787D01*
X59401Y87753D01*
X59357Y87709D01*
X59312Y87659D01*
X59273Y87598D01*
X59240Y87531D01*
X59235Y87520D01*
X59229Y87498D01*
X59218Y87454D01*
X59201Y87398D01*
X59185Y87326D01*
X59174Y87237D01*
X59168Y87137D01*
X59162Y87021D01*
Y85500D01*
X58691D01*
Y89341D01*
X59162D01*
Y87964D01*
D02*
G37*
G36*
X177469Y284143D02*
X180253D01*
Y282973D01*
X177469D01*
Y280159D01*
X176284D01*
Y282973D01*
X173500D01*
Y284143D01*
X176284D01*
Y286927D01*
X177469D01*
Y284143D01*
D02*
G37*
G36*
X189395Y284580D02*
X185500D01*
Y285839D01*
X189395D01*
Y284580D01*
D02*
G37*
G36*
X-8203Y312736D02*
X-8196Y312721D01*
X-8173Y312692D01*
X-8144Y312655D01*
X-8114Y312610D01*
X-8077Y312558D01*
X-8033Y312492D01*
X-7988Y312425D01*
X-7892Y312270D01*
X-7789Y312092D01*
X-7692Y311907D01*
X-7611Y311707D01*
Y311700D01*
X-7604Y311685D01*
X-7596Y311656D01*
X-7581Y311619D01*
X-7567Y311567D01*
X-7544Y311508D01*
X-7530Y311441D01*
X-7515Y311374D01*
X-7478Y311212D01*
X-7441Y311027D01*
X-7419Y310827D01*
X-7411Y310620D01*
Y310546D01*
X-7419Y310494D01*
Y310427D01*
X-7426Y310346D01*
X-7441Y310257D01*
X-7448Y310161D01*
X-7493Y309946D01*
X-7544Y309717D01*
X-7626Y309480D01*
X-7670Y309362D01*
X-7729Y309243D01*
X-7737Y309236D01*
X-7744Y309214D01*
X-7766Y309184D01*
X-7789Y309140D01*
X-7826Y309088D01*
X-7863Y309036D01*
X-7966Y308895D01*
X-8099Y308747D01*
X-8262Y308592D01*
X-8447Y308444D01*
X-8662Y308311D01*
X-8669D01*
X-8691Y308296D01*
X-8721Y308281D01*
X-8773Y308259D01*
X-8825Y308237D01*
X-8899Y308215D01*
X-8973Y308185D01*
X-9061Y308155D01*
X-9158Y308126D01*
X-9269Y308096D01*
X-9380Y308074D01*
X-9498Y308052D01*
X-9757Y308015D01*
X-10031Y308000D01*
X-10038D01*
X-10068D01*
X-10105D01*
X-10157Y308007D01*
X-10223D01*
X-10305Y308015D01*
X-10386Y308030D01*
X-10482Y308037D01*
X-10586Y308059D01*
X-10697Y308074D01*
X-10934Y308133D01*
X-11178Y308207D01*
X-11422Y308311D01*
X-11429Y308318D01*
X-11452Y308326D01*
X-11481Y308340D01*
X-11526Y308370D01*
X-11585Y308400D01*
X-11644Y308437D01*
X-11785Y308540D01*
X-11947Y308666D01*
X-12103Y308821D01*
X-12258Y308999D01*
X-12325Y309103D01*
X-12391Y309206D01*
X-12399Y309214D01*
X-12406Y309236D01*
X-12421Y309265D01*
X-12443Y309310D01*
X-12465Y309369D01*
X-12495Y309436D01*
X-12525Y309510D01*
X-12554Y309598D01*
X-12584Y309695D01*
X-12606Y309798D01*
X-12636Y309909D01*
X-12658Y310028D01*
X-12695Y310287D01*
X-12710Y310420D01*
Y310657D01*
X-12702Y310701D01*
Y310760D01*
X-12687Y310901D01*
X-12665Y311056D01*
X-12628Y311219D01*
X-12584Y311397D01*
X-12525Y311567D01*
Y311574D01*
X-12517Y311589D01*
X-12510Y311611D01*
X-12495Y311641D01*
X-12451Y311722D01*
X-12399Y311826D01*
X-12325Y311937D01*
X-12236Y312055D01*
X-12140Y312166D01*
X-12021Y312270D01*
X-12007Y312285D01*
X-11962Y312314D01*
X-11896Y312359D01*
X-11799Y312418D01*
X-11681Y312477D01*
X-11533Y312544D01*
X-11370Y312610D01*
X-11185Y312662D01*
X-11022Y312048D01*
X-11030D01*
X-11037Y312040D01*
X-11059Y312033D01*
X-11089Y312026D01*
X-11156Y312003D01*
X-11244Y311974D01*
X-11348Y311929D01*
X-11444Y311878D01*
X-11548Y311826D01*
X-11637Y311759D01*
X-11644Y311752D01*
X-11674Y311730D01*
X-11711Y311685D01*
X-11762Y311633D01*
X-11822Y311567D01*
X-11881Y311478D01*
X-11940Y311382D01*
X-11992Y311271D01*
X-11999Y311256D01*
X-12014Y311219D01*
X-12036Y311152D01*
X-12066Y311064D01*
X-12088Y310960D01*
X-12110Y310842D01*
X-12125Y310708D01*
X-12132Y310568D01*
Y310486D01*
X-12125Y310449D01*
Y310405D01*
X-12118Y310294D01*
X-12095Y310168D01*
X-12073Y310028D01*
X-12036Y309894D01*
X-11984Y309761D01*
X-11977Y309746D01*
X-11962Y309702D01*
X-11925Y309643D01*
X-11888Y309569D01*
X-11829Y309480D01*
X-11770Y309384D01*
X-11696Y309295D01*
X-11614Y309214D01*
X-11607Y309206D01*
X-11577Y309177D01*
X-11526Y309140D01*
X-11466Y309095D01*
X-11392Y309043D01*
X-11304Y308992D01*
X-11207Y308940D01*
X-11104Y308888D01*
X-11096D01*
X-11082Y308881D01*
X-11059Y308873D01*
X-11022Y308858D01*
X-10978Y308844D01*
X-10926Y308829D01*
X-10867Y308807D01*
X-10800Y308792D01*
X-10645Y308755D01*
X-10467Y308725D01*
X-10282Y308703D01*
X-10075Y308696D01*
X-10068D01*
X-10046D01*
X-10009D01*
X-9964Y308703D01*
X-9905D01*
X-9831Y308710D01*
X-9757Y308718D01*
X-9676Y308725D01*
X-9491Y308755D01*
X-9298Y308792D01*
X-9106Y308851D01*
X-8921Y308925D01*
X-8913D01*
X-8899Y308940D01*
X-8876Y308947D01*
X-8847Y308969D01*
X-8765Y309021D01*
X-8662Y309103D01*
X-8551Y309199D01*
X-8440Y309317D01*
X-8336Y309458D01*
X-8240Y309613D01*
Y309621D01*
X-8233Y309635D01*
X-8218Y309658D01*
X-8203Y309695D01*
X-8188Y309732D01*
X-8173Y309783D01*
X-8129Y309902D01*
X-8092Y310050D01*
X-8055Y310213D01*
X-8025Y310390D01*
X-8018Y310575D01*
Y310649D01*
X-8025Y310694D01*
Y310738D01*
X-8040Y310849D01*
X-8055Y310982D01*
X-8085Y311123D01*
X-8129Y311278D01*
X-8181Y311434D01*
Y311441D01*
X-8188Y311456D01*
X-8196Y311471D01*
X-8210Y311500D01*
X-8247Y311582D01*
X-8292Y311670D01*
X-8344Y311774D01*
X-8403Y311885D01*
X-8469Y311989D01*
X-8543Y312077D01*
X-9505D01*
Y310568D01*
X-10112D01*
Y312743D01*
X-8210D01*
X-8203Y312736D01*
D02*
G37*
G36*
X-8000Y292956D02*
X-9147Y292186D01*
X-9421Y292009D01*
X-8000Y291010D01*
Y290248D01*
X-9924Y291602D01*
X-11715Y290351D01*
Y291121D01*
X-10834Y291705D01*
X-10827Y291713D01*
X-10797Y291735D01*
X-10745Y291765D01*
X-10694Y291802D01*
X-10627Y291839D01*
X-10560Y291883D01*
X-10494Y291927D01*
X-10427Y291964D01*
X-10435Y291972D01*
X-10464Y291994D01*
X-10509Y292024D01*
X-10560Y292061D01*
X-10627Y292105D01*
X-10694Y292149D01*
X-10834Y292246D01*
X-11715Y292875D01*
Y293637D01*
X-9924Y292371D01*
X-8000Y293726D01*
Y292956D01*
D02*
G37*
G36*
X-12514Y288368D02*
X-8000D01*
Y287687D01*
X-12514D01*
Y286000D01*
X-13121D01*
Y290055D01*
X-12514D01*
Y288368D01*
D02*
G37*
G36*
X-7500Y304356D02*
X-8647Y303586D01*
X-8921Y303408D01*
X-7500Y302409D01*
Y301647D01*
X-9424Y303001D01*
X-11215Y301751D01*
Y302520D01*
X-10334Y303105D01*
X-10327Y303112D01*
X-10297Y303135D01*
X-10245Y303164D01*
X-10194Y303201D01*
X-10127Y303238D01*
X-10060Y303283D01*
X-9994Y303327D01*
X-9927Y303364D01*
X-9935Y303371D01*
X-9964Y303394D01*
X-10009Y303423D01*
X-10060Y303460D01*
X-10127Y303505D01*
X-10194Y303549D01*
X-10334Y303645D01*
X-11215Y304274D01*
Y305036D01*
X-9424Y303771D01*
X-7500Y305125D01*
Y304356D01*
D02*
G37*
G36*
Y300656D02*
X-8566Y299982D01*
X-8573D01*
X-8588Y299967D01*
X-8610Y299953D01*
X-8640Y299930D01*
X-8721Y299879D01*
X-8825Y299812D01*
X-8936Y299731D01*
X-9054Y299649D01*
X-9165Y299568D01*
X-9269Y299494D01*
X-9276Y299486D01*
X-9306Y299464D01*
X-9350Y299427D01*
X-9402Y299375D01*
X-9513Y299264D01*
X-9565Y299205D01*
X-9609Y299146D01*
X-9616Y299139D01*
X-9624Y299124D01*
X-9639Y299094D01*
X-9661Y299050D01*
X-9683Y299005D01*
X-9705Y298954D01*
X-9742Y298835D01*
Y298828D01*
X-9750Y298813D01*
Y298783D01*
X-9757Y298746D01*
X-9764Y298695D01*
Y298635D01*
X-9772Y298554D01*
Y297681D01*
X-7500D01*
Y297000D01*
X-12621D01*
Y299375D01*
X-12613Y299435D01*
Y299501D01*
X-12606Y299657D01*
X-12584Y299819D01*
X-12562Y299997D01*
X-12525Y300160D01*
X-12502Y300241D01*
X-12480Y300308D01*
Y300315D01*
X-12473Y300323D01*
X-12451Y300367D01*
X-12421Y300434D01*
X-12369Y300515D01*
X-12303Y300604D01*
X-12214Y300700D01*
X-12110Y300789D01*
X-11992Y300878D01*
X-11984D01*
X-11977Y300885D01*
X-11933Y300915D01*
X-11859Y300944D01*
X-11762Y300989D01*
X-11651Y301026D01*
X-11518Y301063D01*
X-11378Y301085D01*
X-11222Y301092D01*
X-11215D01*
X-11200D01*
X-11170D01*
X-11133Y301085D01*
X-11082D01*
X-11030Y301077D01*
X-10904Y301048D01*
X-10756Y301003D01*
X-10601Y300944D01*
X-10445Y300855D01*
X-10371Y300796D01*
X-10297Y300737D01*
X-10290Y300730D01*
X-10282Y300722D01*
X-10260Y300700D01*
X-10238Y300670D01*
X-10208Y300633D01*
X-10179Y300589D01*
X-10142Y300530D01*
X-10097Y300471D01*
X-10060Y300397D01*
X-10023Y300315D01*
X-9979Y300226D01*
X-9942Y300130D01*
X-9912Y300019D01*
X-9875Y299908D01*
X-9853Y299782D01*
X-9831Y299649D01*
X-9824Y299664D01*
X-9809Y299694D01*
X-9779Y299738D01*
X-9750Y299797D01*
X-9668Y299930D01*
X-9616Y299997D01*
X-9572Y300056D01*
X-9557Y300071D01*
X-9520Y300108D01*
X-9461Y300167D01*
X-9387Y300241D01*
X-9283Y300323D01*
X-9172Y300419D01*
X-9039Y300515D01*
X-8891Y300619D01*
X-7500Y301499D01*
Y300656D01*
D02*
G37*
G36*
X-8000Y320686D02*
Y319976D01*
X-13121Y317993D01*
Y318733D01*
X-9399Y320065D01*
X-9391D01*
X-9376Y320072D01*
X-9354Y320079D01*
X-9325Y320094D01*
X-9280Y320102D01*
X-9236Y320116D01*
X-9125Y320153D01*
X-8999Y320198D01*
X-8858Y320242D01*
X-8562Y320331D01*
X-8570D01*
X-8585Y320338D01*
X-8607Y320346D01*
X-8636Y320353D01*
X-8718Y320375D01*
X-8829Y320412D01*
X-8955Y320449D01*
X-9095Y320494D01*
X-9243Y320546D01*
X-9399Y320605D01*
X-13121Y321996D01*
Y322684D01*
X-8000Y320686D01*
D02*
G37*
G36*
X210000Y19742D02*
X209201Y19237D01*
X209195D01*
X209184Y19226D01*
X209168Y19214D01*
X209145Y19198D01*
X209084Y19159D01*
X209007Y19109D01*
X208923Y19048D01*
X208835Y18987D01*
X208751Y18926D01*
X208674Y18870D01*
X208668Y18865D01*
X208646Y18848D01*
X208612Y18820D01*
X208574Y18781D01*
X208490Y18698D01*
X208452Y18654D01*
X208418Y18609D01*
X208413Y18604D01*
X208407Y18593D01*
X208396Y18571D01*
X208379Y18537D01*
X208363Y18504D01*
X208346Y18465D01*
X208318Y18376D01*
Y18371D01*
X208313Y18360D01*
Y18338D01*
X208307Y18310D01*
X208302Y18271D01*
Y18227D01*
X208296Y18166D01*
Y17511D01*
X210000D01*
Y17000D01*
X206159D01*
Y18781D01*
X206165Y18826D01*
Y18876D01*
X206171Y18992D01*
X206187Y19115D01*
X206204Y19248D01*
X206232Y19370D01*
X206248Y19431D01*
X206265Y19481D01*
Y19486D01*
X206270Y19492D01*
X206287Y19525D01*
X206309Y19575D01*
X206348Y19636D01*
X206398Y19703D01*
X206465Y19775D01*
X206542Y19842D01*
X206631Y19908D01*
X206637D01*
X206642Y19914D01*
X206676Y19936D01*
X206731Y19958D01*
X206803Y19992D01*
X206887Y20019D01*
X206986Y20047D01*
X207092Y20064D01*
X207208Y20069D01*
X207214D01*
X207225D01*
X207247D01*
X207275Y20064D01*
X207314D01*
X207353Y20058D01*
X207447Y20036D01*
X207558Y20003D01*
X207675Y19958D01*
X207791Y19892D01*
X207847Y19847D01*
X207902Y19803D01*
X207908Y19797D01*
X207913Y19792D01*
X207930Y19775D01*
X207946Y19753D01*
X207969Y19725D01*
X207991Y19692D01*
X208019Y19647D01*
X208052Y19603D01*
X208080Y19547D01*
X208107Y19486D01*
X208141Y19420D01*
X208169Y19348D01*
X208191Y19264D01*
X208218Y19181D01*
X208235Y19087D01*
X208252Y18987D01*
X208257Y18998D01*
X208268Y19020D01*
X208291Y19053D01*
X208313Y19098D01*
X208374Y19198D01*
X208413Y19248D01*
X208446Y19292D01*
X208457Y19303D01*
X208485Y19331D01*
X208529Y19375D01*
X208585Y19431D01*
X208662Y19492D01*
X208746Y19564D01*
X208846Y19636D01*
X208957Y19714D01*
X210000Y20374D01*
Y19742D01*
D02*
G37*
G36*
X209473Y9552D02*
X209478Y9541D01*
X209495Y9519D01*
X209517Y9491D01*
X209539Y9458D01*
X209567Y9419D01*
X209600Y9369D01*
X209634Y9319D01*
X209706Y9202D01*
X209784Y9069D01*
X209856Y8930D01*
X209917Y8781D01*
Y8775D01*
X209922Y8764D01*
X209928Y8742D01*
X209939Y8714D01*
X209950Y8675D01*
X209967Y8631D01*
X209978Y8581D01*
X209989Y8531D01*
X210017Y8409D01*
X210044Y8270D01*
X210061Y8120D01*
X210067Y7965D01*
Y7909D01*
X210061Y7870D01*
Y7820D01*
X210055Y7759D01*
X210044Y7693D01*
X210039Y7621D01*
X210005Y7460D01*
X209967Y7288D01*
X209906Y7110D01*
X209872Y7021D01*
X209828Y6932D01*
X209822Y6927D01*
X209817Y6910D01*
X209800Y6888D01*
X209784Y6855D01*
X209756Y6816D01*
X209728Y6777D01*
X209650Y6672D01*
X209550Y6561D01*
X209428Y6444D01*
X209290Y6333D01*
X209129Y6233D01*
X209123D01*
X209106Y6222D01*
X209084Y6211D01*
X209045Y6194D01*
X209007Y6178D01*
X208951Y6161D01*
X208896Y6139D01*
X208829Y6117D01*
X208757Y6094D01*
X208674Y6072D01*
X208590Y6055D01*
X208502Y6039D01*
X208307Y6011D01*
X208102Y6000D01*
X208096D01*
X208074D01*
X208046D01*
X208008Y6006D01*
X207958D01*
X207896Y6011D01*
X207836Y6022D01*
X207763Y6028D01*
X207686Y6044D01*
X207602Y6055D01*
X207425Y6100D01*
X207242Y6155D01*
X207059Y6233D01*
X207053Y6239D01*
X207036Y6244D01*
X207014Y6255D01*
X206981Y6278D01*
X206936Y6300D01*
X206892Y6328D01*
X206786Y6405D01*
X206664Y6499D01*
X206548Y6616D01*
X206431Y6749D01*
X206381Y6827D01*
X206331Y6905D01*
X206326Y6910D01*
X206320Y6927D01*
X206309Y6949D01*
X206293Y6982D01*
X206276Y7027D01*
X206254Y7077D01*
X206232Y7132D01*
X206209Y7199D01*
X206187Y7271D01*
X206171Y7349D01*
X206148Y7432D01*
X206132Y7521D01*
X206104Y7715D01*
X206093Y7815D01*
Y7992D01*
X206098Y8026D01*
Y8070D01*
X206109Y8176D01*
X206126Y8292D01*
X206154Y8414D01*
X206187Y8547D01*
X206232Y8675D01*
Y8681D01*
X206237Y8692D01*
X206243Y8708D01*
X206254Y8731D01*
X206287Y8792D01*
X206326Y8869D01*
X206381Y8953D01*
X206448Y9041D01*
X206520Y9125D01*
X206609Y9202D01*
X206620Y9213D01*
X206653Y9236D01*
X206703Y9269D01*
X206775Y9313D01*
X206864Y9358D01*
X206975Y9408D01*
X207097Y9458D01*
X207236Y9497D01*
X207358Y9036D01*
X207353D01*
X207347Y9030D01*
X207330Y9025D01*
X207308Y9019D01*
X207258Y9003D01*
X207192Y8980D01*
X207114Y8947D01*
X207042Y8908D01*
X206964Y8869D01*
X206898Y8819D01*
X206892Y8814D01*
X206870Y8797D01*
X206842Y8764D01*
X206803Y8725D01*
X206759Y8675D01*
X206714Y8608D01*
X206670Y8536D01*
X206631Y8453D01*
X206626Y8442D01*
X206614Y8414D01*
X206598Y8364D01*
X206576Y8298D01*
X206559Y8220D01*
X206542Y8131D01*
X206531Y8031D01*
X206526Y7926D01*
Y7865D01*
X206531Y7837D01*
Y7804D01*
X206537Y7721D01*
X206554Y7626D01*
X206570Y7521D01*
X206598Y7421D01*
X206637Y7321D01*
X206642Y7310D01*
X206653Y7277D01*
X206681Y7232D01*
X206709Y7177D01*
X206753Y7110D01*
X206798Y7038D01*
X206853Y6971D01*
X206914Y6910D01*
X206920Y6905D01*
X206942Y6882D01*
X206981Y6855D01*
X207025Y6821D01*
X207081Y6783D01*
X207147Y6744D01*
X207220Y6705D01*
X207297Y6666D01*
X207303D01*
X207314Y6661D01*
X207330Y6655D01*
X207358Y6644D01*
X207392Y6633D01*
X207430Y6622D01*
X207475Y6605D01*
X207525Y6594D01*
X207641Y6566D01*
X207774Y6544D01*
X207913Y6527D01*
X208069Y6522D01*
X208074D01*
X208091D01*
X208119D01*
X208152Y6527D01*
X208196D01*
X208252Y6533D01*
X208307Y6538D01*
X208368Y6544D01*
X208507Y6566D01*
X208651Y6594D01*
X208796Y6638D01*
X208934Y6694D01*
X208940D01*
X208951Y6705D01*
X208968Y6710D01*
X208990Y6727D01*
X209051Y6766D01*
X209129Y6827D01*
X209212Y6899D01*
X209295Y6988D01*
X209373Y7093D01*
X209445Y7210D01*
Y7215D01*
X209451Y7227D01*
X209462Y7243D01*
X209473Y7271D01*
X209484Y7299D01*
X209495Y7338D01*
X209528Y7426D01*
X209556Y7537D01*
X209584Y7659D01*
X209606Y7793D01*
X209612Y7931D01*
Y7987D01*
X209606Y8020D01*
Y8054D01*
X209595Y8137D01*
X209584Y8237D01*
X209561Y8342D01*
X209528Y8459D01*
X209489Y8575D01*
Y8581D01*
X209484Y8592D01*
X209478Y8603D01*
X209467Y8625D01*
X209439Y8686D01*
X209406Y8753D01*
X209367Y8830D01*
X209323Y8914D01*
X209273Y8991D01*
X209218Y9058D01*
X208496D01*
Y7926D01*
X208041D01*
Y9558D01*
X209467D01*
X209473Y9552D01*
D02*
G37*
G36*
X210000Y27500D02*
X206159D01*
Y28011D01*
X209545D01*
Y29903D01*
X210000D01*
Y27500D01*
D02*
G37*
G36*
X199615Y28982D02*
X203000D01*
Y28472D01*
X199615D01*
Y27207D01*
X199159D01*
Y30248D01*
X199615D01*
Y28982D01*
D02*
G37*
G36*
X201524Y26640D02*
X201579D01*
X201646Y26635D01*
X201712Y26629D01*
X201862Y26613D01*
X202018Y26590D01*
X202168Y26557D01*
X202240Y26535D01*
X202306Y26513D01*
X202312D01*
X202323Y26507D01*
X202340Y26496D01*
X202362Y26485D01*
X202423Y26452D01*
X202501Y26402D01*
X202589Y26335D01*
X202678Y26258D01*
X202772Y26158D01*
X202856Y26035D01*
Y26030D01*
X202867Y26019D01*
X202872Y26002D01*
X202889Y25975D01*
X202906Y25941D01*
X202922Y25897D01*
X202939Y25852D01*
X202961Y25797D01*
X202983Y25736D01*
X203000Y25669D01*
X203017Y25597D01*
X203033Y25514D01*
X203044Y25431D01*
X203056Y25342D01*
X203067Y25142D01*
Y25092D01*
X203061Y25053D01*
Y25009D01*
X203056Y24953D01*
X203050Y24892D01*
X203044Y24831D01*
X203022Y24692D01*
X202989Y24543D01*
X202944Y24398D01*
X202883Y24260D01*
Y24254D01*
X202872Y24243D01*
X202861Y24226D01*
X202850Y24204D01*
X202806Y24143D01*
X202745Y24071D01*
X202667Y23988D01*
X202578Y23910D01*
X202467Y23832D01*
X202345Y23771D01*
X202340D01*
X202328Y23765D01*
X202306Y23760D01*
X202278Y23749D01*
X202245Y23738D01*
X202201Y23727D01*
X202151Y23710D01*
X202090Y23699D01*
X202023Y23688D01*
X201951Y23671D01*
X201873Y23660D01*
X201790Y23649D01*
X201696Y23638D01*
X201596Y23632D01*
X201490Y23627D01*
X201379D01*
X199159D01*
Y24137D01*
X201379D01*
X201385D01*
X201402D01*
X201429D01*
X201463D01*
X201501Y24143D01*
X201551D01*
X201657Y24148D01*
X201779Y24160D01*
X201901Y24176D01*
X202018Y24198D01*
X202068Y24209D01*
X202118Y24226D01*
X202129Y24232D01*
X202156Y24243D01*
X202195Y24271D01*
X202251Y24304D01*
X202306Y24343D01*
X202367Y24398D01*
X202428Y24465D01*
X202478Y24543D01*
X202484Y24554D01*
X202501Y24581D01*
X202517Y24631D01*
X202539Y24698D01*
X202567Y24776D01*
X202584Y24876D01*
X202600Y24981D01*
X202606Y25098D01*
Y25153D01*
X202600Y25186D01*
Y25236D01*
X202595Y25286D01*
X202573Y25408D01*
X202545Y25542D01*
X202501Y25669D01*
X202439Y25791D01*
X202401Y25847D01*
X202356Y25897D01*
X202351Y25902D01*
X202345Y25908D01*
X202328Y25919D01*
X202306Y25936D01*
X202273Y25952D01*
X202240Y25975D01*
X202190Y25997D01*
X202140Y26019D01*
X202079Y26041D01*
X202007Y26058D01*
X201923Y26080D01*
X201835Y26097D01*
X201735Y26113D01*
X201629Y26124D01*
X201507Y26135D01*
X201379D01*
X199159D01*
Y26646D01*
X201379D01*
X201385D01*
X201407D01*
X201435D01*
X201474D01*
X201524Y26640D01*
D02*
G37*
G36*
X201191Y22961D02*
X201241D01*
X201302Y22955D01*
X201368Y22944D01*
X201441Y22939D01*
X201601Y22911D01*
X201779Y22866D01*
X201957Y22805D01*
X202045Y22772D01*
X202134Y22728D01*
X202140D01*
X202156Y22717D01*
X202179Y22705D01*
X202212Y22683D01*
X202251Y22661D01*
X202290Y22633D01*
X202395Y22556D01*
X202506Y22461D01*
X202623Y22350D01*
X202734Y22217D01*
X202834Y22062D01*
Y22056D01*
X202845Y22045D01*
X202856Y22017D01*
X202872Y21984D01*
X202889Y21945D01*
X202906Y21901D01*
X202928Y21845D01*
X202950Y21784D01*
X202972Y21718D01*
X202994Y21645D01*
X203028Y21485D01*
X203056Y21313D01*
X203067Y21129D01*
Y21074D01*
X203061Y21041D01*
Y20990D01*
X203050Y20935D01*
X203044Y20874D01*
X203033Y20802D01*
X203000Y20652D01*
X202956Y20491D01*
X202889Y20324D01*
X202850Y20241D01*
X202806Y20158D01*
X202800Y20153D01*
X202795Y20141D01*
X202778Y20119D01*
X202756Y20086D01*
X202734Y20053D01*
X202700Y20014D01*
X202617Y19919D01*
X202517Y19814D01*
X202395Y19703D01*
X202256Y19603D01*
X202095Y19509D01*
X202090D01*
X202073Y19498D01*
X202051Y19487D01*
X202018Y19475D01*
X201973Y19459D01*
X201923Y19442D01*
X201868Y19420D01*
X201807Y19403D01*
X201735Y19381D01*
X201662Y19359D01*
X201496Y19326D01*
X201324Y19303D01*
X201135Y19292D01*
X201130D01*
X201124D01*
X201091D01*
X201041Y19298D01*
X200974D01*
X200897Y19309D01*
X200802Y19320D01*
X200697Y19337D01*
X200586Y19359D01*
X200469Y19381D01*
X200347Y19414D01*
X200225Y19459D01*
X200097Y19509D01*
X199975Y19564D01*
X199853Y19636D01*
X199742Y19714D01*
X199637Y19803D01*
X199631Y19808D01*
X199615Y19825D01*
X199587Y19858D01*
X199553Y19897D01*
X199509Y19947D01*
X199465Y20008D01*
X199415Y20080D01*
X199365Y20164D01*
X199315Y20252D01*
X199265Y20352D01*
X199221Y20463D01*
X199176Y20580D01*
X199143Y20707D01*
X199115Y20841D01*
X199098Y20979D01*
X199093Y21129D01*
Y21179D01*
X199098Y21218D01*
Y21268D01*
X199104Y21318D01*
X199115Y21385D01*
X199126Y21451D01*
X199154Y21596D01*
X199198Y21762D01*
X199265Y21923D01*
X199304Y22006D01*
X199348Y22089D01*
X199354Y22095D01*
X199359Y22106D01*
X199376Y22128D01*
X199392Y22162D01*
X199420Y22195D01*
X199453Y22239D01*
X199531Y22334D01*
X199631Y22433D01*
X199753Y22545D01*
X199898Y22650D01*
X200059Y22739D01*
X200064D01*
X200081Y22750D01*
X200103Y22761D01*
X200136Y22772D01*
X200181Y22794D01*
X200231Y22811D01*
X200292Y22833D01*
X200358Y22855D01*
X200430Y22872D01*
X200508Y22894D01*
X200597Y22916D01*
X200686Y22933D01*
X200880Y22955D01*
X201091Y22966D01*
X201096D01*
X201119D01*
X201146D01*
X201191Y22961D01*
D02*
G37*
G36*
X203000Y14380D02*
X199159D01*
Y17161D01*
X199615D01*
Y14891D01*
X200785D01*
Y17017D01*
X201241D01*
Y14891D01*
X202545D01*
Y17250D01*
X203000D01*
Y14380D01*
D02*
G37*
G36*
Y12993D02*
X199986Y10984D01*
X203000D01*
Y10496D01*
X199159D01*
Y11017D01*
X202179Y13032D01*
X199159D01*
Y13520D01*
X203000D01*
Y12993D01*
D02*
G37*
G36*
Y9091D02*
X199159D01*
Y9602D01*
X203000D01*
Y9091D01*
D02*
G37*
G36*
Y6000D02*
X199159D01*
Y6511D01*
X202545D01*
Y8403D01*
X203000D01*
Y6000D01*
D02*
G37*
G36*
X3969Y50143D02*
X6753D01*
Y48973D01*
X3969D01*
Y46159D01*
X2784D01*
Y48973D01*
X0D01*
Y50143D01*
X2784D01*
Y52927D01*
X3969D01*
Y50143D01*
D02*
G37*
G36*
X155895Y284580D02*
X152000D01*
Y285839D01*
X155895D01*
Y284580D01*
D02*
G37*
G36*
X143969Y284143D02*
X146753D01*
Y282973D01*
X143969D01*
Y280159D01*
X142784D01*
Y282973D01*
X140000D01*
Y284143D01*
X142784D01*
Y286927D01*
X143969D01*
Y284143D01*
D02*
G37*
G36*
X137000Y305231D02*
X126949Y298531D01*
X137000D01*
Y296902D01*
X124191D01*
Y298642D01*
X134260Y305361D01*
X124191D01*
Y306990D01*
X137000D01*
Y305231D01*
D02*
G37*
G36*
Y285000D02*
X124191D01*
Y294273D01*
X125709D01*
Y286703D01*
X129614D01*
Y293792D01*
X131132D01*
Y286703D01*
X135482D01*
Y294570D01*
X137000D01*
Y285000D01*
D02*
G37*
G36*
X149500Y265231D02*
X139449Y258530D01*
X149500D01*
Y256902D01*
X136691D01*
Y258641D01*
X146760Y265360D01*
X136691D01*
Y266989D01*
X149500D01*
Y265231D01*
D02*
G37*
G36*
X143410Y254569D02*
X143558D01*
X143910Y254551D01*
X144317Y254495D01*
X144743Y254440D01*
X145187Y254347D01*
X145631Y254236D01*
X145650D01*
X145687Y254218D01*
X145742Y254199D01*
X145817Y254181D01*
X146020Y254106D01*
X146279Y253995D01*
X146575Y253884D01*
X146872Y253736D01*
X147186Y253551D01*
X147482Y253366D01*
X147519Y253348D01*
X147612Y253274D01*
X147742Y253162D01*
X147908Y253014D01*
X148093Y252848D01*
X148278Y252644D01*
X148482Y252441D01*
X148649Y252200D01*
X148667Y252163D01*
X148723Y252089D01*
X148797Y251959D01*
X148889Y251774D01*
X149000Y251552D01*
X149093Y251293D01*
X149204Y250997D01*
X149296Y250664D01*
Y250627D01*
X149315Y250571D01*
X149333Y250516D01*
X149352Y250330D01*
X149389Y250071D01*
X149426Y249775D01*
X149463Y249423D01*
X149481Y249035D01*
X149500Y248609D01*
Y244000D01*
X136691D01*
Y248924D01*
X136710Y249257D01*
X136728Y249627D01*
X136765Y249997D01*
X136821Y250367D01*
X136876Y250682D01*
Y250701D01*
X136895Y250738D01*
Y250793D01*
X136932Y250867D01*
X136987Y251071D01*
X137080Y251330D01*
X137209Y251626D01*
X137376Y251941D01*
X137561Y252256D01*
X137802Y252552D01*
X137820Y252570D01*
X137839Y252589D01*
X137894Y252644D01*
X137950Y252718D01*
X138135Y252903D01*
X138394Y253125D01*
X138709Y253366D01*
X139079Y253625D01*
X139505Y253866D01*
X139986Y254069D01*
X140004D01*
X140041Y254088D01*
X140115Y254125D01*
X140226Y254144D01*
X140356Y254199D01*
X140504Y254236D01*
X140671Y254273D01*
X140874Y254329D01*
X141078Y254384D01*
X141319Y254421D01*
X141837Y254514D01*
X142411Y254569D01*
X143040Y254588D01*
X143059D01*
X143096D01*
X143188D01*
X143281D01*
X143410Y254569D01*
D02*
G37*
G36*
X140394Y231656D02*
X140524Y231638D01*
X140690Y231619D01*
X140875Y231582D01*
X141079Y231545D01*
X141505Y231416D01*
X141727Y231342D01*
X141967Y231230D01*
X142208Y231101D01*
X142430Y230971D01*
X142652Y230805D01*
X142874Y230620D01*
X142893Y230601D01*
X142930Y230564D01*
X142985Y230509D01*
X143041Y230416D01*
X143133Y230305D01*
X143226Y230157D01*
X143337Y229972D01*
X143430Y229768D01*
X143541Y229528D01*
X143652Y229250D01*
X143744Y228954D01*
X143818Y228602D01*
X143892Y228232D01*
X143948Y227825D01*
X143985Y227362D01*
X144003Y226881D01*
Y223604D01*
X149205D01*
Y221901D01*
X136396D01*
Y227158D01*
X136414Y227436D01*
X136433Y227751D01*
X136451Y228084D01*
X136488Y228398D01*
X136525Y228676D01*
Y228713D01*
X136562Y228843D01*
X136599Y229009D01*
X136655Y229231D01*
X136748Y229472D01*
X136858Y229731D01*
X136988Y230009D01*
X137136Y230250D01*
X137155Y230287D01*
X137210Y230361D01*
X137321Y230472D01*
X137451Y230620D01*
X137618Y230786D01*
X137840Y230953D01*
X138080Y231138D01*
X138358Y231286D01*
X138395Y231305D01*
X138487Y231342D01*
X138654Y231416D01*
X138876Y231490D01*
X139135Y231545D01*
X139431Y231619D01*
X139765Y231656D01*
X140116Y231675D01*
X140135D01*
X140190D01*
X140264D01*
X140394Y231656D01*
D02*
G37*
G36*
X144281Y219051D02*
X144466D01*
X144688Y219032D01*
X144910Y219014D01*
X145410Y218958D01*
X145928Y218884D01*
X146428Y218773D01*
X146669Y218699D01*
X146891Y218625D01*
X146909D01*
X146947Y218607D01*
X147002Y218570D01*
X147076Y218533D01*
X147280Y218422D01*
X147539Y218255D01*
X147835Y218033D01*
X148131Y217774D01*
X148446Y217441D01*
X148723Y217033D01*
Y217015D01*
X148760Y216978D01*
X148779Y216922D01*
X148835Y216830D01*
X148890Y216719D01*
X148946Y216571D01*
X149001Y216423D01*
X149075Y216237D01*
X149149Y216034D01*
X149205Y215812D01*
X149260Y215571D01*
X149316Y215293D01*
X149353Y215016D01*
X149390Y214720D01*
X149427Y214053D01*
Y213887D01*
X149408Y213757D01*
Y213609D01*
X149390Y213424D01*
X149371Y213220D01*
X149353Y213017D01*
X149279Y212554D01*
X149168Y212054D01*
X149020Y211573D01*
X148816Y211110D01*
Y211092D01*
X148779Y211055D01*
X148742Y210999D01*
X148705Y210925D01*
X148557Y210721D01*
X148353Y210481D01*
X148094Y210203D01*
X147798Y209944D01*
X147428Y209685D01*
X147020Y209481D01*
X147002D01*
X146965Y209463D01*
X146891Y209444D01*
X146798Y209407D01*
X146687Y209370D01*
X146539Y209333D01*
X146373Y209278D01*
X146169Y209241D01*
X145947Y209204D01*
X145706Y209148D01*
X145447Y209111D01*
X145169Y209074D01*
X144855Y209037D01*
X144522Y209018D01*
X144170Y209000D01*
X143800D01*
X136396D01*
Y210703D01*
X143800D01*
X143818D01*
X143874D01*
X143966D01*
X144077D01*
X144207Y210721D01*
X144374D01*
X144725Y210740D01*
X145133Y210777D01*
X145540Y210833D01*
X145928Y210907D01*
X146095Y210944D01*
X146262Y210999D01*
X146299Y211018D01*
X146391Y211055D01*
X146521Y211147D01*
X146706Y211258D01*
X146891Y211388D01*
X147095Y211573D01*
X147298Y211795D01*
X147465Y212054D01*
X147483Y212091D01*
X147539Y212184D01*
X147594Y212350D01*
X147668Y212572D01*
X147761Y212832D01*
X147817Y213165D01*
X147872Y213516D01*
X147890Y213905D01*
Y214090D01*
X147872Y214201D01*
Y214368D01*
X147854Y214534D01*
X147779Y214942D01*
X147687Y215386D01*
X147539Y215812D01*
X147335Y216219D01*
X147206Y216404D01*
X147058Y216571D01*
X147039Y216589D01*
X147020Y216608D01*
X146965Y216645D01*
X146891Y216700D01*
X146780Y216756D01*
X146669Y216830D01*
X146502Y216904D01*
X146336Y216978D01*
X146132Y217052D01*
X145891Y217107D01*
X145614Y217181D01*
X145318Y217237D01*
X144984Y217292D01*
X144633Y217330D01*
X144226Y217367D01*
X143800D01*
X136396D01*
Y219069D01*
X143800D01*
X143818D01*
X143892D01*
X143985D01*
X144114D01*
X144281Y219051D01*
D02*
G37*
G36*
X279309Y97797D02*
X268018D01*
Y91485D01*
X266500D01*
Y99500D01*
X279309D01*
Y97797D01*
D02*
G37*
G36*
X271387Y90245D02*
X271572D01*
X271775Y90227D01*
X272035Y90189D01*
X272294Y90152D01*
X272590Y90078D01*
X272886Y90004D01*
X273201Y89912D01*
X273534Y89801D01*
X273849Y89653D01*
X274145Y89505D01*
X274441Y89301D01*
X274718Y89097D01*
X274959Y88838D01*
X274978Y88820D01*
X274996Y88783D01*
X275052Y88709D01*
X275126Y88616D01*
X275200Y88505D01*
X275292Y88357D01*
X275385Y88209D01*
X275477Y88024D01*
X275570Y87820D01*
X275662Y87598D01*
X275829Y87098D01*
X275959Y86524D01*
X275977Y86228D01*
X275996Y85914D01*
Y85729D01*
X275977Y85599D01*
X275959Y85432D01*
X275922Y85247D01*
X275885Y85044D01*
X275848Y84803D01*
X275681Y84303D01*
X275588Y84044D01*
X275459Y83785D01*
X275329Y83526D01*
X275144Y83267D01*
X274959Y83026D01*
X274737Y82785D01*
X274718Y82767D01*
X274681Y82730D01*
X274607Y82674D01*
X274515Y82600D01*
X274385Y82508D01*
X274219Y82397D01*
X274034Y82286D01*
X273830Y82175D01*
X273608Y82064D01*
X273330Y81953D01*
X273053Y81841D01*
X272738Y81749D01*
X272405Y81675D01*
X272053Y81619D01*
X271683Y81582D01*
X271276Y81564D01*
X271257D01*
X271201D01*
X271109D01*
X270979D01*
X270831Y81582D01*
X270646Y81601D01*
X270461D01*
X270257Y81638D01*
X269795Y81693D01*
X269332Y81804D01*
X268869Y81934D01*
X268444Y82119D01*
X268425D01*
X268407Y82138D01*
X268351Y82175D01*
X268277Y82212D01*
X268092Y82341D01*
X267870Y82508D01*
X267611Y82730D01*
X267352Y83008D01*
X267092Y83322D01*
X266852Y83693D01*
Y83711D01*
X266833Y83729D01*
X266796Y83785D01*
X266759Y83878D01*
X266722Y83970D01*
X266685Y84081D01*
X266574Y84359D01*
X266481Y84674D01*
X266389Y85062D01*
X266315Y85469D01*
X266296Y85914D01*
Y86099D01*
X266315Y86247D01*
X266333Y86413D01*
X266370Y86598D01*
X266407Y86821D01*
X266444Y87043D01*
X266593Y87542D01*
X266704Y87820D01*
X266815Y88079D01*
X266963Y88339D01*
X267129Y88598D01*
X267314Y88838D01*
X267537Y89079D01*
X267555Y89097D01*
X267592Y89134D01*
X267666Y89190D01*
X267777Y89264D01*
X267907Y89356D01*
X268055Y89449D01*
X268240Y89560D01*
X268462Y89671D01*
X268703Y89782D01*
X268980Y89893D01*
X269276Y89986D01*
X269591Y90078D01*
X269943Y90152D01*
X270313Y90208D01*
X270720Y90245D01*
X271146Y90263D01*
X271183D01*
X271257D01*
X271387Y90245D01*
D02*
G37*
G36*
X271535Y80305D02*
X271664D01*
X271997Y80268D01*
X272368Y80213D01*
X272775Y80120D01*
X273201Y80009D01*
X273626Y79842D01*
X273645D01*
X273682Y79824D01*
X273737Y79787D01*
X273812Y79750D01*
X274015Y79639D01*
X274274Y79491D01*
X274552Y79287D01*
X274830Y79046D01*
X275126Y78769D01*
X275366Y78454D01*
Y78436D01*
X275385Y78417D01*
X275422Y78362D01*
X275459Y78288D01*
X275570Y78102D01*
X275681Y77843D01*
X275792Y77529D01*
X275903Y77158D01*
X275977Y76751D01*
X275996Y76307D01*
Y76140D01*
X275977Y76029D01*
X275959Y75900D01*
X275922Y75733D01*
X275885Y75548D01*
X275829Y75344D01*
X275755Y75141D01*
X275662Y74919D01*
X275551Y74697D01*
X275422Y74456D01*
X275274Y74234D01*
X275089Y74012D01*
X274885Y73790D01*
X274644Y73586D01*
X275792D01*
Y72142D01*
X267759D01*
X267740D01*
X267666D01*
X267555D01*
X267407D01*
X267240Y72161D01*
X267037D01*
X266815Y72179D01*
X266574Y72198D01*
X266074Y72253D01*
X265556Y72327D01*
X265315Y72383D01*
X265093Y72438D01*
X264890Y72512D01*
X264704Y72587D01*
X264686D01*
X264668Y72605D01*
X264556Y72679D01*
X264390Y72772D01*
X264186Y72920D01*
X263964Y73123D01*
X263723Y73364D01*
X263483Y73660D01*
X263279Y73993D01*
Y74012D01*
X263261Y74030D01*
X263224Y74086D01*
X263205Y74160D01*
X263150Y74252D01*
X263113Y74363D01*
X263020Y74641D01*
X262909Y74974D01*
X262835Y75381D01*
X262761Y75844D01*
X262742Y76344D01*
Y76511D01*
X262761Y76622D01*
Y76770D01*
X262779Y76918D01*
X262798Y77103D01*
X262835Y77306D01*
X262928Y77732D01*
X263057Y78176D01*
X263242Y78621D01*
X263501Y79028D01*
X263520Y79046D01*
X263538Y79065D01*
X263650Y79194D01*
X263816Y79343D01*
X264057Y79528D01*
X264371Y79713D01*
X264760Y79879D01*
X264982Y79935D01*
X265223Y79972D01*
X265463Y80009D01*
X265741D01*
X265538Y78473D01*
X265500D01*
X265426Y78454D01*
X265297Y78417D01*
X265130Y78380D01*
X264964Y78306D01*
X264797Y78214D01*
X264631Y78102D01*
X264501Y77954D01*
X264482Y77917D01*
X264427Y77843D01*
X264353Y77714D01*
X264279Y77529D01*
X264186Y77306D01*
X264112Y77029D01*
X264057Y76696D01*
X264038Y76344D01*
Y76159D01*
X264057Y75974D01*
X264094Y75715D01*
X264149Y75455D01*
X264223Y75178D01*
X264334Y74900D01*
X264482Y74660D01*
X264501Y74641D01*
X264556Y74567D01*
X264668Y74456D01*
X264797Y74326D01*
X264982Y74197D01*
X265186Y74067D01*
X265426Y73938D01*
X265704Y73845D01*
X265723D01*
X265797Y73827D01*
X265945Y73808D01*
X266130Y73790D01*
X266259Y73771D01*
X266407D01*
X266574Y73753D01*
X266759D01*
X266963D01*
X267203Y73734D01*
X267444D01*
X267722D01*
X267703Y73753D01*
X267666Y73790D01*
X267611Y73845D01*
X267537Y73919D01*
X267444Y74012D01*
X267333Y74141D01*
X267222Y74289D01*
X267111Y74437D01*
X266889Y74826D01*
X266685Y75252D01*
X266611Y75493D01*
X266556Y75752D01*
X266518Y76029D01*
X266500Y76307D01*
Y76399D01*
X266518Y76492D01*
Y76622D01*
X266537Y76788D01*
X266574Y76973D01*
X266611Y77177D01*
X266667Y77399D01*
X266741Y77640D01*
X266833Y77880D01*
X266944Y78121D01*
X267074Y78380D01*
X267240Y78621D01*
X267425Y78861D01*
X267629Y79084D01*
X267870Y79287D01*
X267888Y79306D01*
X267925Y79324D01*
X268018Y79380D01*
X268110Y79454D01*
X268258Y79528D01*
X268407Y79620D01*
X268592Y79713D01*
X268814Y79805D01*
X269036Y79898D01*
X269295Y79991D01*
X269554Y80083D01*
X269850Y80157D01*
X270480Y80287D01*
X270831Y80305D01*
X271183Y80324D01*
X271201D01*
X271239D01*
X271313D01*
X271405D01*
X271535Y80305D01*
D02*
G37*
G36*
Y70347D02*
X271664D01*
X271997Y70310D01*
X272368Y70254D01*
X272775Y70162D01*
X273201Y70051D01*
X273626Y69884D01*
X273645D01*
X273682Y69866D01*
X273737Y69828D01*
X273812Y69791D01*
X274015Y69680D01*
X274274Y69532D01*
X274552Y69329D01*
X274830Y69088D01*
X275126Y68810D01*
X275366Y68496D01*
Y68477D01*
X275385Y68459D01*
X275422Y68403D01*
X275459Y68329D01*
X275570Y68144D01*
X275681Y67885D01*
X275792Y67570D01*
X275903Y67200D01*
X275977Y66793D01*
X275996Y66349D01*
Y66182D01*
X275977Y66071D01*
X275959Y65941D01*
X275922Y65775D01*
X275885Y65590D01*
X275829Y65386D01*
X275755Y65183D01*
X275662Y64960D01*
X275551Y64738D01*
X275422Y64498D01*
X275274Y64275D01*
X275089Y64053D01*
X274885Y63831D01*
X274644Y63628D01*
X275792D01*
Y62184D01*
X267759D01*
X267740D01*
X267666D01*
X267555D01*
X267407D01*
X267240Y62202D01*
X267037D01*
X266815Y62221D01*
X266574Y62239D01*
X266074Y62295D01*
X265556Y62369D01*
X265315Y62424D01*
X265093Y62480D01*
X264890Y62554D01*
X264704Y62628D01*
X264686D01*
X264668Y62647D01*
X264556Y62721D01*
X264390Y62813D01*
X264186Y62961D01*
X263964Y63165D01*
X263723Y63406D01*
X263483Y63702D01*
X263279Y64035D01*
Y64053D01*
X263261Y64072D01*
X263224Y64127D01*
X263205Y64201D01*
X263150Y64294D01*
X263113Y64405D01*
X263020Y64683D01*
X262909Y65016D01*
X262835Y65423D01*
X262761Y65886D01*
X262742Y66386D01*
Y66552D01*
X262761Y66663D01*
Y66811D01*
X262779Y66959D01*
X262798Y67145D01*
X262835Y67348D01*
X262928Y67774D01*
X263057Y68218D01*
X263242Y68662D01*
X263501Y69070D01*
X263520Y69088D01*
X263538Y69107D01*
X263650Y69236D01*
X263816Y69384D01*
X264057Y69569D01*
X264371Y69754D01*
X264760Y69921D01*
X264982Y69977D01*
X265223Y70014D01*
X265463Y70051D01*
X265741D01*
X265538Y68514D01*
X265500D01*
X265426Y68496D01*
X265297Y68459D01*
X265130Y68422D01*
X264964Y68348D01*
X264797Y68255D01*
X264631Y68144D01*
X264501Y67996D01*
X264482Y67959D01*
X264427Y67885D01*
X264353Y67755D01*
X264279Y67570D01*
X264186Y67348D01*
X264112Y67071D01*
X264057Y66737D01*
X264038Y66386D01*
Y66201D01*
X264057Y66015D01*
X264094Y65756D01*
X264149Y65497D01*
X264223Y65219D01*
X264334Y64942D01*
X264482Y64701D01*
X264501Y64683D01*
X264556Y64609D01*
X264668Y64498D01*
X264797Y64368D01*
X264982Y64239D01*
X265186Y64109D01*
X265426Y63979D01*
X265704Y63887D01*
X265723D01*
X265797Y63868D01*
X265945Y63850D01*
X266130Y63831D01*
X266259Y63813D01*
X266407D01*
X266574Y63794D01*
X266759D01*
X266963D01*
X267203Y63776D01*
X267444D01*
X267722D01*
X267703Y63794D01*
X267666Y63831D01*
X267611Y63887D01*
X267537Y63961D01*
X267444Y64053D01*
X267333Y64183D01*
X267222Y64331D01*
X267111Y64479D01*
X266889Y64868D01*
X266685Y65294D01*
X266611Y65534D01*
X266556Y65793D01*
X266518Y66071D01*
X266500Y66349D01*
Y66441D01*
X266518Y66534D01*
Y66663D01*
X266537Y66830D01*
X266574Y67015D01*
X266611Y67219D01*
X266667Y67441D01*
X266741Y67681D01*
X266833Y67922D01*
X266944Y68163D01*
X267074Y68422D01*
X267240Y68662D01*
X267425Y68903D01*
X267629Y69125D01*
X267870Y69329D01*
X267888Y69347D01*
X267925Y69366D01*
X268018Y69421D01*
X268110Y69495D01*
X268258Y69569D01*
X268407Y69662D01*
X268592Y69754D01*
X268814Y69847D01*
X269036Y69940D01*
X269295Y70032D01*
X269554Y70125D01*
X269850Y70199D01*
X270480Y70328D01*
X270831Y70347D01*
X271183Y70365D01*
X271201D01*
X271239D01*
X271313D01*
X271405D01*
X271535Y70347D01*
D02*
G37*
G36*
X271442Y60314D02*
X271646Y60296D01*
X271868Y60277D01*
X272127Y60240D01*
X272386Y60185D01*
X272978Y60037D01*
X273275Y59944D01*
X273589Y59833D01*
X273885Y59685D01*
X274163Y59518D01*
X274441Y59333D01*
X274700Y59130D01*
X274718Y59111D01*
X274756Y59074D01*
X274811Y59000D01*
X274903Y58908D01*
X274996Y58797D01*
X275107Y58648D01*
X275237Y58482D01*
X275348Y58278D01*
X275477Y58075D01*
X275588Y57834D01*
X275699Y57575D01*
X275792Y57297D01*
X275885Y57001D01*
X275940Y56686D01*
X275977Y56353D01*
X275996Y56002D01*
Y55816D01*
X275977Y55687D01*
X275959Y55539D01*
X275922Y55354D01*
X275885Y55150D01*
X275829Y54909D01*
X275774Y54687D01*
X275681Y54428D01*
X275588Y54188D01*
X275459Y53928D01*
X275311Y53669D01*
X275144Y53410D01*
X274941Y53170D01*
X274718Y52947D01*
X274700Y52929D01*
X274663Y52892D01*
X274589Y52836D01*
X274478Y52762D01*
X274348Y52670D01*
X274200Y52577D01*
X274015Y52466D01*
X273793Y52355D01*
X273552Y52244D01*
X273293Y52133D01*
X272997Y52040D01*
X272682Y51948D01*
X272331Y51874D01*
X271960Y51818D01*
X271572Y51781D01*
X271146Y51763D01*
X271128D01*
X271054D01*
X270924D01*
X270739Y51781D01*
Y58723D01*
X270720D01*
X270665D01*
X270591Y58704D01*
X270480D01*
X270350Y58685D01*
X270202Y58648D01*
X269869Y58593D01*
X269499Y58482D01*
X269091Y58334D01*
X268721Y58130D01*
X268388Y57871D01*
Y57853D01*
X268351Y57834D01*
X268258Y57723D01*
X268129Y57556D01*
X267999Y57334D01*
X267851Y57038D01*
X267722Y56705D01*
X267629Y56335D01*
X267611Y56131D01*
X267592Y55909D01*
Y55761D01*
X267611Y55594D01*
X267648Y55391D01*
X267703Y55169D01*
X267777Y54909D01*
X267888Y54669D01*
X268036Y54428D01*
X268055Y54410D01*
X268129Y54317D01*
X268240Y54206D01*
X268388Y54076D01*
X268592Y53928D01*
X268851Y53762D01*
X269147Y53595D01*
X269499Y53447D01*
X269295Y51818D01*
X269276D01*
X269239Y51837D01*
X269165Y51855D01*
X269054Y51892D01*
X268943Y51948D01*
X268795Y52003D01*
X268481Y52151D01*
X268129Y52337D01*
X267759Y52596D01*
X267407Y52892D01*
X267074Y53262D01*
Y53281D01*
X267037Y53318D01*
X267000Y53373D01*
X266944Y53447D01*
X266889Y53558D01*
X266833Y53669D01*
X266759Y53817D01*
X266685Y53984D01*
X266611Y54169D01*
X266537Y54354D01*
X266426Y54817D01*
X266333Y55335D01*
X266296Y55909D01*
Y56113D01*
X266315Y56242D01*
X266333Y56409D01*
X266370Y56612D01*
X266407Y56835D01*
X266444Y57075D01*
X266593Y57593D01*
X266704Y57871D01*
X266815Y58130D01*
X266963Y58408D01*
X267129Y58667D01*
X267314Y58908D01*
X267537Y59148D01*
X267555Y59167D01*
X267592Y59204D01*
X267666Y59259D01*
X267777Y59333D01*
X267907Y59426D01*
X268055Y59518D01*
X268240Y59629D01*
X268444Y59741D01*
X268684Y59852D01*
X268943Y59963D01*
X269239Y60055D01*
X269554Y60148D01*
X269887Y60222D01*
X270257Y60277D01*
X270646Y60314D01*
X271054Y60333D01*
X271072D01*
X271164D01*
X271276D01*
X271442Y60314D01*
D02*
G37*
G36*
X275792Y48431D02*
X274385D01*
X274404Y48412D01*
X274533Y48338D01*
X274700Y48246D01*
X274903Y48098D01*
X275107Y47950D01*
X275329Y47783D01*
X275514Y47616D01*
X275662Y47450D01*
X275681Y47431D01*
X275718Y47376D01*
X275774Y47265D01*
X275829Y47154D01*
X275885Y47006D01*
X275940Y46821D01*
X275977Y46635D01*
X275996Y46432D01*
Y46302D01*
X275977Y46136D01*
X275940Y45932D01*
X275866Y45691D01*
X275774Y45432D01*
X275644Y45136D01*
X275477Y44822D01*
X274034Y45395D01*
X274052Y45414D01*
X274089Y45488D01*
X274145Y45599D01*
X274200Y45747D01*
X274256Y45913D01*
X274311Y46117D01*
X274348Y46321D01*
X274367Y46524D01*
Y46617D01*
X274348Y46709D01*
X274330Y46839D01*
X274293Y46969D01*
X274237Y47135D01*
X274163Y47302D01*
X274052Y47450D01*
X274034Y47468D01*
X273996Y47524D01*
X273922Y47580D01*
X273830Y47672D01*
X273700Y47765D01*
X273552Y47857D01*
X273386Y47950D01*
X273182Y48024D01*
X273145Y48042D01*
X273034Y48061D01*
X272867Y48098D01*
X272645Y48153D01*
X272368Y48209D01*
X272053Y48246D01*
X271720Y48264D01*
X271350Y48283D01*
X266500D01*
Y49856D01*
X275792D01*
Y48431D01*
D02*
G37*
G36*
X279309Y42304D02*
X274718D01*
X274737Y42286D01*
X274774Y42249D01*
X274830Y42193D01*
X274922Y42101D01*
X275015Y42008D01*
X275126Y41878D01*
X275237Y41712D01*
X275366Y41545D01*
X275477Y41360D01*
X275588Y41157D01*
X275792Y40675D01*
X275885Y40416D01*
X275940Y40138D01*
X275977Y39842D01*
X275996Y39546D01*
Y39380D01*
X275977Y39176D01*
X275940Y38935D01*
X275903Y38658D01*
X275829Y38361D01*
X275718Y38065D01*
X275588Y37769D01*
X275570Y37732D01*
X275514Y37640D01*
X275422Y37510D01*
X275292Y37343D01*
X275126Y37177D01*
X274941Y36992D01*
X274718Y36825D01*
X274459Y36677D01*
X274422Y36659D01*
X274330Y36621D01*
X274163Y36566D01*
X273922Y36511D01*
X273626Y36455D01*
X273275Y36399D01*
X272849Y36362D01*
X272368Y36344D01*
X266500D01*
Y37917D01*
X272386D01*
X272405D01*
X272442D01*
X272497D01*
X272571D01*
X272775Y37936D01*
X273034Y37973D01*
X273312Y38047D01*
X273589Y38139D01*
X273867Y38269D01*
X274089Y38436D01*
X274108Y38454D01*
X274182Y38528D01*
X274274Y38639D01*
X274367Y38806D01*
X274478Y39009D01*
X274552Y39250D01*
X274626Y39546D01*
X274644Y39879D01*
Y39990D01*
X274626Y40120D01*
X274607Y40305D01*
X274552Y40490D01*
X274496Y40712D01*
X274404Y40934D01*
X274274Y41175D01*
X274256Y41194D01*
X274200Y41267D01*
X274126Y41379D01*
X274015Y41508D01*
X273867Y41656D01*
X273700Y41804D01*
X273497Y41934D01*
X273275Y42045D01*
X273238Y42064D01*
X273164Y42082D01*
X273015Y42119D01*
X272830Y42175D01*
X272590Y42230D01*
X272294Y42267D01*
X271960Y42286D01*
X271572Y42304D01*
X266500D01*
Y43877D01*
X279309D01*
Y42304D01*
D02*
G37*
G36*
X271442Y34437D02*
X271646Y34419D01*
X271868Y34400D01*
X272127Y34363D01*
X272386Y34308D01*
X272978Y34160D01*
X273275Y34067D01*
X273589Y33956D01*
X273885Y33808D01*
X274163Y33641D01*
X274441Y33456D01*
X274700Y33253D01*
X274718Y33234D01*
X274756Y33197D01*
X274811Y33123D01*
X274903Y33031D01*
X274996Y32919D01*
X275107Y32771D01*
X275237Y32605D01*
X275348Y32401D01*
X275477Y32198D01*
X275588Y31957D01*
X275699Y31698D01*
X275792Y31420D01*
X275885Y31124D01*
X275940Y30809D01*
X275977Y30476D01*
X275996Y30125D01*
Y29939D01*
X275977Y29810D01*
X275959Y29662D01*
X275922Y29477D01*
X275885Y29273D01*
X275829Y29032D01*
X275774Y28810D01*
X275681Y28551D01*
X275588Y28310D01*
X275459Y28051D01*
X275311Y27792D01*
X275144Y27533D01*
X274941Y27292D01*
X274718Y27070D01*
X274700Y27052D01*
X274663Y27015D01*
X274589Y26959D01*
X274478Y26885D01*
X274348Y26793D01*
X274200Y26700D01*
X274015Y26589D01*
X273793Y26478D01*
X273552Y26367D01*
X273293Y26256D01*
X272997Y26163D01*
X272682Y26071D01*
X272331Y25997D01*
X271960Y25941D01*
X271572Y25904D01*
X271146Y25886D01*
X271128D01*
X271054D01*
X270924D01*
X270739Y25904D01*
Y32846D01*
X270720D01*
X270665D01*
X270591Y32827D01*
X270480D01*
X270350Y32809D01*
X270202Y32771D01*
X269869Y32716D01*
X269499Y32605D01*
X269091Y32457D01*
X268721Y32253D01*
X268388Y31994D01*
Y31975D01*
X268351Y31957D01*
X268258Y31846D01*
X268129Y31679D01*
X267999Y31457D01*
X267851Y31161D01*
X267722Y30828D01*
X267629Y30458D01*
X267611Y30254D01*
X267592Y30032D01*
Y29884D01*
X267611Y29717D01*
X267648Y29514D01*
X267703Y29292D01*
X267777Y29032D01*
X267888Y28792D01*
X268036Y28551D01*
X268055Y28533D01*
X268129Y28440D01*
X268240Y28329D01*
X268388Y28199D01*
X268592Y28051D01*
X268851Y27885D01*
X269147Y27718D01*
X269499Y27570D01*
X269295Y25941D01*
X269276D01*
X269239Y25960D01*
X269165Y25978D01*
X269054Y26015D01*
X268943Y26071D01*
X268795Y26126D01*
X268481Y26274D01*
X268129Y26460D01*
X267759Y26719D01*
X267407Y27015D01*
X267074Y27385D01*
Y27404D01*
X267037Y27441D01*
X267000Y27496D01*
X266944Y27570D01*
X266889Y27681D01*
X266833Y27792D01*
X266759Y27940D01*
X266685Y28107D01*
X266611Y28292D01*
X266537Y28477D01*
X266426Y28940D01*
X266333Y29458D01*
X266296Y30032D01*
Y30236D01*
X266315Y30365D01*
X266333Y30532D01*
X266370Y30735D01*
X266407Y30957D01*
X266444Y31198D01*
X266593Y31716D01*
X266704Y31994D01*
X266815Y32253D01*
X266963Y32531D01*
X267129Y32790D01*
X267314Y33031D01*
X267537Y33271D01*
X267555Y33290D01*
X267592Y33327D01*
X267666Y33382D01*
X267777Y33456D01*
X267907Y33549D01*
X268055Y33641D01*
X268240Y33753D01*
X268444Y33863D01*
X268684Y33975D01*
X268943Y34086D01*
X269239Y34178D01*
X269554Y34271D01*
X269887Y34345D01*
X270257Y34400D01*
X270646Y34437D01*
X271054Y34456D01*
X271072D01*
X271164D01*
X271276D01*
X271442Y34437D01*
D02*
G37*
G36*
X269184Y24479D02*
X269351Y24461D01*
X269554Y24423D01*
X269758Y24368D01*
X269980Y24294D01*
X270183Y24201D01*
X270202Y24183D01*
X270276Y24146D01*
X270387Y24072D01*
X270517Y23979D01*
X270665Y23868D01*
X270813Y23720D01*
X270961Y23572D01*
X271091Y23387D01*
X271109Y23368D01*
X271146Y23294D01*
X271220Y23202D01*
X271294Y23054D01*
X271368Y22887D01*
X271461Y22683D01*
X271535Y22480D01*
X271609Y22239D01*
Y22221D01*
X271627Y22147D01*
X271664Y22036D01*
X271683Y21888D01*
X271720Y21702D01*
X271757Y21462D01*
X271812Y21184D01*
X271849Y20851D01*
Y20832D01*
X271868Y20759D01*
Y20666D01*
X271886Y20536D01*
X271905Y20388D01*
X271942Y20203D01*
X271960Y19999D01*
X271997Y19777D01*
X272090Y19333D01*
X272183Y18852D01*
X272294Y18426D01*
X272349Y18223D01*
X272405Y18037D01*
X272423D01*
X272460D01*
X272571Y18019D01*
X272701D01*
X272775D01*
X272812D01*
X272830D01*
X272849D01*
X272960D01*
X273145Y18037D01*
X273349Y18075D01*
X273571Y18130D01*
X273793Y18223D01*
X273996Y18334D01*
X274163Y18482D01*
X274182Y18500D01*
X274256Y18593D01*
X274330Y18741D01*
X274441Y18926D01*
X274533Y19185D01*
X274626Y19481D01*
X274681Y19851D01*
X274700Y20277D01*
Y20462D01*
X274681Y20647D01*
X274644Y20907D01*
X274607Y21166D01*
X274533Y21443D01*
X274441Y21702D01*
X274311Y21925D01*
X274293Y21943D01*
X274237Y22017D01*
X274145Y22110D01*
X273996Y22221D01*
X273812Y22332D01*
X273571Y22461D01*
X273275Y22572D01*
X272941Y22683D01*
X273145Y24220D01*
X273164D01*
X273182Y24201D01*
X273238D01*
X273312Y24183D01*
X273478Y24127D01*
X273719Y24053D01*
X273959Y23961D01*
X274219Y23850D01*
X274478Y23702D01*
X274718Y23535D01*
X274737Y23516D01*
X274811Y23442D01*
X274922Y23331D01*
X275070Y23183D01*
X275218Y22980D01*
X275366Y22739D01*
X275533Y22461D01*
X275662Y22147D01*
Y22128D01*
X275681Y22110D01*
X275699Y22054D01*
X275718Y21980D01*
X275774Y21795D01*
X275829Y21536D01*
X275885Y21240D01*
X275940Y20869D01*
X275977Y20481D01*
X275996Y20037D01*
Y19833D01*
X275977Y19629D01*
X275959Y19352D01*
X275922Y19037D01*
X275866Y18722D01*
X275792Y18408D01*
X275699Y18112D01*
X275681Y18075D01*
X275644Y17982D01*
X275588Y17852D01*
X275514Y17686D01*
X275403Y17501D01*
X275292Y17316D01*
X275144Y17149D01*
X274996Y17001D01*
X274978Y16982D01*
X274922Y16945D01*
X274830Y16890D01*
X274718Y16816D01*
X274552Y16723D01*
X274385Y16649D01*
X274182Y16575D01*
X273941Y16520D01*
X273922D01*
X273867Y16501D01*
X273756Y16483D01*
X273608Y16464D01*
X273404D01*
X273164Y16446D01*
X272849Y16427D01*
X272497D01*
X270387D01*
X270369D01*
X270294D01*
X270183D01*
X270035D01*
X269869D01*
X269665D01*
X269221Y16409D01*
X268758D01*
X268296Y16390D01*
X268092Y16372D01*
X267907D01*
X267740Y16353D01*
X267611Y16335D01*
X267592D01*
X267518Y16316D01*
X267407Y16298D01*
X267259Y16242D01*
X267092Y16205D01*
X266907Y16131D01*
X266704Y16038D01*
X266500Y15946D01*
Y17593D01*
X266518Y17612D01*
X266593Y17630D01*
X266685Y17667D01*
X266833Y17723D01*
X267000Y17778D01*
X267203Y17815D01*
X267425Y17852D01*
X267666Y17889D01*
Y17908D01*
X267629Y17926D01*
X267537Y18037D01*
X267407Y18204D01*
X267240Y18426D01*
X267074Y18704D01*
X266889Y18981D01*
X266722Y19278D01*
X266593Y19592D01*
X266574Y19629D01*
X266556Y19740D01*
X266500Y19907D01*
X266444Y20111D01*
X266389Y20370D01*
X266352Y20666D01*
X266315Y20999D01*
X266296Y21332D01*
Y21480D01*
X266315Y21591D01*
Y21721D01*
X266333Y21869D01*
X266389Y22202D01*
X266481Y22572D01*
X266611Y22980D01*
X266796Y23350D01*
X267037Y23683D01*
X267074Y23720D01*
X267166Y23813D01*
X267333Y23942D01*
X267555Y24090D01*
X267833Y24238D01*
X268147Y24368D01*
X268536Y24461D01*
X268721Y24479D01*
X268943Y24498D01*
X268980D01*
X269054D01*
X269184Y24479D01*
D02*
G37*
G36*
X271479Y14576D02*
X271627D01*
X271960Y14539D01*
X272349Y14484D01*
X272775Y14391D01*
X273219Y14280D01*
X273645Y14132D01*
X273663D01*
X273700Y14113D01*
X273756Y14076D01*
X273830Y14039D01*
X274034Y13928D01*
X274293Y13780D01*
X274570Y13595D01*
X274848Y13354D01*
X275144Y13077D01*
X275385Y12744D01*
Y12725D01*
X275403Y12707D01*
X275440Y12651D01*
X275477Y12577D01*
X275570Y12392D01*
X275699Y12133D01*
X275811Y11837D01*
X275903Y11485D01*
X275977Y11096D01*
X275996Y10689D01*
Y10541D01*
X275977Y10393D01*
X275959Y10189D01*
X275903Y9949D01*
X275848Y9690D01*
X275755Y9430D01*
X275625Y9190D01*
X275607Y9153D01*
X275570Y9079D01*
X275477Y8968D01*
X275385Y8820D01*
X275255Y8634D01*
X275089Y8468D01*
X274922Y8283D01*
X274718Y8116D01*
X279309D01*
Y6543D01*
X266500D01*
Y8005D01*
X267666D01*
X267648Y8024D01*
X267611Y8042D01*
X267537Y8098D01*
X267444Y8172D01*
X267352Y8264D01*
X267240Y8375D01*
X267111Y8505D01*
X266981Y8671D01*
X266852Y8838D01*
X266722Y9023D01*
X266611Y9245D01*
X266518Y9486D01*
X266426Y9726D01*
X266352Y10004D01*
X266315Y10300D01*
X266296Y10615D01*
Y10726D01*
X266315Y10800D01*
X266333Y11022D01*
X266370Y11281D01*
X266444Y11596D01*
X266556Y11948D01*
X266704Y12299D01*
X266907Y12651D01*
Y12670D01*
X266944Y12688D01*
X267018Y12799D01*
X267166Y12966D01*
X267352Y13169D01*
X267592Y13410D01*
X267888Y13651D01*
X268221Y13891D01*
X268610Y14095D01*
X268629D01*
X268666Y14113D01*
X268721Y14132D01*
X268795Y14169D01*
X268906Y14206D01*
X269036Y14261D01*
X269165Y14299D01*
X269332Y14335D01*
X269702Y14428D01*
X270128Y14521D01*
X270609Y14576D01*
X271128Y14595D01*
X271146D01*
X271183D01*
X271257D01*
X271368D01*
X271479Y14576D01*
D02*
G37*
G36*
X56081Y322691D02*
X54341D01*
X47622Y332761D01*
Y322691D01*
X45993D01*
Y335500D01*
X47751D01*
X54452Y325449D01*
Y335500D01*
X56081D01*
Y322691D01*
D02*
G37*
G36*
X64669Y335704D02*
X64836D01*
X65021Y335667D01*
X65225Y335648D01*
X65465Y335611D01*
X65965Y335500D01*
X66502Y335352D01*
X67057Y335130D01*
X67335Y335000D01*
X67612Y334852D01*
X67631Y334834D01*
X67668Y334815D01*
X67742Y334760D01*
X67853Y334686D01*
X67964Y334612D01*
X68094Y334501D01*
X68408Y334223D01*
X68760Y333890D01*
X69130Y333482D01*
X69463Y333020D01*
X69778Y332483D01*
Y332464D01*
X69815Y332409D01*
X69852Y332335D01*
X69889Y332224D01*
X69945Y332076D01*
X70000Y331909D01*
X70074Y331724D01*
X70130Y331520D01*
X70204Y331280D01*
X70278Y331039D01*
X70389Y330484D01*
X70463Y329910D01*
X70500Y329281D01*
Y329262D01*
Y329244D01*
Y329133D01*
X70481Y328966D01*
Y328744D01*
X70445Y328485D01*
X70407Y328170D01*
X70352Y327818D01*
X70278Y327448D01*
X70204Y327059D01*
X70093Y326652D01*
X69945Y326245D01*
X69778Y325819D01*
X69593Y325412D01*
X69352Y325005D01*
X69093Y324635D01*
X68797Y324283D01*
X68779Y324264D01*
X68723Y324209D01*
X68612Y324116D01*
X68482Y324005D01*
X68316Y323857D01*
X68112Y323709D01*
X67872Y323542D01*
X67594Y323376D01*
X67298Y323209D01*
X66965Y323043D01*
X66594Y322895D01*
X66206Y322747D01*
X65780Y322636D01*
X65336Y322543D01*
X64873Y322487D01*
X64373Y322469D01*
X64207D01*
X64077Y322487D01*
X63910D01*
X63744Y322506D01*
X63522Y322543D01*
X63300Y322580D01*
X62818Y322673D01*
X62263Y322821D01*
X61726Y323043D01*
X61449Y323172D01*
X61171Y323320D01*
X61152Y323339D01*
X61115Y323357D01*
X61041Y323413D01*
X60930Y323468D01*
X60819Y323561D01*
X60671Y323672D01*
X60356Y323931D01*
X60023Y324264D01*
X59653Y324672D01*
X59301Y325153D01*
X59005Y325690D01*
Y325708D01*
X58968Y325764D01*
X58931Y325838D01*
X58894Y325949D01*
X58820Y326097D01*
X58765Y326263D01*
X58691Y326467D01*
X58617Y326689D01*
X58561Y326930D01*
X58487Y327189D01*
X58413Y327485D01*
X58357Y327781D01*
X58283Y328429D01*
X58246Y329133D01*
Y329151D01*
Y329225D01*
Y329318D01*
X58265Y329466D01*
Y329632D01*
X58283Y329836D01*
X58320Y330058D01*
X58339Y330299D01*
X58432Y330836D01*
X58580Y331428D01*
X58783Y332020D01*
X58894Y332316D01*
X59042Y332612D01*
Y332631D01*
X59079Y332686D01*
X59116Y332761D01*
X59190Y332872D01*
X59264Y333001D01*
X59357Y333131D01*
X59616Y333482D01*
X59931Y333853D01*
X60301Y334241D01*
X60745Y334612D01*
X61264Y334945D01*
X61282D01*
X61319Y334982D01*
X61412Y335019D01*
X61523Y335074D01*
X61652Y335130D01*
X61800Y335185D01*
X61985Y335259D01*
X62189Y335333D01*
X62411Y335407D01*
X62652Y335482D01*
X63188Y335593D01*
X63762Y335685D01*
X64373Y335722D01*
X64558D01*
X64669Y335704D01*
D02*
G37*
G36*
X21674Y65350D02*
X21719D01*
X21824Y65344D01*
X21946Y65328D01*
X22074Y65311D01*
X22207Y65283D01*
X22340Y65250D01*
X22346D01*
X22357Y65244D01*
X22373Y65239D01*
X22396Y65233D01*
X22457Y65211D01*
X22534Y65178D01*
X22623Y65144D01*
X22712Y65100D01*
X22806Y65044D01*
X22895Y64989D01*
X22906Y64983D01*
X22934Y64961D01*
X22973Y64928D01*
X23023Y64884D01*
X23078Y64834D01*
X23134Y64773D01*
X23195Y64711D01*
X23245Y64639D01*
X23250Y64628D01*
X23267Y64606D01*
X23289Y64567D01*
X23317Y64512D01*
X23350Y64445D01*
X23378Y64367D01*
X23411Y64279D01*
X23439Y64179D01*
Y64168D01*
X23445Y64151D01*
X23450Y64134D01*
X23456Y64079D01*
X23467Y64001D01*
X23478Y63912D01*
X23489Y63807D01*
X23494Y63690D01*
X23500Y63563D01*
Y62181D01*
X19659D01*
Y63657D01*
X19665Y63757D01*
X19670Y63868D01*
X19682Y63979D01*
X19698Y64090D01*
X19715Y64184D01*
Y64190D01*
X19720Y64201D01*
Y64218D01*
X19732Y64240D01*
X19748Y64301D01*
X19776Y64378D01*
X19815Y64467D01*
X19865Y64562D01*
X19920Y64656D01*
X19992Y64745D01*
X19998Y64750D01*
X20004Y64756D01*
X20020Y64773D01*
X20037Y64795D01*
X20092Y64850D01*
X20170Y64917D01*
X20264Y64989D01*
X20375Y65067D01*
X20503Y65139D01*
X20647Y65200D01*
X20653D01*
X20664Y65205D01*
X20686Y65216D01*
X20719Y65222D01*
X20758Y65239D01*
X20803Y65250D01*
X20853Y65261D01*
X20914Y65278D01*
X20975Y65294D01*
X21047Y65305D01*
X21202Y65333D01*
X21374Y65350D01*
X21563Y65355D01*
X21569D01*
X21580D01*
X21608D01*
X21635D01*
X21674Y65350D01*
D02*
G37*
G36*
X23500Y60799D02*
X20486Y58790D01*
X23500D01*
Y58301D01*
X19659D01*
Y58823D01*
X22679Y60838D01*
X19659D01*
Y61326D01*
X23500D01*
Y60799D01*
D02*
G37*
G36*
X22973Y57552D02*
X22978Y57541D01*
X22995Y57519D01*
X23017Y57491D01*
X23039Y57458D01*
X23067Y57419D01*
X23100Y57369D01*
X23134Y57319D01*
X23206Y57202D01*
X23283Y57069D01*
X23356Y56930D01*
X23417Y56781D01*
Y56775D01*
X23422Y56764D01*
X23428Y56742D01*
X23439Y56714D01*
X23450Y56675D01*
X23467Y56631D01*
X23478Y56581D01*
X23489Y56531D01*
X23517Y56409D01*
X23544Y56270D01*
X23561Y56120D01*
X23567Y55965D01*
Y55909D01*
X23561Y55870D01*
Y55820D01*
X23555Y55759D01*
X23544Y55693D01*
X23539Y55621D01*
X23505Y55460D01*
X23467Y55288D01*
X23406Y55110D01*
X23372Y55021D01*
X23328Y54932D01*
X23322Y54927D01*
X23317Y54910D01*
X23300Y54888D01*
X23283Y54855D01*
X23256Y54816D01*
X23228Y54777D01*
X23150Y54672D01*
X23051Y54561D01*
X22928Y54444D01*
X22790Y54333D01*
X22629Y54233D01*
X22623D01*
X22606Y54222D01*
X22584Y54211D01*
X22545Y54194D01*
X22506Y54178D01*
X22451Y54161D01*
X22396Y54139D01*
X22329Y54116D01*
X22257Y54094D01*
X22174Y54072D01*
X22090Y54056D01*
X22002Y54039D01*
X21807Y54011D01*
X21602Y54000D01*
X21596D01*
X21574D01*
X21546D01*
X21508Y54006D01*
X21458D01*
X21396Y54011D01*
X21336Y54022D01*
X21263Y54028D01*
X21186Y54044D01*
X21102Y54056D01*
X20925Y54100D01*
X20742Y54155D01*
X20559Y54233D01*
X20553Y54239D01*
X20536Y54244D01*
X20514Y54255D01*
X20481Y54277D01*
X20436Y54300D01*
X20392Y54327D01*
X20287Y54405D01*
X20164Y54500D01*
X20048Y54616D01*
X19931Y54749D01*
X19881Y54827D01*
X19831Y54905D01*
X19826Y54910D01*
X19820Y54927D01*
X19809Y54949D01*
X19793Y54982D01*
X19776Y55027D01*
X19754Y55077D01*
X19732Y55132D01*
X19709Y55199D01*
X19687Y55271D01*
X19670Y55349D01*
X19648Y55432D01*
X19632Y55521D01*
X19604Y55715D01*
X19593Y55815D01*
Y55992D01*
X19598Y56026D01*
Y56070D01*
X19610Y56176D01*
X19626Y56292D01*
X19654Y56414D01*
X19687Y56547D01*
X19732Y56675D01*
Y56681D01*
X19737Y56692D01*
X19743Y56708D01*
X19754Y56731D01*
X19787Y56792D01*
X19826Y56869D01*
X19881Y56953D01*
X19948Y57041D01*
X20020Y57125D01*
X20109Y57202D01*
X20120Y57213D01*
X20153Y57236D01*
X20203Y57269D01*
X20276Y57313D01*
X20364Y57358D01*
X20475Y57408D01*
X20597Y57458D01*
X20736Y57497D01*
X20858Y57036D01*
X20853D01*
X20847Y57030D01*
X20830Y57025D01*
X20808Y57019D01*
X20758Y57003D01*
X20692Y56980D01*
X20614Y56947D01*
X20542Y56908D01*
X20464Y56869D01*
X20398Y56819D01*
X20392Y56814D01*
X20370Y56797D01*
X20342Y56764D01*
X20303Y56725D01*
X20259Y56675D01*
X20214Y56608D01*
X20170Y56536D01*
X20131Y56453D01*
X20126Y56442D01*
X20114Y56414D01*
X20098Y56364D01*
X20076Y56298D01*
X20059Y56220D01*
X20042Y56131D01*
X20031Y56031D01*
X20026Y55926D01*
Y55865D01*
X20031Y55837D01*
Y55804D01*
X20037Y55721D01*
X20053Y55626D01*
X20070Y55521D01*
X20098Y55421D01*
X20137Y55321D01*
X20142Y55310D01*
X20153Y55277D01*
X20181Y55232D01*
X20209Y55177D01*
X20253Y55110D01*
X20298Y55038D01*
X20353Y54971D01*
X20414Y54910D01*
X20420Y54905D01*
X20442Y54882D01*
X20481Y54855D01*
X20525Y54821D01*
X20581Y54783D01*
X20647Y54744D01*
X20719Y54705D01*
X20797Y54666D01*
X20803D01*
X20814Y54660D01*
X20830Y54655D01*
X20858Y54644D01*
X20891Y54633D01*
X20930Y54622D01*
X20975Y54605D01*
X21025Y54594D01*
X21141Y54566D01*
X21274Y54544D01*
X21413Y54527D01*
X21569Y54522D01*
X21574D01*
X21591D01*
X21619D01*
X21652Y54527D01*
X21696D01*
X21752Y54533D01*
X21807Y54538D01*
X21868Y54544D01*
X22007Y54566D01*
X22151Y54594D01*
X22296Y54638D01*
X22434Y54694D01*
X22440D01*
X22451Y54705D01*
X22468Y54710D01*
X22490Y54727D01*
X22551Y54766D01*
X22629Y54827D01*
X22712Y54899D01*
X22795Y54988D01*
X22873Y55093D01*
X22945Y55210D01*
Y55215D01*
X22951Y55226D01*
X22962Y55243D01*
X22973Y55271D01*
X22984Y55299D01*
X22995Y55338D01*
X23028Y55426D01*
X23056Y55537D01*
X23084Y55660D01*
X23106Y55793D01*
X23111Y55931D01*
Y55987D01*
X23106Y56020D01*
Y56054D01*
X23095Y56137D01*
X23084Y56237D01*
X23062Y56342D01*
X23028Y56459D01*
X22989Y56575D01*
Y56581D01*
X22984Y56592D01*
X22978Y56603D01*
X22967Y56625D01*
X22939Y56686D01*
X22906Y56753D01*
X22867Y56831D01*
X22823Y56914D01*
X22773Y56991D01*
X22717Y57058D01*
X21996D01*
Y55926D01*
X21541D01*
Y57558D01*
X22967D01*
X22973Y57552D01*
D02*
G37*
G36*
X254144Y24667D02*
X251359Y23668D01*
X251350D01*
X251341Y23659D01*
X251313Y23650D01*
X251285Y23641D01*
X251193Y23613D01*
X251073Y23576D01*
X250934Y23530D01*
X250777Y23474D01*
X250601Y23428D01*
X250425Y23372D01*
X250444Y23363D01*
X250490Y23354D01*
X250564Y23326D01*
X250675Y23299D01*
X250795Y23252D01*
X250952Y23206D01*
X251119Y23141D01*
X251304Y23076D01*
X254144Y22050D01*
Y21236D01*
X249500Y23002D01*
Y23752D01*
X254144Y25500D01*
Y24667D01*
D02*
G37*
G36*
X251294Y19959D02*
X251285D01*
X251267Y19950D01*
X251230Y19941D01*
X251184Y19931D01*
X251128Y19922D01*
X251063Y19904D01*
X250924Y19858D01*
X250758Y19793D01*
X250601Y19710D01*
X250453Y19617D01*
X250323Y19506D01*
X250314Y19488D01*
X250277Y19451D01*
X250231Y19376D01*
X250184Y19284D01*
X250129Y19173D01*
X250083Y19034D01*
X250046Y18877D01*
X250037Y18711D01*
Y18655D01*
X250046Y18618D01*
X250055Y18516D01*
X250083Y18387D01*
X250129Y18239D01*
X250194Y18081D01*
X250286Y17924D01*
X250416Y17776D01*
X250434Y17758D01*
X250490Y17711D01*
X250573Y17656D01*
X250684Y17582D01*
X250823Y17508D01*
X250980Y17452D01*
X251165Y17406D01*
X251368Y17388D01*
X251378D01*
X251396D01*
X251424D01*
X251461Y17397D01*
X251563Y17406D01*
X251683Y17434D01*
X251831Y17471D01*
X251979Y17536D01*
X252127Y17628D01*
X252266Y17749D01*
X252284Y17767D01*
X252321Y17813D01*
X252377Y17887D01*
X252442Y17989D01*
X252506Y18119D01*
X252562Y18276D01*
X252599Y18451D01*
X252617Y18646D01*
Y18729D01*
X252608Y18794D01*
X252599Y18877D01*
X252580Y18970D01*
X252562Y19081D01*
X252534Y19201D01*
X253228Y19108D01*
Y19062D01*
X253219Y19025D01*
Y18905D01*
X253237Y18803D01*
X253256Y18683D01*
X253283Y18544D01*
X253329Y18387D01*
X253394Y18239D01*
X253478Y18081D01*
Y18072D01*
X253487Y18063D01*
X253524Y18017D01*
X253589Y17952D01*
X253672Y17878D01*
X253792Y17804D01*
X253931Y17739D01*
X254088Y17693D01*
X254181Y17674D01*
X254282D01*
X254292D01*
X254301D01*
X254356D01*
X254430Y17693D01*
X254532Y17711D01*
X254643Y17749D01*
X254763Y17795D01*
X254884Y17869D01*
X254995Y17970D01*
X255004Y17980D01*
X255041Y18026D01*
X255087Y18091D01*
X255142Y18174D01*
X255189Y18285D01*
X255235Y18415D01*
X255272Y18563D01*
X255281Y18729D01*
Y18803D01*
X255263Y18886D01*
X255244Y18997D01*
X255207Y19117D01*
X255161Y19238D01*
X255087Y19367D01*
X254995Y19488D01*
X254985Y19497D01*
X254939Y19534D01*
X254874Y19589D01*
X254782Y19654D01*
X254661Y19719D01*
X254514Y19783D01*
X254338Y19839D01*
X254134Y19876D01*
X254273Y20662D01*
X254282D01*
X254310Y20653D01*
X254347Y20644D01*
X254402Y20635D01*
X254467Y20616D01*
X254541Y20588D01*
X254717Y20533D01*
X254921Y20440D01*
X255124Y20329D01*
X255318Y20190D01*
X255494Y20015D01*
X255503Y20006D01*
X255512Y19987D01*
X255531Y19959D01*
X255559Y19922D01*
X255596Y19876D01*
X255633Y19811D01*
X255670Y19747D01*
X255716Y19663D01*
X255790Y19478D01*
X255864Y19265D01*
X255910Y19016D01*
X255929Y18886D01*
Y18655D01*
X255920Y18553D01*
X255901Y18433D01*
X255873Y18285D01*
X255827Y18119D01*
X255771Y17952D01*
X255697Y17785D01*
Y17776D01*
X255688Y17767D01*
X255661Y17711D01*
X255605Y17628D01*
X255540Y17536D01*
X255448Y17425D01*
X255346Y17314D01*
X255226Y17203D01*
X255087Y17110D01*
X255068Y17101D01*
X255022Y17073D01*
X254939Y17036D01*
X254837Y16990D01*
X254717Y16944D01*
X254578Y16907D01*
X254421Y16879D01*
X254264Y16870D01*
X254245D01*
X254190D01*
X254116Y16879D01*
X254014Y16897D01*
X253894Y16925D01*
X253764Y16972D01*
X253635Y17027D01*
X253505Y17101D01*
X253487Y17110D01*
X253450Y17138D01*
X253385Y17194D01*
X253311Y17267D01*
X253228Y17360D01*
X253135Y17471D01*
X253052Y17601D01*
X252969Y17758D01*
Y17749D01*
X252959Y17730D01*
X252950Y17702D01*
X252941Y17665D01*
X252904Y17563D01*
X252849Y17434D01*
X252775Y17286D01*
X252682Y17138D01*
X252562Y16999D01*
X252423Y16870D01*
X252404Y16860D01*
X252349Y16824D01*
X252256Y16768D01*
X252136Y16713D01*
X251988Y16657D01*
X251813Y16601D01*
X251609Y16565D01*
X251387Y16555D01*
X251378D01*
X251350D01*
X251304D01*
X251248Y16565D01*
X251174Y16574D01*
X251091Y16592D01*
X250998Y16611D01*
X250897Y16629D01*
X250675Y16703D01*
X250554Y16759D01*
X250444Y16814D01*
X250323Y16888D01*
X250203Y16972D01*
X250083Y17064D01*
X249972Y17175D01*
X249962Y17184D01*
X249944Y17203D01*
X249916Y17240D01*
X249879Y17286D01*
X249833Y17342D01*
X249787Y17415D01*
X249731Y17499D01*
X249685Y17601D01*
X249629Y17702D01*
X249574Y17822D01*
X249528Y17943D01*
X249482Y18081D01*
X249445Y18229D01*
X249417Y18387D01*
X249398Y18544D01*
X249389Y18720D01*
Y18803D01*
X249398Y18858D01*
X249408Y18933D01*
X249417Y19016D01*
X249435Y19108D01*
X249454Y19210D01*
X249509Y19432D01*
X249602Y19663D01*
X249657Y19783D01*
X249722Y19895D01*
X249805Y20006D01*
X249888Y20117D01*
X249898Y20126D01*
X249916Y20144D01*
X249944Y20172D01*
X249981Y20200D01*
X250027Y20246D01*
X250092Y20292D01*
X250157Y20348D01*
X250240Y20403D01*
X250332Y20459D01*
X250425Y20514D01*
X250647Y20616D01*
X250906Y20699D01*
X251045Y20727D01*
X251193Y20745D01*
X251294Y19959D01*
D02*
G37*
G36*
X250397Y14437D02*
X249500D01*
Y15334D01*
X250397D01*
Y14437D01*
D02*
G37*
G36*
X254319Y12679D02*
X254338Y12661D01*
X254347Y12624D01*
X254375Y12578D01*
X254402Y12522D01*
X254439Y12457D01*
X254532Y12300D01*
X254634Y12115D01*
X254763Y11930D01*
X254911Y11736D01*
X255068Y11542D01*
X255078Y11532D01*
X255087Y11523D01*
X255115Y11496D01*
X255142Y11458D01*
X255235Y11375D01*
X255346Y11264D01*
X255475Y11153D01*
X255624Y11033D01*
X255771Y10931D01*
X255929Y10839D01*
Y10330D01*
X249500D01*
Y11116D01*
X254504D01*
X254495Y11125D01*
X254458Y11172D01*
X254402Y11227D01*
X254338Y11320D01*
X254255Y11422D01*
X254162Y11551D01*
X254060Y11699D01*
X253959Y11866D01*
Y11875D01*
X253949Y11884D01*
X253912Y11940D01*
X253866Y12032D01*
X253811Y12143D01*
X253746Y12273D01*
X253681Y12411D01*
X253616Y12550D01*
X253561Y12689D01*
X254319D01*
Y12679D01*
D02*
G37*
G36*
X261809Y96797D02*
X250518D01*
Y90485D01*
X249000D01*
Y98500D01*
X261809D01*
Y96797D01*
D02*
G37*
G36*
X253257Y87450D02*
X253239D01*
X253220D01*
X253165Y87431D01*
X253091D01*
X252924Y87394D01*
X252683Y87339D01*
X252443Y87264D01*
X252165Y87190D01*
X251906Y87061D01*
X251665Y86931D01*
X251647Y86913D01*
X251573Y86857D01*
X251443Y86765D01*
X251314Y86617D01*
X251147Y86431D01*
X250981Y86228D01*
X250814Y85950D01*
X250666Y85654D01*
Y85636D01*
X250647Y85617D01*
X250629Y85562D01*
X250610Y85506D01*
X250555Y85321D01*
X250481Y85080D01*
X250407Y84784D01*
X250351Y84451D01*
X250314Y84081D01*
X250296Y83674D01*
Y83507D01*
X250314Y83322D01*
X250333Y83100D01*
X250370Y82841D01*
X250407Y82544D01*
X250481Y82248D01*
X250573Y81971D01*
X250592Y81934D01*
X250629Y81841D01*
X250703Y81711D01*
X250777Y81545D01*
X250906Y81378D01*
X251036Y81193D01*
X251184Y81008D01*
X251369Y80860D01*
X251388Y80841D01*
X251462Y80804D01*
X251554Y80749D01*
X251702Y80675D01*
X251851Y80601D01*
X252036Y80545D01*
X252239Y80508D01*
X252461Y80490D01*
X252480D01*
X252572D01*
X252683Y80508D01*
X252832Y80527D01*
X252980Y80582D01*
X253165Y80638D01*
X253350Y80730D01*
X253516Y80860D01*
X253535Y80879D01*
X253590Y80934D01*
X253664Y81008D01*
X253776Y81138D01*
X253887Y81286D01*
X254016Y81489D01*
X254146Y81730D01*
X254257Y82008D01*
X254275Y82026D01*
X254294Y82119D01*
X254349Y82267D01*
X254368Y82359D01*
X254405Y82489D01*
X254460Y82618D01*
X254498Y82785D01*
X254553Y82970D01*
X254608Y83192D01*
X254664Y83414D01*
X254738Y83674D01*
X254812Y83970D01*
X254886Y84284D01*
Y84303D01*
X254905Y84358D01*
X254923Y84451D01*
X254960Y84562D01*
X254997Y84710D01*
X255034Y84877D01*
X255145Y85247D01*
X255275Y85654D01*
X255404Y86080D01*
X255534Y86450D01*
X255608Y86617D01*
X255682Y86765D01*
Y86783D01*
X255701Y86802D01*
X255775Y86913D01*
X255867Y87079D01*
X256015Y87264D01*
X256182Y87486D01*
X256385Y87709D01*
X256626Y87931D01*
X256885Y88116D01*
X256922Y88134D01*
X257015Y88190D01*
X257163Y88264D01*
X257348Y88338D01*
X257589Y88412D01*
X257866Y88486D01*
X258162Y88542D01*
X258477Y88560D01*
X258496D01*
X258514D01*
X258570D01*
X258644D01*
X258829Y88523D01*
X259069Y88486D01*
X259347Y88431D01*
X259662Y88338D01*
X259976Y88208D01*
X260291Y88023D01*
X260310D01*
X260328Y88005D01*
X260439Y87912D01*
X260587Y87783D01*
X260772Y87616D01*
X260976Y87394D01*
X261198Y87116D01*
X261402Y86783D01*
X261587Y86413D01*
Y86395D01*
X261605Y86357D01*
X261624Y86302D01*
X261661Y86228D01*
X261698Y86135D01*
X261735Y86006D01*
X261809Y85728D01*
X261883Y85376D01*
X261957Y84969D01*
X262013Y84544D01*
X262031Y84062D01*
Y83822D01*
X262013Y83692D01*
Y83562D01*
X261976Y83211D01*
X261920Y82822D01*
X261827Y82415D01*
X261716Y81971D01*
X261568Y81563D01*
Y81545D01*
X261550Y81508D01*
X261513Y81452D01*
X261476Y81378D01*
X261383Y81193D01*
X261217Y80953D01*
X261032Y80675D01*
X260791Y80397D01*
X260513Y80138D01*
X260198Y79897D01*
X260180D01*
X260161Y79879D01*
X260106Y79842D01*
X260051Y79805D01*
X259865Y79712D01*
X259625Y79601D01*
X259329Y79472D01*
X258977Y79379D01*
X258607Y79287D01*
X258200Y79250D01*
X258070Y80879D01*
X258088D01*
X258125D01*
X258181Y80897D01*
X258274Y80915D01*
X258477Y80971D01*
X258755Y81045D01*
X259051Y81156D01*
X259347Y81323D01*
X259625Y81526D01*
X259884Y81786D01*
X259902Y81823D01*
X259976Y81915D01*
X260087Y82100D01*
X260198Y82341D01*
X260310Y82655D01*
X260421Y83026D01*
X260495Y83488D01*
X260513Y84007D01*
Y84266D01*
X260495Y84377D01*
X260476Y84525D01*
X260439Y84858D01*
X260365Y85228D01*
X260273Y85598D01*
X260124Y85950D01*
X260032Y86098D01*
X259939Y86246D01*
X259921Y86283D01*
X259847Y86357D01*
X259717Y86468D01*
X259569Y86580D01*
X259366Y86709D01*
X259143Y86820D01*
X258884Y86894D01*
X258588Y86931D01*
X258551D01*
X258477D01*
X258348Y86913D01*
X258200Y86876D01*
X258014Y86820D01*
X257829Y86728D01*
X257644Y86617D01*
X257459Y86450D01*
X257441Y86431D01*
X257385Y86339D01*
X257330Y86265D01*
X257293Y86191D01*
X257237Y86080D01*
X257163Y85950D01*
X257107Y85784D01*
X257033Y85598D01*
X256959Y85395D01*
X256867Y85154D01*
X256793Y84895D01*
X256700Y84599D01*
X256626Y84266D01*
X256534Y83896D01*
Y83877D01*
X256515Y83803D01*
X256497Y83692D01*
X256459Y83562D01*
X256422Y83396D01*
X256367Y83192D01*
X256311Y82989D01*
X256256Y82766D01*
X256126Y82285D01*
X255997Y81823D01*
X255923Y81600D01*
X255849Y81397D01*
X255793Y81212D01*
X255719Y81064D01*
Y81045D01*
X255701Y81008D01*
X255664Y80953D01*
X255627Y80879D01*
X255516Y80675D01*
X255367Y80434D01*
X255164Y80157D01*
X254942Y79879D01*
X254683Y79620D01*
X254405Y79398D01*
X254368Y79379D01*
X254275Y79305D01*
X254109Y79231D01*
X253887Y79120D01*
X253627Y79027D01*
X253313Y78935D01*
X252961Y78879D01*
X252591Y78861D01*
X252572D01*
X252554D01*
X252498D01*
X252424D01*
X252221Y78898D01*
X251962Y78935D01*
X251665Y79009D01*
X251351Y79102D01*
X251018Y79250D01*
X250666Y79453D01*
X250647D01*
X250629Y79472D01*
X250518Y79564D01*
X250351Y79694D01*
X250166Y79879D01*
X249944Y80120D01*
X249703Y80416D01*
X249481Y80749D01*
X249278Y81138D01*
Y81156D01*
X249259Y81193D01*
X249241Y81249D01*
X249204Y81323D01*
X249167Y81434D01*
X249111Y81563D01*
X249037Y81859D01*
X248944Y82211D01*
X248852Y82637D01*
X248796Y83100D01*
X248778Y83600D01*
Y83896D01*
X248796Y84044D01*
Y84210D01*
X248815Y84395D01*
X248833Y84618D01*
X248907Y85080D01*
X248981Y85562D01*
X249111Y86043D01*
X249278Y86506D01*
Y86524D01*
X249296Y86561D01*
X249333Y86617D01*
X249370Y86691D01*
X249481Y86913D01*
X249648Y87172D01*
X249870Y87468D01*
X250129Y87783D01*
X250444Y88079D01*
X250796Y88357D01*
X250814D01*
X250851Y88393D01*
X250906Y88412D01*
X250981Y88468D01*
X251073Y88505D01*
X251184Y88560D01*
X251462Y88690D01*
X251814Y88819D01*
X252202Y88930D01*
X252646Y89004D01*
X253109Y89041D01*
X253257Y87450D01*
D02*
G37*
G36*
X258644Y75955D02*
X258681Y75918D01*
X258699Y75844D01*
X258755Y75751D01*
X258810Y75640D01*
X258884Y75511D01*
X259069Y75196D01*
X259273Y74826D01*
X259532Y74455D01*
X259828Y74067D01*
X260143Y73678D01*
X260161Y73660D01*
X260180Y73641D01*
X260236Y73585D01*
X260291Y73511D01*
X260476Y73345D01*
X260698Y73123D01*
X260958Y72901D01*
X261254Y72660D01*
X261550Y72456D01*
X261864Y72271D01*
Y71253D01*
X249000D01*
Y72827D01*
X259014D01*
X258995Y72845D01*
X258921Y72938D01*
X258810Y73049D01*
X258681Y73234D01*
X258514Y73438D01*
X258329Y73697D01*
X258125Y73993D01*
X257922Y74326D01*
Y74344D01*
X257903Y74363D01*
X257829Y74474D01*
X257737Y74659D01*
X257626Y74881D01*
X257496Y75140D01*
X257366Y75418D01*
X257237Y75696D01*
X257126Y75973D01*
X258644D01*
Y75955D01*
D02*
G37*
G36*
X262031Y64238D02*
Y62979D01*
X248778Y66700D01*
Y67958D01*
X262031Y64238D01*
D02*
G37*
G36*
X261809Y59962D02*
X250518D01*
Y53650D01*
X249000D01*
Y61665D01*
X261809D01*
Y59962D01*
D02*
G37*
G36*
X253257Y50615D02*
X253239D01*
X253220D01*
X253165Y50596D01*
X253091D01*
X252924Y50559D01*
X252683Y50504D01*
X252443Y50429D01*
X252165Y50355D01*
X251906Y50226D01*
X251665Y50096D01*
X251647Y50078D01*
X251573Y50022D01*
X251443Y49930D01*
X251314Y49782D01*
X251147Y49597D01*
X250981Y49393D01*
X250814Y49115D01*
X250666Y48819D01*
Y48801D01*
X250647Y48782D01*
X250629Y48727D01*
X250610Y48671D01*
X250555Y48486D01*
X250481Y48245D01*
X250407Y47949D01*
X250351Y47616D01*
X250314Y47246D01*
X250296Y46839D01*
Y46672D01*
X250314Y46487D01*
X250333Y46265D01*
X250370Y46006D01*
X250407Y45709D01*
X250481Y45413D01*
X250573Y45136D01*
X250592Y45099D01*
X250629Y45006D01*
X250703Y44877D01*
X250777Y44710D01*
X250906Y44543D01*
X251036Y44358D01*
X251184Y44173D01*
X251369Y44025D01*
X251388Y44007D01*
X251462Y43970D01*
X251554Y43914D01*
X251702Y43840D01*
X251851Y43766D01*
X252036Y43710D01*
X252239Y43673D01*
X252461Y43655D01*
X252480D01*
X252572D01*
X252683Y43673D01*
X252832Y43692D01*
X252980Y43747D01*
X253165Y43803D01*
X253350Y43896D01*
X253516Y44025D01*
X253535Y44044D01*
X253590Y44099D01*
X253664Y44173D01*
X253776Y44303D01*
X253887Y44451D01*
X254016Y44654D01*
X254146Y44895D01*
X254257Y45173D01*
X254275Y45191D01*
X254294Y45284D01*
X254349Y45432D01*
X254368Y45524D01*
X254405Y45654D01*
X254460Y45783D01*
X254498Y45950D01*
X254553Y46135D01*
X254608Y46357D01*
X254664Y46580D01*
X254738Y46839D01*
X254812Y47135D01*
X254886Y47449D01*
Y47468D01*
X254905Y47523D01*
X254923Y47616D01*
X254960Y47727D01*
X254997Y47875D01*
X255034Y48042D01*
X255145Y48412D01*
X255275Y48819D01*
X255404Y49245D01*
X255534Y49615D01*
X255608Y49782D01*
X255682Y49930D01*
Y49948D01*
X255701Y49967D01*
X255775Y50078D01*
X255867Y50244D01*
X256015Y50429D01*
X256182Y50652D01*
X256385Y50874D01*
X256626Y51096D01*
X256885Y51281D01*
X256922Y51300D01*
X257015Y51355D01*
X257163Y51429D01*
X257348Y51503D01*
X257589Y51577D01*
X257866Y51651D01*
X258162Y51707D01*
X258477Y51725D01*
X258496D01*
X258514D01*
X258570D01*
X258644D01*
X258829Y51688D01*
X259069Y51651D01*
X259347Y51596D01*
X259662Y51503D01*
X259976Y51373D01*
X260291Y51188D01*
X260310D01*
X260328Y51170D01*
X260439Y51077D01*
X260587Y50948D01*
X260772Y50781D01*
X260976Y50559D01*
X261198Y50282D01*
X261402Y49948D01*
X261587Y49578D01*
Y49560D01*
X261605Y49523D01*
X261624Y49467D01*
X261661Y49393D01*
X261698Y49300D01*
X261735Y49171D01*
X261809Y48893D01*
X261883Y48542D01*
X261957Y48134D01*
X262013Y47709D01*
X262031Y47227D01*
Y46987D01*
X262013Y46857D01*
Y46727D01*
X261976Y46376D01*
X261920Y45987D01*
X261827Y45580D01*
X261716Y45136D01*
X261568Y44728D01*
Y44710D01*
X261550Y44673D01*
X261513Y44617D01*
X261476Y44543D01*
X261383Y44358D01*
X261217Y44118D01*
X261032Y43840D01*
X260791Y43562D01*
X260513Y43303D01*
X260198Y43062D01*
X260180D01*
X260161Y43044D01*
X260106Y43007D01*
X260051Y42970D01*
X259865Y42877D01*
X259625Y42766D01*
X259329Y42637D01*
X258977Y42544D01*
X258607Y42452D01*
X258200Y42415D01*
X258070Y44044D01*
X258088D01*
X258125D01*
X258181Y44062D01*
X258274Y44081D01*
X258477Y44136D01*
X258755Y44210D01*
X259051Y44321D01*
X259347Y44488D01*
X259625Y44691D01*
X259884Y44951D01*
X259902Y44988D01*
X259976Y45080D01*
X260087Y45265D01*
X260198Y45506D01*
X260310Y45821D01*
X260421Y46191D01*
X260495Y46654D01*
X260513Y47172D01*
Y47431D01*
X260495Y47542D01*
X260476Y47690D01*
X260439Y48023D01*
X260365Y48393D01*
X260273Y48764D01*
X260124Y49115D01*
X260032Y49263D01*
X259939Y49411D01*
X259921Y49448D01*
X259847Y49523D01*
X259717Y49634D01*
X259569Y49745D01*
X259366Y49874D01*
X259143Y49985D01*
X258884Y50059D01*
X258588Y50096D01*
X258551D01*
X258477D01*
X258348Y50078D01*
X258200Y50041D01*
X258014Y49985D01*
X257829Y49893D01*
X257644Y49782D01*
X257459Y49615D01*
X257441Y49597D01*
X257385Y49504D01*
X257330Y49430D01*
X257293Y49356D01*
X257237Y49245D01*
X257163Y49115D01*
X257107Y48949D01*
X257033Y48764D01*
X256959Y48560D01*
X256867Y48319D01*
X256793Y48060D01*
X256700Y47764D01*
X256626Y47431D01*
X256534Y47061D01*
Y47042D01*
X256515Y46968D01*
X256497Y46857D01*
X256459Y46727D01*
X256422Y46561D01*
X256367Y46357D01*
X256311Y46154D01*
X256256Y45932D01*
X256126Y45450D01*
X255997Y44988D01*
X255923Y44765D01*
X255849Y44562D01*
X255793Y44377D01*
X255719Y44229D01*
Y44210D01*
X255701Y44173D01*
X255664Y44118D01*
X255627Y44044D01*
X255516Y43840D01*
X255367Y43599D01*
X255164Y43322D01*
X254942Y43044D01*
X254683Y42785D01*
X254405Y42563D01*
X254368Y42544D01*
X254275Y42470D01*
X254109Y42396D01*
X253887Y42285D01*
X253627Y42193D01*
X253313Y42100D01*
X252961Y42044D01*
X252591Y42026D01*
X252572D01*
X252554D01*
X252498D01*
X252424D01*
X252221Y42063D01*
X251962Y42100D01*
X251665Y42174D01*
X251351Y42267D01*
X251018Y42415D01*
X250666Y42618D01*
X250647D01*
X250629Y42637D01*
X250518Y42729D01*
X250351Y42859D01*
X250166Y43044D01*
X249944Y43285D01*
X249703Y43581D01*
X249481Y43914D01*
X249278Y44303D01*
Y44321D01*
X249259Y44358D01*
X249241Y44414D01*
X249204Y44488D01*
X249167Y44599D01*
X249111Y44728D01*
X249037Y45025D01*
X248944Y45376D01*
X248852Y45802D01*
X248796Y46265D01*
X248778Y46765D01*
Y47061D01*
X248796Y47209D01*
Y47375D01*
X248815Y47561D01*
X248833Y47783D01*
X248907Y48245D01*
X248981Y48727D01*
X249111Y49208D01*
X249278Y49671D01*
Y49689D01*
X249296Y49726D01*
X249333Y49782D01*
X249370Y49856D01*
X249481Y50078D01*
X249648Y50337D01*
X249870Y50633D01*
X250129Y50948D01*
X250444Y51244D01*
X250796Y51522D01*
X250814D01*
X250851Y51559D01*
X250906Y51577D01*
X250981Y51633D01*
X251073Y51670D01*
X251184Y51725D01*
X251462Y51855D01*
X251814Y51984D01*
X252202Y52095D01*
X252646Y52170D01*
X253109Y52206D01*
X253257Y50615D01*
D02*
G37*
G36*
X249352Y40545D02*
X249518Y40527D01*
X249703Y40490D01*
X249888Y40453D01*
X250092Y40379D01*
X250111D01*
X250129Y40360D01*
X250240Y40323D01*
X250407Y40249D01*
X250629Y40138D01*
X250888Y39990D01*
X251184Y39805D01*
X251480Y39601D01*
X251795Y39342D01*
X251814D01*
X251832Y39305D01*
X251943Y39213D01*
X252110Y39046D01*
X252350Y38805D01*
X252628Y38528D01*
X252961Y38176D01*
X253331Y37750D01*
X253720Y37287D01*
X253739Y37269D01*
X253794Y37195D01*
X253887Y37084D01*
X253998Y36954D01*
X254146Y36788D01*
X254312Y36584D01*
X254498Y36380D01*
X254701Y36140D01*
X255145Y35677D01*
X255590Y35214D01*
X255812Y34992D01*
X256034Y34789D01*
X256237Y34604D01*
X256441Y34455D01*
X256459D01*
X256478Y34418D01*
X256534Y34381D01*
X256608Y34344D01*
X256811Y34215D01*
X257052Y34067D01*
X257348Y33937D01*
X257663Y33808D01*
X258014Y33733D01*
X258348Y33696D01*
X258366D01*
X258385D01*
X258496Y33715D01*
X258681Y33733D01*
X258884Y33789D01*
X259143Y33863D01*
X259403Y33993D01*
X259662Y34159D01*
X259921Y34381D01*
X259958Y34418D01*
X260032Y34511D01*
X260124Y34640D01*
X260254Y34844D01*
X260365Y35103D01*
X260476Y35399D01*
X260550Y35751D01*
X260569Y36140D01*
Y36251D01*
X260550Y36325D01*
X260532Y36547D01*
X260476Y36806D01*
X260402Y37084D01*
X260273Y37398D01*
X260106Y37695D01*
X259884Y37972D01*
X259847Y38009D01*
X259754Y38083D01*
X259606Y38194D01*
X259384Y38306D01*
X259125Y38435D01*
X258792Y38546D01*
X258422Y38620D01*
X257996Y38657D01*
X258162Y40268D01*
X258181D01*
X258237Y40249D01*
X258329D01*
X258459Y40231D01*
X258607Y40194D01*
X258773Y40156D01*
X258977Y40101D01*
X259180Y40045D01*
X259625Y39897D01*
X260069Y39675D01*
X260291Y39546D01*
X260513Y39379D01*
X260717Y39213D01*
X260902Y39027D01*
X260920Y39009D01*
X260939Y38972D01*
X260995Y38916D01*
X261050Y38824D01*
X261124Y38713D01*
X261198Y38583D01*
X261291Y38435D01*
X261383Y38250D01*
X261476Y38046D01*
X261568Y37824D01*
X261642Y37584D01*
X261716Y37325D01*
X261772Y37047D01*
X261827Y36751D01*
X261846Y36436D01*
X261864Y36103D01*
Y35918D01*
X261846Y35788D01*
X261827Y35640D01*
X261809Y35455D01*
X261772Y35251D01*
X261735Y35048D01*
X261605Y34567D01*
X261420Y34085D01*
X261309Y33845D01*
X261180Y33604D01*
X261013Y33382D01*
X260828Y33178D01*
X260809Y33160D01*
X260791Y33123D01*
X260717Y33086D01*
X260643Y33012D01*
X260550Y32919D01*
X260421Y32827D01*
X260291Y32734D01*
X260124Y32623D01*
X259773Y32438D01*
X259329Y32253D01*
X259106Y32179D01*
X258847Y32142D01*
X258588Y32105D01*
X258311Y32086D01*
X258274D01*
X258181D01*
X258033Y32105D01*
X257829Y32123D01*
X257607Y32160D01*
X257348Y32234D01*
X257070Y32308D01*
X256793Y32419D01*
X256756Y32438D01*
X256663Y32475D01*
X256515Y32549D01*
X256311Y32660D01*
X256089Y32808D01*
X255812Y32993D01*
X255534Y33215D01*
X255219Y33474D01*
X255182Y33511D01*
X255071Y33604D01*
X254979Y33696D01*
X254886Y33789D01*
X254775Y33900D01*
X254627Y34048D01*
X254479Y34196D01*
X254312Y34381D01*
X254127Y34567D01*
X253924Y34789D01*
X253720Y35029D01*
X253479Y35288D01*
X253239Y35585D01*
X252980Y35881D01*
X252961Y35899D01*
X252924Y35936D01*
X252869Y36010D01*
X252795Y36103D01*
X252683Y36214D01*
X252572Y36343D01*
X252332Y36640D01*
X252054Y36954D01*
X251777Y37250D01*
X251536Y37510D01*
X251443Y37621D01*
X251351Y37713D01*
X251332Y37732D01*
X251277Y37787D01*
X251203Y37861D01*
X251092Y37954D01*
X250962Y38046D01*
X250833Y38157D01*
X250518Y38379D01*
Y32068D01*
X249000D01*
Y40564D01*
X249019D01*
X249093D01*
X249204D01*
X249352Y40545D01*
D02*
G37*
G36*
X51565Y13304D02*
X51559D01*
X51548D01*
X51526D01*
X51492Y13298D01*
X51459Y13293D01*
X51420D01*
X51326Y13276D01*
X51226Y13259D01*
X51126Y13226D01*
X51037Y13193D01*
X50998Y13171D01*
X50965Y13143D01*
X50960Y13137D01*
X50943Y13115D01*
X50915Y13082D01*
X50887Y13037D01*
X50854Y12976D01*
X50832Y12910D01*
X50810Y12826D01*
X50804Y12738D01*
Y12704D01*
X50810Y12671D01*
X50815Y12621D01*
X50826Y12571D01*
X50837Y12516D01*
X50860Y12460D01*
X50887Y12405D01*
X50893Y12399D01*
X50904Y12382D01*
X50926Y12360D01*
X50949Y12327D01*
X50987Y12299D01*
X51026Y12266D01*
X51071Y12238D01*
X51126Y12216D01*
X51132D01*
X51154Y12205D01*
X51193Y12199D01*
X51243Y12188D01*
X51309Y12177D01*
X51393Y12172D01*
X51492Y12160D01*
X51609D01*
X54256D01*
Y11650D01*
X51637D01*
X51631D01*
X51614D01*
X51592D01*
X51559D01*
X51515Y11655D01*
X51470D01*
X51365Y11666D01*
X51243Y11678D01*
X51115Y11700D01*
X50998Y11733D01*
X50887Y11772D01*
X50882D01*
X50876Y11778D01*
X50843Y11794D01*
X50799Y11822D01*
X50738Y11861D01*
X50677Y11916D01*
X50610Y11977D01*
X50543Y12055D01*
X50488Y12144D01*
X50482Y12155D01*
X50466Y12188D01*
X50443Y12238D01*
X50421Y12310D01*
X50393Y12399D01*
X50371Y12499D01*
X50355Y12610D01*
X50349Y12732D01*
Y12782D01*
X50355Y12815D01*
X50360Y12860D01*
X50366Y12904D01*
X50388Y13021D01*
X50421Y13143D01*
X50471Y13270D01*
X50504Y13337D01*
X50543Y13398D01*
X50588Y13454D01*
X50638Y13509D01*
X50643Y13515D01*
X50649Y13520D01*
X50671Y13531D01*
X50693Y13548D01*
X50721Y13570D01*
X50760Y13592D01*
X50804Y13614D01*
X50854Y13642D01*
X50910Y13665D01*
X50976Y13687D01*
X51043Y13709D01*
X51121Y13731D01*
X51204Y13742D01*
X51298Y13759D01*
X51393Y13764D01*
X51498D01*
X51565Y13304D01*
D02*
G37*
G36*
X53307Y10645D02*
X53318Y10634D01*
X53324Y10612D01*
X53341Y10584D01*
X53357Y10551D01*
X53379Y10512D01*
X53435Y10418D01*
X53496Y10307D01*
X53574Y10196D01*
X53662Y10079D01*
X53757Y9963D01*
X53762Y9957D01*
X53768Y9951D01*
X53785Y9935D01*
X53801Y9913D01*
X53857Y9863D01*
X53923Y9796D01*
X54001Y9730D01*
X54090Y9657D01*
X54179Y9596D01*
X54273Y9541D01*
Y9236D01*
X50416D01*
Y9707D01*
X53418D01*
X53413Y9713D01*
X53391Y9741D01*
X53357Y9774D01*
X53318Y9829D01*
X53268Y9890D01*
X53213Y9968D01*
X53152Y10057D01*
X53091Y10157D01*
Y10162D01*
X53085Y10168D01*
X53063Y10201D01*
X53035Y10257D01*
X53002Y10323D01*
X52963Y10401D01*
X52924Y10484D01*
X52885Y10568D01*
X52852Y10651D01*
X53307D01*
Y10645D01*
D02*
G37*
%LPC*%
G36*
X-10294Y283278D02*
X-10523D01*
X-10531D01*
X-10538D01*
X-10575D01*
X-10642D01*
X-10731Y283271D01*
X-10827D01*
X-10945Y283264D01*
X-11071Y283256D01*
X-11212Y283241D01*
X-11493Y283204D01*
X-11633Y283182D01*
X-11767Y283153D01*
X-11892Y283123D01*
X-12011Y283079D01*
X-12114Y283034D01*
X-12203Y282982D01*
X-12211D01*
X-12218Y282968D01*
X-12240Y282953D01*
X-12270Y282931D01*
X-12336Y282864D01*
X-12418Y282783D01*
X-12492Y282672D01*
X-12558Y282546D01*
X-12588Y282479D01*
X-12610Y282405D01*
X-12618Y282324D01*
X-12625Y282242D01*
Y282198D01*
X-12618Y282168D01*
X-12603Y282087D01*
X-12581Y281991D01*
X-12536Y281880D01*
X-12470Y281761D01*
X-12425Y281702D01*
X-12381Y281643D01*
X-12322Y281591D01*
X-12255Y281539D01*
X-12248D01*
X-12233Y281525D01*
X-12203Y281510D01*
X-12166Y281488D01*
X-12107Y281465D01*
X-12040Y281436D01*
X-11959Y281414D01*
X-11863Y281384D01*
X-11752Y281354D01*
X-11626Y281325D01*
X-11485Y281295D01*
X-11330Y281273D01*
X-11152Y281251D01*
X-10960Y281236D01*
X-10753Y281229D01*
X-10523Y281221D01*
X-10509D01*
X-10472D01*
X-10405D01*
X-10316Y281229D01*
X-10220D01*
X-10102Y281236D01*
X-9976Y281243D01*
X-9843Y281258D01*
X-9554Y281295D01*
X-9413Y281317D01*
X-9280Y281347D01*
X-9154Y281377D01*
X-9036Y281421D01*
X-8932Y281465D01*
X-8844Y281517D01*
X-8836D01*
X-8829Y281532D01*
X-8777Y281569D01*
X-8710Y281636D01*
X-8636Y281717D01*
X-8562Y281828D01*
X-8496Y281954D01*
X-8444Y282094D01*
X-8437Y282168D01*
X-8429Y282250D01*
Y282294D01*
X-8437Y282324D01*
X-8451Y282398D01*
X-8481Y282501D01*
X-8533Y282612D01*
X-8607Y282738D01*
X-8651Y282797D01*
X-8710Y282857D01*
X-8770Y282916D01*
X-8844Y282975D01*
X-8851D01*
X-8866Y282990D01*
X-8888Y283005D01*
X-8925Y283019D01*
X-8977Y283049D01*
X-9043Y283071D01*
X-9117Y283101D01*
X-9206Y283130D01*
X-9317Y283153D01*
X-9436Y283182D01*
X-9576Y283212D01*
X-9724Y283234D01*
X-9902Y283249D01*
X-10087Y283264D01*
X-10294Y283278D01*
D02*
G37*
G36*
X13885Y136989D02*
X10955D01*
Y136079D01*
X10961Y136040D01*
X10966Y135957D01*
X10972Y135863D01*
X10983Y135763D01*
X11000Y135663D01*
X11022Y135580D01*
X11027Y135569D01*
X11033Y135541D01*
X11050Y135502D01*
X11072Y135452D01*
X11105Y135397D01*
X11138Y135341D01*
X11177Y135285D01*
X11221Y135230D01*
X11233Y135224D01*
X11255Y135202D01*
X11294Y135169D01*
X11349Y135130D01*
X11421Y135086D01*
X11505Y135036D01*
X11599Y134991D01*
X11704Y134952D01*
X11710D01*
X11721Y134947D01*
X11738Y134941D01*
X11760Y134936D01*
X11788Y134930D01*
X11826Y134919D01*
X11865Y134908D01*
X11910Y134897D01*
X12021Y134880D01*
X12148Y134864D01*
X12293Y134853D01*
X12448Y134847D01*
X12454D01*
X12476D01*
X12504D01*
X12548Y134853D01*
X12598D01*
X12653Y134858D01*
X12720Y134864D01*
X12787Y134869D01*
X12936Y134897D01*
X13092Y134930D01*
X13236Y134980D01*
X13308Y135014D01*
X13369Y135047D01*
X13375D01*
X13386Y135058D01*
X13403Y135069D01*
X13425Y135080D01*
X13480Y135125D01*
X13547Y135180D01*
X13619Y135252D01*
X13691Y135336D01*
X13752Y135430D01*
X13802Y135530D01*
X13808Y135541D01*
X13813Y135569D01*
X13830Y135619D01*
X13847Y135691D01*
X13858Y135780D01*
X13874Y135890D01*
X13880Y135957D01*
Y136029D01*
X13885Y136101D01*
Y136989D01*
D02*
G37*
G36*
X16386Y248989D02*
X13455D01*
Y248079D01*
X13461Y248040D01*
X13466Y247957D01*
X13472Y247863D01*
X13483Y247763D01*
X13499Y247663D01*
X13522Y247580D01*
X13527Y247569D01*
X13533Y247541D01*
X13549Y247502D01*
X13572Y247452D01*
X13605Y247396D01*
X13638Y247341D01*
X13677Y247286D01*
X13722Y247230D01*
X13733Y247224D01*
X13755Y247202D01*
X13794Y247169D01*
X13849Y247130D01*
X13921Y247086D01*
X14005Y247036D01*
X14099Y246991D01*
X14204Y246953D01*
X14210D01*
X14221Y246947D01*
X14238Y246941D01*
X14260Y246936D01*
X14288Y246930D01*
X14326Y246919D01*
X14365Y246908D01*
X14410Y246897D01*
X14521Y246880D01*
X14648Y246864D01*
X14793Y246853D01*
X14948Y246847D01*
X14954D01*
X14976D01*
X15004D01*
X15048Y246853D01*
X15098D01*
X15153Y246858D01*
X15220Y246864D01*
X15287Y246869D01*
X15436Y246897D01*
X15592Y246930D01*
X15736Y246980D01*
X15808Y247014D01*
X15869Y247047D01*
X15875D01*
X15886Y247058D01*
X15903Y247069D01*
X15925Y247080D01*
X15980Y247125D01*
X16047Y247180D01*
X16119Y247252D01*
X16191Y247336D01*
X16252Y247430D01*
X16302Y247530D01*
X16308Y247541D01*
X16313Y247569D01*
X16330Y247619D01*
X16347Y247691D01*
X16358Y247779D01*
X16374Y247890D01*
X16380Y247957D01*
Y248029D01*
X16386Y248101D01*
Y248989D01*
D02*
G37*
G36*
X-5513Y65212D02*
X-5613D01*
X-5618D01*
X-5635D01*
X-5662D01*
X-5701Y65207D01*
X-5746D01*
X-5796Y65201D01*
X-5912Y65185D01*
X-6040Y65157D01*
X-6173Y65118D01*
X-6301Y65062D01*
X-6356Y65029D01*
X-6412Y64990D01*
Y64985D01*
X-6423Y64979D01*
X-6451Y64951D01*
X-6495Y64902D01*
X-6539Y64841D01*
X-6589Y64763D01*
X-6634Y64668D01*
X-6662Y64569D01*
X-6667Y64513D01*
X-6673Y64458D01*
Y64430D01*
X-6667Y64408D01*
X-6662Y64347D01*
X-6639Y64274D01*
X-6611Y64191D01*
X-6567Y64102D01*
X-6506Y64013D01*
X-6467Y63969D01*
X-6423Y63930D01*
X-6417D01*
X-6412Y63919D01*
X-6395Y63908D01*
X-6373Y63897D01*
X-6345Y63880D01*
X-6317Y63858D01*
X-6273Y63841D01*
X-6228Y63819D01*
X-6179Y63797D01*
X-6123Y63780D01*
X-6056Y63758D01*
X-5990Y63742D01*
X-5912Y63731D01*
X-5835Y63719D01*
X-5746Y63708D01*
X-5651D01*
X-5646D01*
X-5624D01*
X-5596D01*
X-5557Y63714D01*
X-5513D01*
X-5457Y63719D01*
X-5396Y63725D01*
X-5329Y63736D01*
X-5196Y63764D01*
X-5057Y63803D01*
X-4924Y63858D01*
X-4869Y63891D01*
X-4813Y63930D01*
X-4808D01*
X-4802Y63941D01*
X-4769Y63969D01*
X-4724Y64019D01*
X-4674Y64080D01*
X-4625Y64158D01*
X-4586Y64252D01*
X-4552Y64358D01*
X-4547Y64413D01*
X-4541Y64474D01*
Y64502D01*
X-4547Y64524D01*
X-4552Y64585D01*
X-4575Y64657D01*
X-4602Y64741D01*
X-4652Y64829D01*
X-4713Y64918D01*
X-4758Y64963D01*
X-4802Y65001D01*
X-4808D01*
X-4813Y65013D01*
X-4830Y65018D01*
X-4852Y65035D01*
X-4880Y65051D01*
X-4913Y65068D01*
X-4952Y65085D01*
X-4997Y65107D01*
X-5052Y65129D01*
X-5113Y65146D01*
X-5180Y65162D01*
X-5252Y65179D01*
X-5329Y65190D01*
X-5418Y65201D01*
X-5513Y65212D01*
D02*
G37*
G36*
X-5607Y60439D02*
X-5613D01*
X-5629D01*
X-5657D01*
X-5696Y60434D01*
X-5740D01*
X-5790Y60428D01*
X-5907Y60412D01*
X-6040Y60384D01*
X-6173Y60339D01*
X-6301Y60284D01*
X-6356Y60245D01*
X-6412Y60206D01*
Y60201D01*
X-6423Y60195D01*
X-6451Y60162D01*
X-6495Y60112D01*
X-6539Y60045D01*
X-6589Y59962D01*
X-6634Y59862D01*
X-6662Y59746D01*
X-6667Y59685D01*
X-6673Y59618D01*
Y59585D01*
X-6667Y59557D01*
X-6656Y59496D01*
X-6639Y59413D01*
X-6606Y59324D01*
X-6561Y59224D01*
X-6495Y59130D01*
X-6451Y59080D01*
X-6406Y59035D01*
X-6401Y59030D01*
X-6395Y59024D01*
X-6378Y59013D01*
X-6356Y58996D01*
X-6329Y58980D01*
X-6295Y58957D01*
X-6251Y58935D01*
X-6206Y58913D01*
X-6151Y58891D01*
X-6090Y58874D01*
X-6023Y58852D01*
X-5951Y58835D01*
X-5868Y58819D01*
X-5785Y58808D01*
X-5690Y58797D01*
X-5590D01*
X-5585D01*
X-5568D01*
X-5540D01*
X-5507Y58802D01*
X-5463D01*
X-5413Y58808D01*
X-5296Y58824D01*
X-5174Y58852D01*
X-5041Y58896D01*
X-4919Y58957D01*
X-4858Y58991D01*
X-4808Y59035D01*
X-4802D01*
X-4797Y59046D01*
X-4763Y59080D01*
X-4724Y59130D01*
X-4674Y59196D01*
X-4625Y59279D01*
X-4580Y59379D01*
X-4552Y59490D01*
X-4547Y59551D01*
X-4541Y59618D01*
Y59651D01*
X-4547Y59679D01*
X-4552Y59740D01*
X-4575Y59823D01*
X-4608Y59918D01*
X-4652Y60018D01*
X-4719Y60112D01*
X-4763Y60162D01*
X-4808Y60206D01*
X-4813D01*
X-4819Y60217D01*
X-4835Y60228D01*
X-4858Y60245D01*
X-4885Y60262D01*
X-4919Y60278D01*
X-4963Y60301D01*
X-5007Y60323D01*
X-5063Y60345D01*
X-5119Y60367D01*
X-5185Y60384D01*
X-5257Y60400D01*
X-5335Y60417D01*
X-5418Y60428D01*
X-5513Y60434D01*
X-5607Y60439D01*
D02*
G37*
G36*
X-3615Y55716D02*
X-4769D01*
Y54773D01*
X-4763Y54701D01*
X-4758Y54623D01*
X-4752Y54545D01*
X-4741Y54468D01*
X-4730Y54406D01*
X-4724Y54395D01*
X-4719Y54373D01*
X-4702Y54340D01*
X-4680Y54295D01*
X-4658Y54251D01*
X-4625Y54201D01*
X-4580Y54151D01*
X-4536Y54112D01*
X-4530Y54107D01*
X-4514Y54096D01*
X-4480Y54079D01*
X-4441Y54062D01*
X-4397Y54046D01*
X-4342Y54029D01*
X-4275Y54018D01*
X-4203Y54013D01*
X-4192D01*
X-4169D01*
X-4136Y54018D01*
X-4092Y54024D01*
X-4036Y54035D01*
X-3981Y54051D01*
X-3925Y54074D01*
X-3870Y54107D01*
X-3864Y54112D01*
X-3848Y54124D01*
X-3820Y54146D01*
X-3792Y54173D01*
X-3759Y54212D01*
X-3726Y54257D01*
X-3692Y54312D01*
X-3670Y54373D01*
Y54379D01*
X-3659Y54406D01*
X-3653Y54445D01*
X-3642Y54506D01*
X-3631Y54590D01*
X-3626Y54684D01*
X-3615Y54806D01*
Y55716D01*
D02*
G37*
G36*
X-5224D02*
X-6545D01*
Y54623D01*
X-6539Y54506D01*
X-6534Y54456D01*
X-6528Y54412D01*
Y54406D01*
X-6523Y54384D01*
X-6517Y54351D01*
X-6506Y54312D01*
X-6473Y54218D01*
X-6428Y54124D01*
X-6423Y54118D01*
X-6412Y54101D01*
X-6395Y54079D01*
X-6373Y54051D01*
X-6340Y54024D01*
X-6306Y53985D01*
X-6262Y53957D01*
X-6212Y53924D01*
X-6206Y53918D01*
X-6190Y53913D01*
X-6156Y53901D01*
X-6117Y53885D01*
X-6073Y53868D01*
X-6018Y53857D01*
X-5951Y53851D01*
X-5884Y53846D01*
X-5873D01*
X-5851D01*
X-5807Y53851D01*
X-5757Y53863D01*
X-5701Y53874D01*
X-5640Y53896D01*
X-5579Y53924D01*
X-5518Y53962D01*
X-5513Y53968D01*
X-5490Y53985D01*
X-5463Y54007D01*
X-5429Y54040D01*
X-5390Y54085D01*
X-5352Y54140D01*
X-5318Y54201D01*
X-5291Y54273D01*
X-5285Y54284D01*
X-5280Y54307D01*
X-5268Y54357D01*
X-5257Y54418D01*
X-5246Y54495D01*
X-5235Y54590D01*
X-5224Y54706D01*
Y55716D01*
D02*
G37*
G36*
X-6251Y52342D02*
X-6256D01*
X-6284D01*
X-6317Y52336D01*
X-6362Y52325D01*
X-6412Y52309D01*
X-6462Y52281D01*
X-6517Y52248D01*
X-6567Y52203D01*
X-6573Y52198D01*
X-6584Y52175D01*
X-6606Y52142D01*
X-6628Y52098D01*
X-6650Y52037D01*
X-6673Y51964D01*
X-6684Y51881D01*
X-6689Y51781D01*
Y51737D01*
X-6684Y51681D01*
X-6673Y51620D01*
X-6662Y51543D01*
X-6639Y51465D01*
X-6611Y51382D01*
X-6573Y51298D01*
X-6567Y51287D01*
X-6550Y51265D01*
X-6523Y51226D01*
X-6484Y51182D01*
X-6439Y51132D01*
X-6384Y51077D01*
X-6317Y51032D01*
X-6245Y50988D01*
X-6240Y50982D01*
X-6217Y50977D01*
X-6179Y50965D01*
X-6129Y50949D01*
X-6062Y50932D01*
X-5984Y50921D01*
X-5890Y50916D01*
X-5779Y50910D01*
X-5601Y50905D01*
Y50910D01*
X-5607Y50916D01*
X-5613Y50932D01*
X-5618Y50954D01*
X-5629Y50982D01*
X-5640Y51015D01*
X-5651Y51054D01*
X-5662Y51099D01*
X-5679Y51149D01*
X-5690Y51210D01*
X-5707Y51271D01*
X-5723Y51343D01*
X-5740Y51421D01*
X-5757Y51498D01*
X-5768Y51587D01*
X-5785Y51681D01*
Y51693D01*
X-5790Y51726D01*
X-5801Y51781D01*
X-5812Y51842D01*
X-5823Y51909D01*
X-5840Y51976D01*
X-5857Y52037D01*
X-5879Y52092D01*
Y52098D01*
X-5890Y52114D01*
X-5901Y52136D01*
X-5918Y52159D01*
X-5962Y52225D01*
X-6029Y52281D01*
X-6034D01*
X-6045Y52292D01*
X-6068Y52298D01*
X-6095Y52309D01*
X-6129Y52320D01*
X-6162Y52331D01*
X-6206Y52336D01*
X-6251Y52342D01*
D02*
G37*
G36*
X-11215Y300397D02*
X-11222D01*
X-11230D01*
X-11274Y300389D01*
X-11341Y300382D01*
X-11429Y300367D01*
X-11518Y300330D01*
X-11622Y300286D01*
X-11718Y300219D01*
X-11814Y300130D01*
X-11822Y300115D01*
X-11851Y300078D01*
X-11888Y300019D01*
X-11933Y299923D01*
X-11977Y299812D01*
X-12014Y299664D01*
X-12044Y299494D01*
X-12051Y299294D01*
Y297681D01*
X-10356D01*
Y299205D01*
X-10364Y299294D01*
X-10371Y299398D01*
X-10379Y299516D01*
X-10393Y299634D01*
X-10416Y299753D01*
X-10445Y299856D01*
X-10453Y299871D01*
X-10467Y299901D01*
X-10490Y299945D01*
X-10519Y300004D01*
X-10564Y300071D01*
X-10615Y300138D01*
X-10682Y300204D01*
X-10756Y300256D01*
X-10763Y300263D01*
X-10793Y300278D01*
X-10837Y300300D01*
X-10897Y300330D01*
X-10963Y300352D01*
X-11037Y300374D01*
X-11126Y300389D01*
X-11215Y300397D01*
D02*
G37*
G36*
X207214Y19547D02*
X207208D01*
X207203D01*
X207170Y19542D01*
X207119Y19536D01*
X207053Y19525D01*
X206986Y19498D01*
X206909Y19464D01*
X206837Y19414D01*
X206764Y19348D01*
X206759Y19336D01*
X206737Y19309D01*
X206709Y19264D01*
X206676Y19192D01*
X206642Y19109D01*
X206614Y18998D01*
X206592Y18870D01*
X206587Y18721D01*
Y17511D01*
X207858D01*
Y18654D01*
X207852Y18721D01*
X207847Y18798D01*
X207841Y18887D01*
X207830Y18976D01*
X207813Y19065D01*
X207791Y19142D01*
X207786Y19153D01*
X207774Y19176D01*
X207758Y19209D01*
X207736Y19253D01*
X207702Y19303D01*
X207663Y19353D01*
X207613Y19403D01*
X207558Y19442D01*
X207552Y19448D01*
X207530Y19459D01*
X207497Y19475D01*
X207453Y19498D01*
X207403Y19514D01*
X207347Y19531D01*
X207280Y19542D01*
X207214Y19547D01*
D02*
G37*
G36*
X201085Y22445D02*
X201080D01*
X201063D01*
X201041D01*
X201008D01*
X200969Y22439D01*
X200919D01*
X200869Y22433D01*
X200808Y22422D01*
X200680Y22406D01*
X200547Y22378D01*
X200403Y22339D01*
X200269Y22284D01*
X200264D01*
X200253Y22278D01*
X200236Y22267D01*
X200214Y22256D01*
X200147Y22217D01*
X200070Y22167D01*
X199981Y22101D01*
X199892Y22017D01*
X199803Y21923D01*
X199725Y21817D01*
Y21812D01*
X199714Y21806D01*
X199709Y21790D01*
X199692Y21762D01*
X199681Y21734D01*
X199664Y21701D01*
X199626Y21618D01*
X199592Y21518D01*
X199559Y21401D01*
X199537Y21268D01*
X199531Y21129D01*
Y21079D01*
X199537Y21041D01*
X199542Y20990D01*
X199553Y20941D01*
X199565Y20880D01*
X199576Y20813D01*
X199620Y20669D01*
X199653Y20591D01*
X199687Y20513D01*
X199731Y20430D01*
X199781Y20352D01*
X199837Y20275D01*
X199903Y20202D01*
X199909Y20197D01*
X199920Y20186D01*
X199942Y20169D01*
X199975Y20141D01*
X200014Y20114D01*
X200064Y20080D01*
X200125Y20047D01*
X200197Y20008D01*
X200275Y19975D01*
X200369Y19936D01*
X200469Y19903D01*
X200580Y19875D01*
X200702Y19847D01*
X200841Y19831D01*
X200985Y19819D01*
X201141Y19814D01*
X201146D01*
X201168D01*
X201207D01*
X201257Y19819D01*
X201313Y19825D01*
X201379Y19836D01*
X201457Y19847D01*
X201535Y19858D01*
X201712Y19903D01*
X201801Y19936D01*
X201896Y19969D01*
X201984Y20014D01*
X202073Y20064D01*
X202156Y20119D01*
X202234Y20186D01*
X202240Y20191D01*
X202251Y20202D01*
X202273Y20225D01*
X202295Y20252D01*
X202328Y20291D01*
X202362Y20336D01*
X202395Y20386D01*
X202434Y20441D01*
X202473Y20508D01*
X202506Y20580D01*
X202539Y20658D01*
X202573Y20741D01*
X202595Y20830D01*
X202617Y20918D01*
X202628Y21018D01*
X202634Y21124D01*
Y21151D01*
X202628Y21179D01*
Y21218D01*
X202623Y21268D01*
X202611Y21324D01*
X202600Y21390D01*
X202584Y21457D01*
X202562Y21534D01*
X202534Y21607D01*
X202506Y21690D01*
X202467Y21768D01*
X202417Y21845D01*
X202367Y21923D01*
X202306Y22001D01*
X202234Y22073D01*
X202228Y22078D01*
X202218Y22089D01*
X202190Y22106D01*
X202156Y22134D01*
X202118Y22162D01*
X202068Y22189D01*
X202007Y22223D01*
X201940Y22262D01*
X201862Y22295D01*
X201774Y22328D01*
X201679Y22356D01*
X201579Y22389D01*
X201468Y22411D01*
X201346Y22428D01*
X201219Y22439D01*
X201085Y22445D01*
D02*
G37*
G36*
X143003Y252848D02*
X142984D01*
X142910D01*
X142818D01*
X142670Y252829D01*
X142503D01*
X142318Y252811D01*
X142096Y252792D01*
X141874Y252774D01*
X141374Y252681D01*
X140856Y252570D01*
X140375Y252403D01*
X140134Y252292D01*
X139930Y252181D01*
X139912D01*
X139875Y252144D01*
X139819Y252107D01*
X139745Y252070D01*
X139560Y251922D01*
X139338Y251737D01*
X139097Y251497D01*
X138857Y251219D01*
X138653Y250904D01*
X138487Y250571D01*
X138468Y250534D01*
X138450Y250442D01*
X138394Y250275D01*
X138338Y250034D01*
X138301Y249738D01*
X138246Y249368D01*
X138227Y249146D01*
Y248905D01*
X138209Y248664D01*
Y245703D01*
X147982D01*
Y248739D01*
X147964Y248868D01*
X147945Y249146D01*
X147927Y249460D01*
X147890Y249794D01*
X147834Y250127D01*
X147760Y250405D01*
X147742Y250442D01*
X147723Y250534D01*
X147668Y250664D01*
X147593Y250830D01*
X147482Y251015D01*
X147371Y251200D01*
X147242Y251385D01*
X147094Y251571D01*
X147057Y251589D01*
X146983Y251663D01*
X146853Y251774D01*
X146668Y251904D01*
X146427Y252052D01*
X146150Y252218D01*
X145835Y252366D01*
X145483Y252496D01*
X145465D01*
X145428Y252515D01*
X145372Y252533D01*
X145298Y252552D01*
X145206Y252570D01*
X145076Y252607D01*
X144947Y252644D01*
X144799Y252681D01*
X144428Y252737D01*
X144002Y252792D01*
X143521Y252829D01*
X143003Y252848D01*
D02*
G37*
G36*
X140172Y229935D02*
X140153D01*
X140135D01*
X140042D01*
X139876Y229916D01*
X139691Y229879D01*
X139487Y229842D01*
X139246Y229768D01*
X139024Y229657D01*
X138802Y229528D01*
X138784Y229509D01*
X138709Y229453D01*
X138617Y229361D01*
X138487Y229250D01*
X138358Y229083D01*
X138247Y228898D01*
X138136Y228695D01*
X138043Y228454D01*
Y228435D01*
X138025Y228362D01*
X138006Y228250D01*
X137969Y228102D01*
X137951Y227880D01*
X137932Y227603D01*
X137914Y227269D01*
Y223604D01*
X142486D01*
Y227047D01*
X142467Y227177D01*
Y227306D01*
X142449Y227454D01*
X142412Y227806D01*
X142338Y228195D01*
X142226Y228584D01*
X142078Y228935D01*
X141986Y229102D01*
X141875Y229231D01*
X141838Y229268D01*
X141764Y229343D01*
X141616Y229453D01*
X141430Y229583D01*
X141190Y229713D01*
X140894Y229824D01*
X140560Y229898D01*
X140172Y229935D01*
D02*
G37*
G36*
X271146Y88653D02*
X271128D01*
X271072D01*
X270979D01*
X270850Y88635D01*
X270702D01*
X270535Y88616D01*
X270146Y88561D01*
X269702Y88468D01*
X269258Y88320D01*
X268832Y88135D01*
X268647Y88005D01*
X268462Y87876D01*
Y87857D01*
X268425Y87839D01*
X268333Y87728D01*
X268184Y87561D01*
X268036Y87339D01*
X267870Y87061D01*
X267722Y86728D01*
X267629Y86339D01*
X267611Y86136D01*
X267592Y85914D01*
Y85803D01*
X267611Y85710D01*
X267648Y85506D01*
X267703Y85229D01*
X267814Y84933D01*
X267962Y84600D01*
X268184Y84285D01*
X268333Y84118D01*
X268481Y83970D01*
X268499Y83952D01*
X268518Y83933D01*
X268573Y83896D01*
X268647Y83841D01*
X268740Y83785D01*
X268851Y83711D01*
X268999Y83637D01*
X269147Y83563D01*
X269332Y83489D01*
X269536Y83433D01*
X269758Y83359D01*
X269998Y83304D01*
X270276Y83248D01*
X270554Y83211D01*
X270868Y83174D01*
X271201D01*
X271220D01*
X271276D01*
X271368D01*
X271479Y83193D01*
X271627D01*
X271794Y83211D01*
X272183Y83267D01*
X272590Y83359D01*
X273034Y83507D01*
X273441Y83711D01*
X273645Y83822D01*
X273812Y83970D01*
X273830D01*
X273849Y84007D01*
X273959Y84118D01*
X274089Y84285D01*
X274256Y84507D01*
X274422Y84785D01*
X274570Y85118D01*
X274663Y85488D01*
X274681Y85691D01*
X274700Y85914D01*
Y86025D01*
X274681Y86117D01*
X274663Y86321D01*
X274589Y86598D01*
X274478Y86913D01*
X274330Y87246D01*
X274108Y87561D01*
X273959Y87728D01*
X273812Y87876D01*
X273793D01*
X273774Y87913D01*
X273719Y87950D01*
X273645Y88005D01*
X273552Y88061D01*
X273441Y88116D01*
X273293Y88190D01*
X273145Y88264D01*
X272960Y88339D01*
X272775Y88412D01*
X272553Y88468D01*
X272312Y88524D01*
X272053Y88579D01*
X271775Y88616D01*
X271461Y88635D01*
X271146Y88653D01*
D02*
G37*
G36*
X271609Y78713D02*
X271294D01*
X271276D01*
X271220D01*
X271128D01*
X270998Y78695D01*
X270850D01*
X270665Y78676D01*
X270276Y78621D01*
X269832Y78528D01*
X269406Y78417D01*
X268980Y78232D01*
X268795Y78121D01*
X268629Y77991D01*
X268592Y77954D01*
X268499Y77862D01*
X268370Y77714D01*
X268221Y77492D01*
X268055Y77232D01*
X267925Y76918D01*
X267833Y76566D01*
X267814Y76381D01*
X267796Y76177D01*
Y76066D01*
X267814Y75992D01*
X267833Y75789D01*
X267907Y75529D01*
X267999Y75252D01*
X268147Y74937D01*
X268351Y74641D01*
X268481Y74493D01*
X268629Y74345D01*
X268647D01*
X268666Y74308D01*
X268721Y74271D01*
X268795Y74234D01*
X268869Y74178D01*
X268980Y74104D01*
X269110Y74049D01*
X269276Y73975D01*
X269443Y73901D01*
X269628Y73845D01*
X269850Y73771D01*
X270091Y73716D01*
X270332Y73678D01*
X270609Y73642D01*
X270924Y73605D01*
X271239D01*
X271257D01*
X271313D01*
X271405D01*
X271516Y73623D01*
X271664D01*
X271831Y73642D01*
X272201Y73697D01*
X272627Y73790D01*
X273053Y73919D01*
X273478Y74104D01*
X273663Y74234D01*
X273830Y74363D01*
X273849D01*
X273867Y74400D01*
X273959Y74493D01*
X274108Y74660D01*
X274274Y74882D01*
X274422Y75141D01*
X274570Y75455D01*
X274663Y75807D01*
X274700Y75992D01*
Y76288D01*
X274681Y76363D01*
X274663Y76566D01*
X274589Y76807D01*
X274496Y77103D01*
X274330Y77399D01*
X274126Y77695D01*
X273978Y77843D01*
X273830Y77991D01*
X273812D01*
X273793Y78028D01*
X273737Y78065D01*
X273663Y78102D01*
X273589Y78158D01*
X273478Y78214D01*
X273349Y78288D01*
X273201Y78343D01*
X273034Y78417D01*
X272830Y78491D01*
X272627Y78547D01*
X272405Y78602D01*
X272146Y78639D01*
X271886Y78676D01*
X271609Y78713D01*
D02*
G37*
G36*
Y68755D02*
X271294D01*
X271276D01*
X271220D01*
X271128D01*
X270998Y68736D01*
X270850D01*
X270665Y68718D01*
X270276Y68662D01*
X269832Y68570D01*
X269406Y68459D01*
X268980Y68274D01*
X268795Y68163D01*
X268629Y68033D01*
X268592Y67996D01*
X268499Y67903D01*
X268370Y67755D01*
X268221Y67533D01*
X268055Y67274D01*
X267925Y66959D01*
X267833Y66608D01*
X267814Y66423D01*
X267796Y66219D01*
Y66108D01*
X267814Y66034D01*
X267833Y65830D01*
X267907Y65571D01*
X267999Y65294D01*
X268147Y64979D01*
X268351Y64683D01*
X268481Y64535D01*
X268629Y64386D01*
X268647D01*
X268666Y64350D01*
X268721Y64312D01*
X268795Y64275D01*
X268869Y64220D01*
X268980Y64146D01*
X269110Y64090D01*
X269276Y64016D01*
X269443Y63942D01*
X269628Y63887D01*
X269850Y63813D01*
X270091Y63757D01*
X270332Y63720D01*
X270609Y63683D01*
X270924Y63646D01*
X271239D01*
X271257D01*
X271313D01*
X271405D01*
X271516Y63665D01*
X271664D01*
X271831Y63683D01*
X272201Y63739D01*
X272627Y63831D01*
X273053Y63961D01*
X273478Y64146D01*
X273663Y64275D01*
X273830Y64405D01*
X273849D01*
X273867Y64442D01*
X273959Y64535D01*
X274108Y64701D01*
X274274Y64923D01*
X274422Y65183D01*
X274570Y65497D01*
X274663Y65849D01*
X274700Y66034D01*
Y66330D01*
X274681Y66404D01*
X274663Y66608D01*
X274589Y66848D01*
X274496Y67145D01*
X274330Y67441D01*
X274126Y67737D01*
X273978Y67885D01*
X273830Y68033D01*
X273812D01*
X273793Y68070D01*
X273737Y68107D01*
X273663Y68144D01*
X273589Y68200D01*
X273478Y68255D01*
X273349Y68329D01*
X273201Y68385D01*
X273034Y68459D01*
X272830Y68533D01*
X272627Y68588D01*
X272405Y68644D01*
X272146Y68681D01*
X271886Y68718D01*
X271609Y68755D01*
D02*
G37*
G36*
X272035Y58630D02*
Y53429D01*
X272053D01*
X272090D01*
X272146Y53447D01*
X272220D01*
X272442Y53484D01*
X272682Y53540D01*
X272978Y53632D01*
X273256Y53725D01*
X273534Y53873D01*
X273774Y54039D01*
X273793D01*
X273812Y54076D01*
X273922Y54169D01*
X274071Y54336D01*
X274237Y54558D01*
X274404Y54835D01*
X274552Y55169D01*
X274663Y55557D01*
X274681Y55761D01*
X274700Y55983D01*
Y56094D01*
X274681Y56168D01*
X274663Y56372D01*
X274607Y56612D01*
X274515Y56909D01*
X274385Y57223D01*
X274200Y57519D01*
X273959Y57815D01*
X273922Y57853D01*
X273830Y57926D01*
X273663Y58056D01*
X273441Y58186D01*
X273182Y58334D01*
X272849Y58463D01*
X272460Y58574D01*
X272035Y58630D01*
D02*
G37*
G36*
Y32753D02*
Y27552D01*
X272053D01*
X272090D01*
X272146Y27570D01*
X272220D01*
X272442Y27607D01*
X272682Y27663D01*
X272978Y27755D01*
X273256Y27848D01*
X273534Y27996D01*
X273774Y28163D01*
X273793D01*
X273812Y28199D01*
X273922Y28292D01*
X274071Y28459D01*
X274237Y28681D01*
X274404Y28958D01*
X274552Y29292D01*
X274663Y29680D01*
X274681Y29884D01*
X274700Y30106D01*
Y30217D01*
X274681Y30291D01*
X274663Y30495D01*
X274607Y30735D01*
X274515Y31032D01*
X274385Y31346D01*
X274200Y31642D01*
X273959Y31938D01*
X273922Y31975D01*
X273830Y32050D01*
X273663Y32179D01*
X273441Y32309D01*
X273182Y32457D01*
X272849Y32586D01*
X272460Y32697D01*
X272035Y32753D01*
D02*
G37*
G36*
X268999Y22813D02*
X268980D01*
X268888D01*
X268777Y22795D01*
X268629Y22758D01*
X268462Y22702D01*
X268296Y22610D01*
X268110Y22498D01*
X267944Y22350D01*
X267925Y22332D01*
X267888Y22258D01*
X267814Y22147D01*
X267740Y21999D01*
X267666Y21795D01*
X267592Y21554D01*
X267555Y21277D01*
X267537Y20944D01*
Y20796D01*
X267555Y20610D01*
X267592Y20407D01*
X267629Y20148D01*
X267703Y19888D01*
X267796Y19611D01*
X267925Y19333D01*
X267944Y19296D01*
X267999Y19222D01*
X268092Y19093D01*
X268221Y18945D01*
X268370Y18778D01*
X268555Y18593D01*
X268777Y18445D01*
X269017Y18297D01*
X269036Y18278D01*
X269110Y18260D01*
X269239Y18223D01*
X269406Y18167D01*
X269628Y18112D01*
X269887Y18075D01*
X270202Y18056D01*
X270572Y18037D01*
X271164Y18019D01*
Y18037D01*
X271146Y18056D01*
X271128Y18112D01*
X271109Y18186D01*
X271072Y18278D01*
X271035Y18389D01*
X270998Y18519D01*
X270961Y18667D01*
X270905Y18833D01*
X270868Y19037D01*
X270813Y19241D01*
X270757Y19481D01*
X270702Y19740D01*
X270646Y19999D01*
X270609Y20296D01*
X270554Y20610D01*
Y20647D01*
X270535Y20759D01*
X270498Y20944D01*
X270461Y21147D01*
X270424Y21369D01*
X270369Y21591D01*
X270313Y21795D01*
X270239Y21980D01*
Y21999D01*
X270202Y22054D01*
X270165Y22128D01*
X270110Y22202D01*
X269961Y22424D01*
X269739Y22610D01*
X269721D01*
X269684Y22647D01*
X269610Y22665D01*
X269517Y22702D01*
X269406Y22739D01*
X269295Y22776D01*
X269147Y22795D01*
X268999Y22813D01*
D02*
G37*
G36*
X271461Y12984D02*
X271128D01*
X271109D01*
X271054D01*
X270961D01*
X270831Y12966D01*
X270683D01*
X270517Y12947D01*
X270128Y12892D01*
X269702Y12799D01*
X269258Y12670D01*
X268832Y12484D01*
X268647Y12373D01*
X268462Y12244D01*
Y12225D01*
X268425Y12207D01*
X268333Y12114D01*
X268184Y11948D01*
X268036Y11744D01*
X267870Y11485D01*
X267722Y11170D01*
X267629Y10837D01*
X267611Y10652D01*
X267592Y10467D01*
Y10374D01*
X267611Y10300D01*
X267629Y10097D01*
X267703Y9856D01*
X267796Y9578D01*
X267944Y9282D01*
X268147Y8986D01*
X268277Y8838D01*
X268425Y8709D01*
X268444D01*
X268462Y8671D01*
X268518Y8634D01*
X268592Y8597D01*
X268684Y8542D01*
X268777Y8468D01*
X268925Y8412D01*
X269073Y8338D01*
X269239Y8264D01*
X269425Y8209D01*
X269647Y8135D01*
X269869Y8079D01*
X270128Y8042D01*
X270387Y8005D01*
X270683Y7968D01*
X270998D01*
X271016D01*
X271091D01*
X271183D01*
X271313Y7987D01*
X271461D01*
X271646Y8005D01*
X271849Y8024D01*
X272072Y8061D01*
X272516Y8153D01*
X272978Y8283D01*
X273423Y8468D01*
X273608Y8579D01*
X273793Y8709D01*
X273812D01*
X273830Y8745D01*
X273941Y8838D01*
X274089Y9005D01*
X274256Y9208D01*
X274422Y9467D01*
X274552Y9782D01*
X274663Y10134D01*
X274681Y10319D01*
X274700Y10522D01*
Y10615D01*
X274681Y10689D01*
X274663Y10893D01*
X274589Y11133D01*
X274496Y11411D01*
X274330Y11707D01*
X274126Y12003D01*
X273978Y12151D01*
X273830Y12281D01*
X273812D01*
X273793Y12318D01*
X273737Y12336D01*
X273663Y12392D01*
X273571Y12448D01*
X273460Y12503D01*
X273330Y12559D01*
X273182Y12633D01*
X272997Y12707D01*
X272793Y12762D01*
X272571Y12818D01*
X272331Y12873D01*
X272072Y12910D01*
X271775Y12947D01*
X271461Y12984D01*
D02*
G37*
G36*
X64392Y334278D02*
X64299D01*
X64207Y334260D01*
X64077D01*
X63910Y334241D01*
X63725Y334204D01*
X63503Y334167D01*
X63281Y334112D01*
X63022Y334038D01*
X62781Y333945D01*
X62504Y333853D01*
X62244Y333723D01*
X61985Y333556D01*
X61726Y333390D01*
X61467Y333186D01*
X61226Y332946D01*
X61208Y332927D01*
X61171Y332890D01*
X61115Y332798D01*
X61023Y332686D01*
X60930Y332557D01*
X60838Y332390D01*
X60727Y332187D01*
X60597Y331965D01*
X60486Y331705D01*
X60375Y331409D01*
X60282Y331095D01*
X60171Y330761D01*
X60097Y330391D01*
X60042Y329984D01*
X60005Y329558D01*
X59986Y329114D01*
Y329096D01*
Y329040D01*
Y328966D01*
Y328855D01*
X60005Y328725D01*
Y328559D01*
X60023Y328392D01*
X60060Y328188D01*
X60116Y327763D01*
X60208Y327319D01*
X60338Y326837D01*
X60523Y326393D01*
Y326375D01*
X60542Y326338D01*
X60579Y326282D01*
X60616Y326208D01*
X60745Y325986D01*
X60912Y325727D01*
X61134Y325431D01*
X61412Y325134D01*
X61726Y324838D01*
X62078Y324579D01*
X62097D01*
X62115Y324542D01*
X62170Y324524D01*
X62263Y324468D01*
X62356Y324431D01*
X62467Y324376D01*
X62744Y324246D01*
X63077Y324135D01*
X63466Y324024D01*
X63910Y323950D01*
X64373Y323931D01*
X64540D01*
X64669Y323950D01*
X64836Y323968D01*
X65003Y324005D01*
X65206Y324042D01*
X65428Y324079D01*
X65909Y324227D01*
X66169Y324339D01*
X66428Y324449D01*
X66705Y324598D01*
X66965Y324764D01*
X67224Y324949D01*
X67464Y325171D01*
X67483Y325190D01*
X67520Y325227D01*
X67575Y325301D01*
X67668Y325412D01*
X67760Y325542D01*
X67872Y325708D01*
X67983Y325912D01*
X68112Y326152D01*
X68223Y326412D01*
X68353Y326726D01*
X68464Y327059D01*
X68556Y327430D01*
X68649Y327837D01*
X68704Y328300D01*
X68742Y328781D01*
X68760Y329299D01*
Y329318D01*
Y329392D01*
Y329521D01*
X68742Y329688D01*
X68723Y329873D01*
X68686Y330095D01*
X68649Y330354D01*
X68612Y330613D01*
X68464Y331206D01*
X68353Y331502D01*
X68242Y331817D01*
X68094Y332113D01*
X67927Y332409D01*
X67742Y332686D01*
X67520Y332946D01*
X67501Y332964D01*
X67464Y333001D01*
X67390Y333075D01*
X67298Y333149D01*
X67168Y333260D01*
X67020Y333371D01*
X66853Y333482D01*
X66668Y333612D01*
X66446Y333742D01*
X66206Y333853D01*
X65947Y333964D01*
X65669Y334075D01*
X65373Y334149D01*
X65077Y334223D01*
X64743Y334260D01*
X64392Y334278D01*
D02*
G37*
G36*
X21552Y64834D02*
X21546D01*
X21524D01*
X21496D01*
X21452Y64828D01*
X21402D01*
X21347Y64823D01*
X21280Y64817D01*
X21213Y64811D01*
X21064Y64784D01*
X20908Y64750D01*
X20764Y64700D01*
X20692Y64667D01*
X20631Y64634D01*
X20625D01*
X20614Y64623D01*
X20597Y64612D01*
X20575Y64600D01*
X20520Y64556D01*
X20453Y64501D01*
X20381Y64428D01*
X20309Y64345D01*
X20248Y64251D01*
X20198Y64151D01*
X20192Y64140D01*
X20187Y64112D01*
X20170Y64062D01*
X20153Y63990D01*
X20142Y63901D01*
X20126Y63790D01*
X20120Y63724D01*
Y63651D01*
X20114Y63579D01*
Y62691D01*
X23045D01*
Y63601D01*
X23039Y63640D01*
X23034Y63724D01*
X23028Y63818D01*
X23017Y63918D01*
X23000Y64018D01*
X22978Y64101D01*
X22973Y64112D01*
X22967Y64140D01*
X22951Y64179D01*
X22928Y64229D01*
X22895Y64284D01*
X22862Y64340D01*
X22823Y64395D01*
X22779Y64451D01*
X22767Y64456D01*
X22745Y64478D01*
X22706Y64512D01*
X22651Y64551D01*
X22579Y64595D01*
X22495Y64645D01*
X22401Y64689D01*
X22296Y64728D01*
X22290D01*
X22279Y64734D01*
X22262Y64739D01*
X22240Y64745D01*
X22212Y64750D01*
X22174Y64762D01*
X22135Y64773D01*
X22090Y64784D01*
X21979Y64800D01*
X21852Y64817D01*
X21707Y64828D01*
X21552Y64834D01*
D02*
G37*
%LPD*%
D10*
X142165Y54480D02*
G03*
X142165Y54480I-492J0D01*
G01*
X257437Y283480D02*
G03*
X257437Y283480I-492J0D01*
G01*
X162661Y111012D02*
G03*
X162661Y111012I-492J0D01*
G01*
X249177Y299240D02*
G03*
X249177Y299240I-492J0D01*
G01*
X44472Y108827D02*
G03*
X44472Y108827I-492J0D01*
G01*
X235717Y73315D02*
G03*
X235717Y73315I-492J0D01*
G01*
X177205Y92984D02*
G03*
X177205Y92984I-492J0D01*
G01*
D11*
X34195Y200000D02*
G03*
X36695Y200000I1250J0D01*
G01*
X94189Y274000D02*
G03*
X103047Y274000I4429J0D01*
G01*
X94189Y238500D02*
G03*
X103047Y238500I4429J0D01*
G01*
X94189Y310000D02*
G03*
X103047Y310000I4429J0D01*
G01*
X250902Y274004D02*
X252870D01*
X172000Y291500D02*
X192000D01*
Y301500D01*
X172000D02*
X192000D01*
X172000Y291500D02*
Y301500D01*
X12500Y306000D02*
X42500D01*
Y316000D01*
X12500D02*
X42500D01*
X12500Y306000D02*
Y316000D01*
X142756Y60189D02*
X154961D01*
X142756Y58220D02*
X154961D01*
Y60189D01*
X142756Y58220D02*
Y60189D01*
X256945Y295094D02*
X275055D01*
X256945Y286039D02*
X257142D01*
X274858D02*
X275055D01*
X256945D02*
Y315961D01*
X275055Y286039D02*
Y315961D01*
X274858D02*
X275055D01*
X256945D02*
X257142D01*
X182016Y108512D02*
X183984D01*
X151516Y112012D02*
X153484D01*
X163744Y109732D02*
X169256D01*
X163744Y101268D02*
X169256D01*
X163744D02*
Y109732D01*
X169256Y101268D02*
Y109732D01*
X235398Y293531D02*
X247602D01*
X235398Y295500D02*
X247602D01*
X235398Y293531D02*
Y295500D01*
X247602Y293531D02*
Y295500D01*
X236402Y285028D02*
X238370D01*
X248071Y309516D02*
Y311484D01*
X24185Y200000D02*
X34195D01*
X36695D02*
X46705D01*
Y160000D02*
Y200000D01*
X24185Y160000D02*
X46705D01*
X24185D02*
Y200000D01*
X132500Y94500D02*
Y104500D01*
X102500Y94500D02*
X132500D01*
X102500D02*
Y104500D01*
X132500D01*
X71000Y83000D02*
X91000D01*
Y93000D01*
X71000D02*
X91000D01*
X71000Y83000D02*
Y93000D01*
X43500Y74000D02*
X63500D01*
Y84000D01*
X43500D02*
X63500D01*
X43500Y74000D02*
Y84000D01*
X175516Y109512D02*
X177484D01*
X-2000Y54500D02*
Y64500D01*
X18000D01*
Y54500D02*
Y64500D01*
X-2000Y54500D02*
X18000D01*
X161988Y60016D02*
Y61984D01*
X161488Y54516D02*
Y56484D01*
X221200Y3142D02*
Y33142D01*
X211200D02*
X221200D01*
X211200Y3142D02*
Y33142D01*
Y3142D02*
X221200D01*
X-6795Y325142D02*
X3205D01*
X-6795Y265142D02*
X3205D01*
X-6795D02*
Y325142D01*
X3205Y265142D02*
Y325142D01*
X141988Y68016D02*
Y69984D01*
X141488Y47016D02*
Y48984D01*
X157374Y62193D02*
X159343D01*
X174221Y79130D02*
X176189D01*
X58516Y110012D02*
X60484D01*
X47721Y107744D02*
X49689D01*
X47721Y95539D02*
X49689D01*
X47721D02*
Y107744D01*
X49689Y95539D02*
Y107744D01*
X36720Y108653D02*
X38689D01*
X206669Y74519D02*
X208638D01*
X184658Y67158D02*
Y69126D01*
X219081Y74519D02*
X221049D01*
X229516Y74398D02*
X231484D01*
X229516Y86602D02*
X231484D01*
Y74398D02*
Y86602D01*
X229516Y74398D02*
Y86602D01*
X240516Y72988D02*
X242484D01*
X228716Y89657D02*
Y91626D01*
X142705Y93642D02*
X172705D01*
X142705Y83642D02*
Y93642D01*
Y83642D02*
X172705D01*
Y93642D01*
X102500Y93500D02*
X132500D01*
X102500Y83500D02*
Y93500D01*
Y83500D02*
X132500D01*
Y93500D01*
X136488Y32516D02*
Y34484D01*
X133488Y22516D02*
Y24484D01*
X76717Y309658D02*
Y311626D01*
X138500Y291500D02*
Y301500D01*
X158500D01*
Y291500D02*
Y301500D01*
X138500Y291500D02*
X158500D01*
X69205Y124642D02*
X79205D01*
X69205D02*
Y164642D01*
X79205Y124642D02*
Y164642D01*
X69205D02*
X79205D01*
X88126Y238567D02*
Y274000D01*
Y238567D02*
X109110D01*
Y274000D01*
X103047D02*
X109110D01*
X88126D02*
X94189D01*
X88126Y203067D02*
Y238500D01*
Y203067D02*
X109110D01*
Y238500D01*
X103047D02*
X109110D01*
X88126D02*
X94189D01*
X88126Y274567D02*
Y310000D01*
Y274567D02*
X109110D01*
Y310000D01*
X103047D02*
X109110D01*
X88126D02*
X94189D01*
X86000Y330000D02*
X116000D01*
X86000Y320000D02*
Y330000D01*
Y320000D02*
X116000D01*
Y330000D01*
X179272Y72709D02*
X180847D01*
X179272D02*
Y74283D01*
X198563Y72709D02*
X200138D01*
Y74283D01*
Y92000D02*
Y93575D01*
X198563D02*
X200138D01*
X179272D02*
X180847D01*
X179272Y92000D02*
Y93575D01*
X57988Y95516D02*
Y97484D01*
D12*
X634Y44638D02*
G03*
X634Y44638I-787J0D01*
G01*
D13*
X155815Y218063D02*
Y222000D01*
Y218063D02*
X170087D01*
X155815Y222000D02*
Y225937D01*
X167724D01*
X170087Y223575D01*
Y218063D02*
Y223575D01*
X140500Y75516D02*
X139188D01*
X139844Y74860D02*
Y76172D01*
X63516Y109500D02*
Y110812D01*
X62860Y110156D02*
X64172D01*
X214190Y73463D02*
Y72151D01*
X214846Y72807D02*
X213534D01*
X76205Y318626D02*
X77517D01*
X76861Y319282D02*
Y317970D01*
D14*
X-13933Y12157D02*
X-2122D01*
X-13933D02*
Y31842D01*
X-2122D01*
X15791Y41685D02*
X45122D01*
Y4284D02*
Y41685D01*
X41185Y4284D02*
X45122D01*
X22878D02*
X27799D01*
X-2122D02*
X11264D01*
X-2122D02*
Y12157D01*
Y31842D01*
Y41685D01*
X2209D01*
D15*
X85999Y29998D02*
X84999Y30998D01*
X83000D01*
X82000Y29998D01*
Y28999D01*
X83000Y27999D01*
X84999D01*
X85999Y26999D01*
Y26000D01*
X84999Y25000D01*
X83000D01*
X82000Y26000D01*
X87998Y30998D02*
Y25000D01*
Y27999D01*
X88998Y28999D01*
X90997D01*
X91997Y27999D01*
Y25000D01*
X74999Y29998D02*
X73999Y30998D01*
X72000D01*
X71000Y29998D01*
Y26000D01*
X72000Y25000D01*
X73999D01*
X74999Y26000D01*
X83000Y20498D02*
Y14500D01*
X85999D01*
X86999Y15500D01*
Y16499D01*
X85999Y17499D01*
X83000D01*
X85999D01*
X86999Y18499D01*
Y19498D01*
X85999Y20498D01*
X83000D01*
X88998Y14500D02*
X90997D01*
X89998D01*
Y20498D01*
X88998D01*
X70499Y20498D02*
X69499Y21498D01*
X67500D01*
X66500Y20498D01*
Y16500D01*
X67500Y15500D01*
X69499D01*
X70499Y16500D01*
Y18499D01*
X68499D01*
X72498Y19499D02*
Y15500D01*
Y17499D01*
X73498Y18499D01*
X74497Y19499D01*
X75497D01*
X110203Y14642D02*
X106205D01*
X110203Y18640D01*
Y19640D01*
X109204Y20640D01*
X107204D01*
X106205Y19640D01*
X116705D02*
X117704Y20640D01*
X119704D01*
X120703Y19640D01*
Y18640D01*
X119704Y17641D01*
X118704D01*
X119704D01*
X120703Y16641D01*
Y15641D01*
X119704Y14642D01*
X117704D01*
X116705Y15641D01*
X127205Y14642D02*
X129204D01*
X128204D01*
Y20640D01*
X127205Y19640D01*
X109703Y30640D02*
X108704Y31640D01*
X106704D01*
X105705Y30640D01*
Y26641D01*
X106704Y25642D01*
X108704D01*
X109703Y26641D01*
Y28641D01*
X107704D01*
X120703Y30640D02*
X119704Y31640D01*
X117704D01*
X116705Y30640D01*
Y29640D01*
X117704Y28641D01*
X119704D01*
X120703Y27641D01*
Y26641D01*
X119704Y25642D01*
X117704D01*
X116705Y26641D01*
X127705Y31640D02*
Y27641D01*
X129704Y25642D01*
X131703Y27641D01*
Y31640D01*
X167205D02*
Y27641D01*
X169204Y25642D01*
X171203Y27641D01*
Y31640D01*
X160688Y30640D02*
X159688Y31640D01*
X157689D01*
X156689Y30640D01*
Y29640D01*
X157689Y28641D01*
X159688D01*
X160688Y27641D01*
Y26641D01*
X159688Y25642D01*
X157689D01*
X156689Y26641D01*
X149688Y30640D02*
X148688Y31640D01*
X146689D01*
X145689Y30640D01*
Y26641D01*
X146689Y25642D01*
X148688D01*
X149688Y26641D01*
Y28641D01*
X147688D01*
X101205Y-2860D02*
Y-8858D01*
X105203D01*
X111202Y-2860D02*
X107203D01*
Y-8858D01*
X111202D01*
X107203Y-5859D02*
X109202D01*
X117200Y-2860D02*
X113201D01*
Y-5859D01*
X115200D01*
X113201D01*
Y-8858D01*
X119199Y-2860D02*
X123198D01*
X121198D01*
Y-8858D01*
X150205Y-9858D02*
Y-3860D01*
X153204D01*
X154203Y-4860D01*
Y-6859D01*
X153204Y-7859D01*
X150205D01*
X152204D02*
X154203Y-9858D01*
X156203Y-3860D02*
X158202D01*
X157202D01*
Y-9858D01*
X156203D01*
X158202D01*
X165200Y-4860D02*
X164200Y-3860D01*
X162201D01*
X161201Y-4860D01*
Y-8859D01*
X162201Y-9858D01*
X164200D01*
X165200Y-8859D01*
Y-6859D01*
X163200D01*
X167199Y-3860D02*
Y-9858D01*
Y-6859D01*
X171198D01*
Y-3860D01*
Y-9858D01*
X173197Y-3860D02*
X177196D01*
X175197D01*
Y-9858D01*
M02*
