G04*
G04 #@! TF.GenerationSoftware,Altium Limited,Altium Designer,21.9.2 (33)*
G04*
G04 Layer_Color=32896*
%FSLAX25Y25*%
%MOIN*%
G70*
G04*
G04 #@! TF.SameCoordinates,2E303187-FE1F-4BD8-B44E-E95B7E70DBC6*
G04*
G04*
G04 #@! TF.FilePolarity,Positive*
G04*
G01*
G75*
%ADD15C,0.01000*%
G36*
X18020Y322910D02*
X21500D01*
Y321448D01*
X18020D01*
Y317968D01*
X16539D01*
Y321448D01*
X13059D01*
Y322910D01*
X16539D01*
Y326427D01*
X18020D01*
Y322910D01*
D02*
G37*
G36*
X41000Y320077D02*
X36132D01*
Y321650D01*
X41000D01*
Y320077D01*
D02*
G37*
G36*
X25650Y259000D02*
X24077D01*
Y263868D01*
X25650D01*
Y259000D01*
D02*
G37*
G36*
X-6584Y73327D02*
X-6589Y73282D01*
X-6595Y73238D01*
Y73199D01*
X-6600Y73171D01*
Y73116D01*
X-6595Y73044D01*
X-6584Y72994D01*
X-6573Y72966D01*
X-6567Y72955D01*
X-6539Y72916D01*
X-6512Y72894D01*
X-6489Y72877D01*
X-6478Y72872D01*
X-6451Y72866D01*
X-6412Y72860D01*
X-6323Y72855D01*
X-6284Y72849D01*
X-6251D01*
X-6228D01*
X-6217D01*
X-4580D01*
Y73327D01*
X-4214D01*
Y72849D01*
X-3243D01*
X-3526Y72378D01*
X-4214D01*
Y72028D01*
X-4580D01*
Y72378D01*
X-6190D01*
X-6267D01*
X-6334D01*
X-6395Y72383D01*
X-6456Y72389D01*
X-6506D01*
X-6550Y72394D01*
X-6623Y72405D01*
X-6678Y72416D01*
X-6717Y72422D01*
X-6739Y72433D01*
X-6745D01*
X-6795Y72455D01*
X-6833Y72489D01*
X-6872Y72522D01*
X-6900Y72550D01*
X-6928Y72583D01*
X-6944Y72605D01*
X-6956Y72622D01*
X-6961Y72627D01*
X-6989Y72688D01*
X-7006Y72750D01*
X-7022Y72816D01*
X-7028Y72883D01*
X-7033Y72938D01*
X-7039Y72983D01*
Y73027D01*
X-7033Y73149D01*
X-7028Y73210D01*
X-7017Y73266D01*
X-7011Y73316D01*
X-7006Y73354D01*
X-7000Y73377D01*
Y73388D01*
X-6584Y73327D01*
D02*
G37*
G36*
X-6939Y71689D02*
X-6878Y71662D01*
X-6822Y71639D01*
X-6773Y71628D01*
X-6728Y71612D01*
X-6695Y71606D01*
X-6673Y71601D01*
X-6667D01*
X-6628Y71595D01*
X-6578Y71589D01*
X-6523D01*
X-6462Y71584D01*
X-6323Y71578D01*
X-6184D01*
X-6051Y71573D01*
X-5990D01*
X-5940D01*
X-5896D01*
X-5862D01*
X-5840D01*
X-5835D01*
X-5202D01*
X-5096D01*
X-5002Y71567D01*
X-4930Y71562D01*
X-4869D01*
X-4824Y71556D01*
X-4791Y71551D01*
X-4775Y71545D01*
X-4769D01*
X-4697Y71528D01*
X-4636Y71506D01*
X-4586Y71484D01*
X-4536Y71456D01*
X-4502Y71434D01*
X-4475Y71417D01*
X-4458Y71406D01*
X-4453Y71401D01*
X-4408Y71356D01*
X-4364Y71306D01*
X-4330Y71251D01*
X-4297Y71196D01*
X-4275Y71145D01*
X-4258Y71107D01*
X-4247Y71079D01*
X-4242Y71068D01*
X-4214Y70979D01*
X-4192Y70885D01*
X-4175Y70790D01*
X-4164Y70696D01*
X-4158Y70613D01*
X-4153Y70552D01*
Y70491D01*
X-4158Y70357D01*
X-4169Y70241D01*
X-4186Y70130D01*
X-4203Y70041D01*
X-4219Y69963D01*
X-4236Y69908D01*
X-4242Y69886D01*
X-4247Y69869D01*
X-4253Y69863D01*
Y69858D01*
X-4292Y69763D01*
X-4342Y69680D01*
X-4386Y69608D01*
X-4430Y69547D01*
X-4475Y69503D01*
X-4508Y69469D01*
X-4530Y69447D01*
X-4536Y69442D01*
X-4608Y69392D01*
X-4686Y69347D01*
X-4763Y69314D01*
X-4835Y69286D01*
X-4908Y69264D01*
X-4958Y69247D01*
X-4980Y69242D01*
X-4997D01*
X-5002Y69236D01*
X-5007D01*
X-5069Y69697D01*
X-4969Y69730D01*
X-4880Y69763D01*
X-4808Y69802D01*
X-4752Y69836D01*
X-4708Y69869D01*
X-4680Y69897D01*
X-4663Y69919D01*
X-4658Y69924D01*
X-4619Y69991D01*
X-4591Y70069D01*
X-4569Y70152D01*
X-4558Y70230D01*
X-4547Y70307D01*
X-4541Y70363D01*
Y70418D01*
X-4547Y70546D01*
X-4564Y70657D01*
X-4591Y70746D01*
X-4619Y70824D01*
X-4652Y70879D01*
X-4674Y70924D01*
X-4697Y70951D01*
X-4702Y70957D01*
X-4752Y71001D01*
X-4813Y71034D01*
X-4880Y71062D01*
X-4947Y71079D01*
X-5007Y71090D01*
X-5063Y71096D01*
X-5096D01*
X-5102D01*
X-5108D01*
X-5119D01*
X-5141D01*
X-5180D01*
X-5213Y71090D01*
X-5224D01*
X-5229D01*
X-5246Y71034D01*
X-5263Y70973D01*
X-5296Y70846D01*
X-5324Y70701D01*
X-5352Y70568D01*
X-5363Y70502D01*
X-5368Y70441D01*
X-5379Y70385D01*
X-5385Y70341D01*
X-5390Y70302D01*
Y70274D01*
X-5396Y70252D01*
Y70246D01*
X-5407Y70147D01*
X-5424Y70063D01*
X-5435Y69991D01*
X-5446Y69936D01*
X-5452Y69891D01*
X-5463Y69858D01*
X-5468Y69836D01*
Y69830D01*
X-5490Y69758D01*
X-5513Y69697D01*
X-5540Y69636D01*
X-5563Y69586D01*
X-5585Y69542D01*
X-5607Y69514D01*
X-5618Y69492D01*
X-5624Y69486D01*
X-5662Y69431D01*
X-5707Y69386D01*
X-5751Y69342D01*
X-5796Y69309D01*
X-5835Y69281D01*
X-5868Y69258D01*
X-5890Y69247D01*
X-5896Y69242D01*
X-5957Y69214D01*
X-6023Y69192D01*
X-6084Y69175D01*
X-6145Y69164D01*
X-6195Y69159D01*
X-6234Y69153D01*
X-6256D01*
X-6267D01*
X-6334Y69159D01*
X-6390Y69164D01*
X-6506Y69192D01*
X-6600Y69231D01*
X-6684Y69275D01*
X-6750Y69320D01*
X-6800Y69358D01*
X-6828Y69386D01*
X-6839Y69397D01*
X-6911Y69497D01*
X-6967Y69608D01*
X-7006Y69730D01*
X-7033Y69841D01*
X-7050Y69941D01*
X-7056Y69986D01*
Y70024D01*
X-7061Y70058D01*
Y70102D01*
X-7056Y70202D01*
X-7044Y70302D01*
X-7033Y70391D01*
X-7017Y70468D01*
X-7000Y70529D01*
X-6983Y70579D01*
X-6978Y70613D01*
X-6972Y70624D01*
X-6933Y70718D01*
X-6883Y70807D01*
X-6828Y70890D01*
X-6778Y70973D01*
X-6728Y71040D01*
X-6689Y71090D01*
X-6662Y71123D01*
X-6650Y71129D01*
Y71134D01*
X-6723Y71145D01*
X-6789Y71157D01*
X-6850Y71168D01*
X-6900Y71184D01*
X-6944Y71201D01*
X-6972Y71212D01*
X-6995Y71218D01*
X-7000Y71223D01*
Y71717D01*
X-6939Y71689D01*
D02*
G37*
G36*
X-5762Y68670D02*
X-5651Y68648D01*
X-5557Y68615D01*
X-5468Y68581D01*
X-5402Y68548D01*
X-5352Y68515D01*
X-5318Y68493D01*
X-5307Y68487D01*
X-5218Y68409D01*
X-5146Y68326D01*
X-5085Y68232D01*
X-5035Y68148D01*
X-4997Y68071D01*
X-4974Y68004D01*
X-4963Y67982D01*
X-4958Y67965D01*
X-4952Y67954D01*
Y67949D01*
X-4896Y68043D01*
X-4841Y68126D01*
X-4780Y68193D01*
X-4724Y68248D01*
X-4680Y68293D01*
X-4636Y68326D01*
X-4614Y68343D01*
X-4602Y68348D01*
X-4519Y68393D01*
X-4441Y68426D01*
X-4364Y68454D01*
X-4292Y68470D01*
X-4231Y68481D01*
X-4181Y68487D01*
X-4153D01*
X-4142D01*
X-4047Y68481D01*
X-3953Y68465D01*
X-3870Y68437D01*
X-3792Y68409D01*
X-3726Y68382D01*
X-3681Y68354D01*
X-3648Y68337D01*
X-3637Y68332D01*
X-3554Y68271D01*
X-3476Y68204D01*
X-3415Y68132D01*
X-3365Y68065D01*
X-3326Y68010D01*
X-3298Y67960D01*
X-3281Y67927D01*
X-3276Y67921D01*
Y67915D01*
X-3237Y67810D01*
X-3209Y67693D01*
X-3187Y67577D01*
X-3176Y67466D01*
X-3165Y67366D01*
Y67322D01*
X-3159Y67283D01*
Y65773D01*
X-7000D01*
Y67238D01*
X-6995Y67371D01*
X-6989Y67488D01*
X-6978Y67593D01*
X-6967Y67682D01*
X-6956Y67754D01*
X-6950Y67810D01*
X-6939Y67843D01*
Y67854D01*
X-6911Y67949D01*
X-6883Y68026D01*
X-6850Y68099D01*
X-6817Y68160D01*
X-6795Y68210D01*
X-6773Y68248D01*
X-6756Y68271D01*
X-6750Y68276D01*
X-6700Y68337D01*
X-6639Y68393D01*
X-6578Y68437D01*
X-6523Y68481D01*
X-6467Y68515D01*
X-6428Y68537D01*
X-6401Y68554D01*
X-6390Y68559D01*
X-6301Y68598D01*
X-6212Y68626D01*
X-6129Y68648D01*
X-6051Y68659D01*
X-5984Y68670D01*
X-5929Y68676D01*
X-5896D01*
X-5890D01*
X-5884D01*
X-5762Y68670D01*
D02*
G37*
G36*
X-5446Y63681D02*
X-5335Y63670D01*
X-5229Y63653D01*
X-5130Y63631D01*
X-5035Y63603D01*
X-4952Y63570D01*
X-4869Y63537D01*
X-4802Y63503D01*
X-4741Y63470D01*
X-4686Y63437D01*
X-4636Y63403D01*
X-4597Y63376D01*
X-4569Y63353D01*
X-4547Y63337D01*
X-4536Y63326D01*
X-4530Y63320D01*
X-4464Y63248D01*
X-4408Y63176D01*
X-4353Y63098D01*
X-4314Y63020D01*
X-4275Y62943D01*
X-4247Y62865D01*
X-4197Y62715D01*
X-4186Y62643D01*
X-4175Y62582D01*
X-4164Y62526D01*
X-4158Y62476D01*
X-4153Y62437D01*
Y62382D01*
X-4158Y62288D01*
X-4164Y62199D01*
X-4203Y62027D01*
X-4253Y61877D01*
X-4281Y61810D01*
X-4308Y61749D01*
X-4336Y61694D01*
X-4364Y61650D01*
X-4391Y61605D01*
X-4414Y61572D01*
X-4436Y61544D01*
X-4453Y61522D01*
X-4458Y61511D01*
X-4464Y61505D01*
X-4536Y61427D01*
X-4619Y61366D01*
X-4708Y61305D01*
X-4797Y61261D01*
X-4891Y61216D01*
X-4991Y61183D01*
X-5085Y61155D01*
X-5174Y61133D01*
X-5263Y61111D01*
X-5341Y61100D01*
X-5418Y61089D01*
X-5479Y61083D01*
X-5535D01*
X-5574Y61078D01*
X-5596D01*
X-5607D01*
X-5735Y61083D01*
X-5857Y61094D01*
X-5968Y61111D01*
X-6073Y61133D01*
X-6168Y61161D01*
X-6256Y61189D01*
X-6340Y61222D01*
X-6412Y61255D01*
X-6478Y61289D01*
X-6534Y61322D01*
X-6578Y61350D01*
X-6617Y61378D01*
X-6650Y61400D01*
X-6673Y61416D01*
X-6684Y61427D01*
X-6689Y61433D01*
X-6756Y61505D01*
X-6811Y61577D01*
X-6861Y61655D01*
X-6906Y61733D01*
X-6939Y61810D01*
X-6972Y61894D01*
X-7017Y62043D01*
X-7028Y62110D01*
X-7039Y62177D01*
X-7050Y62232D01*
X-7056Y62282D01*
X-7061Y62327D01*
Y62382D01*
X-7056Y62515D01*
X-7033Y62637D01*
X-7006Y62754D01*
X-6978Y62848D01*
X-6944Y62932D01*
X-6933Y62965D01*
X-6922Y62993D01*
X-6911Y63020D01*
X-6900Y63037D01*
X-6894Y63042D01*
Y63048D01*
X-6822Y63159D01*
X-6745Y63253D01*
X-6667Y63337D01*
X-6589Y63403D01*
X-6523Y63453D01*
X-6467Y63492D01*
X-6445Y63503D01*
X-6428Y63514D01*
X-6423Y63520D01*
X-6417D01*
X-6290Y63575D01*
X-6151Y63614D01*
X-6012Y63648D01*
X-5873Y63664D01*
X-5812Y63675D01*
X-5757D01*
X-5701Y63681D01*
X-5657Y63686D01*
X-5618D01*
X-5590D01*
X-5574D01*
X-5568D01*
X-5446Y63681D01*
D02*
G37*
G36*
X-4258Y60878D02*
X-4219Y60789D01*
X-4192Y60711D01*
X-4169Y60639D01*
X-4158Y60578D01*
X-4153Y60528D01*
Y60489D01*
X-4158Y60428D01*
X-4169Y60373D01*
X-4186Y60317D01*
X-4203Y60273D01*
X-4219Y60240D01*
X-4236Y60206D01*
X-4247Y60190D01*
X-4253Y60184D01*
X-4297Y60134D01*
X-4353Y60084D01*
X-4419Y60034D01*
X-4480Y59990D01*
X-4541Y59946D01*
X-4591Y59918D01*
X-4630Y59896D01*
X-4636Y59890D01*
X-4214D01*
Y59463D01*
X-7000D01*
Y59935D01*
X-5546D01*
X-5435Y59940D01*
X-5335Y59946D01*
X-5241Y59957D01*
X-5157Y59973D01*
X-5091Y59990D01*
X-5041Y60001D01*
X-5007Y60007D01*
X-4997Y60012D01*
X-4935Y60034D01*
X-4885Y60062D01*
X-4841Y60090D01*
X-4802Y60118D01*
X-4775Y60145D01*
X-4752Y60162D01*
X-4741Y60179D01*
X-4736Y60184D01*
X-4702Y60229D01*
X-4680Y60279D01*
X-4663Y60329D01*
X-4652Y60367D01*
X-4647Y60406D01*
X-4641Y60434D01*
Y60462D01*
X-4647Y60523D01*
X-4658Y60584D01*
X-4674Y60645D01*
X-4691Y60695D01*
X-4708Y60739D01*
X-4724Y60773D01*
X-4736Y60795D01*
X-4741Y60800D01*
X-4308Y60972D01*
X-4258Y60878D01*
D02*
G37*
G36*
X-3159Y58247D02*
X-4536D01*
X-4475Y58197D01*
X-4425Y58142D01*
X-4375Y58092D01*
X-4336Y58036D01*
X-4308Y57992D01*
X-4281Y57959D01*
X-4269Y57937D01*
X-4264Y57925D01*
X-4225Y57853D01*
X-4197Y57775D01*
X-4181Y57698D01*
X-4164Y57626D01*
X-4158Y57565D01*
X-4153Y57520D01*
Y57476D01*
X-4158Y57354D01*
X-4181Y57237D01*
X-4208Y57132D01*
X-4242Y57043D01*
X-4281Y56965D01*
X-4308Y56910D01*
X-4319Y56888D01*
X-4330Y56871D01*
X-4336Y56865D01*
Y56860D01*
X-4408Y56760D01*
X-4497Y56677D01*
X-4580Y56604D01*
X-4663Y56549D01*
X-4741Y56505D01*
X-4802Y56471D01*
X-4824Y56460D01*
X-4841Y56449D01*
X-4852Y56444D01*
X-4858D01*
X-4985Y56399D01*
X-5119Y56366D01*
X-5246Y56338D01*
X-5363Y56322D01*
X-5463Y56310D01*
X-5507D01*
X-5540Y56305D01*
X-5574D01*
X-5596D01*
X-5607D01*
X-5613D01*
X-5768Y56310D01*
X-5912Y56327D01*
X-6040Y56355D01*
X-6151Y56383D01*
X-6201Y56394D01*
X-6240Y56405D01*
X-6278Y56421D01*
X-6312Y56432D01*
X-6334Y56444D01*
X-6351Y56449D01*
X-6362Y56455D01*
X-6367D01*
X-6484Y56516D01*
X-6584Y56588D01*
X-6673Y56660D01*
X-6745Y56732D01*
X-6800Y56793D01*
X-6845Y56843D01*
X-6867Y56876D01*
X-6878Y56882D01*
Y56888D01*
X-6939Y56993D01*
X-6983Y57099D01*
X-7017Y57204D01*
X-7039Y57298D01*
X-7050Y57376D01*
X-7056Y57443D01*
X-7061Y57465D01*
Y57498D01*
X-7056Y57592D01*
X-7044Y57681D01*
X-7022Y57764D01*
X-6995Y57837D01*
X-6967Y57909D01*
X-6933Y57975D01*
X-6894Y58031D01*
X-6856Y58081D01*
X-6817Y58131D01*
X-6778Y58170D01*
X-6745Y58203D01*
X-6717Y58231D01*
X-6689Y58253D01*
X-6667Y58270D01*
X-6656Y58275D01*
X-6650Y58281D01*
X-7000D01*
Y58719D01*
X-3159D01*
Y58247D01*
D02*
G37*
G36*
X-4214Y55606D02*
X-5840Y55006D01*
X-5957Y54962D01*
X-6068Y54928D01*
X-6179Y54890D01*
X-6273Y54862D01*
X-6356Y54840D01*
X-6390Y54829D01*
X-6417Y54823D01*
X-6439Y54817D01*
X-6456Y54812D01*
X-6467Y54806D01*
X-6473D01*
X-6345Y54773D01*
X-6228Y54740D01*
X-6117Y54706D01*
X-6023Y54673D01*
X-5945Y54645D01*
X-5912Y54634D01*
X-5884Y54623D01*
X-5857Y54618D01*
X-5840Y54612D01*
X-5835Y54606D01*
X-5829D01*
X-4214Y54024D01*
Y53524D01*
X-7000Y54579D01*
X-7050Y54557D01*
X-7089Y54545D01*
X-7111Y54534D01*
X-7117D01*
X-7211Y54501D01*
X-7289Y54468D01*
X-7355Y54446D01*
X-7400Y54423D01*
X-7433Y54412D01*
X-7455Y54401D01*
X-7466Y54390D01*
X-7472D01*
X-7533Y54346D01*
X-7577Y54296D01*
X-7594Y54273D01*
X-7605Y54257D01*
X-7616Y54246D01*
Y54240D01*
X-7633Y54201D01*
X-7649Y54163D01*
X-7666Y54079D01*
Y54046D01*
X-7672Y54018D01*
Y53990D01*
X-7666Y53902D01*
X-7649Y53813D01*
X-7638Y53780D01*
X-7633Y53752D01*
X-7627Y53730D01*
Y53724D01*
X-8066Y53774D01*
X-8088Y53835D01*
X-8099Y53891D01*
X-8110Y53940D01*
X-8121Y53985D01*
Y54024D01*
X-8127Y54052D01*
Y54074D01*
X-8121Y54157D01*
X-8110Y54229D01*
X-8093Y54296D01*
X-8071Y54351D01*
X-8049Y54401D01*
X-8032Y54435D01*
X-8021Y54457D01*
X-8016Y54462D01*
X-7971Y54523D01*
X-7916Y54573D01*
X-7860Y54623D01*
X-7805Y54668D01*
X-7755Y54701D01*
X-7716Y54729D01*
X-7688Y54745D01*
X-7677Y54751D01*
X-7638Y54767D01*
X-7599Y54790D01*
X-7505Y54834D01*
X-7400Y54878D01*
X-7294Y54917D01*
X-7200Y54956D01*
X-7155Y54973D01*
X-7117Y54989D01*
X-7089Y55001D01*
X-7067Y55012D01*
X-7050Y55017D01*
X-7044D01*
X-4214Y56077D01*
Y55606D01*
D02*
G37*
G36*
X-3159Y52498D02*
X-4736D01*
Y50511D01*
X-3159D01*
Y50000D01*
X-7000D01*
Y50511D01*
X-5191D01*
Y52498D01*
X-7000D01*
Y53008D01*
X-3159D01*
Y52498D01*
D02*
G37*
G36*
X21626Y65350D02*
X21798Y65333D01*
X21953Y65305D01*
X22025Y65294D01*
X22086Y65278D01*
X22147Y65261D01*
X22197Y65250D01*
X22242Y65239D01*
X22280Y65222D01*
X22314Y65216D01*
X22336Y65205D01*
X22347Y65200D01*
X22353D01*
X22497Y65139D01*
X22625Y65067D01*
X22736Y64989D01*
X22830Y64917D01*
X22908Y64850D01*
X22963Y64795D01*
X22980Y64773D01*
X22997Y64756D01*
X23002Y64750D01*
X23008Y64745D01*
X23080Y64656D01*
X23135Y64562D01*
X23185Y64467D01*
X23224Y64378D01*
X23252Y64301D01*
X23268Y64240D01*
X23280Y64218D01*
Y64201D01*
X23285Y64190D01*
Y64184D01*
X23302Y64090D01*
X23318Y63979D01*
X23329Y63868D01*
X23335Y63757D01*
X23341Y63657D01*
Y62181D01*
X19500D01*
Y63563D01*
X19505Y63690D01*
X19511Y63807D01*
X19522Y63912D01*
X19533Y64001D01*
X19544Y64079D01*
X19550Y64134D01*
X19556Y64151D01*
X19561Y64168D01*
Y64179D01*
X19589Y64279D01*
X19622Y64367D01*
X19650Y64445D01*
X19683Y64512D01*
X19711Y64567D01*
X19733Y64606D01*
X19750Y64628D01*
X19755Y64639D01*
X19805Y64711D01*
X19866Y64773D01*
X19922Y64834D01*
X19977Y64884D01*
X20027Y64928D01*
X20066Y64961D01*
X20094Y64983D01*
X20105Y64989D01*
X20194Y65044D01*
X20288Y65100D01*
X20377Y65144D01*
X20466Y65178D01*
X20543Y65211D01*
X20604Y65233D01*
X20627Y65239D01*
X20643Y65244D01*
X20654Y65250D01*
X20660D01*
X20793Y65283D01*
X20926Y65311D01*
X21054Y65328D01*
X21176Y65344D01*
X21282Y65350D01*
X21326D01*
X21365Y65355D01*
X21393D01*
X21420D01*
X21431D01*
X21437D01*
X21626Y65350D01*
D02*
G37*
G36*
X23341Y60838D02*
X20321D01*
X23341Y58823D01*
Y58301D01*
X19500D01*
Y58790D01*
X22514D01*
X19500Y60799D01*
Y61326D01*
X23341D01*
Y60838D01*
D02*
G37*
G36*
X21459Y55926D02*
X21004D01*
Y57058D01*
X20283D01*
X20227Y56991D01*
X20177Y56914D01*
X20133Y56831D01*
X20094Y56753D01*
X20061Y56686D01*
X20033Y56625D01*
X20022Y56603D01*
X20016Y56592D01*
X20011Y56581D01*
Y56575D01*
X19972Y56459D01*
X19939Y56342D01*
X19916Y56237D01*
X19905Y56137D01*
X19894Y56054D01*
Y56020D01*
X19888Y55987D01*
Y55931D01*
X19894Y55793D01*
X19916Y55660D01*
X19944Y55537D01*
X19972Y55426D01*
X20005Y55338D01*
X20016Y55299D01*
X20027Y55271D01*
X20038Y55243D01*
X20049Y55226D01*
X20055Y55215D01*
Y55210D01*
X20127Y55093D01*
X20205Y54988D01*
X20288Y54899D01*
X20371Y54827D01*
X20449Y54766D01*
X20510Y54727D01*
X20532Y54710D01*
X20549Y54705D01*
X20560Y54694D01*
X20566D01*
X20704Y54638D01*
X20849Y54594D01*
X20993Y54566D01*
X21132Y54544D01*
X21193Y54538D01*
X21248Y54533D01*
X21304Y54527D01*
X21348D01*
X21382Y54522D01*
X21409D01*
X21426D01*
X21431D01*
X21587Y54527D01*
X21726Y54544D01*
X21859Y54566D01*
X21975Y54594D01*
X22025Y54605D01*
X22070Y54622D01*
X22108Y54633D01*
X22142Y54644D01*
X22170Y54655D01*
X22186Y54660D01*
X22197Y54666D01*
X22203D01*
X22280Y54705D01*
X22353Y54744D01*
X22419Y54783D01*
X22475Y54821D01*
X22519Y54855D01*
X22558Y54882D01*
X22580Y54905D01*
X22586Y54910D01*
X22647Y54971D01*
X22702Y55038D01*
X22747Y55110D01*
X22791Y55177D01*
X22819Y55232D01*
X22847Y55277D01*
X22858Y55310D01*
X22863Y55321D01*
X22902Y55421D01*
X22930Y55521D01*
X22946Y55626D01*
X22963Y55721D01*
X22969Y55804D01*
Y55837D01*
X22974Y55865D01*
Y55926D01*
X22969Y56031D01*
X22958Y56131D01*
X22941Y56220D01*
X22924Y56298D01*
X22902Y56364D01*
X22885Y56414D01*
X22874Y56442D01*
X22869Y56453D01*
X22830Y56536D01*
X22786Y56608D01*
X22741Y56675D01*
X22697Y56725D01*
X22658Y56764D01*
X22630Y56797D01*
X22608Y56814D01*
X22602Y56819D01*
X22536Y56869D01*
X22458Y56908D01*
X22386Y56947D01*
X22308Y56980D01*
X22242Y57003D01*
X22192Y57019D01*
X22170Y57025D01*
X22153Y57030D01*
X22147Y57036D01*
X22142D01*
X22264Y57497D01*
X22403Y57458D01*
X22525Y57408D01*
X22636Y57358D01*
X22725Y57313D01*
X22797Y57269D01*
X22847Y57236D01*
X22880Y57213D01*
X22891Y57202D01*
X22980Y57125D01*
X23052Y57041D01*
X23119Y56953D01*
X23174Y56869D01*
X23213Y56792D01*
X23246Y56731D01*
X23257Y56708D01*
X23263Y56692D01*
X23268Y56681D01*
Y56675D01*
X23313Y56547D01*
X23346Y56414D01*
X23374Y56292D01*
X23391Y56176D01*
X23402Y56070D01*
Y56026D01*
X23407Y55992D01*
Y55815D01*
X23396Y55715D01*
X23368Y55521D01*
X23352Y55432D01*
X23329Y55349D01*
X23313Y55271D01*
X23291Y55199D01*
X23268Y55132D01*
X23246Y55077D01*
X23224Y55027D01*
X23207Y54982D01*
X23191Y54949D01*
X23180Y54927D01*
X23174Y54910D01*
X23168Y54905D01*
X23119Y54827D01*
X23069Y54749D01*
X22952Y54616D01*
X22836Y54500D01*
X22714Y54405D01*
X22608Y54327D01*
X22564Y54300D01*
X22519Y54277D01*
X22486Y54255D01*
X22464Y54244D01*
X22447Y54239D01*
X22442Y54233D01*
X22258Y54155D01*
X22075Y54100D01*
X21898Y54056D01*
X21814Y54044D01*
X21737Y54028D01*
X21665Y54022D01*
X21603Y54011D01*
X21542Y54006D01*
X21492D01*
X21454Y54000D01*
X21426D01*
X21404D01*
X21398D01*
X21193Y54011D01*
X20999Y54039D01*
X20910Y54056D01*
X20826Y54072D01*
X20743Y54094D01*
X20671Y54116D01*
X20604Y54139D01*
X20549Y54161D01*
X20493Y54178D01*
X20455Y54194D01*
X20416Y54211D01*
X20393Y54222D01*
X20377Y54233D01*
X20371D01*
X20210Y54333D01*
X20072Y54444D01*
X19950Y54561D01*
X19850Y54672D01*
X19772Y54777D01*
X19744Y54816D01*
X19716Y54855D01*
X19700Y54888D01*
X19683Y54910D01*
X19678Y54927D01*
X19672Y54932D01*
X19628Y55021D01*
X19594Y55110D01*
X19533Y55288D01*
X19494Y55460D01*
X19461Y55621D01*
X19456Y55693D01*
X19444Y55759D01*
X19439Y55820D01*
Y55870D01*
X19433Y55909D01*
Y55965D01*
X19439Y56120D01*
X19456Y56270D01*
X19483Y56409D01*
X19511Y56531D01*
X19522Y56581D01*
X19533Y56631D01*
X19550Y56675D01*
X19561Y56714D01*
X19572Y56742D01*
X19578Y56764D01*
X19583Y56775D01*
Y56781D01*
X19644Y56930D01*
X19716Y57069D01*
X19794Y57202D01*
X19866Y57319D01*
X19900Y57369D01*
X19933Y57419D01*
X19961Y57458D01*
X19983Y57491D01*
X20005Y57519D01*
X20022Y57541D01*
X20027Y57552D01*
X20033Y57558D01*
X21459D01*
Y55926D01*
D02*
G37*
G36*
X3969Y50143D02*
X6753D01*
Y48973D01*
X3969D01*
Y46159D01*
X2784D01*
Y48973D01*
X0D01*
Y50143D01*
X2784D01*
Y52927D01*
X3969D01*
Y50143D01*
D02*
G37*
G36*
X91725Y305052D02*
X95205D01*
Y303589D01*
X91725D01*
Y300110D01*
X90244D01*
Y303589D01*
X86764D01*
Y305052D01*
X90244D01*
Y308569D01*
X91725D01*
Y305052D01*
D02*
G37*
G36*
X113705Y304218D02*
X108837D01*
Y305792D01*
X113705D01*
Y304218D01*
D02*
G37*
G36*
X32520Y118910D02*
X36000D01*
Y117448D01*
X32520D01*
Y113968D01*
X31039D01*
Y117448D01*
X27559D01*
Y118910D01*
X31039D01*
Y122427D01*
X32520D01*
Y118910D01*
D02*
G37*
G36*
X125857Y162096D02*
X125763Y162040D01*
X125674Y161979D01*
X125585Y161907D01*
X125508Y161841D01*
X125441Y161774D01*
X125385Y161724D01*
X125369Y161702D01*
X125352Y161685D01*
X125347Y161680D01*
X125341Y161674D01*
X125247Y161557D01*
X125158Y161441D01*
X125080Y161330D01*
X125019Y161219D01*
X124964Y161125D01*
X124942Y161086D01*
X124925Y161053D01*
X124908Y161025D01*
X124903Y161003D01*
X124892Y160992D01*
Y160986D01*
X124436D01*
X124470Y161069D01*
X124509Y161152D01*
X124548Y161236D01*
X124586Y161313D01*
X124620Y161380D01*
X124647Y161435D01*
X124670Y161469D01*
X124675Y161474D01*
Y161480D01*
X124736Y161580D01*
X124797Y161669D01*
X124853Y161746D01*
X124903Y161807D01*
X124942Y161863D01*
X124975Y161896D01*
X124997Y161924D01*
X125003Y161929D01*
X122000D01*
Y162401D01*
X125857D01*
Y162096D01*
D02*
G37*
G36*
Y159110D02*
X125763Y159055D01*
X125674Y158993D01*
X125585Y158921D01*
X125508Y158855D01*
X125441Y158788D01*
X125385Y158738D01*
X125369Y158716D01*
X125352Y158699D01*
X125347Y158694D01*
X125341Y158688D01*
X125247Y158572D01*
X125158Y158455D01*
X125080Y158344D01*
X125019Y158233D01*
X124964Y158139D01*
X124942Y158100D01*
X124925Y158067D01*
X124908Y158039D01*
X124903Y158017D01*
X124892Y158005D01*
Y158000D01*
X124436D01*
X124470Y158083D01*
X124509Y158167D01*
X124548Y158250D01*
X124586Y158327D01*
X124620Y158394D01*
X124647Y158449D01*
X124670Y158483D01*
X124675Y158488D01*
Y158494D01*
X124736Y158594D01*
X124797Y158683D01*
X124853Y158760D01*
X124903Y158821D01*
X124942Y158877D01*
X124975Y158910D01*
X124997Y158938D01*
X125003Y158943D01*
X122000D01*
Y159415D01*
X125857D01*
Y159110D01*
D02*
G37*
G36*
X124098Y172628D02*
X124187D01*
X124276Y172623D01*
X124353Y172612D01*
X124431Y172606D01*
X124497Y172600D01*
X124558Y172589D01*
X124614Y172584D01*
X124664Y172573D01*
X124703Y172567D01*
X124736Y172562D01*
X124764Y172556D01*
X124780Y172550D01*
X124792Y172545D01*
X124797D01*
X124919Y172512D01*
X125030Y172473D01*
X125125Y172428D01*
X125208Y172395D01*
X125280Y172356D01*
X125330Y172334D01*
X125358Y172312D01*
X125369Y172306D01*
X125452Y172245D01*
X125524Y172184D01*
X125585Y172118D01*
X125641Y172056D01*
X125680Y172001D01*
X125707Y171957D01*
X125724Y171929D01*
X125730Y171923D01*
Y171918D01*
X125774Y171829D01*
X125802Y171735D01*
X125824Y171646D01*
X125841Y171563D01*
X125852Y171491D01*
X125857Y171429D01*
Y171379D01*
X125846Y171230D01*
X125824Y171091D01*
X125785Y170974D01*
X125746Y170874D01*
X125702Y170791D01*
X125685Y170758D01*
X125663Y170730D01*
X125652Y170708D01*
X125641Y170691D01*
X125630Y170686D01*
Y170680D01*
X125541Y170580D01*
X125435Y170497D01*
X125330Y170425D01*
X125230Y170369D01*
X125136Y170325D01*
X125097Y170303D01*
X125058Y170292D01*
X125030Y170281D01*
X125008Y170270D01*
X124997Y170264D01*
X124992D01*
X124908Y170242D01*
X124825Y170220D01*
X124642Y170186D01*
X124459Y170158D01*
X124287Y170142D01*
X124203Y170136D01*
X124131Y170131D01*
X124065D01*
X124004Y170125D01*
X123959D01*
X123920D01*
X123898D01*
X123893D01*
X123698Y170131D01*
X123515Y170142D01*
X123349Y170158D01*
X123193Y170186D01*
X123049Y170214D01*
X122921Y170247D01*
X122805Y170281D01*
X122705Y170314D01*
X122616Y170347D01*
X122538Y170386D01*
X122472Y170414D01*
X122422Y170441D01*
X122377Y170469D01*
X122350Y170486D01*
X122333Y170497D01*
X122327Y170502D01*
X122261Y170564D01*
X122200Y170630D01*
X122144Y170702D01*
X122100Y170774D01*
X122061Y170847D01*
X122028Y170919D01*
X122005Y170991D01*
X121983Y171057D01*
X121967Y171124D01*
X121956Y171185D01*
X121944Y171241D01*
X121939Y171285D01*
X121933Y171324D01*
Y171379D01*
X121944Y171529D01*
X121967Y171668D01*
X122005Y171785D01*
X122044Y171885D01*
X122083Y171968D01*
X122105Y171995D01*
X122122Y172023D01*
X122133Y172046D01*
X122144Y172062D01*
X122155Y172068D01*
Y172073D01*
X122250Y172173D01*
X122350Y172256D01*
X122461Y172328D01*
X122561Y172384D01*
X122655Y172428D01*
X122694Y172451D01*
X122733Y172462D01*
X122760Y172473D01*
X122783Y172484D01*
X122794Y172490D01*
X122799D01*
X122882Y172517D01*
X122966Y172539D01*
X123143Y172573D01*
X123326Y172600D01*
X123504Y172617D01*
X123582Y172623D01*
X123654Y172628D01*
X123721D01*
X123782Y172634D01*
X123826D01*
X123865D01*
X123887D01*
X123893D01*
X123998D01*
X124098Y172628D01*
D02*
G37*
G36*
X125857Y168610D02*
X125763Y168554D01*
X125674Y168493D01*
X125585Y168421D01*
X125508Y168355D01*
X125441Y168288D01*
X125385Y168238D01*
X125369Y168216D01*
X125352Y168199D01*
X125347Y168194D01*
X125341Y168188D01*
X125247Y168072D01*
X125158Y167955D01*
X125080Y167844D01*
X125019Y167733D01*
X124964Y167639D01*
X124942Y167600D01*
X124925Y167567D01*
X124908Y167539D01*
X124903Y167517D01*
X124892Y167506D01*
Y167500D01*
X124436D01*
X124470Y167583D01*
X124509Y167666D01*
X124548Y167750D01*
X124586Y167827D01*
X124620Y167894D01*
X124647Y167949D01*
X124670Y167983D01*
X124675Y167988D01*
Y167994D01*
X124736Y168094D01*
X124797Y168183D01*
X124853Y168260D01*
X124903Y168321D01*
X124942Y168377D01*
X124975Y168410D01*
X124997Y168438D01*
X125003Y168444D01*
X122000D01*
Y168915D01*
X125857D01*
Y168610D01*
D02*
G37*
G36*
X123959Y280426D02*
X123504D01*
Y281558D01*
X122783D01*
X122727Y281491D01*
X122677Y281414D01*
X122633Y281330D01*
X122594Y281253D01*
X122561Y281186D01*
X122533Y281125D01*
X122522Y281103D01*
X122516Y281092D01*
X122511Y281081D01*
Y281075D01*
X122472Y280959D01*
X122438Y280842D01*
X122416Y280737D01*
X122405Y280637D01*
X122394Y280554D01*
Y280520D01*
X122389Y280487D01*
Y280431D01*
X122394Y280293D01*
X122416Y280159D01*
X122444Y280037D01*
X122472Y279926D01*
X122505Y279838D01*
X122516Y279799D01*
X122527Y279771D01*
X122538Y279743D01*
X122549Y279727D01*
X122555Y279715D01*
Y279710D01*
X122627Y279593D01*
X122705Y279488D01*
X122788Y279399D01*
X122871Y279327D01*
X122949Y279266D01*
X123010Y279227D01*
X123032Y279210D01*
X123049Y279205D01*
X123060Y279194D01*
X123066D01*
X123204Y279138D01*
X123349Y279094D01*
X123493Y279066D01*
X123632Y279044D01*
X123693Y279038D01*
X123748Y279033D01*
X123804Y279027D01*
X123848D01*
X123881Y279022D01*
X123909D01*
X123926D01*
X123931D01*
X124087Y279027D01*
X124225Y279044D01*
X124359Y279066D01*
X124475Y279094D01*
X124525Y279105D01*
X124570Y279122D01*
X124609Y279133D01*
X124642Y279144D01*
X124670Y279155D01*
X124686Y279160D01*
X124697Y279166D01*
X124703D01*
X124780Y279205D01*
X124853Y279244D01*
X124919Y279282D01*
X124975Y279321D01*
X125019Y279355D01*
X125058Y279382D01*
X125080Y279405D01*
X125086Y279410D01*
X125147Y279471D01*
X125202Y279538D01*
X125247Y279610D01*
X125291Y279677D01*
X125319Y279732D01*
X125347Y279777D01*
X125358Y279810D01*
X125363Y279821D01*
X125402Y279921D01*
X125430Y280021D01*
X125447Y280126D01*
X125463Y280221D01*
X125469Y280304D01*
Y280337D01*
X125474Y280365D01*
Y280426D01*
X125469Y280531D01*
X125458Y280631D01*
X125441Y280720D01*
X125424Y280798D01*
X125402Y280864D01*
X125385Y280914D01*
X125374Y280942D01*
X125369Y280953D01*
X125330Y281036D01*
X125286Y281108D01*
X125241Y281175D01*
X125197Y281225D01*
X125158Y281264D01*
X125130Y281297D01*
X125108Y281314D01*
X125102Y281319D01*
X125036Y281369D01*
X124958Y281408D01*
X124886Y281447D01*
X124808Y281480D01*
X124742Y281503D01*
X124692Y281519D01*
X124670Y281525D01*
X124653Y281530D01*
X124647Y281536D01*
X124642D01*
X124764Y281996D01*
X124903Y281958D01*
X125025Y281908D01*
X125136Y281858D01*
X125224Y281813D01*
X125297Y281769D01*
X125347Y281736D01*
X125380Y281714D01*
X125391Y281702D01*
X125480Y281625D01*
X125552Y281541D01*
X125619Y281453D01*
X125674Y281369D01*
X125713Y281292D01*
X125746Y281231D01*
X125757Y281208D01*
X125763Y281192D01*
X125768Y281181D01*
Y281175D01*
X125813Y281047D01*
X125846Y280914D01*
X125874Y280792D01*
X125891Y280676D01*
X125902Y280570D01*
Y280526D01*
X125907Y280492D01*
Y280315D01*
X125896Y280215D01*
X125868Y280021D01*
X125852Y279932D01*
X125830Y279849D01*
X125813Y279771D01*
X125791Y279699D01*
X125768Y279632D01*
X125746Y279577D01*
X125724Y279527D01*
X125707Y279482D01*
X125691Y279449D01*
X125680Y279427D01*
X125674Y279410D01*
X125669Y279405D01*
X125619Y279327D01*
X125569Y279249D01*
X125452Y279116D01*
X125336Y278999D01*
X125213Y278905D01*
X125108Y278827D01*
X125064Y278800D01*
X125019Y278778D01*
X124986Y278755D01*
X124964Y278744D01*
X124947Y278739D01*
X124942Y278733D01*
X124758Y278655D01*
X124575Y278600D01*
X124398Y278555D01*
X124314Y278544D01*
X124237Y278528D01*
X124164Y278522D01*
X124103Y278511D01*
X124042Y278505D01*
X123993D01*
X123954Y278500D01*
X123926D01*
X123904D01*
X123898D01*
X123693Y278511D01*
X123498Y278539D01*
X123410Y278555D01*
X123326Y278572D01*
X123243Y278594D01*
X123171Y278617D01*
X123104Y278639D01*
X123049Y278661D01*
X122994Y278678D01*
X122955Y278694D01*
X122916Y278711D01*
X122894Y278722D01*
X122877Y278733D01*
X122871D01*
X122710Y278833D01*
X122572Y278944D01*
X122450Y279061D01*
X122350Y279171D01*
X122272Y279277D01*
X122244Y279316D01*
X122216Y279355D01*
X122200Y279388D01*
X122183Y279410D01*
X122178Y279427D01*
X122172Y279432D01*
X122128Y279521D01*
X122094Y279610D01*
X122033Y279788D01*
X121994Y279960D01*
X121961Y280121D01*
X121956Y280193D01*
X121944Y280259D01*
X121939Y280320D01*
Y280370D01*
X121933Y280409D01*
Y280465D01*
X121939Y280620D01*
X121956Y280770D01*
X121983Y280909D01*
X122011Y281031D01*
X122022Y281081D01*
X122033Y281131D01*
X122050Y281175D01*
X122061Y281214D01*
X122072Y281242D01*
X122078Y281264D01*
X122083Y281275D01*
Y281280D01*
X122144Y281430D01*
X122216Y281569D01*
X122294Y281702D01*
X122366Y281819D01*
X122400Y281869D01*
X122433Y281919D01*
X122461Y281958D01*
X122483Y281991D01*
X122505Y282019D01*
X122522Y282041D01*
X122527Y282052D01*
X122533Y282057D01*
X123959D01*
Y280426D01*
D02*
G37*
G36*
X124098Y271503D02*
X124187D01*
X124276Y271498D01*
X124353Y271486D01*
X124431Y271481D01*
X124497Y271475D01*
X124558Y271464D01*
X124614Y271459D01*
X124664Y271448D01*
X124703Y271442D01*
X124736Y271437D01*
X124764Y271431D01*
X124780Y271425D01*
X124792Y271420D01*
X124797D01*
X124919Y271387D01*
X125030Y271348D01*
X125125Y271303D01*
X125208Y271270D01*
X125280Y271231D01*
X125330Y271209D01*
X125358Y271187D01*
X125369Y271181D01*
X125452Y271120D01*
X125524Y271059D01*
X125585Y270992D01*
X125641Y270931D01*
X125680Y270876D01*
X125707Y270831D01*
X125724Y270804D01*
X125730Y270798D01*
Y270793D01*
X125774Y270704D01*
X125802Y270609D01*
X125824Y270521D01*
X125841Y270437D01*
X125852Y270365D01*
X125857Y270304D01*
Y270254D01*
X125846Y270104D01*
X125824Y269966D01*
X125785Y269849D01*
X125746Y269749D01*
X125702Y269666D01*
X125685Y269633D01*
X125663Y269605D01*
X125652Y269583D01*
X125641Y269566D01*
X125630Y269561D01*
Y269555D01*
X125541Y269455D01*
X125435Y269372D01*
X125330Y269300D01*
X125230Y269244D01*
X125136Y269200D01*
X125097Y269178D01*
X125058Y269166D01*
X125030Y269155D01*
X125008Y269144D01*
X124997Y269139D01*
X124992D01*
X124908Y269117D01*
X124825Y269094D01*
X124642Y269061D01*
X124459Y269033D01*
X124287Y269017D01*
X124203Y269011D01*
X124131Y269005D01*
X124065D01*
X124004Y269000D01*
X123959D01*
X123920D01*
X123898D01*
X123893D01*
X123698Y269005D01*
X123515Y269017D01*
X123349Y269033D01*
X123193Y269061D01*
X123049Y269089D01*
X122921Y269122D01*
X122805Y269155D01*
X122705Y269189D01*
X122616Y269222D01*
X122538Y269261D01*
X122472Y269289D01*
X122422Y269316D01*
X122377Y269344D01*
X122350Y269361D01*
X122333Y269372D01*
X122327Y269377D01*
X122261Y269439D01*
X122200Y269505D01*
X122144Y269577D01*
X122100Y269649D01*
X122061Y269722D01*
X122028Y269794D01*
X122005Y269866D01*
X121983Y269932D01*
X121967Y269999D01*
X121956Y270060D01*
X121944Y270115D01*
X121939Y270160D01*
X121933Y270199D01*
Y270254D01*
X121944Y270404D01*
X121967Y270543D01*
X122005Y270659D01*
X122044Y270759D01*
X122083Y270843D01*
X122105Y270870D01*
X122122Y270898D01*
X122133Y270920D01*
X122144Y270937D01*
X122155Y270942D01*
Y270948D01*
X122250Y271048D01*
X122350Y271131D01*
X122461Y271203D01*
X122561Y271259D01*
X122655Y271303D01*
X122694Y271325D01*
X122733Y271337D01*
X122760Y271348D01*
X122783Y271359D01*
X122794Y271364D01*
X122799D01*
X122882Y271392D01*
X122966Y271414D01*
X123143Y271448D01*
X123326Y271475D01*
X123504Y271492D01*
X123582Y271498D01*
X123654Y271503D01*
X123721D01*
X123782Y271509D01*
X123826D01*
X123865D01*
X123887D01*
X123893D01*
X123998D01*
X124098Y271503D01*
D02*
G37*
G36*
X125857Y260110D02*
X125763Y260054D01*
X125674Y259993D01*
X125585Y259921D01*
X125508Y259855D01*
X125441Y259788D01*
X125385Y259738D01*
X125369Y259716D01*
X125352Y259699D01*
X125347Y259694D01*
X125341Y259688D01*
X125247Y259572D01*
X125158Y259455D01*
X125080Y259344D01*
X125019Y259233D01*
X124964Y259139D01*
X124942Y259100D01*
X124925Y259067D01*
X124908Y259039D01*
X124903Y259017D01*
X124892Y259005D01*
Y259000D01*
X124436D01*
X124470Y259083D01*
X124509Y259167D01*
X124548Y259250D01*
X124586Y259327D01*
X124620Y259394D01*
X124647Y259450D01*
X124670Y259483D01*
X124675Y259488D01*
Y259494D01*
X124736Y259594D01*
X124797Y259683D01*
X124853Y259760D01*
X124903Y259821D01*
X124942Y259877D01*
X124975Y259910D01*
X124997Y259938D01*
X125003Y259944D01*
X122000D01*
Y260415D01*
X125857D01*
Y260110D01*
D02*
G37*
G36*
X122455Y249660D02*
X122549Y249727D01*
X122588Y249760D01*
X122627Y249788D01*
X122660Y249816D01*
X122683Y249838D01*
X122699Y249855D01*
X122705Y249860D01*
X122733Y249888D01*
X122760Y249921D01*
X122833Y249999D01*
X122916Y250088D01*
X122999Y250182D01*
X123071Y250271D01*
X123104Y250310D01*
X123138Y250343D01*
X123160Y250371D01*
X123177Y250393D01*
X123188Y250404D01*
X123193Y250410D01*
X123271Y250499D01*
X123343Y250587D01*
X123415Y250665D01*
X123476Y250737D01*
X123537Y250804D01*
X123593Y250859D01*
X123643Y250915D01*
X123687Y250959D01*
X123732Y251004D01*
X123765Y251037D01*
X123793Y251065D01*
X123820Y251092D01*
X123854Y251120D01*
X123865Y251131D01*
X123959Y251209D01*
X124042Y251275D01*
X124126Y251331D01*
X124192Y251375D01*
X124253Y251409D01*
X124298Y251431D01*
X124326Y251442D01*
X124337Y251448D01*
X124420Y251481D01*
X124503Y251503D01*
X124581Y251525D01*
X124647Y251536D01*
X124708Y251542D01*
X124753Y251547D01*
X124780D01*
X124792D01*
X124875Y251542D01*
X124953Y251531D01*
X125030Y251520D01*
X125097Y251498D01*
X125230Y251442D01*
X125336Y251386D01*
X125385Y251353D01*
X125424Y251325D01*
X125463Y251298D01*
X125491Y251270D01*
X125513Y251248D01*
X125535Y251237D01*
X125541Y251226D01*
X125547Y251220D01*
X125602Y251159D01*
X125652Y251092D01*
X125691Y251020D01*
X125724Y250948D01*
X125779Y250804D01*
X125818Y250659D01*
X125830Y250598D01*
X125841Y250537D01*
X125846Y250482D01*
X125852Y250437D01*
X125857Y250399D01*
Y250343D01*
X125852Y250243D01*
X125846Y250149D01*
X125830Y250060D01*
X125813Y249977D01*
X125791Y249899D01*
X125768Y249827D01*
X125741Y249760D01*
X125713Y249699D01*
X125685Y249644D01*
X125657Y249599D01*
X125635Y249561D01*
X125613Y249527D01*
X125596Y249500D01*
X125580Y249483D01*
X125574Y249472D01*
X125569Y249466D01*
X125513Y249411D01*
X125452Y249361D01*
X125385Y249311D01*
X125319Y249272D01*
X125186Y249205D01*
X125052Y249161D01*
X124992Y249144D01*
X124930Y249128D01*
X124880Y249117D01*
X124836Y249106D01*
X124797Y249100D01*
X124769D01*
X124753Y249094D01*
X124747D01*
X124697Y249577D01*
X124825Y249588D01*
X124936Y249610D01*
X125036Y249644D01*
X125114Y249683D01*
X125180Y249716D01*
X125224Y249749D01*
X125252Y249771D01*
X125263Y249782D01*
X125330Y249866D01*
X125380Y249955D01*
X125419Y250049D01*
X125441Y250132D01*
X125458Y250210D01*
X125463Y250276D01*
X125469Y250299D01*
Y250332D01*
X125463Y250448D01*
X125441Y250554D01*
X125408Y250643D01*
X125374Y250721D01*
X125336Y250782D01*
X125308Y250820D01*
X125286Y250848D01*
X125275Y250859D01*
X125197Y250926D01*
X125119Y250976D01*
X125041Y251015D01*
X124964Y251037D01*
X124903Y251054D01*
X124847Y251059D01*
X124814Y251065D01*
X124808D01*
X124803D01*
X124703Y251054D01*
X124597Y251031D01*
X124503Y250992D01*
X124414Y250954D01*
X124342Y250909D01*
X124281Y250870D01*
X124259Y250859D01*
X124242Y250848D01*
X124237Y250837D01*
X124231D01*
X124170Y250793D01*
X124109Y250737D01*
X124042Y250676D01*
X123976Y250609D01*
X123843Y250471D01*
X123709Y250332D01*
X123648Y250260D01*
X123593Y250199D01*
X123543Y250138D01*
X123498Y250088D01*
X123465Y250049D01*
X123437Y250016D01*
X123421Y249993D01*
X123415Y249988D01*
X123299Y249849D01*
X123188Y249722D01*
X123088Y249616D01*
X123004Y249533D01*
X122932Y249461D01*
X122882Y249411D01*
X122849Y249383D01*
X122844Y249372D01*
X122838D01*
X122744Y249294D01*
X122655Y249233D01*
X122566Y249178D01*
X122488Y249133D01*
X122422Y249100D01*
X122372Y249078D01*
X122339Y249067D01*
X122333Y249061D01*
X122327D01*
X122266Y249039D01*
X122211Y249028D01*
X122155Y249017D01*
X122105Y249011D01*
X122061Y249006D01*
X122028D01*
X122005D01*
X122000D01*
Y251553D01*
X122455D01*
Y249660D01*
D02*
G37*
G36*
X123265Y241509D02*
X123388Y241486D01*
X123493Y241453D01*
X123582Y241420D01*
X123654Y241387D01*
X123709Y241353D01*
X123743Y241331D01*
X123754Y241325D01*
X123837Y241248D01*
X123909Y241164D01*
X123965Y241076D01*
X124009Y240987D01*
X124042Y240909D01*
X124065Y240848D01*
X124070Y240826D01*
X124076Y240809D01*
X124081Y240798D01*
Y240793D01*
X124131Y240887D01*
X124181Y240965D01*
X124237Y241031D01*
X124287Y241087D01*
X124331Y241131D01*
X124370Y241164D01*
X124392Y241181D01*
X124403Y241187D01*
X124481Y241231D01*
X124558Y241264D01*
X124636Y241292D01*
X124708Y241309D01*
X124769Y241320D01*
X124814Y241325D01*
X124847D01*
X124858D01*
X124953Y241320D01*
X125047Y241303D01*
X125130Y241281D01*
X125202Y241253D01*
X125263Y241226D01*
X125313Y241203D01*
X125341Y241187D01*
X125352Y241181D01*
X125435Y241126D01*
X125508Y241059D01*
X125569Y240992D01*
X125624Y240926D01*
X125663Y240870D01*
X125696Y240820D01*
X125713Y240787D01*
X125718Y240782D01*
Y240776D01*
X125763Y240676D01*
X125796Y240576D01*
X125824Y240476D01*
X125841Y240388D01*
X125852Y240315D01*
X125857Y240254D01*
Y240115D01*
X125846Y240038D01*
X125818Y239888D01*
X125774Y239760D01*
X125730Y239649D01*
X125702Y239599D01*
X125680Y239561D01*
X125657Y239522D01*
X125635Y239494D01*
X125619Y239472D01*
X125608Y239455D01*
X125602Y239444D01*
X125596Y239439D01*
X125491Y239333D01*
X125374Y239250D01*
X125252Y239183D01*
X125130Y239128D01*
X125025Y239094D01*
X124980Y239078D01*
X124942Y239067D01*
X124908Y239061D01*
X124886Y239055D01*
X124869Y239050D01*
X124864D01*
X124780Y239522D01*
X124903Y239544D01*
X125008Y239577D01*
X125097Y239616D01*
X125169Y239655D01*
X125224Y239694D01*
X125263Y239727D01*
X125291Y239749D01*
X125297Y239755D01*
X125352Y239827D01*
X125397Y239905D01*
X125424Y239977D01*
X125447Y240049D01*
X125458Y240115D01*
X125469Y240165D01*
Y240210D01*
X125463Y240310D01*
X125441Y240399D01*
X125413Y240476D01*
X125385Y240543D01*
X125352Y240593D01*
X125324Y240632D01*
X125302Y240659D01*
X125297Y240665D01*
X125230Y240726D01*
X125158Y240770D01*
X125086Y240798D01*
X125019Y240820D01*
X124958Y240831D01*
X124914Y240843D01*
X124880D01*
X124875D01*
X124869D01*
X124808D01*
X124753Y240831D01*
X124658Y240804D01*
X124575Y240765D01*
X124503Y240721D01*
X124453Y240676D01*
X124414Y240637D01*
X124392Y240610D01*
X124387Y240604D01*
Y240598D01*
X124337Y240504D01*
X124298Y240415D01*
X124270Y240321D01*
X124253Y240238D01*
X124242Y240165D01*
X124231Y240104D01*
Y240032D01*
X124237Y240010D01*
Y239982D01*
X123820Y239927D01*
X123837Y239999D01*
X123848Y240066D01*
X123859Y240121D01*
X123865Y240171D01*
X123870Y240210D01*
Y240260D01*
X123859Y240376D01*
X123837Y240482D01*
X123804Y240576D01*
X123765Y240654D01*
X123726Y240715D01*
X123693Y240759D01*
X123671Y240787D01*
X123659Y240798D01*
X123576Y240870D01*
X123487Y240926D01*
X123399Y240965D01*
X123310Y240987D01*
X123238Y241003D01*
X123177Y241009D01*
X123154Y241015D01*
X123138D01*
X123127D01*
X123121D01*
X122999Y241003D01*
X122888Y240976D01*
X122794Y240943D01*
X122710Y240898D01*
X122644Y240854D01*
X122594Y240820D01*
X122561Y240793D01*
X122549Y240782D01*
X122472Y240693D01*
X122416Y240598D01*
X122377Y240504D01*
X122350Y240415D01*
X122333Y240338D01*
X122327Y240277D01*
X122322Y240254D01*
Y240221D01*
X122327Y240121D01*
X122350Y240027D01*
X122377Y239944D01*
X122411Y239877D01*
X122438Y239821D01*
X122466Y239777D01*
X122488Y239755D01*
X122494Y239744D01*
X122572Y239677D01*
X122660Y239622D01*
X122755Y239572D01*
X122855Y239533D01*
X122938Y239505D01*
X122977Y239494D01*
X123010Y239488D01*
X123038Y239483D01*
X123060Y239477D01*
X123071Y239472D01*
X123077D01*
X123016Y239000D01*
X122927Y239011D01*
X122844Y239028D01*
X122688Y239078D01*
X122555Y239139D01*
X122500Y239172D01*
X122444Y239205D01*
X122394Y239239D01*
X122355Y239272D01*
X122316Y239300D01*
X122289Y239327D01*
X122266Y239344D01*
X122250Y239361D01*
X122239Y239372D01*
X122233Y239377D01*
X122183Y239444D01*
X122133Y239511D01*
X122094Y239577D01*
X122061Y239649D01*
X122005Y239788D01*
X121972Y239921D01*
X121961Y239982D01*
X121950Y240038D01*
X121944Y240088D01*
X121939Y240132D01*
X121933Y240165D01*
Y240215D01*
X121939Y240321D01*
X121950Y240415D01*
X121967Y240510D01*
X121989Y240598D01*
X122017Y240682D01*
X122044Y240754D01*
X122078Y240826D01*
X122111Y240887D01*
X122139Y240948D01*
X122172Y240998D01*
X122200Y241042D01*
X122228Y241076D01*
X122250Y241104D01*
X122266Y241126D01*
X122277Y241137D01*
X122283Y241142D01*
X122350Y241209D01*
X122422Y241264D01*
X122494Y241314D01*
X122566Y241359D01*
X122633Y241392D01*
X122705Y241425D01*
X122838Y241470D01*
X122899Y241481D01*
X122955Y241492D01*
X123004Y241503D01*
X123049Y241509D01*
X123082Y241514D01*
X123110D01*
X123127D01*
X123132D01*
X123265Y241509D01*
D02*
G37*
G36*
X123354Y231142D02*
X125841D01*
Y230759D01*
X123354Y229000D01*
X122921D01*
Y230671D01*
X122000D01*
Y231142D01*
X122921D01*
Y231664D01*
X123354D01*
Y231142D01*
D02*
G37*
G36*
X123399Y221542D02*
X123493Y221531D01*
X123587Y221514D01*
X123671Y221492D01*
X123748Y221464D01*
X123826Y221437D01*
X123893Y221403D01*
X123954Y221375D01*
X124009Y221342D01*
X124059Y221309D01*
X124098Y221281D01*
X124137Y221253D01*
X124164Y221231D01*
X124181Y221214D01*
X124192Y221203D01*
X124198Y221198D01*
X124259Y221131D01*
X124314Y221065D01*
X124359Y220992D01*
X124398Y220920D01*
X124436Y220848D01*
X124464Y220776D01*
X124503Y220643D01*
X124520Y220582D01*
X124531Y220526D01*
X124536Y220476D01*
X124542Y220432D01*
X124548Y220399D01*
Y220276D01*
X124536Y220210D01*
X124509Y220077D01*
X124470Y219955D01*
X124425Y219844D01*
X124381Y219755D01*
X124359Y219716D01*
X124342Y219683D01*
X124326Y219655D01*
X124314Y219638D01*
X124309Y219627D01*
X124303Y219622D01*
X125341Y219827D01*
Y221364D01*
X125791D01*
Y219455D01*
X123815Y219083D01*
X123754Y219527D01*
X123815Y219566D01*
X123865Y219616D01*
X123915Y219660D01*
X123954Y219705D01*
X123981Y219749D01*
X124009Y219782D01*
X124020Y219805D01*
X124026Y219810D01*
X124059Y219882D01*
X124087Y219955D01*
X124103Y220021D01*
X124120Y220088D01*
X124126Y220143D01*
X124131Y220188D01*
Y220293D01*
X124120Y220360D01*
X124092Y220476D01*
X124054Y220576D01*
X124015Y220665D01*
X123970Y220732D01*
X123931Y220782D01*
X123904Y220809D01*
X123898Y220820D01*
X123893D01*
X123798Y220898D01*
X123698Y220954D01*
X123593Y220992D01*
X123487Y221020D01*
X123399Y221037D01*
X123360Y221042D01*
X123326D01*
X123299Y221048D01*
X123276D01*
X123265D01*
X123260D01*
X123182D01*
X123110Y221037D01*
X122971Y221009D01*
X122855Y220970D01*
X122760Y220931D01*
X122683Y220887D01*
X122622Y220848D01*
X122605Y220831D01*
X122588Y220820D01*
X122583Y220815D01*
X122577Y220809D01*
X122533Y220765D01*
X122494Y220721D01*
X122427Y220621D01*
X122383Y220526D01*
X122355Y220432D01*
X122333Y220354D01*
X122327Y220288D01*
X122322Y220265D01*
Y220232D01*
X122327Y220127D01*
X122350Y220032D01*
X122377Y219949D01*
X122411Y219882D01*
X122444Y219821D01*
X122472Y219777D01*
X122494Y219755D01*
X122500Y219744D01*
X122577Y219677D01*
X122660Y219622D01*
X122755Y219577D01*
X122838Y219544D01*
X122921Y219522D01*
X122982Y219505D01*
X123010Y219499D01*
X123027Y219494D01*
X123038D01*
X123043D01*
X123004Y219000D01*
X122916Y219011D01*
X122833Y219028D01*
X122677Y219078D01*
X122544Y219139D01*
X122483Y219172D01*
X122433Y219205D01*
X122383Y219233D01*
X122339Y219266D01*
X122305Y219294D01*
X122277Y219322D01*
X122255Y219344D01*
X122233Y219355D01*
X122228Y219366D01*
X122222Y219372D01*
X122172Y219439D01*
X122128Y219505D01*
X122089Y219577D01*
X122055Y219649D01*
X122005Y219788D01*
X121972Y219927D01*
X121956Y219988D01*
X121950Y220049D01*
X121944Y220099D01*
X121939Y220143D01*
X121933Y220182D01*
Y220232D01*
X121939Y220349D01*
X121956Y220460D01*
X121978Y220565D01*
X122005Y220659D01*
X122044Y220748D01*
X122083Y220831D01*
X122122Y220909D01*
X122167Y220976D01*
X122211Y221037D01*
X122250Y221092D01*
X122294Y221137D01*
X122327Y221176D01*
X122355Y221203D01*
X122377Y221226D01*
X122394Y221237D01*
X122400Y221242D01*
X122472Y221298D01*
X122549Y221342D01*
X122622Y221387D01*
X122699Y221420D01*
X122849Y221475D01*
X122994Y221509D01*
X123055Y221520D01*
X123116Y221531D01*
X123166Y221536D01*
X123210Y221542D01*
X123249Y221547D01*
X123276D01*
X123293D01*
X123299D01*
X123399Y221542D01*
D02*
G37*
G36*
X123343Y211536D02*
X123437Y211525D01*
X123532Y211509D01*
X123615Y211492D01*
X123693Y211464D01*
X123770Y211437D01*
X123837Y211409D01*
X123898Y211375D01*
X123954Y211342D01*
X124004Y211314D01*
X124042Y211287D01*
X124081Y211259D01*
X124109Y211242D01*
X124126Y211226D01*
X124137Y211214D01*
X124142Y211209D01*
X124203Y211148D01*
X124259Y211081D01*
X124303Y211009D01*
X124342Y210943D01*
X124381Y210876D01*
X124409Y210809D01*
X124448Y210682D01*
X124464Y210626D01*
X124475Y210571D01*
X124481Y210526D01*
X124486Y210482D01*
X124492Y210449D01*
Y210404D01*
X124486Y210304D01*
X124470Y210210D01*
X124453Y210121D01*
X124431Y210043D01*
X124403Y209977D01*
X124387Y209927D01*
X124370Y209894D01*
X124364Y209888D01*
Y209882D01*
X124309Y209794D01*
X124248Y209716D01*
X124187Y209644D01*
X124120Y209588D01*
X124065Y209538D01*
X124020Y209500D01*
X123987Y209477D01*
X123981Y209472D01*
X124081D01*
X124181Y209477D01*
X124270Y209483D01*
X124359Y209494D01*
X124436Y209500D01*
X124509Y209511D01*
X124575Y209522D01*
X124636Y209538D01*
X124692Y209549D01*
X124736Y209561D01*
X124775Y209572D01*
X124808Y209577D01*
X124830Y209588D01*
X124847Y209594D01*
X124858Y209599D01*
X124864D01*
X124975Y209655D01*
X125075Y209710D01*
X125152Y209771D01*
X125219Y209827D01*
X125275Y209877D01*
X125313Y209916D01*
X125336Y209944D01*
X125341Y209955D01*
X125385Y210021D01*
X125413Y210088D01*
X125435Y210154D01*
X125452Y210221D01*
X125463Y210271D01*
X125469Y210315D01*
Y210354D01*
X125458Y210454D01*
X125435Y210548D01*
X125402Y210626D01*
X125369Y210698D01*
X125330Y210754D01*
X125297Y210793D01*
X125275Y210815D01*
X125263Y210826D01*
X125213Y210865D01*
X125152Y210904D01*
X125086Y210937D01*
X125019Y210959D01*
X124958Y210981D01*
X124908Y210998D01*
X124875Y211003D01*
X124869Y211009D01*
X124864D01*
X124903Y211481D01*
X125058Y211448D01*
X125197Y211398D01*
X125319Y211342D01*
X125419Y211281D01*
X125496Y211220D01*
X125530Y211198D01*
X125557Y211170D01*
X125574Y211153D01*
X125591Y211137D01*
X125596Y211131D01*
X125602Y211126D01*
X125646Y211070D01*
X125685Y211009D01*
X125752Y210887D01*
X125796Y210765D01*
X125824Y210648D01*
X125846Y210543D01*
X125852Y210498D01*
Y210460D01*
X125857Y210426D01*
Y210382D01*
X125852Y210271D01*
X125841Y210166D01*
X125818Y210066D01*
X125791Y209971D01*
X125752Y209888D01*
X125718Y209805D01*
X125674Y209733D01*
X125635Y209666D01*
X125596Y209611D01*
X125552Y209555D01*
X125519Y209511D01*
X125485Y209477D01*
X125452Y209450D01*
X125430Y209427D01*
X125419Y209416D01*
X125413Y209411D01*
X125313Y209338D01*
X125197Y209278D01*
X125075Y209222D01*
X124947Y209172D01*
X124814Y209133D01*
X124681Y209100D01*
X124542Y209072D01*
X124414Y209050D01*
X124287Y209033D01*
X124170Y209022D01*
X124065Y209011D01*
X123976Y209005D01*
X123898D01*
X123843Y209000D01*
X123820D01*
X123804D01*
X123798D01*
X123793D01*
X123615Y209005D01*
X123449Y209017D01*
X123293Y209033D01*
X123149Y209061D01*
X123021Y209089D01*
X122905Y209117D01*
X122799Y209150D01*
X122705Y209189D01*
X122627Y209222D01*
X122555Y209255D01*
X122500Y209283D01*
X122450Y209316D01*
X122411Y209338D01*
X122389Y209355D01*
X122372Y209366D01*
X122366Y209372D01*
X122289Y209444D01*
X122222Y209522D01*
X122167Y209599D01*
X122117Y209677D01*
X122072Y209760D01*
X122039Y209838D01*
X122011Y209916D01*
X121989Y209993D01*
X121972Y210060D01*
X121956Y210127D01*
X121944Y210182D01*
X121939Y210232D01*
Y210277D01*
X121933Y210304D01*
Y210332D01*
X121939Y210460D01*
X121961Y210576D01*
X121983Y210682D01*
X122017Y210776D01*
X122044Y210848D01*
X122072Y210904D01*
X122078Y210926D01*
X122089Y210943D01*
X122094Y210948D01*
Y210954D01*
X122161Y211048D01*
X122239Y211137D01*
X122316Y211209D01*
X122394Y211270D01*
X122466Y211320D01*
X122522Y211353D01*
X122544Y211364D01*
X122561Y211375D01*
X122566Y211381D01*
X122572D01*
X122688Y211437D01*
X122810Y211475D01*
X122921Y211503D01*
X123027Y211520D01*
X123116Y211536D01*
X123149D01*
X123182Y211542D01*
X123210D01*
X123226D01*
X123238D01*
X123243D01*
X123343Y211536D01*
D02*
G37*
G36*
X125791Y199000D02*
X125336D01*
Y200881D01*
X125175Y200748D01*
X125003Y200621D01*
X124836Y200510D01*
X124675Y200404D01*
X124603Y200360D01*
X124536Y200321D01*
X124475Y200282D01*
X124425Y200254D01*
X124381Y200232D01*
X124353Y200216D01*
X124331Y200204D01*
X124326Y200199D01*
X124103Y200088D01*
X123881Y199988D01*
X123671Y199905D01*
X123576Y199871D01*
X123482Y199838D01*
X123399Y199805D01*
X123321Y199783D01*
X123254Y199760D01*
X123199Y199744D01*
X123149Y199727D01*
X123116Y199716D01*
X123093Y199710D01*
X123088D01*
X122860Y199655D01*
X122749Y199633D01*
X122649Y199616D01*
X122555Y199599D01*
X122461Y199583D01*
X122383Y199572D01*
X122305Y199560D01*
X122239Y199555D01*
X122178Y199549D01*
X122122Y199544D01*
X122078D01*
X122044Y199538D01*
X122022D01*
X122005D01*
X122000D01*
Y200021D01*
X122211Y200038D01*
X122405Y200066D01*
X122583Y200093D01*
X122666Y200110D01*
X122744Y200127D01*
X122810Y200138D01*
X122871Y200154D01*
X122927Y200166D01*
X122971Y200177D01*
X123004Y200188D01*
X123032Y200193D01*
X123049Y200199D01*
X123055D01*
X123310Y200282D01*
X123548Y200371D01*
X123665Y200415D01*
X123776Y200460D01*
X123876Y200510D01*
X123976Y200554D01*
X124065Y200593D01*
X124142Y200632D01*
X124209Y200665D01*
X124270Y200693D01*
X124320Y200721D01*
X124353Y200737D01*
X124375Y200748D01*
X124381Y200754D01*
X124497Y200820D01*
X124614Y200887D01*
X124720Y200954D01*
X124819Y201020D01*
X124908Y201081D01*
X124997Y201142D01*
X125075Y201203D01*
X125141Y201253D01*
X125208Y201303D01*
X125263Y201348D01*
X125308Y201392D01*
X125347Y201425D01*
X125380Y201448D01*
X125402Y201470D01*
X125413Y201481D01*
X125419Y201486D01*
X125791D01*
Y199000D01*
D02*
G37*
G36*
X123221Y192025D02*
X123338Y192003D01*
X123443Y191970D01*
X123532Y191936D01*
X123604Y191903D01*
X123659Y191870D01*
X123693Y191848D01*
X123698Y191842D01*
X123704D01*
X123793Y191764D01*
X123870Y191681D01*
X123931Y191592D01*
X123987Y191509D01*
X124026Y191431D01*
X124054Y191365D01*
X124065Y191343D01*
X124070Y191326D01*
X124076Y191315D01*
Y191309D01*
X124120Y191409D01*
X124170Y191492D01*
X124220Y191565D01*
X124270Y191626D01*
X124314Y191670D01*
X124348Y191703D01*
X124370Y191726D01*
X124381Y191731D01*
X124459Y191781D01*
X124536Y191814D01*
X124614Y191842D01*
X124692Y191859D01*
X124753Y191870D01*
X124803Y191875D01*
X124836D01*
X124842D01*
X124847D01*
X124925Y191870D01*
X124997Y191864D01*
X125136Y191825D01*
X125258Y191776D01*
X125363Y191720D01*
X125447Y191665D01*
X125480Y191637D01*
X125513Y191615D01*
X125535Y191592D01*
X125552Y191576D01*
X125557Y191570D01*
X125563Y191565D01*
X125613Y191504D01*
X125663Y191443D01*
X125702Y191376D01*
X125735Y191309D01*
X125785Y191176D01*
X125818Y191043D01*
X125835Y190987D01*
X125841Y190932D01*
X125846Y190882D01*
X125852Y190838D01*
X125857Y190804D01*
Y190754D01*
X125852Y190665D01*
X125846Y190577D01*
X125813Y190421D01*
X125791Y190349D01*
X125768Y190282D01*
X125741Y190222D01*
X125713Y190166D01*
X125685Y190122D01*
X125657Y190077D01*
X125635Y190038D01*
X125613Y190011D01*
X125596Y189988D01*
X125580Y189972D01*
X125574Y189961D01*
X125569Y189955D01*
X125513Y189905D01*
X125458Y189855D01*
X125397Y189816D01*
X125336Y189783D01*
X125219Y189727D01*
X125108Y189694D01*
X125014Y189672D01*
X124969Y189666D01*
X124936Y189661D01*
X124903Y189655D01*
X124880D01*
X124869D01*
X124864D01*
X124764Y189661D01*
X124670Y189678D01*
X124586Y189700D01*
X124514Y189727D01*
X124459Y189750D01*
X124414Y189772D01*
X124392Y189789D01*
X124381Y189794D01*
X124314Y189855D01*
X124253Y189922D01*
X124198Y189994D01*
X124153Y190066D01*
X124120Y190133D01*
X124098Y190183D01*
X124087Y190205D01*
X124081Y190222D01*
X124076Y190227D01*
Y190233D01*
X124037Y190105D01*
X123987Y189999D01*
X123926Y189905D01*
X123870Y189827D01*
X123815Y189766D01*
X123770Y189722D01*
X123743Y189700D01*
X123737Y189689D01*
X123732D01*
X123632Y189628D01*
X123526Y189578D01*
X123426Y189544D01*
X123326Y189522D01*
X123238Y189511D01*
X123199Y189506D01*
X123166D01*
X123143Y189500D01*
X123121D01*
X123110D01*
X123104D01*
X123016Y189506D01*
X122927Y189517D01*
X122844Y189533D01*
X122760Y189556D01*
X122622Y189611D01*
X122555Y189639D01*
X122500Y189672D01*
X122444Y189705D01*
X122400Y189733D01*
X122361Y189766D01*
X122327Y189789D01*
X122300Y189811D01*
X122283Y189827D01*
X122272Y189839D01*
X122266Y189844D01*
X122205Y189911D01*
X122155Y189983D01*
X122111Y190060D01*
X122072Y190138D01*
X122044Y190210D01*
X122017Y190288D01*
X121978Y190438D01*
X121961Y190505D01*
X121950Y190566D01*
X121944Y190621D01*
X121939Y190671D01*
X121933Y190710D01*
Y190765D01*
X121939Y190871D01*
X121950Y190965D01*
X121967Y191060D01*
X121983Y191148D01*
X122011Y191226D01*
X122039Y191304D01*
X122067Y191376D01*
X122100Y191437D01*
X122133Y191492D01*
X122161Y191542D01*
X122189Y191581D01*
X122216Y191620D01*
X122233Y191648D01*
X122250Y191665D01*
X122261Y191676D01*
X122266Y191681D01*
X122333Y191742D01*
X122400Y191798D01*
X122466Y191842D01*
X122538Y191881D01*
X122605Y191920D01*
X122677Y191948D01*
X122805Y191986D01*
X122866Y192003D01*
X122921Y192014D01*
X122971Y192020D01*
X123010Y192025D01*
X123043Y192031D01*
X123071D01*
X123088D01*
X123093D01*
X123221Y192025D01*
D02*
G37*
G36*
X124248Y181520D02*
X124359Y181509D01*
X124464Y181498D01*
X124558Y181486D01*
X124647Y181475D01*
X124731Y181459D01*
X124803Y181442D01*
X124864Y181425D01*
X124919Y181414D01*
X124969Y181398D01*
X125008Y181386D01*
X125036Y181375D01*
X125058Y181364D01*
X125069Y181359D01*
X125075D01*
X125208Y181292D01*
X125324Y181220D01*
X125424Y181137D01*
X125508Y181065D01*
X125569Y180992D01*
X125613Y180937D01*
X125630Y180915D01*
X125641Y180898D01*
X125652Y180893D01*
Y180887D01*
X125718Y180771D01*
X125768Y180654D01*
X125807Y180537D01*
X125830Y180432D01*
X125846Y180338D01*
X125852Y180299D01*
Y180271D01*
X125857Y180243D01*
Y180204D01*
X125852Y180110D01*
X125841Y180021D01*
X125824Y179932D01*
X125802Y179855D01*
X125741Y179705D01*
X125713Y179638D01*
X125680Y179583D01*
X125641Y179527D01*
X125613Y179483D01*
X125580Y179438D01*
X125552Y179405D01*
X125530Y179377D01*
X125513Y179361D01*
X125502Y179350D01*
X125496Y179344D01*
X125430Y179283D01*
X125352Y179233D01*
X125280Y179183D01*
X125202Y179144D01*
X125119Y179111D01*
X125041Y179083D01*
X124897Y179044D01*
X124825Y179028D01*
X124764Y179017D01*
X124703Y179011D01*
X124653Y179006D01*
X124614Y179000D01*
X124586D01*
X124564D01*
X124558D01*
X124453Y179006D01*
X124359Y179017D01*
X124264Y179028D01*
X124176Y179050D01*
X124098Y179078D01*
X124020Y179105D01*
X123954Y179133D01*
X123893Y179166D01*
X123837Y179194D01*
X123787Y179222D01*
X123748Y179250D01*
X123709Y179278D01*
X123682Y179300D01*
X123665Y179311D01*
X123654Y179322D01*
X123648Y179327D01*
X123587Y179388D01*
X123537Y179455D01*
X123487Y179522D01*
X123449Y179594D01*
X123415Y179660D01*
X123388Y179727D01*
X123349Y179855D01*
X123332Y179910D01*
X123321Y179966D01*
X123315Y180010D01*
X123310Y180054D01*
X123304Y180088D01*
Y180132D01*
X123310Y180238D01*
X123326Y180338D01*
X123349Y180426D01*
X123376Y180510D01*
X123399Y180571D01*
X123421Y180621D01*
X123437Y180654D01*
X123443Y180665D01*
X123498Y180754D01*
X123559Y180832D01*
X123621Y180898D01*
X123676Y180954D01*
X123732Y180992D01*
X123770Y181026D01*
X123798Y181048D01*
X123809Y181053D01*
X123765D01*
X123737D01*
X123721D01*
X123715D01*
X123604Y181048D01*
X123498Y181042D01*
X123404Y181031D01*
X123315Y181020D01*
X123243Y181003D01*
X123188Y180992D01*
X123166Y180987D01*
X123149D01*
X123143Y180981D01*
X123138D01*
X123038Y180954D01*
X122949Y180926D01*
X122871Y180898D01*
X122805Y180870D01*
X122755Y180848D01*
X122716Y180826D01*
X122688Y180815D01*
X122683Y180809D01*
X122622Y180765D01*
X122572Y180720D01*
X122527Y180676D01*
X122488Y180632D01*
X122455Y180598D01*
X122433Y180565D01*
X122422Y180543D01*
X122416Y180537D01*
X122383Y180476D01*
X122361Y180410D01*
X122344Y180349D01*
X122333Y180288D01*
X122327Y180238D01*
X122322Y180199D01*
Y180160D01*
X122327Y180071D01*
X122344Y179988D01*
X122366Y179916D01*
X122394Y179855D01*
X122416Y179810D01*
X122438Y179771D01*
X122455Y179749D01*
X122461Y179744D01*
X122522Y179688D01*
X122594Y179644D01*
X122672Y179605D01*
X122749Y179577D01*
X122816Y179555D01*
X122877Y179538D01*
X122899Y179533D01*
X122910D01*
X122921Y179527D01*
X122927D01*
X122888Y179072D01*
X122727Y179105D01*
X122588Y179150D01*
X122466Y179205D01*
X122366Y179261D01*
X122289Y179316D01*
X122255Y179344D01*
X122228Y179366D01*
X122211Y179383D01*
X122194Y179400D01*
X122189Y179405D01*
X122183Y179411D01*
X122139Y179466D01*
X122100Y179527D01*
X122039Y179649D01*
X121994Y179771D01*
X121967Y179888D01*
X121944Y179993D01*
X121939Y180038D01*
Y180077D01*
X121933Y180104D01*
Y180149D01*
X121944Y180304D01*
X121967Y180443D01*
X122005Y180571D01*
X122050Y180676D01*
X122067Y180720D01*
X122089Y180765D01*
X122111Y180798D01*
X122128Y180832D01*
X122139Y180854D01*
X122150Y180870D01*
X122161Y180881D01*
Y180887D01*
X122255Y180998D01*
X122361Y181098D01*
X122472Y181176D01*
X122577Y181242D01*
X122672Y181298D01*
X122716Y181320D01*
X122749Y181337D01*
X122783Y181348D01*
X122805Y181359D01*
X122816Y181364D01*
X122821D01*
X122905Y181392D01*
X122999Y181420D01*
X123188Y181459D01*
X123388Y181486D01*
X123576Y181503D01*
X123659Y181514D01*
X123743Y181520D01*
X123815D01*
X123876Y181525D01*
X123926D01*
X123965D01*
X123993D01*
X123998D01*
X124126D01*
X124248Y181520D01*
D02*
G37*
G36*
X143000Y141518D02*
Y140985D01*
X139159Y139487D01*
Y140003D01*
X141951Y141046D01*
X142068Y141091D01*
X142179Y141130D01*
X142284Y141163D01*
X142378Y141191D01*
X142462Y141218D01*
X142523Y141235D01*
X142545Y141241D01*
X142562Y141246D01*
X142573Y141252D01*
X142578D01*
X142356Y141318D01*
X142251Y141352D01*
X142156Y141385D01*
X142073Y141413D01*
X142040Y141424D01*
X142007Y141429D01*
X141984Y141440D01*
X141968Y141446D01*
X141957Y141452D01*
X141951D01*
X139159Y142450D01*
Y143006D01*
X143000Y141518D01*
D02*
G37*
G36*
Y138660D02*
X142650D01*
X142722Y138604D01*
X142783Y138549D01*
X142839Y138488D01*
X142889Y138421D01*
X142928Y138360D01*
X142961Y138294D01*
X142989Y138233D01*
X143011Y138172D01*
X143039Y138060D01*
X143050Y138011D01*
X143055Y137972D01*
Y137938D01*
X143061Y137911D01*
Y137888D01*
X143055Y137800D01*
X143044Y137711D01*
X143028Y137628D01*
X143000Y137550D01*
X142939Y137400D01*
X142900Y137339D01*
X142867Y137278D01*
X142828Y137223D01*
X142795Y137178D01*
X142761Y137139D01*
X142734Y137100D01*
X142706Y137073D01*
X142689Y137056D01*
X142678Y137045D01*
X142673Y137039D01*
X142595Y136978D01*
X142512Y136923D01*
X142428Y136873D01*
X142334Y136834D01*
X142245Y136801D01*
X142151Y136773D01*
X141973Y136729D01*
X141890Y136712D01*
X141812Y136701D01*
X141746Y136695D01*
X141685Y136690D01*
X141635Y136684D01*
X141601D01*
X141574D01*
X141568D01*
X141457Y136690D01*
X141352Y136695D01*
X141257Y136712D01*
X141174Y136729D01*
X141102Y136745D01*
X141046Y136756D01*
X141030Y136762D01*
X141013Y136767D01*
X141007Y136773D01*
X141002D01*
X140908Y136806D01*
X140819Y136845D01*
X140741Y136884D01*
X140674Y136923D01*
X140625Y136956D01*
X140586Y136984D01*
X140558Y137001D01*
X140552Y137006D01*
X140486Y137062D01*
X140425Y137128D01*
X140375Y137189D01*
X140336Y137250D01*
X140303Y137300D01*
X140275Y137345D01*
X140264Y137372D01*
X140258Y137383D01*
X140225Y137467D01*
X140197Y137555D01*
X140181Y137639D01*
X140164Y137711D01*
X140158Y137772D01*
X140153Y137822D01*
Y137866D01*
X140158Y137950D01*
X140170Y138033D01*
X140186Y138110D01*
X140214Y138183D01*
X140269Y138310D01*
X140342Y138421D01*
X140375Y138466D01*
X140408Y138510D01*
X140442Y138543D01*
X140469Y138571D01*
X140497Y138599D01*
X140514Y138616D01*
X140525Y138621D01*
X140530Y138627D01*
X139159D01*
Y139098D01*
X143000D01*
Y138660D01*
D02*
G37*
G36*
X142334Y136257D02*
X142390Y136251D01*
X142506Y136223D01*
X142600Y136185D01*
X142684Y136140D01*
X142750Y136096D01*
X142800Y136057D01*
X142828Y136029D01*
X142839Y136018D01*
X142911Y135918D01*
X142967Y135807D01*
X143006Y135685D01*
X143033Y135574D01*
X143050Y135474D01*
X143055Y135430D01*
Y135391D01*
X143061Y135358D01*
Y135313D01*
X143055Y135213D01*
X143044Y135113D01*
X143033Y135025D01*
X143017Y134947D01*
X143000Y134886D01*
X142983Y134836D01*
X142978Y134803D01*
X142972Y134792D01*
X142933Y134697D01*
X142883Y134608D01*
X142828Y134525D01*
X142778Y134442D01*
X142728Y134375D01*
X142689Y134325D01*
X142661Y134292D01*
X142650Y134286D01*
Y134281D01*
X142722Y134270D01*
X142789Y134259D01*
X142850Y134248D01*
X142900Y134231D01*
X142945Y134214D01*
X142972Y134203D01*
X142994Y134198D01*
X143000Y134192D01*
Y133698D01*
X142939Y133726D01*
X142878Y133754D01*
X142822Y133776D01*
X142772Y133787D01*
X142728Y133804D01*
X142695Y133809D01*
X142673Y133815D01*
X142667D01*
X142628Y133820D01*
X142578Y133826D01*
X142523D01*
X142462Y133831D01*
X142323Y133837D01*
X142184D01*
X142051Y133843D01*
X141990D01*
X141940D01*
X141896D01*
X141862D01*
X141840D01*
X141834D01*
X141202D01*
X141096D01*
X141002Y133848D01*
X140930Y133854D01*
X140869D01*
X140824Y133859D01*
X140791Y133865D01*
X140775Y133870D01*
X140769D01*
X140697Y133887D01*
X140636Y133909D01*
X140586Y133931D01*
X140536Y133959D01*
X140503Y133981D01*
X140475Y133998D01*
X140458Y134009D01*
X140453Y134015D01*
X140408Y134059D01*
X140364Y134109D01*
X140330Y134164D01*
X140297Y134220D01*
X140275Y134270D01*
X140258Y134309D01*
X140247Y134336D01*
X140242Y134348D01*
X140214Y134436D01*
X140192Y134531D01*
X140175Y134625D01*
X140164Y134719D01*
X140158Y134803D01*
X140153Y134864D01*
Y134925D01*
X140158Y135058D01*
X140170Y135175D01*
X140186Y135285D01*
X140203Y135374D01*
X140219Y135452D01*
X140236Y135508D01*
X140242Y135530D01*
X140247Y135546D01*
X140253Y135552D01*
Y135557D01*
X140292Y135652D01*
X140342Y135735D01*
X140386Y135807D01*
X140430Y135868D01*
X140475Y135913D01*
X140508Y135946D01*
X140530Y135968D01*
X140536Y135974D01*
X140608Y136024D01*
X140686Y136068D01*
X140763Y136101D01*
X140835Y136129D01*
X140908Y136151D01*
X140958Y136168D01*
X140980Y136173D01*
X140997D01*
X141002Y136179D01*
X141007D01*
X141069Y135718D01*
X140969Y135685D01*
X140880Y135652D01*
X140808Y135613D01*
X140752Y135580D01*
X140708Y135546D01*
X140680Y135519D01*
X140663Y135496D01*
X140658Y135491D01*
X140619Y135424D01*
X140591Y135347D01*
X140569Y135263D01*
X140558Y135186D01*
X140547Y135108D01*
X140541Y135052D01*
Y134997D01*
X140547Y134869D01*
X140564Y134758D01*
X140591Y134669D01*
X140619Y134592D01*
X140652Y134536D01*
X140674Y134492D01*
X140697Y134464D01*
X140702Y134458D01*
X140752Y134414D01*
X140813Y134381D01*
X140880Y134353D01*
X140946Y134336D01*
X141007Y134325D01*
X141063Y134320D01*
X141096D01*
X141102D01*
X141107D01*
X141119D01*
X141141D01*
X141180D01*
X141213Y134325D01*
X141224D01*
X141229D01*
X141246Y134381D01*
X141263Y134442D01*
X141296Y134570D01*
X141324Y134714D01*
X141352Y134847D01*
X141363Y134914D01*
X141368Y134975D01*
X141379Y135030D01*
X141385Y135075D01*
X141391Y135113D01*
Y135141D01*
X141396Y135163D01*
Y135169D01*
X141407Y135269D01*
X141424Y135352D01*
X141435Y135424D01*
X141446Y135480D01*
X141452Y135524D01*
X141463Y135557D01*
X141468Y135580D01*
Y135585D01*
X141490Y135657D01*
X141513Y135718D01*
X141540Y135779D01*
X141563Y135829D01*
X141585Y135874D01*
X141607Y135901D01*
X141618Y135924D01*
X141624Y135929D01*
X141662Y135985D01*
X141707Y136029D01*
X141751Y136074D01*
X141796Y136107D01*
X141834Y136135D01*
X141868Y136157D01*
X141890Y136168D01*
X141896Y136173D01*
X141957Y136201D01*
X142023Y136223D01*
X142084Y136240D01*
X142145Y136251D01*
X142195Y136257D01*
X142234Y136262D01*
X142256D01*
X142267D01*
X142334Y136257D01*
D02*
G37*
G36*
X140580Y133038D02*
X142190D01*
X142267D01*
X142334D01*
X142395Y133032D01*
X142456Y133027D01*
X142506D01*
X142551Y133021D01*
X142623Y133010D01*
X142678Y132999D01*
X142717Y132993D01*
X142739Y132982D01*
X142745D01*
X142795Y132960D01*
X142833Y132927D01*
X142872Y132894D01*
X142900Y132866D01*
X142928Y132832D01*
X142945Y132810D01*
X142956Y132794D01*
X142961Y132788D01*
X142989Y132727D01*
X143006Y132666D01*
X143022Y132599D01*
X143028Y132533D01*
X143033Y132477D01*
X143039Y132433D01*
Y132388D01*
X143033Y132266D01*
X143028Y132205D01*
X143017Y132150D01*
X143011Y132100D01*
X143006Y132061D01*
X143000Y132039D01*
Y132028D01*
X142584Y132089D01*
X142589Y132133D01*
X142595Y132177D01*
Y132216D01*
X142600Y132244D01*
Y132300D01*
X142595Y132372D01*
X142584Y132422D01*
X142573Y132449D01*
X142567Y132460D01*
X142539Y132499D01*
X142512Y132522D01*
X142489Y132538D01*
X142478Y132544D01*
X142450Y132549D01*
X142412Y132555D01*
X142323Y132560D01*
X142284Y132566D01*
X142251D01*
X142228D01*
X142218D01*
X140580D01*
Y132089D01*
X140214D01*
Y132566D01*
X139243D01*
X139526Y133038D01*
X140214D01*
Y133387D01*
X140580D01*
Y133038D01*
D02*
G37*
G36*
X130204Y142352D02*
X130298Y142346D01*
X130387Y142330D01*
X130470Y142313D01*
X130548Y142291D01*
X130620Y142269D01*
X130687Y142241D01*
X130748Y142213D01*
X130803Y142185D01*
X130848Y142157D01*
X130886Y142135D01*
X130920Y142113D01*
X130947Y142096D01*
X130964Y142080D01*
X130975Y142074D01*
X130981Y142069D01*
X131036Y142013D01*
X131086Y141952D01*
X131136Y141885D01*
X131175Y141819D01*
X131242Y141686D01*
X131286Y141552D01*
X131303Y141491D01*
X131319Y141430D01*
X131330Y141380D01*
X131342Y141336D01*
X131347Y141297D01*
Y141270D01*
X131353Y141253D01*
Y141247D01*
X130870Y141197D01*
X130859Y141325D01*
X130836Y141436D01*
X130803Y141536D01*
X130764Y141614D01*
X130731Y141680D01*
X130698Y141725D01*
X130675Y141752D01*
X130665Y141763D01*
X130581Y141830D01*
X130492Y141880D01*
X130398Y141919D01*
X130315Y141941D01*
X130237Y141958D01*
X130171Y141963D01*
X130148Y141969D01*
X130115D01*
X129999Y141963D01*
X129893Y141941D01*
X129804Y141908D01*
X129727Y141874D01*
X129666Y141835D01*
X129627Y141808D01*
X129599Y141786D01*
X129588Y141774D01*
X129521Y141697D01*
X129471Y141619D01*
X129432Y141541D01*
X129410Y141464D01*
X129393Y141403D01*
X129388Y141347D01*
X129382Y141314D01*
Y141308D01*
Y141303D01*
X129393Y141203D01*
X129416Y141097D01*
X129455Y141003D01*
X129493Y140914D01*
X129538Y140842D01*
X129577Y140781D01*
X129588Y140759D01*
X129599Y140742D01*
X129610Y140737D01*
Y140731D01*
X129654Y140670D01*
X129710Y140609D01*
X129771Y140542D01*
X129838Y140476D01*
X129976Y140343D01*
X130115Y140209D01*
X130187Y140148D01*
X130248Y140093D01*
X130309Y140043D01*
X130359Y139998D01*
X130398Y139965D01*
X130431Y139937D01*
X130454Y139921D01*
X130459Y139915D01*
X130598Y139799D01*
X130726Y139688D01*
X130831Y139588D01*
X130914Y139505D01*
X130986Y139432D01*
X131036Y139382D01*
X131064Y139349D01*
X131075Y139344D01*
Y139338D01*
X131153Y139244D01*
X131214Y139155D01*
X131269Y139066D01*
X131314Y138988D01*
X131347Y138922D01*
X131369Y138872D01*
X131380Y138839D01*
X131386Y138833D01*
Y138827D01*
X131408Y138766D01*
X131419Y138711D01*
X131430Y138655D01*
X131436Y138605D01*
X131441Y138561D01*
Y138528D01*
Y138505D01*
Y138500D01*
X128894D01*
Y138955D01*
X130787D01*
X130720Y139049D01*
X130687Y139088D01*
X130659Y139127D01*
X130631Y139160D01*
X130609Y139183D01*
X130592Y139199D01*
X130587Y139205D01*
X130559Y139233D01*
X130526Y139260D01*
X130448Y139332D01*
X130359Y139416D01*
X130265Y139499D01*
X130176Y139571D01*
X130137Y139604D01*
X130104Y139638D01*
X130076Y139660D01*
X130054Y139677D01*
X130043Y139688D01*
X130037Y139693D01*
X129948Y139771D01*
X129860Y139843D01*
X129782Y139915D01*
X129710Y139976D01*
X129643Y140037D01*
X129588Y140093D01*
X129532Y140143D01*
X129488Y140187D01*
X129444Y140232D01*
X129410Y140265D01*
X129382Y140293D01*
X129355Y140320D01*
X129327Y140354D01*
X129316Y140365D01*
X129238Y140459D01*
X129172Y140542D01*
X129116Y140626D01*
X129072Y140692D01*
X129038Y140753D01*
X129016Y140798D01*
X129005Y140825D01*
X128999Y140837D01*
X128966Y140920D01*
X128944Y141003D01*
X128922Y141081D01*
X128911Y141147D01*
X128905Y141208D01*
X128900Y141253D01*
Y141280D01*
Y141292D01*
X128905Y141375D01*
X128916Y141453D01*
X128927Y141530D01*
X128949Y141597D01*
X129005Y141730D01*
X129060Y141835D01*
X129094Y141885D01*
X129122Y141924D01*
X129149Y141963D01*
X129177Y141991D01*
X129199Y142013D01*
X129210Y142035D01*
X129221Y142041D01*
X129227Y142046D01*
X129288Y142102D01*
X129355Y142152D01*
X129427Y142191D01*
X129499Y142224D01*
X129643Y142280D01*
X129788Y142318D01*
X129849Y142330D01*
X129910Y142341D01*
X129965Y142346D01*
X130009Y142352D01*
X130048Y142357D01*
X130104D01*
X130204Y142352D01*
D02*
G37*
G36*
X132946Y142263D02*
X133007Y142174D01*
X133079Y142085D01*
X133145Y142008D01*
X133212Y141941D01*
X133262Y141885D01*
X133284Y141869D01*
X133301Y141852D01*
X133306Y141847D01*
X133312Y141841D01*
X133428Y141747D01*
X133545Y141658D01*
X133656Y141580D01*
X133767Y141519D01*
X133861Y141464D01*
X133900Y141442D01*
X133933Y141425D01*
X133961Y141408D01*
X133983Y141403D01*
X133994Y141392D01*
X134000D01*
Y140936D01*
X133917Y140970D01*
X133834Y141009D01*
X133750Y141048D01*
X133673Y141086D01*
X133606Y141120D01*
X133551Y141147D01*
X133517Y141170D01*
X133512Y141175D01*
X133506D01*
X133406Y141236D01*
X133317Y141297D01*
X133240Y141353D01*
X133179Y141403D01*
X133123Y141442D01*
X133090Y141475D01*
X133062Y141497D01*
X133056Y141502D01*
Y138500D01*
X132585D01*
Y142357D01*
X132890D01*
X132946Y142263D01*
D02*
G37*
G36*
X200530Y152917D02*
X200491Y152833D01*
X200452Y152750D01*
X200414Y152673D01*
X200380Y152606D01*
X200353Y152550D01*
X200330Y152517D01*
X200325Y152512D01*
Y152506D01*
X200264Y152406D01*
X200203Y152317D01*
X200147Y152240D01*
X200097Y152179D01*
X200059Y152123D01*
X200025Y152090D01*
X200003Y152062D01*
X199997Y152057D01*
X203000D01*
Y151585D01*
X199143D01*
Y151890D01*
X199237Y151945D01*
X199326Y152006D01*
X199415Y152079D01*
X199492Y152145D01*
X199559Y152212D01*
X199615Y152262D01*
X199631Y152284D01*
X199648Y152301D01*
X199653Y152306D01*
X199659Y152312D01*
X199753Y152428D01*
X199842Y152545D01*
X199920Y152656D01*
X199981Y152767D01*
X200036Y152861D01*
X200059Y152900D01*
X200075Y152933D01*
X200092Y152961D01*
X200097Y152983D01*
X200108Y152995D01*
Y153000D01*
X200564D01*
X200530Y152917D01*
D02*
G37*
G36*
X202073Y150358D02*
X202156Y150342D01*
X202312Y150292D01*
X202445Y150231D01*
X202501Y150197D01*
X202556Y150164D01*
X202606Y150131D01*
X202645Y150097D01*
X202684Y150070D01*
X202711Y150042D01*
X202734Y150025D01*
X202750Y150008D01*
X202761Y149997D01*
X202767Y149992D01*
X202817Y149925D01*
X202867Y149859D01*
X202906Y149792D01*
X202939Y149720D01*
X202994Y149581D01*
X203028Y149448D01*
X203039Y149387D01*
X203050Y149331D01*
X203056Y149282D01*
X203061Y149237D01*
X203067Y149204D01*
Y149154D01*
X203061Y149048D01*
X203050Y148954D01*
X203033Y148860D01*
X203011Y148771D01*
X202983Y148688D01*
X202956Y148616D01*
X202922Y148543D01*
X202889Y148482D01*
X202861Y148421D01*
X202828Y148371D01*
X202800Y148327D01*
X202772Y148294D01*
X202750Y148266D01*
X202734Y148244D01*
X202723Y148232D01*
X202717Y148227D01*
X202650Y148160D01*
X202578Y148105D01*
X202506Y148055D01*
X202434Y148011D01*
X202367Y147977D01*
X202295Y147944D01*
X202162Y147899D01*
X202101Y147888D01*
X202045Y147877D01*
X201995Y147866D01*
X201951Y147861D01*
X201918Y147855D01*
X201890D01*
X201873D01*
X201868D01*
X201735Y147861D01*
X201612Y147883D01*
X201507Y147916D01*
X201418Y147950D01*
X201346Y147983D01*
X201291Y148016D01*
X201257Y148038D01*
X201246Y148044D01*
X201163Y148122D01*
X201091Y148205D01*
X201035Y148294D01*
X200991Y148382D01*
X200958Y148460D01*
X200935Y148521D01*
X200930Y148543D01*
X200924Y148560D01*
X200919Y148571D01*
Y148577D01*
X200869Y148482D01*
X200819Y148405D01*
X200763Y148338D01*
X200713Y148283D01*
X200669Y148238D01*
X200630Y148205D01*
X200608Y148188D01*
X200597Y148183D01*
X200519Y148138D01*
X200442Y148105D01*
X200364Y148077D01*
X200292Y148061D01*
X200231Y148049D01*
X200186Y148044D01*
X200153D01*
X200142D01*
X200047Y148049D01*
X199953Y148066D01*
X199870Y148088D01*
X199798Y148116D01*
X199737Y148144D01*
X199687Y148166D01*
X199659Y148183D01*
X199648Y148188D01*
X199565Y148244D01*
X199492Y148310D01*
X199431Y148377D01*
X199376Y148443D01*
X199337Y148499D01*
X199304Y148549D01*
X199287Y148582D01*
X199282Y148588D01*
Y148593D01*
X199237Y148693D01*
X199204Y148793D01*
X199176Y148893D01*
X199159Y148982D01*
X199148Y149054D01*
X199143Y149115D01*
Y149254D01*
X199154Y149331D01*
X199182Y149481D01*
X199226Y149609D01*
X199270Y149720D01*
X199298Y149770D01*
X199320Y149809D01*
X199343Y149848D01*
X199365Y149875D01*
X199381Y149898D01*
X199392Y149914D01*
X199398Y149925D01*
X199404Y149931D01*
X199509Y150036D01*
X199626Y150120D01*
X199748Y150186D01*
X199870Y150242D01*
X199975Y150275D01*
X200020Y150292D01*
X200059Y150303D01*
X200092Y150308D01*
X200114Y150314D01*
X200131Y150319D01*
X200136D01*
X200219Y149848D01*
X200097Y149825D01*
X199992Y149792D01*
X199903Y149753D01*
X199831Y149714D01*
X199776Y149676D01*
X199737Y149642D01*
X199709Y149620D01*
X199703Y149615D01*
X199648Y149542D01*
X199603Y149465D01*
X199576Y149392D01*
X199553Y149320D01*
X199542Y149254D01*
X199531Y149204D01*
Y149159D01*
X199537Y149059D01*
X199559Y148971D01*
X199587Y148893D01*
X199615Y148826D01*
X199648Y148776D01*
X199676Y148738D01*
X199698Y148710D01*
X199703Y148704D01*
X199770Y148643D01*
X199842Y148599D01*
X199914Y148571D01*
X199981Y148549D01*
X200042Y148538D01*
X200086Y148527D01*
X200120D01*
X200125D01*
X200131D01*
X200192D01*
X200247Y148538D01*
X200342Y148566D01*
X200425Y148604D01*
X200497Y148649D01*
X200547Y148693D01*
X200586Y148732D01*
X200608Y148760D01*
X200613Y148765D01*
Y148771D01*
X200663Y148865D01*
X200702Y148954D01*
X200730Y149048D01*
X200747Y149132D01*
X200758Y149204D01*
X200769Y149265D01*
Y149337D01*
X200763Y149359D01*
Y149387D01*
X201180Y149443D01*
X201163Y149370D01*
X201152Y149304D01*
X201141Y149248D01*
X201135Y149198D01*
X201130Y149159D01*
Y149109D01*
X201141Y148993D01*
X201163Y148887D01*
X201196Y148793D01*
X201235Y148715D01*
X201274Y148654D01*
X201307Y148610D01*
X201329Y148582D01*
X201341Y148571D01*
X201424Y148499D01*
X201513Y148443D01*
X201601Y148405D01*
X201690Y148382D01*
X201762Y148366D01*
X201823Y148360D01*
X201846Y148355D01*
X201862D01*
X201873D01*
X201879D01*
X202001Y148366D01*
X202112Y148393D01*
X202206Y148427D01*
X202290Y148471D01*
X202356Y148516D01*
X202406Y148549D01*
X202439Y148577D01*
X202450Y148588D01*
X202528Y148677D01*
X202584Y148771D01*
X202623Y148865D01*
X202650Y148954D01*
X202667Y149032D01*
X202673Y149093D01*
X202678Y149115D01*
Y149148D01*
X202673Y149248D01*
X202650Y149343D01*
X202623Y149426D01*
X202589Y149492D01*
X202562Y149548D01*
X202534Y149592D01*
X202512Y149615D01*
X202506Y149626D01*
X202428Y149692D01*
X202340Y149748D01*
X202245Y149798D01*
X202145Y149837D01*
X202062Y149864D01*
X202023Y149875D01*
X201990Y149881D01*
X201962Y149886D01*
X201940Y149892D01*
X201929Y149898D01*
X201923D01*
X201984Y150369D01*
X202073Y150358D01*
D02*
G37*
G36*
X200530Y162917D02*
X200491Y162833D01*
X200452Y162750D01*
X200414Y162673D01*
X200380Y162606D01*
X200353Y162550D01*
X200330Y162517D01*
X200325Y162512D01*
Y162506D01*
X200264Y162406D01*
X200203Y162317D01*
X200147Y162240D01*
X200097Y162179D01*
X200059Y162123D01*
X200025Y162090D01*
X200003Y162062D01*
X199997Y162057D01*
X203000D01*
Y161585D01*
X199143D01*
Y161890D01*
X199237Y161945D01*
X199326Y162006D01*
X199415Y162079D01*
X199492Y162145D01*
X199559Y162212D01*
X199615Y162262D01*
X199631Y162284D01*
X199648Y162301D01*
X199653Y162306D01*
X199659Y162312D01*
X199753Y162428D01*
X199842Y162545D01*
X199920Y162656D01*
X199981Y162767D01*
X200036Y162861D01*
X200059Y162900D01*
X200075Y162933D01*
X200092Y162961D01*
X200097Y162983D01*
X200108Y162995D01*
Y163000D01*
X200564D01*
X200530Y162917D01*
D02*
G37*
G36*
X202079Y158865D02*
X203000D01*
Y158394D01*
X202079D01*
Y157872D01*
X201646D01*
Y158394D01*
X199159D01*
Y158776D01*
X201646Y160536D01*
X202079D01*
Y158865D01*
D02*
G37*
G36*
X200530Y172917D02*
X200491Y172834D01*
X200452Y172750D01*
X200414Y172673D01*
X200380Y172606D01*
X200353Y172550D01*
X200330Y172517D01*
X200325Y172512D01*
Y172506D01*
X200264Y172406D01*
X200203Y172317D01*
X200147Y172240D01*
X200097Y172179D01*
X200059Y172123D01*
X200025Y172090D01*
X200003Y172062D01*
X199997Y172056D01*
X203000D01*
Y171585D01*
X199143D01*
Y171890D01*
X199237Y171946D01*
X199326Y172006D01*
X199415Y172079D01*
X199492Y172145D01*
X199559Y172212D01*
X199615Y172262D01*
X199631Y172284D01*
X199648Y172301D01*
X199653Y172306D01*
X199659Y172312D01*
X199753Y172428D01*
X199842Y172545D01*
X199920Y172656D01*
X199981Y172767D01*
X200036Y172861D01*
X200059Y172900D01*
X200075Y172933D01*
X200092Y172961D01*
X200097Y172983D01*
X200108Y172994D01*
Y173000D01*
X200564D01*
X200530Y172917D01*
D02*
G37*
G36*
X202084Y170364D02*
X202168Y170347D01*
X202323Y170297D01*
X202456Y170236D01*
X202517Y170203D01*
X202567Y170169D01*
X202617Y170142D01*
X202661Y170108D01*
X202695Y170081D01*
X202723Y170053D01*
X202745Y170031D01*
X202767Y170020D01*
X202772Y170009D01*
X202778Y170003D01*
X202828Y169936D01*
X202872Y169870D01*
X202911Y169798D01*
X202944Y169726D01*
X202994Y169587D01*
X203028Y169448D01*
X203044Y169387D01*
X203050Y169326D01*
X203056Y169276D01*
X203061Y169231D01*
X203067Y169193D01*
Y169143D01*
X203061Y169026D01*
X203044Y168915D01*
X203022Y168810D01*
X202994Y168715D01*
X202956Y168627D01*
X202917Y168543D01*
X202878Y168466D01*
X202834Y168399D01*
X202789Y168338D01*
X202750Y168282D01*
X202706Y168238D01*
X202673Y168199D01*
X202645Y168172D01*
X202623Y168149D01*
X202606Y168138D01*
X202600Y168133D01*
X202528Y168077D01*
X202450Y168033D01*
X202378Y167988D01*
X202301Y167955D01*
X202151Y167900D01*
X202007Y167866D01*
X201945Y167855D01*
X201884Y167844D01*
X201835Y167839D01*
X201790Y167833D01*
X201751Y167827D01*
X201724D01*
X201707D01*
X201701D01*
X201601Y167833D01*
X201507Y167844D01*
X201413Y167861D01*
X201329Y167883D01*
X201252Y167911D01*
X201174Y167938D01*
X201107Y167972D01*
X201046Y167999D01*
X200991Y168033D01*
X200941Y168066D01*
X200902Y168094D01*
X200863Y168122D01*
X200835Y168144D01*
X200819Y168160D01*
X200808Y168172D01*
X200802Y168177D01*
X200741Y168244D01*
X200686Y168310D01*
X200641Y168382D01*
X200602Y168455D01*
X200564Y168527D01*
X200536Y168599D01*
X200497Y168732D01*
X200480Y168793D01*
X200469Y168849D01*
X200464Y168899D01*
X200458Y168943D01*
X200452Y168976D01*
Y169098D01*
X200464Y169165D01*
X200491Y169298D01*
X200530Y169420D01*
X200575Y169531D01*
X200619Y169620D01*
X200641Y169659D01*
X200658Y169692D01*
X200675Y169720D01*
X200686Y169737D01*
X200691Y169748D01*
X200697Y169753D01*
X199659Y169548D01*
Y168010D01*
X199209D01*
Y169920D01*
X201185Y170292D01*
X201246Y169848D01*
X201185Y169809D01*
X201135Y169759D01*
X201085Y169714D01*
X201046Y169670D01*
X201019Y169626D01*
X200991Y169592D01*
X200980Y169570D01*
X200974Y169565D01*
X200941Y169492D01*
X200913Y169420D01*
X200897Y169354D01*
X200880Y169287D01*
X200874Y169231D01*
X200869Y169187D01*
Y169082D01*
X200880Y169015D01*
X200908Y168899D01*
X200946Y168799D01*
X200985Y168710D01*
X201030Y168643D01*
X201069Y168593D01*
X201096Y168566D01*
X201102Y168554D01*
X201107D01*
X201202Y168477D01*
X201302Y168421D01*
X201407Y168382D01*
X201513Y168355D01*
X201601Y168338D01*
X201640Y168332D01*
X201674D01*
X201701Y168327D01*
X201724D01*
X201735D01*
X201740D01*
X201818D01*
X201890Y168338D01*
X202029Y168366D01*
X202145Y168405D01*
X202240Y168444D01*
X202317Y168488D01*
X202378Y168527D01*
X202395Y168543D01*
X202412Y168554D01*
X202417Y168560D01*
X202423Y168566D01*
X202467Y168610D01*
X202506Y168654D01*
X202573Y168754D01*
X202617Y168849D01*
X202645Y168943D01*
X202667Y169021D01*
X202673Y169087D01*
X202678Y169109D01*
Y169143D01*
X202673Y169248D01*
X202650Y169343D01*
X202623Y169426D01*
X202589Y169492D01*
X202556Y169553D01*
X202528Y169598D01*
X202506Y169620D01*
X202501Y169631D01*
X202423Y169698D01*
X202340Y169753D01*
X202245Y169798D01*
X202162Y169831D01*
X202079Y169853D01*
X202018Y169870D01*
X201990Y169875D01*
X201973Y169881D01*
X201962D01*
X201957D01*
X201995Y170375D01*
X202084Y170364D01*
D02*
G37*
G36*
X200530Y182417D02*
X200491Y182334D01*
X200452Y182250D01*
X200414Y182173D01*
X200380Y182106D01*
X200353Y182051D01*
X200330Y182017D01*
X200325Y182012D01*
Y182006D01*
X200264Y181906D01*
X200203Y181817D01*
X200147Y181740D01*
X200097Y181679D01*
X200059Y181623D01*
X200025Y181590D01*
X200003Y181562D01*
X199997Y181556D01*
X203000D01*
Y181085D01*
X199143D01*
Y181390D01*
X199237Y181446D01*
X199326Y181507D01*
X199415Y181579D01*
X199492Y181645D01*
X199559Y181712D01*
X199615Y181762D01*
X199631Y181784D01*
X199648Y181801D01*
X199653Y181806D01*
X199659Y181812D01*
X199753Y181928D01*
X199842Y182045D01*
X199920Y182156D01*
X199981Y182267D01*
X200036Y182361D01*
X200059Y182400D01*
X200075Y182433D01*
X200092Y182461D01*
X200097Y182483D01*
X200108Y182494D01*
Y182500D01*
X200564D01*
X200530Y182417D01*
D02*
G37*
G36*
X201385Y179892D02*
X201551Y179880D01*
X201707Y179864D01*
X201851Y179836D01*
X201979Y179808D01*
X202095Y179780D01*
X202201Y179747D01*
X202295Y179708D01*
X202373Y179675D01*
X202445Y179642D01*
X202501Y179614D01*
X202551Y179581D01*
X202589Y179559D01*
X202611Y179542D01*
X202628Y179531D01*
X202634Y179525D01*
X202711Y179453D01*
X202778Y179375D01*
X202834Y179298D01*
X202883Y179220D01*
X202928Y179137D01*
X202961Y179059D01*
X202989Y178981D01*
X203011Y178904D01*
X203028Y178837D01*
X203044Y178770D01*
X203056Y178715D01*
X203061Y178665D01*
Y178621D01*
X203067Y178593D01*
Y178565D01*
X203061Y178437D01*
X203039Y178321D01*
X203017Y178215D01*
X202983Y178121D01*
X202956Y178049D01*
X202928Y177993D01*
X202922Y177971D01*
X202911Y177954D01*
X202906Y177949D01*
Y177944D01*
X202839Y177849D01*
X202761Y177760D01*
X202684Y177688D01*
X202606Y177627D01*
X202534Y177577D01*
X202478Y177544D01*
X202456Y177533D01*
X202439Y177522D01*
X202434Y177516D01*
X202428D01*
X202312Y177461D01*
X202190Y177422D01*
X202079Y177394D01*
X201973Y177377D01*
X201884Y177361D01*
X201851D01*
X201818Y177355D01*
X201790D01*
X201774D01*
X201762D01*
X201757D01*
X201657Y177361D01*
X201563Y177372D01*
X201468Y177388D01*
X201385Y177405D01*
X201307Y177433D01*
X201230Y177461D01*
X201163Y177488D01*
X201102Y177522D01*
X201046Y177555D01*
X200996Y177583D01*
X200958Y177610D01*
X200919Y177638D01*
X200891Y177655D01*
X200874Y177672D01*
X200863Y177683D01*
X200858Y177688D01*
X200797Y177749D01*
X200741Y177816D01*
X200697Y177888D01*
X200658Y177954D01*
X200619Y178021D01*
X200591Y178088D01*
X200552Y178215D01*
X200536Y178271D01*
X200525Y178326D01*
X200519Y178371D01*
X200514Y178415D01*
X200508Y178448D01*
Y178493D01*
X200514Y178593D01*
X200530Y178687D01*
X200547Y178776D01*
X200569Y178854D01*
X200597Y178920D01*
X200613Y178970D01*
X200630Y179004D01*
X200636Y179009D01*
Y179015D01*
X200691Y179103D01*
X200752Y179181D01*
X200813Y179253D01*
X200880Y179309D01*
X200935Y179359D01*
X200980Y179398D01*
X201013Y179420D01*
X201019Y179425D01*
X200919D01*
X200819Y179420D01*
X200730Y179414D01*
X200641Y179403D01*
X200564Y179398D01*
X200491Y179386D01*
X200425Y179375D01*
X200364Y179359D01*
X200308Y179348D01*
X200264Y179337D01*
X200225Y179325D01*
X200192Y179320D01*
X200169Y179309D01*
X200153Y179303D01*
X200142Y179298D01*
X200136D01*
X200025Y179242D01*
X199925Y179187D01*
X199848Y179126D01*
X199781Y179070D01*
X199725Y179020D01*
X199687Y178981D01*
X199664Y178954D01*
X199659Y178943D01*
X199615Y178876D01*
X199587Y178809D01*
X199565Y178743D01*
X199548Y178676D01*
X199537Y178626D01*
X199531Y178582D01*
Y178543D01*
X199542Y178443D01*
X199565Y178349D01*
X199598Y178271D01*
X199631Y178199D01*
X199670Y178143D01*
X199703Y178104D01*
X199725Y178082D01*
X199737Y178071D01*
X199787Y178032D01*
X199848Y177993D01*
X199914Y177960D01*
X199981Y177938D01*
X200042Y177916D01*
X200092Y177899D01*
X200125Y177893D01*
X200131Y177888D01*
X200136D01*
X200097Y177416D01*
X199942Y177450D01*
X199803Y177499D01*
X199681Y177555D01*
X199581Y177616D01*
X199504Y177677D01*
X199470Y177699D01*
X199443Y177727D01*
X199426Y177744D01*
X199409Y177760D01*
X199404Y177766D01*
X199398Y177771D01*
X199354Y177827D01*
X199315Y177888D01*
X199248Y178010D01*
X199204Y178132D01*
X199176Y178249D01*
X199154Y178354D01*
X199148Y178399D01*
Y178437D01*
X199143Y178471D01*
Y178515D01*
X199148Y178626D01*
X199159Y178732D01*
X199182Y178831D01*
X199209Y178926D01*
X199248Y179009D01*
X199282Y179092D01*
X199326Y179165D01*
X199365Y179231D01*
X199404Y179287D01*
X199448Y179342D01*
X199481Y179386D01*
X199515Y179420D01*
X199548Y179447D01*
X199570Y179470D01*
X199581Y179481D01*
X199587Y179486D01*
X199687Y179559D01*
X199803Y179620D01*
X199925Y179675D01*
X200053Y179725D01*
X200186Y179764D01*
X200319Y179797D01*
X200458Y179825D01*
X200586Y179847D01*
X200713Y179864D01*
X200830Y179875D01*
X200935Y179886D01*
X201024Y179892D01*
X201102D01*
X201157Y179897D01*
X201180D01*
X201196D01*
X201202D01*
X201207D01*
X201385Y179892D01*
D02*
G37*
G36*
X200530Y192917D02*
X200491Y192833D01*
X200452Y192750D01*
X200414Y192673D01*
X200380Y192606D01*
X200353Y192551D01*
X200330Y192517D01*
X200325Y192512D01*
Y192506D01*
X200264Y192406D01*
X200203Y192317D01*
X200147Y192240D01*
X200097Y192179D01*
X200059Y192123D01*
X200025Y192090D01*
X200003Y192062D01*
X199997Y192057D01*
X203000D01*
Y191585D01*
X199143D01*
Y191890D01*
X199237Y191946D01*
X199326Y192007D01*
X199415Y192079D01*
X199492Y192145D01*
X199559Y192212D01*
X199615Y192262D01*
X199631Y192284D01*
X199648Y192301D01*
X199653Y192306D01*
X199659Y192312D01*
X199753Y192428D01*
X199842Y192545D01*
X199920Y192656D01*
X199981Y192767D01*
X200036Y192861D01*
X200059Y192900D01*
X200075Y192933D01*
X200092Y192961D01*
X200097Y192983D01*
X200108Y192994D01*
Y193000D01*
X200564D01*
X200530Y192917D01*
D02*
G37*
G36*
X199664Y188460D02*
X199825Y188593D01*
X199997Y188721D01*
X200164Y188832D01*
X200325Y188937D01*
X200397Y188982D01*
X200464Y189021D01*
X200525Y189059D01*
X200575Y189087D01*
X200619Y189109D01*
X200647Y189126D01*
X200669Y189137D01*
X200675Y189143D01*
X200897Y189254D01*
X201119Y189354D01*
X201329Y189437D01*
X201424Y189470D01*
X201518Y189504D01*
X201601Y189537D01*
X201679Y189559D01*
X201746Y189581D01*
X201801Y189598D01*
X201851Y189614D01*
X201884Y189626D01*
X201907Y189631D01*
X201912D01*
X202140Y189687D01*
X202251Y189709D01*
X202351Y189725D01*
X202445Y189742D01*
X202539Y189759D01*
X202617Y189770D01*
X202695Y189781D01*
X202761Y189787D01*
X202822Y189792D01*
X202878Y189798D01*
X202922D01*
X202956Y189803D01*
X202978D01*
X202994D01*
X203000D01*
Y189320D01*
X202789Y189304D01*
X202595Y189276D01*
X202417Y189248D01*
X202334Y189232D01*
X202256Y189215D01*
X202190Y189204D01*
X202129Y189187D01*
X202073Y189176D01*
X202029Y189165D01*
X201995Y189154D01*
X201968Y189148D01*
X201951Y189143D01*
X201945D01*
X201690Y189059D01*
X201451Y188971D01*
X201335Y188926D01*
X201224Y188882D01*
X201124Y188832D01*
X201024Y188788D01*
X200935Y188749D01*
X200858Y188710D01*
X200791Y188677D01*
X200730Y188649D01*
X200680Y188621D01*
X200647Y188604D01*
X200625Y188593D01*
X200619Y188588D01*
X200502Y188521D01*
X200386Y188454D01*
X200280Y188388D01*
X200181Y188321D01*
X200092Y188260D01*
X200003Y188199D01*
X199925Y188138D01*
X199859Y188088D01*
X199792Y188038D01*
X199737Y187994D01*
X199692Y187950D01*
X199653Y187916D01*
X199620Y187894D01*
X199598Y187872D01*
X199587Y187861D01*
X199581Y187855D01*
X199209D01*
Y190342D01*
X199664D01*
Y188460D01*
D02*
G37*
G36*
X200530Y202917D02*
X200491Y202834D01*
X200452Y202750D01*
X200414Y202673D01*
X200380Y202606D01*
X200353Y202551D01*
X200330Y202517D01*
X200325Y202512D01*
Y202506D01*
X200264Y202406D01*
X200203Y202317D01*
X200147Y202240D01*
X200097Y202179D01*
X200059Y202123D01*
X200025Y202090D01*
X200003Y202062D01*
X199997Y202057D01*
X203000D01*
Y201585D01*
X199143D01*
Y201890D01*
X199237Y201945D01*
X199326Y202007D01*
X199415Y202079D01*
X199492Y202145D01*
X199559Y202212D01*
X199615Y202262D01*
X199631Y202284D01*
X199648Y202301D01*
X199653Y202306D01*
X199659Y202312D01*
X199753Y202428D01*
X199842Y202545D01*
X199920Y202656D01*
X199981Y202767D01*
X200036Y202861D01*
X200059Y202900D01*
X200075Y202933D01*
X200092Y202961D01*
X200097Y202983D01*
X200108Y202994D01*
Y203000D01*
X200564D01*
X200530Y202917D01*
D02*
G37*
G36*
X201984Y200375D02*
X202073Y200364D01*
X202156Y200347D01*
X202240Y200325D01*
X202378Y200269D01*
X202445Y200242D01*
X202501Y200208D01*
X202556Y200175D01*
X202600Y200147D01*
X202639Y200114D01*
X202673Y200092D01*
X202700Y200070D01*
X202717Y200053D01*
X202728Y200042D01*
X202734Y200036D01*
X202795Y199970D01*
X202845Y199898D01*
X202889Y199820D01*
X202928Y199742D01*
X202956Y199670D01*
X202983Y199592D01*
X203022Y199443D01*
X203039Y199376D01*
X203050Y199315D01*
X203056Y199259D01*
X203061Y199209D01*
X203067Y199170D01*
Y199115D01*
X203061Y199010D01*
X203050Y198915D01*
X203033Y198821D01*
X203017Y198732D01*
X202989Y198654D01*
X202961Y198577D01*
X202933Y198504D01*
X202900Y198443D01*
X202867Y198388D01*
X202839Y198338D01*
X202811Y198299D01*
X202783Y198260D01*
X202767Y198232D01*
X202750Y198216D01*
X202739Y198205D01*
X202734Y198199D01*
X202667Y198138D01*
X202600Y198083D01*
X202534Y198038D01*
X202462Y198000D01*
X202395Y197961D01*
X202323Y197933D01*
X202195Y197894D01*
X202134Y197877D01*
X202079Y197866D01*
X202029Y197861D01*
X201990Y197855D01*
X201957Y197850D01*
X201929D01*
X201912D01*
X201907D01*
X201779Y197855D01*
X201662Y197877D01*
X201557Y197911D01*
X201468Y197944D01*
X201396Y197977D01*
X201341Y198011D01*
X201307Y198033D01*
X201302Y198038D01*
X201296D01*
X201207Y198116D01*
X201130Y198199D01*
X201069Y198288D01*
X201013Y198371D01*
X200974Y198449D01*
X200946Y198516D01*
X200935Y198538D01*
X200930Y198554D01*
X200924Y198566D01*
Y198571D01*
X200880Y198471D01*
X200830Y198388D01*
X200780Y198316D01*
X200730Y198255D01*
X200686Y198210D01*
X200652Y198177D01*
X200630Y198155D01*
X200619Y198149D01*
X200541Y198099D01*
X200464Y198066D01*
X200386Y198038D01*
X200308Y198022D01*
X200247Y198011D01*
X200197Y198005D01*
X200164D01*
X200158D01*
X200153D01*
X200075Y198011D01*
X200003Y198016D01*
X199864Y198055D01*
X199742Y198105D01*
X199637Y198160D01*
X199553Y198216D01*
X199520Y198244D01*
X199487Y198266D01*
X199465Y198288D01*
X199448Y198305D01*
X199443Y198310D01*
X199437Y198316D01*
X199387Y198377D01*
X199337Y198438D01*
X199298Y198504D01*
X199265Y198571D01*
X199215Y198704D01*
X199182Y198837D01*
X199165Y198893D01*
X199159Y198949D01*
X199154Y198998D01*
X199148Y199043D01*
X199143Y199076D01*
Y199126D01*
X199148Y199215D01*
X199154Y199304D01*
X199187Y199459D01*
X199209Y199531D01*
X199232Y199598D01*
X199259Y199659D01*
X199287Y199714D01*
X199315Y199759D01*
X199343Y199803D01*
X199365Y199842D01*
X199387Y199870D01*
X199404Y199892D01*
X199420Y199909D01*
X199426Y199920D01*
X199431Y199925D01*
X199487Y199975D01*
X199542Y200025D01*
X199603Y200064D01*
X199664Y200097D01*
X199781Y200153D01*
X199892Y200186D01*
X199986Y200208D01*
X200031Y200214D01*
X200064Y200219D01*
X200097Y200225D01*
X200120D01*
X200131D01*
X200136D01*
X200236Y200219D01*
X200330Y200203D01*
X200414Y200181D01*
X200486Y200153D01*
X200541Y200131D01*
X200586Y200108D01*
X200608Y200092D01*
X200619Y200086D01*
X200686Y200025D01*
X200747Y199959D01*
X200802Y199886D01*
X200847Y199814D01*
X200880Y199748D01*
X200902Y199698D01*
X200913Y199676D01*
X200919Y199659D01*
X200924Y199653D01*
Y199648D01*
X200963Y199776D01*
X201013Y199881D01*
X201074Y199975D01*
X201130Y200053D01*
X201185Y200114D01*
X201230Y200158D01*
X201257Y200181D01*
X201263Y200192D01*
X201268D01*
X201368Y200253D01*
X201474Y200303D01*
X201574Y200336D01*
X201674Y200358D01*
X201762Y200369D01*
X201801Y200375D01*
X201835D01*
X201857Y200380D01*
X201879D01*
X201890D01*
X201896D01*
X201984Y200375D01*
D02*
G37*
G36*
X200530Y213417D02*
X200491Y213334D01*
X200452Y213250D01*
X200414Y213173D01*
X200380Y213106D01*
X200353Y213051D01*
X200330Y213017D01*
X200325Y213012D01*
Y213006D01*
X200264Y212906D01*
X200203Y212817D01*
X200147Y212740D01*
X200097Y212679D01*
X200059Y212623D01*
X200025Y212590D01*
X200003Y212562D01*
X199997Y212557D01*
X203000D01*
Y212085D01*
X199143D01*
Y212390D01*
X199237Y212445D01*
X199326Y212507D01*
X199415Y212579D01*
X199492Y212645D01*
X199559Y212712D01*
X199615Y212762D01*
X199631Y212784D01*
X199648Y212801D01*
X199653Y212806D01*
X199659Y212812D01*
X199753Y212928D01*
X199842Y213045D01*
X199920Y213156D01*
X199981Y213267D01*
X200036Y213361D01*
X200059Y213400D01*
X200075Y213433D01*
X200092Y213461D01*
X200097Y213483D01*
X200108Y213494D01*
Y213500D01*
X200564D01*
X200530Y213417D01*
D02*
G37*
G36*
X200547Y210869D02*
X200641Y210858D01*
X200736Y210847D01*
X200824Y210825D01*
X200902Y210797D01*
X200980Y210769D01*
X201046Y210742D01*
X201107Y210708D01*
X201163Y210681D01*
X201213Y210653D01*
X201252Y210625D01*
X201291Y210597D01*
X201318Y210575D01*
X201335Y210564D01*
X201346Y210553D01*
X201352Y210547D01*
X201413Y210486D01*
X201463Y210420D01*
X201513Y210353D01*
X201551Y210281D01*
X201585Y210214D01*
X201612Y210148D01*
X201651Y210020D01*
X201668Y209965D01*
X201679Y209909D01*
X201685Y209865D01*
X201690Y209820D01*
X201696Y209787D01*
Y209743D01*
X201690Y209637D01*
X201674Y209537D01*
X201651Y209449D01*
X201624Y209365D01*
X201601Y209304D01*
X201579Y209254D01*
X201563Y209221D01*
X201557Y209210D01*
X201501Y209121D01*
X201441Y209043D01*
X201379Y208977D01*
X201324Y208921D01*
X201268Y208882D01*
X201230Y208849D01*
X201202Y208827D01*
X201191Y208821D01*
X201235D01*
X201263D01*
X201279D01*
X201285D01*
X201396Y208827D01*
X201501Y208833D01*
X201596Y208844D01*
X201685Y208855D01*
X201757Y208871D01*
X201812Y208882D01*
X201835Y208888D01*
X201851D01*
X201857Y208893D01*
X201862D01*
X201962Y208921D01*
X202051Y208949D01*
X202129Y208977D01*
X202195Y209004D01*
X202245Y209027D01*
X202284Y209049D01*
X202312Y209060D01*
X202317Y209066D01*
X202378Y209110D01*
X202428Y209154D01*
X202473Y209199D01*
X202512Y209243D01*
X202545Y209277D01*
X202567Y209310D01*
X202578Y209332D01*
X202584Y209337D01*
X202617Y209399D01*
X202639Y209465D01*
X202656Y209526D01*
X202667Y209587D01*
X202673Y209637D01*
X202678Y209676D01*
Y209715D01*
X202673Y209804D01*
X202656Y209887D01*
X202634Y209959D01*
X202606Y210020D01*
X202584Y210065D01*
X202562Y210103D01*
X202545Y210126D01*
X202539Y210131D01*
X202478Y210187D01*
X202406Y210231D01*
X202328Y210270D01*
X202251Y210298D01*
X202184Y210320D01*
X202123Y210336D01*
X202101Y210342D01*
X202090D01*
X202079Y210348D01*
X202073D01*
X202112Y210803D01*
X202273Y210769D01*
X202412Y210725D01*
X202534Y210669D01*
X202634Y210614D01*
X202711Y210559D01*
X202745Y210531D01*
X202772Y210509D01*
X202789Y210492D01*
X202806Y210475D01*
X202811Y210470D01*
X202817Y210464D01*
X202861Y210409D01*
X202900Y210348D01*
X202961Y210226D01*
X203006Y210103D01*
X203033Y209987D01*
X203056Y209881D01*
X203061Y209837D01*
Y209798D01*
X203067Y209770D01*
Y209726D01*
X203056Y209571D01*
X203033Y209432D01*
X202994Y209304D01*
X202950Y209199D01*
X202933Y209154D01*
X202911Y209110D01*
X202889Y209077D01*
X202872Y209043D01*
X202861Y209021D01*
X202850Y209004D01*
X202839Y208993D01*
Y208988D01*
X202745Y208877D01*
X202639Y208777D01*
X202528Y208699D01*
X202423Y208633D01*
X202328Y208577D01*
X202284Y208555D01*
X202251Y208538D01*
X202218Y208527D01*
X202195Y208516D01*
X202184Y208511D01*
X202179D01*
X202095Y208483D01*
X202001Y208455D01*
X201812Y208416D01*
X201612Y208388D01*
X201424Y208372D01*
X201341Y208361D01*
X201257Y208355D01*
X201185D01*
X201124Y208350D01*
X201074D01*
X201035D01*
X201008D01*
X201002D01*
X200874D01*
X200752Y208355D01*
X200641Y208366D01*
X200536Y208377D01*
X200442Y208388D01*
X200353Y208400D01*
X200269Y208416D01*
X200197Y208433D01*
X200136Y208450D01*
X200081Y208461D01*
X200031Y208477D01*
X199992Y208488D01*
X199964Y208499D01*
X199942Y208511D01*
X199931Y208516D01*
X199925D01*
X199792Y208583D01*
X199676Y208655D01*
X199576Y208738D01*
X199492Y208810D01*
X199431Y208882D01*
X199387Y208938D01*
X199370Y208960D01*
X199359Y208977D01*
X199348Y208982D01*
Y208988D01*
X199282Y209104D01*
X199232Y209221D01*
X199193Y209337D01*
X199170Y209443D01*
X199154Y209537D01*
X199148Y209576D01*
Y209604D01*
X199143Y209632D01*
Y209670D01*
X199148Y209765D01*
X199159Y209854D01*
X199176Y209943D01*
X199198Y210020D01*
X199259Y210170D01*
X199287Y210237D01*
X199320Y210292D01*
X199359Y210348D01*
X199387Y210392D01*
X199420Y210436D01*
X199448Y210470D01*
X199470Y210497D01*
X199487Y210514D01*
X199498Y210525D01*
X199504Y210531D01*
X199570Y210592D01*
X199648Y210642D01*
X199720Y210692D01*
X199798Y210731D01*
X199881Y210764D01*
X199959Y210792D01*
X200103Y210830D01*
X200175Y210847D01*
X200236Y210858D01*
X200297Y210864D01*
X200347Y210869D01*
X200386Y210875D01*
X200414D01*
X200436D01*
X200442D01*
X200547Y210869D01*
D02*
G37*
G36*
X203000Y219947D02*
X202545D01*
Y221840D01*
X202450Y221773D01*
X202412Y221740D01*
X202373Y221712D01*
X202340Y221684D01*
X202317Y221662D01*
X202301Y221645D01*
X202295Y221640D01*
X202267Y221612D01*
X202240Y221579D01*
X202168Y221501D01*
X202084Y221412D01*
X202001Y221318D01*
X201929Y221229D01*
X201896Y221190D01*
X201862Y221157D01*
X201840Y221129D01*
X201823Y221107D01*
X201812Y221096D01*
X201807Y221090D01*
X201729Y221002D01*
X201657Y220913D01*
X201585Y220835D01*
X201524Y220763D01*
X201463Y220696D01*
X201407Y220641D01*
X201357Y220585D01*
X201313Y220541D01*
X201268Y220497D01*
X201235Y220463D01*
X201207Y220435D01*
X201180Y220408D01*
X201146Y220380D01*
X201135Y220369D01*
X201041Y220291D01*
X200958Y220224D01*
X200874Y220169D01*
X200808Y220125D01*
X200747Y220091D01*
X200702Y220069D01*
X200675Y220058D01*
X200663Y220052D01*
X200580Y220019D01*
X200497Y219997D01*
X200419Y219975D01*
X200353Y219964D01*
X200292Y219958D01*
X200247Y219953D01*
X200219D01*
X200208D01*
X200125Y219958D01*
X200047Y219969D01*
X199970Y219980D01*
X199903Y220003D01*
X199770Y220058D01*
X199664Y220113D01*
X199615Y220147D01*
X199576Y220175D01*
X199537Y220202D01*
X199509Y220230D01*
X199487Y220252D01*
X199465Y220263D01*
X199459Y220274D01*
X199453Y220280D01*
X199398Y220341D01*
X199348Y220408D01*
X199309Y220480D01*
X199276Y220552D01*
X199221Y220696D01*
X199182Y220841D01*
X199170Y220902D01*
X199159Y220963D01*
X199154Y221018D01*
X199148Y221063D01*
X199143Y221101D01*
Y221157D01*
X199148Y221257D01*
X199154Y221351D01*
X199170Y221440D01*
X199187Y221523D01*
X199209Y221601D01*
X199232Y221673D01*
X199259Y221740D01*
X199287Y221801D01*
X199315Y221856D01*
X199343Y221901D01*
X199365Y221939D01*
X199387Y221973D01*
X199404Y222001D01*
X199420Y222017D01*
X199426Y222028D01*
X199431Y222034D01*
X199487Y222089D01*
X199548Y222139D01*
X199615Y222189D01*
X199681Y222228D01*
X199814Y222295D01*
X199948Y222339D01*
X200009Y222356D01*
X200070Y222372D01*
X200120Y222383D01*
X200164Y222394D01*
X200203Y222400D01*
X200231D01*
X200247Y222406D01*
X200253D01*
X200303Y221923D01*
X200175Y221912D01*
X200064Y221889D01*
X199964Y221856D01*
X199886Y221817D01*
X199820Y221784D01*
X199776Y221751D01*
X199748Y221728D01*
X199737Y221718D01*
X199670Y221634D01*
X199620Y221545D01*
X199581Y221451D01*
X199559Y221368D01*
X199542Y221290D01*
X199537Y221223D01*
X199531Y221201D01*
Y221168D01*
X199537Y221052D01*
X199559Y220946D01*
X199592Y220857D01*
X199626Y220779D01*
X199664Y220718D01*
X199692Y220680D01*
X199714Y220652D01*
X199725Y220641D01*
X199803Y220574D01*
X199881Y220524D01*
X199959Y220485D01*
X200036Y220463D01*
X200097Y220446D01*
X200153Y220441D01*
X200186Y220435D01*
X200192D01*
X200197D01*
X200297Y220446D01*
X200403Y220469D01*
X200497Y220508D01*
X200586Y220546D01*
X200658Y220591D01*
X200719Y220630D01*
X200741Y220641D01*
X200758Y220652D01*
X200763Y220663D01*
X200769D01*
X200830Y220707D01*
X200891Y220763D01*
X200958Y220824D01*
X201024Y220890D01*
X201157Y221029D01*
X201291Y221168D01*
X201352Y221240D01*
X201407Y221301D01*
X201457Y221362D01*
X201501Y221412D01*
X201535Y221451D01*
X201563Y221484D01*
X201579Y221507D01*
X201585Y221512D01*
X201701Y221651D01*
X201812Y221778D01*
X201912Y221884D01*
X201995Y221967D01*
X202068Y222039D01*
X202118Y222089D01*
X202151Y222117D01*
X202156Y222128D01*
X202162D01*
X202256Y222206D01*
X202345Y222267D01*
X202434Y222322D01*
X202512Y222367D01*
X202578Y222400D01*
X202628Y222422D01*
X202661Y222433D01*
X202667Y222439D01*
X202673D01*
X202734Y222461D01*
X202789Y222472D01*
X202845Y222483D01*
X202895Y222489D01*
X202939Y222495D01*
X202972D01*
X202994D01*
X203000D01*
Y219947D01*
D02*
G37*
G36*
X201302Y219436D02*
X201485Y219425D01*
X201651Y219409D01*
X201807Y219381D01*
X201951Y219353D01*
X202079Y219320D01*
X202195Y219286D01*
X202295Y219253D01*
X202384Y219220D01*
X202462Y219181D01*
X202528Y219153D01*
X202578Y219126D01*
X202623Y219098D01*
X202650Y219081D01*
X202667Y219070D01*
X202673Y219065D01*
X202739Y219004D01*
X202800Y218937D01*
X202856Y218865D01*
X202900Y218793D01*
X202939Y218720D01*
X202972Y218648D01*
X202994Y218576D01*
X203017Y218510D01*
X203033Y218443D01*
X203044Y218382D01*
X203056Y218326D01*
X203061Y218282D01*
X203067Y218243D01*
Y218188D01*
X203056Y218038D01*
X203033Y217899D01*
X202994Y217782D01*
X202956Y217683D01*
X202917Y217599D01*
X202895Y217572D01*
X202878Y217544D01*
X202867Y217522D01*
X202856Y217505D01*
X202845Y217499D01*
Y217494D01*
X202750Y217394D01*
X202650Y217311D01*
X202539Y217239D01*
X202439Y217183D01*
X202345Y217139D01*
X202306Y217116D01*
X202267Y217105D01*
X202240Y217094D01*
X202218Y217083D01*
X202206Y217078D01*
X202201D01*
X202118Y217050D01*
X202034Y217028D01*
X201857Y216994D01*
X201674Y216967D01*
X201496Y216950D01*
X201418Y216945D01*
X201346Y216939D01*
X201279D01*
X201219Y216933D01*
X201174D01*
X201135D01*
X201113D01*
X201107D01*
X201002D01*
X200902Y216939D01*
X200813D01*
X200725Y216945D01*
X200647Y216955D01*
X200569Y216961D01*
X200502Y216967D01*
X200442Y216978D01*
X200386Y216983D01*
X200336Y216994D01*
X200297Y217000D01*
X200264Y217005D01*
X200236Y217011D01*
X200219Y217017D01*
X200208Y217022D01*
X200203D01*
X200081Y217056D01*
X199970Y217094D01*
X199875Y217139D01*
X199792Y217172D01*
X199720Y217211D01*
X199670Y217233D01*
X199642Y217255D01*
X199631Y217261D01*
X199548Y217322D01*
X199476Y217383D01*
X199415Y217449D01*
X199359Y217511D01*
X199320Y217566D01*
X199293Y217610D01*
X199276Y217638D01*
X199270Y217644D01*
Y217649D01*
X199226Y217738D01*
X199198Y217832D01*
X199176Y217921D01*
X199159Y218004D01*
X199148Y218077D01*
X199143Y218138D01*
Y218188D01*
X199154Y218337D01*
X199176Y218476D01*
X199215Y218593D01*
X199254Y218693D01*
X199298Y218776D01*
X199315Y218809D01*
X199337Y218837D01*
X199348Y218859D01*
X199359Y218876D01*
X199370Y218881D01*
Y218887D01*
X199459Y218987D01*
X199565Y219070D01*
X199670Y219142D01*
X199770Y219198D01*
X199864Y219242D01*
X199903Y219264D01*
X199942Y219275D01*
X199970Y219286D01*
X199992Y219298D01*
X200003Y219303D01*
X200009D01*
X200092Y219325D01*
X200175Y219348D01*
X200358Y219381D01*
X200541Y219409D01*
X200713Y219425D01*
X200797Y219431D01*
X200869Y219436D01*
X200935D01*
X200996Y219442D01*
X201041D01*
X201080D01*
X201102D01*
X201107D01*
X201302Y219436D01*
D02*
G37*
G36*
X203000Y229947D02*
X202545D01*
Y231840D01*
X202450Y231773D01*
X202412Y231740D01*
X202373Y231712D01*
X202340Y231684D01*
X202317Y231662D01*
X202301Y231645D01*
X202295Y231640D01*
X202267Y231612D01*
X202240Y231579D01*
X202168Y231501D01*
X202084Y231412D01*
X202001Y231318D01*
X201929Y231229D01*
X201896Y231190D01*
X201862Y231157D01*
X201840Y231129D01*
X201823Y231107D01*
X201812Y231096D01*
X201807Y231090D01*
X201729Y231001D01*
X201657Y230913D01*
X201585Y230835D01*
X201524Y230763D01*
X201463Y230696D01*
X201407Y230641D01*
X201357Y230585D01*
X201313Y230541D01*
X201268Y230497D01*
X201235Y230463D01*
X201207Y230435D01*
X201180Y230408D01*
X201146Y230380D01*
X201135Y230369D01*
X201041Y230291D01*
X200958Y230224D01*
X200874Y230169D01*
X200808Y230125D01*
X200747Y230091D01*
X200702Y230069D01*
X200675Y230058D01*
X200663Y230052D01*
X200580Y230019D01*
X200497Y229997D01*
X200419Y229975D01*
X200353Y229964D01*
X200292Y229958D01*
X200247Y229953D01*
X200219D01*
X200208D01*
X200125Y229958D01*
X200047Y229969D01*
X199970Y229980D01*
X199903Y230002D01*
X199770Y230058D01*
X199664Y230114D01*
X199615Y230147D01*
X199576Y230174D01*
X199537Y230202D01*
X199509Y230230D01*
X199487Y230252D01*
X199465Y230263D01*
X199459Y230274D01*
X199453Y230280D01*
X199398Y230341D01*
X199348Y230408D01*
X199309Y230480D01*
X199276Y230552D01*
X199221Y230696D01*
X199182Y230840D01*
X199170Y230902D01*
X199159Y230963D01*
X199154Y231018D01*
X199148Y231063D01*
X199143Y231101D01*
Y231157D01*
X199148Y231257D01*
X199154Y231351D01*
X199170Y231440D01*
X199187Y231523D01*
X199209Y231601D01*
X199232Y231673D01*
X199259Y231740D01*
X199287Y231801D01*
X199315Y231856D01*
X199343Y231901D01*
X199365Y231939D01*
X199387Y231973D01*
X199404Y232000D01*
X199420Y232017D01*
X199426Y232028D01*
X199431Y232034D01*
X199487Y232089D01*
X199548Y232139D01*
X199615Y232189D01*
X199681Y232228D01*
X199814Y232295D01*
X199948Y232339D01*
X200009Y232356D01*
X200070Y232372D01*
X200120Y232383D01*
X200164Y232395D01*
X200203Y232400D01*
X200231D01*
X200247Y232406D01*
X200253D01*
X200303Y231923D01*
X200175Y231912D01*
X200064Y231890D01*
X199964Y231856D01*
X199886Y231817D01*
X199820Y231784D01*
X199776Y231751D01*
X199748Y231729D01*
X199737Y231717D01*
X199670Y231634D01*
X199620Y231545D01*
X199581Y231451D01*
X199559Y231368D01*
X199542Y231290D01*
X199537Y231224D01*
X199531Y231201D01*
Y231168D01*
X199537Y231051D01*
X199559Y230946D01*
X199592Y230857D01*
X199626Y230780D01*
X199664Y230718D01*
X199692Y230680D01*
X199714Y230652D01*
X199725Y230641D01*
X199803Y230574D01*
X199881Y230524D01*
X199959Y230485D01*
X200036Y230463D01*
X200097Y230447D01*
X200153Y230441D01*
X200186Y230435D01*
X200192D01*
X200197D01*
X200297Y230447D01*
X200403Y230469D01*
X200497Y230507D01*
X200586Y230546D01*
X200658Y230591D01*
X200719Y230630D01*
X200741Y230641D01*
X200758Y230652D01*
X200763Y230663D01*
X200769D01*
X200830Y230707D01*
X200891Y230763D01*
X200958Y230824D01*
X201024Y230890D01*
X201157Y231029D01*
X201291Y231168D01*
X201352Y231240D01*
X201407Y231301D01*
X201457Y231362D01*
X201501Y231412D01*
X201535Y231451D01*
X201563Y231484D01*
X201579Y231507D01*
X201585Y231512D01*
X201701Y231651D01*
X201812Y231779D01*
X201912Y231884D01*
X201995Y231967D01*
X202068Y232039D01*
X202118Y232089D01*
X202151Y232117D01*
X202156Y232128D01*
X202162D01*
X202256Y232206D01*
X202345Y232267D01*
X202434Y232322D01*
X202512Y232367D01*
X202578Y232400D01*
X202628Y232422D01*
X202661Y232433D01*
X202667Y232439D01*
X202673D01*
X202734Y232461D01*
X202789Y232472D01*
X202845Y232483D01*
X202895Y232489D01*
X202939Y232494D01*
X202972D01*
X202994D01*
X203000D01*
Y229947D01*
D02*
G37*
G36*
X200530Y228998D02*
X200491Y228915D01*
X200452Y228831D01*
X200414Y228754D01*
X200380Y228687D01*
X200353Y228632D01*
X200330Y228598D01*
X200325Y228593D01*
Y228587D01*
X200264Y228487D01*
X200203Y228398D01*
X200147Y228321D01*
X200097Y228260D01*
X200059Y228204D01*
X200025Y228171D01*
X200003Y228143D01*
X199997Y228138D01*
X203000D01*
Y227666D01*
X199143D01*
Y227971D01*
X199237Y228027D01*
X199326Y228088D01*
X199415Y228160D01*
X199492Y228226D01*
X199559Y228293D01*
X199615Y228343D01*
X199631Y228365D01*
X199648Y228382D01*
X199653Y228387D01*
X199659Y228393D01*
X199753Y228509D01*
X199842Y228626D01*
X199920Y228737D01*
X199981Y228848D01*
X200036Y228942D01*
X200059Y228981D01*
X200075Y229015D01*
X200092Y229042D01*
X200097Y229065D01*
X200108Y229076D01*
Y229081D01*
X200564D01*
X200530Y228998D01*
D02*
G37*
G36*
X203000Y239447D02*
X202545D01*
Y241340D01*
X202450Y241273D01*
X202412Y241240D01*
X202373Y241212D01*
X202340Y241184D01*
X202317Y241162D01*
X202301Y241145D01*
X202295Y241140D01*
X202267Y241112D01*
X202240Y241079D01*
X202168Y241001D01*
X202084Y240912D01*
X202001Y240818D01*
X201929Y240729D01*
X201896Y240690D01*
X201862Y240657D01*
X201840Y240629D01*
X201823Y240607D01*
X201812Y240596D01*
X201807Y240590D01*
X201729Y240501D01*
X201657Y240413D01*
X201585Y240335D01*
X201524Y240263D01*
X201463Y240196D01*
X201407Y240141D01*
X201357Y240085D01*
X201313Y240041D01*
X201268Y239997D01*
X201235Y239963D01*
X201207Y239935D01*
X201180Y239908D01*
X201146Y239880D01*
X201135Y239869D01*
X201041Y239791D01*
X200958Y239724D01*
X200874Y239669D01*
X200808Y239625D01*
X200747Y239591D01*
X200702Y239569D01*
X200675Y239558D01*
X200663Y239552D01*
X200580Y239519D01*
X200497Y239497D01*
X200419Y239475D01*
X200353Y239464D01*
X200292Y239458D01*
X200247Y239453D01*
X200219D01*
X200208D01*
X200125Y239458D01*
X200047Y239469D01*
X199970Y239480D01*
X199903Y239503D01*
X199770Y239558D01*
X199664Y239614D01*
X199615Y239647D01*
X199576Y239674D01*
X199537Y239702D01*
X199509Y239730D01*
X199487Y239752D01*
X199465Y239763D01*
X199459Y239774D01*
X199453Y239780D01*
X199398Y239841D01*
X199348Y239908D01*
X199309Y239980D01*
X199276Y240052D01*
X199221Y240196D01*
X199182Y240340D01*
X199170Y240402D01*
X199159Y240463D01*
X199154Y240518D01*
X199148Y240563D01*
X199143Y240601D01*
Y240657D01*
X199148Y240757D01*
X199154Y240851D01*
X199170Y240940D01*
X199187Y241023D01*
X199209Y241101D01*
X199232Y241173D01*
X199259Y241240D01*
X199287Y241301D01*
X199315Y241356D01*
X199343Y241401D01*
X199365Y241439D01*
X199387Y241473D01*
X199404Y241500D01*
X199420Y241517D01*
X199426Y241528D01*
X199431Y241534D01*
X199487Y241589D01*
X199548Y241639D01*
X199615Y241689D01*
X199681Y241728D01*
X199814Y241795D01*
X199948Y241839D01*
X200009Y241856D01*
X200070Y241872D01*
X200120Y241883D01*
X200164Y241895D01*
X200203Y241900D01*
X200231D01*
X200247Y241906D01*
X200253D01*
X200303Y241423D01*
X200175Y241412D01*
X200064Y241389D01*
X199964Y241356D01*
X199886Y241317D01*
X199820Y241284D01*
X199776Y241251D01*
X199748Y241229D01*
X199737Y241217D01*
X199670Y241134D01*
X199620Y241045D01*
X199581Y240951D01*
X199559Y240868D01*
X199542Y240790D01*
X199537Y240723D01*
X199531Y240701D01*
Y240668D01*
X199537Y240551D01*
X199559Y240446D01*
X199592Y240357D01*
X199626Y240280D01*
X199664Y240218D01*
X199692Y240180D01*
X199714Y240152D01*
X199725Y240141D01*
X199803Y240074D01*
X199881Y240024D01*
X199959Y239985D01*
X200036Y239963D01*
X200097Y239947D01*
X200153Y239941D01*
X200186Y239935D01*
X200192D01*
X200197D01*
X200297Y239947D01*
X200403Y239969D01*
X200497Y240007D01*
X200586Y240046D01*
X200658Y240091D01*
X200719Y240130D01*
X200741Y240141D01*
X200758Y240152D01*
X200763Y240163D01*
X200769D01*
X200830Y240207D01*
X200891Y240263D01*
X200958Y240324D01*
X201024Y240390D01*
X201157Y240529D01*
X201291Y240668D01*
X201352Y240740D01*
X201407Y240801D01*
X201457Y240862D01*
X201501Y240912D01*
X201535Y240951D01*
X201563Y240984D01*
X201579Y241007D01*
X201585Y241012D01*
X201701Y241151D01*
X201812Y241279D01*
X201912Y241384D01*
X201995Y241467D01*
X202068Y241539D01*
X202118Y241589D01*
X202151Y241617D01*
X202156Y241628D01*
X202162D01*
X202256Y241706D01*
X202345Y241767D01*
X202434Y241822D01*
X202512Y241867D01*
X202578Y241900D01*
X202628Y241922D01*
X202661Y241933D01*
X202667Y241939D01*
X202673D01*
X202734Y241961D01*
X202789Y241972D01*
X202845Y241983D01*
X202895Y241989D01*
X202939Y241995D01*
X202972D01*
X202994D01*
X203000D01*
Y239447D01*
D02*
G37*
G36*
Y236461D02*
X202545D01*
Y238354D01*
X202450Y238287D01*
X202412Y238254D01*
X202373Y238226D01*
X202340Y238198D01*
X202317Y238176D01*
X202301Y238159D01*
X202295Y238154D01*
X202267Y238126D01*
X202240Y238093D01*
X202168Y238015D01*
X202084Y237926D01*
X202001Y237832D01*
X201929Y237743D01*
X201896Y237704D01*
X201862Y237671D01*
X201840Y237643D01*
X201823Y237621D01*
X201812Y237610D01*
X201807Y237604D01*
X201729Y237516D01*
X201657Y237427D01*
X201585Y237349D01*
X201524Y237277D01*
X201463Y237210D01*
X201407Y237155D01*
X201357Y237099D01*
X201313Y237055D01*
X201268Y237011D01*
X201235Y236977D01*
X201207Y236949D01*
X201180Y236922D01*
X201146Y236894D01*
X201135Y236883D01*
X201041Y236805D01*
X200958Y236739D01*
X200874Y236683D01*
X200808Y236639D01*
X200747Y236605D01*
X200702Y236583D01*
X200675Y236572D01*
X200663Y236567D01*
X200580Y236533D01*
X200497Y236511D01*
X200419Y236489D01*
X200353Y236478D01*
X200292Y236472D01*
X200247Y236467D01*
X200219D01*
X200208D01*
X200125Y236472D01*
X200047Y236483D01*
X199970Y236494D01*
X199903Y236517D01*
X199770Y236572D01*
X199664Y236628D01*
X199615Y236661D01*
X199576Y236689D01*
X199537Y236716D01*
X199509Y236744D01*
X199487Y236766D01*
X199465Y236777D01*
X199459Y236789D01*
X199453Y236794D01*
X199398Y236855D01*
X199348Y236922D01*
X199309Y236994D01*
X199276Y237066D01*
X199221Y237210D01*
X199182Y237355D01*
X199170Y237416D01*
X199159Y237477D01*
X199154Y237532D01*
X199148Y237577D01*
X199143Y237615D01*
Y237671D01*
X199148Y237771D01*
X199154Y237865D01*
X199170Y237954D01*
X199187Y238037D01*
X199209Y238115D01*
X199232Y238187D01*
X199259Y238254D01*
X199287Y238315D01*
X199315Y238370D01*
X199343Y238415D01*
X199365Y238454D01*
X199387Y238487D01*
X199404Y238515D01*
X199420Y238531D01*
X199426Y238542D01*
X199431Y238548D01*
X199487Y238603D01*
X199548Y238653D01*
X199615Y238703D01*
X199681Y238742D01*
X199814Y238809D01*
X199948Y238853D01*
X200009Y238870D01*
X200070Y238886D01*
X200120Y238898D01*
X200164Y238909D01*
X200203Y238914D01*
X200231D01*
X200247Y238920D01*
X200253D01*
X200303Y238437D01*
X200175Y238426D01*
X200064Y238404D01*
X199964Y238370D01*
X199886Y238331D01*
X199820Y238298D01*
X199776Y238265D01*
X199748Y238243D01*
X199737Y238232D01*
X199670Y238148D01*
X199620Y238059D01*
X199581Y237965D01*
X199559Y237882D01*
X199542Y237804D01*
X199537Y237738D01*
X199531Y237715D01*
Y237682D01*
X199537Y237565D01*
X199559Y237460D01*
X199592Y237371D01*
X199626Y237294D01*
X199664Y237232D01*
X199692Y237194D01*
X199714Y237166D01*
X199725Y237155D01*
X199803Y237088D01*
X199881Y237038D01*
X199959Y236999D01*
X200036Y236977D01*
X200097Y236961D01*
X200153Y236955D01*
X200186Y236949D01*
X200192D01*
X200197D01*
X200297Y236961D01*
X200403Y236983D01*
X200497Y237022D01*
X200586Y237060D01*
X200658Y237105D01*
X200719Y237144D01*
X200741Y237155D01*
X200758Y237166D01*
X200763Y237177D01*
X200769D01*
X200830Y237222D01*
X200891Y237277D01*
X200958Y237338D01*
X201024Y237405D01*
X201157Y237543D01*
X201291Y237682D01*
X201352Y237754D01*
X201407Y237815D01*
X201457Y237876D01*
X201501Y237926D01*
X201535Y237965D01*
X201563Y237999D01*
X201579Y238021D01*
X201585Y238026D01*
X201701Y238165D01*
X201812Y238293D01*
X201912Y238398D01*
X201995Y238481D01*
X202068Y238554D01*
X202118Y238603D01*
X202151Y238631D01*
X202156Y238642D01*
X202162D01*
X202256Y238720D01*
X202345Y238781D01*
X202434Y238837D01*
X202512Y238881D01*
X202578Y238914D01*
X202628Y238936D01*
X202661Y238948D01*
X202667Y238953D01*
X202673D01*
X202734Y238975D01*
X202789Y238986D01*
X202845Y238997D01*
X202895Y239003D01*
X202939Y239009D01*
X202972D01*
X202994D01*
X203000D01*
Y236461D01*
D02*
G37*
G36*
Y250447D02*
X202545D01*
Y252340D01*
X202450Y252273D01*
X202412Y252240D01*
X202373Y252212D01*
X202340Y252184D01*
X202317Y252162D01*
X202301Y252145D01*
X202295Y252140D01*
X202267Y252112D01*
X202240Y252079D01*
X202168Y252001D01*
X202084Y251912D01*
X202001Y251818D01*
X201929Y251729D01*
X201896Y251690D01*
X201862Y251657D01*
X201840Y251629D01*
X201823Y251607D01*
X201812Y251596D01*
X201807Y251590D01*
X201729Y251501D01*
X201657Y251413D01*
X201585Y251335D01*
X201524Y251263D01*
X201463Y251196D01*
X201407Y251141D01*
X201357Y251085D01*
X201313Y251041D01*
X201268Y250996D01*
X201235Y250963D01*
X201207Y250935D01*
X201180Y250908D01*
X201146Y250880D01*
X201135Y250869D01*
X201041Y250791D01*
X200958Y250725D01*
X200874Y250669D01*
X200808Y250625D01*
X200747Y250591D01*
X200702Y250569D01*
X200675Y250558D01*
X200663Y250552D01*
X200580Y250519D01*
X200497Y250497D01*
X200419Y250475D01*
X200353Y250464D01*
X200292Y250458D01*
X200247Y250453D01*
X200219D01*
X200208D01*
X200125Y250458D01*
X200047Y250469D01*
X199970Y250480D01*
X199903Y250502D01*
X199770Y250558D01*
X199664Y250613D01*
X199615Y250647D01*
X199576Y250675D01*
X199537Y250702D01*
X199509Y250730D01*
X199487Y250752D01*
X199465Y250763D01*
X199459Y250774D01*
X199453Y250780D01*
X199398Y250841D01*
X199348Y250908D01*
X199309Y250980D01*
X199276Y251052D01*
X199221Y251196D01*
X199182Y251341D01*
X199170Y251402D01*
X199159Y251463D01*
X199154Y251518D01*
X199148Y251563D01*
X199143Y251601D01*
Y251657D01*
X199148Y251757D01*
X199154Y251851D01*
X199170Y251940D01*
X199187Y252023D01*
X199209Y252101D01*
X199232Y252173D01*
X199259Y252240D01*
X199287Y252301D01*
X199315Y252356D01*
X199343Y252401D01*
X199365Y252439D01*
X199387Y252473D01*
X199404Y252501D01*
X199420Y252517D01*
X199426Y252528D01*
X199431Y252534D01*
X199487Y252589D01*
X199548Y252639D01*
X199615Y252689D01*
X199681Y252728D01*
X199814Y252795D01*
X199948Y252839D01*
X200009Y252856D01*
X200070Y252872D01*
X200120Y252883D01*
X200164Y252894D01*
X200203Y252900D01*
X200231D01*
X200247Y252906D01*
X200253D01*
X200303Y252423D01*
X200175Y252412D01*
X200064Y252390D01*
X199964Y252356D01*
X199886Y252317D01*
X199820Y252284D01*
X199776Y252251D01*
X199748Y252228D01*
X199737Y252218D01*
X199670Y252134D01*
X199620Y252045D01*
X199581Y251951D01*
X199559Y251868D01*
X199542Y251790D01*
X199537Y251724D01*
X199531Y251701D01*
Y251668D01*
X199537Y251552D01*
X199559Y251446D01*
X199592Y251357D01*
X199626Y251279D01*
X199664Y251218D01*
X199692Y251180D01*
X199714Y251152D01*
X199725Y251141D01*
X199803Y251074D01*
X199881Y251024D01*
X199959Y250985D01*
X200036Y250963D01*
X200097Y250946D01*
X200153Y250941D01*
X200186Y250935D01*
X200192D01*
X200197D01*
X200297Y250946D01*
X200403Y250969D01*
X200497Y251008D01*
X200586Y251046D01*
X200658Y251091D01*
X200719Y251130D01*
X200741Y251141D01*
X200758Y251152D01*
X200763Y251163D01*
X200769D01*
X200830Y251207D01*
X200891Y251263D01*
X200958Y251324D01*
X201024Y251391D01*
X201157Y251529D01*
X201291Y251668D01*
X201352Y251740D01*
X201407Y251801D01*
X201457Y251862D01*
X201501Y251912D01*
X201535Y251951D01*
X201563Y251984D01*
X201579Y252007D01*
X201585Y252012D01*
X201701Y252151D01*
X201812Y252278D01*
X201912Y252384D01*
X201995Y252467D01*
X202068Y252539D01*
X202118Y252589D01*
X202151Y252617D01*
X202156Y252628D01*
X202162D01*
X202256Y252706D01*
X202345Y252767D01*
X202434Y252822D01*
X202512Y252867D01*
X202578Y252900D01*
X202628Y252922D01*
X202661Y252933D01*
X202667Y252939D01*
X202673D01*
X202734Y252961D01*
X202789Y252972D01*
X202845Y252983D01*
X202895Y252989D01*
X202939Y252994D01*
X202972D01*
X202994D01*
X203000D01*
Y250447D01*
D02*
G37*
G36*
X202073Y249925D02*
X202156Y249909D01*
X202312Y249859D01*
X202445Y249798D01*
X202501Y249764D01*
X202556Y249731D01*
X202606Y249698D01*
X202645Y249664D01*
X202684Y249637D01*
X202711Y249609D01*
X202734Y249592D01*
X202750Y249576D01*
X202761Y249565D01*
X202767Y249559D01*
X202817Y249492D01*
X202867Y249426D01*
X202906Y249359D01*
X202939Y249287D01*
X202994Y249148D01*
X203028Y249015D01*
X203039Y248954D01*
X203050Y248899D01*
X203056Y248849D01*
X203061Y248804D01*
X203067Y248771D01*
Y248721D01*
X203061Y248616D01*
X203050Y248521D01*
X203033Y248427D01*
X203011Y248338D01*
X202983Y248255D01*
X202956Y248183D01*
X202922Y248110D01*
X202889Y248049D01*
X202861Y247988D01*
X202828Y247938D01*
X202800Y247894D01*
X202772Y247861D01*
X202750Y247833D01*
X202734Y247811D01*
X202723Y247800D01*
X202717Y247794D01*
X202650Y247727D01*
X202578Y247672D01*
X202506Y247622D01*
X202434Y247578D01*
X202367Y247544D01*
X202295Y247511D01*
X202162Y247467D01*
X202101Y247456D01*
X202045Y247445D01*
X201995Y247433D01*
X201951Y247428D01*
X201918Y247422D01*
X201890D01*
X201873D01*
X201868D01*
X201735Y247428D01*
X201612Y247450D01*
X201507Y247483D01*
X201418Y247517D01*
X201346Y247550D01*
X201291Y247583D01*
X201257Y247605D01*
X201246Y247611D01*
X201163Y247689D01*
X201091Y247772D01*
X201035Y247861D01*
X200991Y247950D01*
X200958Y248027D01*
X200935Y248088D01*
X200930Y248110D01*
X200924Y248127D01*
X200919Y248138D01*
Y248144D01*
X200869Y248049D01*
X200819Y247972D01*
X200763Y247905D01*
X200713Y247850D01*
X200669Y247805D01*
X200630Y247772D01*
X200608Y247755D01*
X200597Y247750D01*
X200519Y247705D01*
X200442Y247672D01*
X200364Y247644D01*
X200292Y247628D01*
X200231Y247617D01*
X200186Y247611D01*
X200153D01*
X200142D01*
X200047Y247617D01*
X199953Y247633D01*
X199870Y247655D01*
X199798Y247683D01*
X199737Y247711D01*
X199687Y247733D01*
X199659Y247750D01*
X199648Y247755D01*
X199565Y247811D01*
X199492Y247877D01*
X199431Y247944D01*
X199376Y248011D01*
X199337Y248066D01*
X199304Y248116D01*
X199287Y248149D01*
X199282Y248155D01*
Y248160D01*
X199237Y248260D01*
X199204Y248360D01*
X199176Y248460D01*
X199159Y248549D01*
X199148Y248621D01*
X199143Y248682D01*
Y248821D01*
X199154Y248899D01*
X199182Y249048D01*
X199226Y249176D01*
X199270Y249287D01*
X199298Y249337D01*
X199320Y249376D01*
X199343Y249415D01*
X199365Y249443D01*
X199381Y249465D01*
X199392Y249481D01*
X199398Y249492D01*
X199404Y249498D01*
X199509Y249603D01*
X199626Y249687D01*
X199748Y249753D01*
X199870Y249809D01*
X199975Y249842D01*
X200020Y249859D01*
X200059Y249870D01*
X200092Y249875D01*
X200114Y249881D01*
X200131Y249886D01*
X200136D01*
X200219Y249415D01*
X200097Y249393D01*
X199992Y249359D01*
X199903Y249320D01*
X199831Y249282D01*
X199776Y249243D01*
X199737Y249209D01*
X199709Y249187D01*
X199703Y249182D01*
X199648Y249110D01*
X199603Y249032D01*
X199576Y248960D01*
X199553Y248887D01*
X199542Y248821D01*
X199531Y248771D01*
Y248727D01*
X199537Y248627D01*
X199559Y248538D01*
X199587Y248460D01*
X199615Y248394D01*
X199648Y248344D01*
X199676Y248305D01*
X199698Y248277D01*
X199703Y248271D01*
X199770Y248210D01*
X199842Y248166D01*
X199914Y248138D01*
X199981Y248116D01*
X200042Y248105D01*
X200086Y248094D01*
X200120D01*
X200125D01*
X200131D01*
X200192D01*
X200247Y248105D01*
X200342Y248133D01*
X200425Y248171D01*
X200497Y248216D01*
X200547Y248260D01*
X200586Y248299D01*
X200608Y248327D01*
X200613Y248333D01*
Y248338D01*
X200663Y248432D01*
X200702Y248521D01*
X200730Y248616D01*
X200747Y248699D01*
X200758Y248771D01*
X200769Y248832D01*
Y248904D01*
X200763Y248926D01*
Y248954D01*
X201180Y249009D01*
X201163Y248937D01*
X201152Y248871D01*
X201141Y248815D01*
X201135Y248765D01*
X201130Y248727D01*
Y248676D01*
X201141Y248560D01*
X201163Y248455D01*
X201196Y248360D01*
X201235Y248283D01*
X201274Y248221D01*
X201307Y248177D01*
X201329Y248149D01*
X201341Y248138D01*
X201424Y248066D01*
X201513Y248011D01*
X201601Y247972D01*
X201690Y247950D01*
X201762Y247933D01*
X201823Y247927D01*
X201846Y247922D01*
X201862D01*
X201873D01*
X201879D01*
X202001Y247933D01*
X202112Y247961D01*
X202206Y247994D01*
X202290Y248038D01*
X202356Y248083D01*
X202406Y248116D01*
X202439Y248144D01*
X202450Y248155D01*
X202528Y248244D01*
X202584Y248338D01*
X202623Y248432D01*
X202650Y248521D01*
X202667Y248599D01*
X202673Y248660D01*
X202678Y248682D01*
Y248715D01*
X202673Y248815D01*
X202650Y248910D01*
X202623Y248993D01*
X202589Y249060D01*
X202562Y249115D01*
X202534Y249159D01*
X202512Y249182D01*
X202506Y249193D01*
X202428Y249259D01*
X202340Y249315D01*
X202245Y249365D01*
X202145Y249404D01*
X202062Y249431D01*
X202023Y249443D01*
X201990Y249448D01*
X201962Y249453D01*
X201940Y249459D01*
X201929Y249465D01*
X201923D01*
X201984Y249936D01*
X202073Y249925D01*
D02*
G37*
G36*
Y262989D02*
X202156Y262972D01*
X202312Y262922D01*
X202445Y262861D01*
X202501Y262828D01*
X202556Y262795D01*
X202606Y262761D01*
X202645Y262728D01*
X202684Y262700D01*
X202711Y262673D01*
X202734Y262656D01*
X202750Y262639D01*
X202761Y262628D01*
X202767Y262623D01*
X202817Y262556D01*
X202867Y262489D01*
X202906Y262423D01*
X202939Y262351D01*
X202994Y262212D01*
X203028Y262079D01*
X203039Y262018D01*
X203050Y261962D01*
X203056Y261912D01*
X203061Y261868D01*
X203067Y261835D01*
Y261785D01*
X203061Y261679D01*
X203050Y261585D01*
X203033Y261490D01*
X203011Y261402D01*
X202983Y261318D01*
X202956Y261246D01*
X202922Y261174D01*
X202889Y261113D01*
X202861Y261052D01*
X202828Y261002D01*
X202800Y260958D01*
X202772Y260924D01*
X202750Y260896D01*
X202734Y260874D01*
X202723Y260863D01*
X202717Y260858D01*
X202650Y260791D01*
X202578Y260736D01*
X202506Y260686D01*
X202434Y260641D01*
X202367Y260608D01*
X202295Y260575D01*
X202162Y260530D01*
X202101Y260519D01*
X202045Y260508D01*
X201995Y260497D01*
X201951Y260491D01*
X201918Y260486D01*
X201890D01*
X201873D01*
X201868D01*
X201735Y260491D01*
X201612Y260514D01*
X201507Y260547D01*
X201418Y260580D01*
X201346Y260613D01*
X201291Y260647D01*
X201257Y260669D01*
X201246Y260675D01*
X201163Y260752D01*
X201091Y260836D01*
X201035Y260924D01*
X200991Y261013D01*
X200958Y261091D01*
X200935Y261152D01*
X200930Y261174D01*
X200924Y261191D01*
X200919Y261202D01*
Y261207D01*
X200869Y261113D01*
X200819Y261035D01*
X200763Y260969D01*
X200713Y260913D01*
X200669Y260869D01*
X200630Y260836D01*
X200608Y260819D01*
X200597Y260813D01*
X200519Y260769D01*
X200442Y260736D01*
X200364Y260708D01*
X200292Y260691D01*
X200231Y260680D01*
X200186Y260675D01*
X200153D01*
X200142D01*
X200047Y260680D01*
X199953Y260697D01*
X199870Y260719D01*
X199798Y260747D01*
X199737Y260774D01*
X199687Y260797D01*
X199659Y260813D01*
X199648Y260819D01*
X199565Y260874D01*
X199492Y260941D01*
X199431Y261007D01*
X199376Y261074D01*
X199337Y261130D01*
X199304Y261180D01*
X199287Y261213D01*
X199282Y261218D01*
Y261224D01*
X199237Y261324D01*
X199204Y261424D01*
X199176Y261524D01*
X199159Y261613D01*
X199148Y261685D01*
X199143Y261746D01*
Y261884D01*
X199154Y261962D01*
X199182Y262112D01*
X199226Y262240D01*
X199270Y262351D01*
X199298Y262401D01*
X199320Y262439D01*
X199343Y262478D01*
X199365Y262506D01*
X199381Y262528D01*
X199392Y262545D01*
X199398Y262556D01*
X199404Y262561D01*
X199509Y262667D01*
X199626Y262750D01*
X199748Y262817D01*
X199870Y262872D01*
X199975Y262906D01*
X200020Y262922D01*
X200059Y262933D01*
X200092Y262939D01*
X200114Y262945D01*
X200131Y262950D01*
X200136D01*
X200219Y262478D01*
X200097Y262456D01*
X199992Y262423D01*
X199903Y262384D01*
X199831Y262345D01*
X199776Y262306D01*
X199737Y262273D01*
X199709Y262251D01*
X199703Y262245D01*
X199648Y262173D01*
X199603Y262095D01*
X199576Y262023D01*
X199553Y261951D01*
X199542Y261884D01*
X199531Y261835D01*
Y261790D01*
X199537Y261690D01*
X199559Y261601D01*
X199587Y261524D01*
X199615Y261457D01*
X199648Y261407D01*
X199676Y261368D01*
X199698Y261340D01*
X199703Y261335D01*
X199770Y261274D01*
X199842Y261230D01*
X199914Y261202D01*
X199981Y261180D01*
X200042Y261169D01*
X200086Y261157D01*
X200120D01*
X200125D01*
X200131D01*
X200192D01*
X200247Y261169D01*
X200342Y261196D01*
X200425Y261235D01*
X200497Y261280D01*
X200547Y261324D01*
X200586Y261363D01*
X200608Y261390D01*
X200613Y261396D01*
Y261402D01*
X200663Y261496D01*
X200702Y261585D01*
X200730Y261679D01*
X200747Y261762D01*
X200758Y261835D01*
X200769Y261896D01*
Y261968D01*
X200763Y261990D01*
Y262018D01*
X201180Y262073D01*
X201163Y262001D01*
X201152Y261934D01*
X201141Y261879D01*
X201135Y261829D01*
X201130Y261790D01*
Y261740D01*
X201141Y261624D01*
X201163Y261518D01*
X201196Y261424D01*
X201235Y261346D01*
X201274Y261285D01*
X201307Y261241D01*
X201329Y261213D01*
X201341Y261202D01*
X201424Y261130D01*
X201513Y261074D01*
X201601Y261035D01*
X201690Y261013D01*
X201762Y260997D01*
X201823Y260991D01*
X201846Y260985D01*
X201862D01*
X201873D01*
X201879D01*
X202001Y260997D01*
X202112Y261024D01*
X202206Y261057D01*
X202290Y261102D01*
X202356Y261146D01*
X202406Y261180D01*
X202439Y261207D01*
X202450Y261218D01*
X202528Y261307D01*
X202584Y261402D01*
X202623Y261496D01*
X202650Y261585D01*
X202667Y261662D01*
X202673Y261723D01*
X202678Y261746D01*
Y261779D01*
X202673Y261879D01*
X202650Y261973D01*
X202623Y262056D01*
X202589Y262123D01*
X202562Y262179D01*
X202534Y262223D01*
X202512Y262245D01*
X202506Y262256D01*
X202428Y262323D01*
X202340Y262378D01*
X202245Y262428D01*
X202145Y262467D01*
X202062Y262495D01*
X202023Y262506D01*
X201990Y262512D01*
X201962Y262517D01*
X201940Y262523D01*
X201929Y262528D01*
X201923D01*
X201984Y263000D01*
X202073Y262989D01*
D02*
G37*
G36*
X203000Y258738D02*
Y258205D01*
X199159Y256706D01*
Y257222D01*
X201951Y258266D01*
X202068Y258310D01*
X202179Y258349D01*
X202284Y258382D01*
X202378Y258410D01*
X202462Y258438D01*
X202523Y258455D01*
X202545Y258460D01*
X202562Y258466D01*
X202573Y258471D01*
X202578D01*
X202356Y258538D01*
X202251Y258571D01*
X202156Y258604D01*
X202073Y258632D01*
X202040Y258643D01*
X202007Y258649D01*
X201984Y258660D01*
X201968Y258665D01*
X201957Y258671D01*
X201951D01*
X199159Y259670D01*
Y260225D01*
X203000Y258738D01*
D02*
G37*
%LPC*%
G36*
X-5601Y71096D02*
X-5779Y71090D01*
X-5890Y71084D01*
X-5984Y71079D01*
X-6062Y71068D01*
X-6129Y71051D01*
X-6179Y71034D01*
X-6217Y71023D01*
X-6240Y71018D01*
X-6245Y71012D01*
X-6317Y70968D01*
X-6384Y70924D01*
X-6439Y70868D01*
X-6484Y70818D01*
X-6523Y70774D01*
X-6550Y70735D01*
X-6567Y70713D01*
X-6573Y70701D01*
X-6611Y70618D01*
X-6639Y70535D01*
X-6662Y70457D01*
X-6673Y70380D01*
X-6684Y70319D01*
X-6689Y70263D01*
Y70219D01*
X-6684Y70119D01*
X-6673Y70035D01*
X-6650Y69963D01*
X-6628Y69902D01*
X-6606Y69858D01*
X-6584Y69825D01*
X-6573Y69802D01*
X-6567Y69797D01*
X-6517Y69752D01*
X-6462Y69719D01*
X-6412Y69691D01*
X-6362Y69675D01*
X-6317Y69664D01*
X-6284Y69658D01*
X-6256D01*
X-6251D01*
X-6206Y69664D01*
X-6162Y69669D01*
X-6129Y69680D01*
X-6095Y69691D01*
X-6068Y69703D01*
X-6045Y69708D01*
X-6034Y69719D01*
X-6029D01*
X-5962Y69775D01*
X-5918Y69841D01*
X-5901Y69863D01*
X-5890Y69886D01*
X-5879Y69902D01*
Y69908D01*
X-5857Y69963D01*
X-5840Y70024D01*
X-5823Y70091D01*
X-5812Y70158D01*
X-5801Y70219D01*
X-5790Y70274D01*
X-5785Y70307D01*
Y70319D01*
X-5768Y70413D01*
X-5757Y70502D01*
X-5740Y70579D01*
X-5723Y70657D01*
X-5707Y70729D01*
X-5690Y70790D01*
X-5679Y70851D01*
X-5662Y70901D01*
X-5651Y70946D01*
X-5640Y70985D01*
X-5629Y71018D01*
X-5618Y71046D01*
X-5613Y71068D01*
X-5607Y71084D01*
X-5601Y71090D01*
Y71096D01*
D02*
G37*
G36*
X-4169Y67988D02*
X-4192D01*
X-4203D01*
X-4275Y67982D01*
X-4342Y67971D01*
X-4397Y67954D01*
X-4441Y67938D01*
X-4480Y67921D01*
X-4514Y67904D01*
X-4530Y67893D01*
X-4536Y67888D01*
X-4580Y67849D01*
X-4625Y67799D01*
X-4658Y67749D01*
X-4680Y67704D01*
X-4702Y67660D01*
X-4719Y67627D01*
X-4724Y67605D01*
X-4730Y67593D01*
X-4741Y67532D01*
X-4752Y67455D01*
X-4758Y67377D01*
X-4763Y67299D01*
X-4769Y67227D01*
Y66284D01*
X-3615D01*
Y67194D01*
X-3626Y67316D01*
X-3631Y67410D01*
X-3642Y67494D01*
X-3653Y67555D01*
X-3659Y67593D01*
X-3670Y67621D01*
Y67627D01*
X-3692Y67688D01*
X-3726Y67743D01*
X-3759Y67788D01*
X-3792Y67827D01*
X-3820Y67854D01*
X-3848Y67876D01*
X-3864Y67888D01*
X-3870Y67893D01*
X-3925Y67927D01*
X-3981Y67949D01*
X-4036Y67965D01*
X-4092Y67976D01*
X-4136Y67982D01*
X-4169Y67988D01*
D02*
G37*
G36*
X-5851Y68154D02*
X-5873D01*
X-5884D01*
X-5951Y68148D01*
X-6018Y68143D01*
X-6073Y68132D01*
X-6117Y68115D01*
X-6156Y68099D01*
X-6190Y68088D01*
X-6206Y68082D01*
X-6212Y68076D01*
X-6262Y68043D01*
X-6306Y68015D01*
X-6340Y67976D01*
X-6373Y67949D01*
X-6395Y67921D01*
X-6412Y67899D01*
X-6423Y67882D01*
X-6428Y67876D01*
X-6473Y67782D01*
X-6506Y67688D01*
X-6517Y67649D01*
X-6523Y67616D01*
X-6528Y67593D01*
Y67588D01*
X-6534Y67544D01*
X-6539Y67494D01*
X-6545Y67377D01*
Y66284D01*
X-5224D01*
Y67294D01*
X-5235Y67410D01*
X-5246Y67505D01*
X-5257Y67582D01*
X-5268Y67643D01*
X-5280Y67693D01*
X-5285Y67716D01*
X-5291Y67727D01*
X-5318Y67799D01*
X-5352Y67860D01*
X-5390Y67915D01*
X-5429Y67960D01*
X-5463Y67993D01*
X-5490Y68015D01*
X-5513Y68032D01*
X-5518Y68037D01*
X-5579Y68076D01*
X-5640Y68104D01*
X-5701Y68126D01*
X-5757Y68137D01*
X-5807Y68148D01*
X-5851Y68154D01*
D02*
G37*
G36*
X-5540Y63203D02*
X-5568D01*
X-5585D01*
X-5590D01*
X-5690D01*
X-5785Y63192D01*
X-5868Y63181D01*
X-5951Y63165D01*
X-6023Y63148D01*
X-6090Y63126D01*
X-6151Y63109D01*
X-6206Y63087D01*
X-6251Y63065D01*
X-6295Y63042D01*
X-6329Y63020D01*
X-6356Y63004D01*
X-6378Y62987D01*
X-6395Y62976D01*
X-6401Y62970D01*
X-6406Y62965D01*
X-6451Y62920D01*
X-6495Y62871D01*
X-6561Y62776D01*
X-6606Y62676D01*
X-6639Y62587D01*
X-6656Y62504D01*
X-6667Y62443D01*
X-6673Y62415D01*
Y62382D01*
X-6667Y62315D01*
X-6662Y62254D01*
X-6634Y62138D01*
X-6589Y62038D01*
X-6539Y61955D01*
X-6495Y61888D01*
X-6451Y61838D01*
X-6423Y61805D01*
X-6412Y61799D01*
Y61794D01*
X-6356Y61755D01*
X-6301Y61716D01*
X-6173Y61661D01*
X-6040Y61616D01*
X-5907Y61588D01*
X-5790Y61572D01*
X-5740Y61566D01*
X-5696D01*
X-5657Y61561D01*
X-5629D01*
X-5613D01*
X-5607D01*
X-5513Y61566D01*
X-5418Y61572D01*
X-5335Y61583D01*
X-5257Y61599D01*
X-5185Y61616D01*
X-5119Y61633D01*
X-5063Y61655D01*
X-5007Y61677D01*
X-4963Y61699D01*
X-4919Y61722D01*
X-4885Y61738D01*
X-4858Y61755D01*
X-4835Y61772D01*
X-4819Y61783D01*
X-4813Y61794D01*
X-4808D01*
X-4763Y61838D01*
X-4719Y61888D01*
X-4652Y61982D01*
X-4608Y62082D01*
X-4575Y62177D01*
X-4552Y62260D01*
X-4547Y62321D01*
X-4541Y62349D01*
Y62382D01*
X-4547Y62449D01*
X-4552Y62510D01*
X-4580Y62621D01*
X-4625Y62721D01*
X-4674Y62804D01*
X-4724Y62871D01*
X-4763Y62920D01*
X-4797Y62954D01*
X-4802Y62965D01*
X-4808D01*
X-4858Y63009D01*
X-4919Y63042D01*
X-5041Y63103D01*
X-5174Y63148D01*
X-5296Y63176D01*
X-5413Y63192D01*
X-5463Y63198D01*
X-5507D01*
X-5540Y63203D01*
D02*
G37*
G36*
X-5596Y58292D02*
X-5624D01*
X-5646D01*
X-5651D01*
X-5746D01*
X-5835Y58281D01*
X-5912Y58270D01*
X-5990Y58258D01*
X-6056Y58242D01*
X-6123Y58220D01*
X-6179Y58203D01*
X-6228Y58181D01*
X-6273Y58158D01*
X-6317Y58142D01*
X-6345Y58120D01*
X-6373Y58103D01*
X-6395Y58092D01*
X-6412Y58081D01*
X-6417Y58070D01*
X-6423D01*
X-6467Y58031D01*
X-6506Y57986D01*
X-6567Y57898D01*
X-6611Y57809D01*
X-6639Y57726D01*
X-6662Y57653D01*
X-6667Y57592D01*
X-6673Y57570D01*
Y57542D01*
X-6667Y57487D01*
X-6662Y57431D01*
X-6634Y57332D01*
X-6589Y57237D01*
X-6539Y57160D01*
X-6495Y57099D01*
X-6451Y57048D01*
X-6423Y57021D01*
X-6412Y57015D01*
Y57010D01*
X-6356Y56971D01*
X-6301Y56937D01*
X-6173Y56882D01*
X-6040Y56843D01*
X-5912Y56815D01*
X-5796Y56799D01*
X-5746Y56793D01*
X-5701D01*
X-5662Y56788D01*
X-5635D01*
X-5618D01*
X-5613D01*
X-5513D01*
X-5418Y56799D01*
X-5329Y56810D01*
X-5252Y56821D01*
X-5180Y56838D01*
X-5113Y56854D01*
X-5052Y56871D01*
X-4997Y56893D01*
X-4952Y56915D01*
X-4913Y56932D01*
X-4880Y56949D01*
X-4852Y56965D01*
X-4830Y56982D01*
X-4813Y56988D01*
X-4808Y56999D01*
X-4802D01*
X-4758Y57037D01*
X-4713Y57082D01*
X-4652Y57171D01*
X-4602Y57259D01*
X-4575Y57343D01*
X-4552Y57415D01*
X-4547Y57476D01*
X-4541Y57498D01*
Y57526D01*
X-4547Y57587D01*
X-4552Y57642D01*
X-4586Y57748D01*
X-4625Y57842D01*
X-4674Y57920D01*
X-4724Y57981D01*
X-4769Y58031D01*
X-4802Y58059D01*
X-4808Y58070D01*
X-4813D01*
X-4869Y58109D01*
X-4924Y58142D01*
X-5057Y58197D01*
X-5196Y58236D01*
X-5329Y58264D01*
X-5396Y58275D01*
X-5457Y58281D01*
X-5513Y58286D01*
X-5557D01*
X-5596Y58292D01*
D02*
G37*
G36*
X21504Y64834D02*
X21476D01*
X21454D01*
X21448D01*
X21293Y64828D01*
X21148Y64817D01*
X21021Y64800D01*
X20910Y64784D01*
X20865Y64773D01*
X20826Y64762D01*
X20788Y64750D01*
X20760Y64745D01*
X20738Y64739D01*
X20721Y64734D01*
X20710Y64728D01*
X20704D01*
X20599Y64689D01*
X20505Y64645D01*
X20421Y64595D01*
X20349Y64551D01*
X20294Y64512D01*
X20255Y64478D01*
X20233Y64456D01*
X20222Y64451D01*
X20177Y64395D01*
X20138Y64340D01*
X20105Y64284D01*
X20072Y64229D01*
X20049Y64179D01*
X20033Y64140D01*
X20027Y64112D01*
X20022Y64101D01*
X19999Y64018D01*
X19983Y63918D01*
X19972Y63818D01*
X19966Y63724D01*
X19961Y63640D01*
X19955Y63601D01*
Y62691D01*
X22885D01*
Y63579D01*
X22880Y63651D01*
Y63724D01*
X22874Y63790D01*
X22858Y63901D01*
X22847Y63990D01*
X22830Y64062D01*
X22813Y64112D01*
X22808Y64140D01*
X22802Y64151D01*
X22752Y64251D01*
X22691Y64345D01*
X22619Y64428D01*
X22547Y64501D01*
X22480Y64556D01*
X22425Y64600D01*
X22403Y64612D01*
X22386Y64623D01*
X22375Y64634D01*
X22369D01*
X22308Y64667D01*
X22236Y64700D01*
X22092Y64750D01*
X21936Y64784D01*
X21787Y64811D01*
X21720Y64817D01*
X21653Y64823D01*
X21598Y64828D01*
X21548D01*
X21504Y64834D01*
D02*
G37*
G36*
X123981Y172151D02*
X123931D01*
X123904D01*
X123898D01*
X123893D01*
X123721D01*
X123565Y172140D01*
X123426Y172129D01*
X123293Y172118D01*
X123182Y172101D01*
X123077Y172079D01*
X122988Y172056D01*
X122905Y172040D01*
X122838Y172018D01*
X122783Y171995D01*
X122733Y171979D01*
X122694Y171957D01*
X122666Y171946D01*
X122649Y171934D01*
X122638Y171923D01*
X122633D01*
X122577Y171879D01*
X122533Y171835D01*
X122488Y171790D01*
X122455Y171746D01*
X122400Y171651D01*
X122361Y171568D01*
X122339Y171491D01*
X122327Y171435D01*
X122322Y171413D01*
Y171379D01*
X122327Y171318D01*
X122333Y171263D01*
X122372Y171157D01*
X122422Y171063D01*
X122477Y170980D01*
X122533Y170919D01*
X122583Y170869D01*
X122622Y170841D01*
X122627Y170830D01*
X122633D01*
X122699Y170791D01*
X122777Y170758D01*
X122866Y170724D01*
X122960Y170702D01*
X123060Y170680D01*
X123166Y170663D01*
X123382Y170636D01*
X123482Y170625D01*
X123576Y170619D01*
X123665Y170614D01*
X123737D01*
X123804Y170608D01*
X123854D01*
X123881D01*
X123893D01*
X124065Y170614D01*
X124220Y170619D01*
X124364Y170630D01*
X124497Y170647D01*
X124614Y170663D01*
X124720Y170686D01*
X124814Y170708D01*
X124897Y170730D01*
X124969Y170752D01*
X125030Y170769D01*
X125080Y170791D01*
X125125Y170808D01*
X125152Y170825D01*
X125175Y170835D01*
X125186Y170847D01*
X125191D01*
X125241Y170886D01*
X125286Y170924D01*
X125319Y170969D01*
X125352Y171013D01*
X125402Y171102D01*
X125435Y171185D01*
X125452Y171257D01*
X125463Y171318D01*
X125469Y171341D01*
Y171374D01*
X125463Y171435D01*
X125458Y171496D01*
X125441Y171552D01*
X125419Y171601D01*
X125369Y171696D01*
X125313Y171779D01*
X125252Y171840D01*
X125202Y171890D01*
X125180Y171907D01*
X125163Y171918D01*
X125158Y171929D01*
X125152D01*
X125086Y171968D01*
X125008Y172001D01*
X124919Y172034D01*
X124825Y172056D01*
X124725Y172079D01*
X124620Y172095D01*
X124409Y172123D01*
X124303Y172134D01*
X124209Y172140D01*
X124120Y172145D01*
X124048D01*
X123981Y172151D01*
D02*
G37*
G36*
Y271026D02*
X123931D01*
X123904D01*
X123898D01*
X123893D01*
X123721D01*
X123565Y271015D01*
X123426Y271004D01*
X123293Y270992D01*
X123182Y270976D01*
X123077Y270954D01*
X122988Y270931D01*
X122905Y270915D01*
X122838Y270893D01*
X122783Y270870D01*
X122733Y270854D01*
X122694Y270831D01*
X122666Y270820D01*
X122649Y270809D01*
X122638Y270798D01*
X122633D01*
X122577Y270754D01*
X122533Y270709D01*
X122488Y270665D01*
X122455Y270621D01*
X122400Y270526D01*
X122361Y270443D01*
X122339Y270365D01*
X122327Y270310D01*
X122322Y270288D01*
Y270254D01*
X122327Y270193D01*
X122333Y270138D01*
X122372Y270032D01*
X122422Y269938D01*
X122477Y269855D01*
X122533Y269794D01*
X122583Y269744D01*
X122622Y269716D01*
X122627Y269705D01*
X122633D01*
X122699Y269666D01*
X122777Y269633D01*
X122866Y269599D01*
X122960Y269577D01*
X123060Y269555D01*
X123166Y269538D01*
X123382Y269511D01*
X123482Y269499D01*
X123576Y269494D01*
X123665Y269488D01*
X123737D01*
X123804Y269483D01*
X123854D01*
X123881D01*
X123893D01*
X124065Y269488D01*
X124220Y269494D01*
X124364Y269505D01*
X124497Y269522D01*
X124614Y269538D01*
X124720Y269561D01*
X124814Y269583D01*
X124897Y269605D01*
X124969Y269627D01*
X125030Y269644D01*
X125080Y269666D01*
X125125Y269683D01*
X125152Y269699D01*
X125175Y269710D01*
X125186Y269722D01*
X125191D01*
X125241Y269760D01*
X125286Y269799D01*
X125319Y269844D01*
X125352Y269888D01*
X125402Y269977D01*
X125435Y270060D01*
X125452Y270132D01*
X125463Y270193D01*
X125469Y270216D01*
Y270249D01*
X125463Y270310D01*
X125458Y270371D01*
X125441Y270426D01*
X125419Y270476D01*
X125369Y270571D01*
X125313Y270654D01*
X125252Y270715D01*
X125202Y270765D01*
X125180Y270782D01*
X125163Y270793D01*
X125158Y270804D01*
X125152D01*
X125086Y270843D01*
X125008Y270876D01*
X124919Y270909D01*
X124825Y270931D01*
X124725Y270954D01*
X124620Y270970D01*
X124409Y270998D01*
X124303Y271009D01*
X124209Y271015D01*
X124120Y271020D01*
X124048D01*
X123981Y271026D01*
D02*
G37*
G36*
X125075Y230671D02*
X123354D01*
Y229461D01*
X125075Y230671D01*
D02*
G37*
G36*
X123254Y211059D02*
X123232D01*
X123221D01*
X123215D01*
X123066Y211048D01*
X122938Y211026D01*
X122827Y210993D01*
X122733Y210954D01*
X122660Y210909D01*
X122605Y210876D01*
X122572Y210854D01*
X122566Y210843D01*
X122561D01*
X122516Y210804D01*
X122483Y210759D01*
X122422Y210671D01*
X122383Y210582D01*
X122350Y210504D01*
X122333Y210432D01*
X122327Y210376D01*
X122322Y210354D01*
Y210327D01*
X122327Y210249D01*
X122339Y210177D01*
X122361Y210110D01*
X122383Y210054D01*
X122400Y210005D01*
X122422Y209966D01*
X122433Y209944D01*
X122438Y209932D01*
X122488Y209866D01*
X122538Y209810D01*
X122599Y209760D01*
X122649Y209721D01*
X122699Y209688D01*
X122738Y209666D01*
X122766Y209649D01*
X122777Y209644D01*
X122860Y209611D01*
X122943Y209588D01*
X123021Y209566D01*
X123093Y209555D01*
X123154Y209549D01*
X123204Y209544D01*
X123232D01*
X123243D01*
X123376Y209555D01*
X123493Y209577D01*
X123598Y209616D01*
X123682Y209655D01*
X123754Y209694D01*
X123804Y209733D01*
X123831Y209755D01*
X123843Y209766D01*
X123920Y209855D01*
X123976Y209944D01*
X124020Y210038D01*
X124048Y210121D01*
X124065Y210199D01*
X124070Y210254D01*
X124076Y210277D01*
Y210310D01*
X124065Y210426D01*
X124037Y210532D01*
X124004Y210621D01*
X123959Y210698D01*
X123915Y210759D01*
X123881Y210804D01*
X123854Y210831D01*
X123843Y210843D01*
X123748Y210915D01*
X123648Y210970D01*
X123543Y211009D01*
X123443Y211031D01*
X123354Y211048D01*
X123315Y211053D01*
X123282D01*
X123254Y211059D01*
D02*
G37*
G36*
X124897Y191393D02*
X124864D01*
X124858D01*
X124853D01*
X124764Y191387D01*
X124681Y191365D01*
X124609Y191337D01*
X124548Y191304D01*
X124497Y191270D01*
X124464Y191243D01*
X124436Y191220D01*
X124431Y191215D01*
X124375Y191148D01*
X124331Y191071D01*
X124303Y190998D01*
X124281Y190926D01*
X124270Y190860D01*
X124264Y190810D01*
X124259Y190777D01*
Y190765D01*
X124264Y190665D01*
X124287Y190577D01*
X124314Y190499D01*
X124348Y190432D01*
X124375Y190382D01*
X124403Y190344D01*
X124425Y190316D01*
X124431Y190310D01*
X124497Y190255D01*
X124575Y190210D01*
X124647Y190183D01*
X124720Y190160D01*
X124780Y190149D01*
X124830Y190144D01*
X124864Y190138D01*
X124869D01*
X124875D01*
X124964Y190144D01*
X125041Y190166D01*
X125114Y190194D01*
X125175Y190227D01*
X125224Y190255D01*
X125263Y190282D01*
X125286Y190305D01*
X125291Y190310D01*
X125352Y190382D01*
X125397Y190455D01*
X125424Y190532D01*
X125447Y190604D01*
X125458Y190671D01*
X125469Y190721D01*
Y190765D01*
X125463Y190860D01*
X125441Y190949D01*
X125413Y191021D01*
X125380Y191087D01*
X125347Y191137D01*
X125319Y191176D01*
X125297Y191204D01*
X125291Y191209D01*
X125219Y191270D01*
X125147Y191315D01*
X125075Y191348D01*
X125008Y191370D01*
X124947Y191381D01*
X124897Y191393D01*
D02*
G37*
G36*
X123121Y191548D02*
X123104D01*
X123093D01*
X123088D01*
X122971Y191537D01*
X122860Y191515D01*
X122766Y191476D01*
X122688Y191437D01*
X122627Y191398D01*
X122577Y191359D01*
X122549Y191337D01*
X122538Y191326D01*
X122466Y191237D01*
X122411Y191148D01*
X122377Y191054D01*
X122350Y190965D01*
X122333Y190887D01*
X122327Y190821D01*
X122322Y190799D01*
Y190765D01*
X122327Y190688D01*
X122339Y190610D01*
X122355Y190538D01*
X122372Y190477D01*
X122389Y190427D01*
X122405Y190388D01*
X122416Y190366D01*
X122422Y190355D01*
X122466Y190288D01*
X122511Y190233D01*
X122561Y190183D01*
X122610Y190144D01*
X122649Y190111D01*
X122683Y190088D01*
X122710Y190077D01*
X122716Y190072D01*
X122788Y190044D01*
X122855Y190022D01*
X122921Y190005D01*
X122982Y189994D01*
X123032Y189988D01*
X123071Y189983D01*
X123093D01*
X123104D01*
X123221Y189994D01*
X123326Y190016D01*
X123421Y190050D01*
X123504Y190094D01*
X123565Y190133D01*
X123615Y190166D01*
X123643Y190188D01*
X123654Y190199D01*
X123726Y190282D01*
X123782Y190377D01*
X123820Y190466D01*
X123848Y190554D01*
X123865Y190632D01*
X123870Y190693D01*
X123876Y190716D01*
Y190749D01*
X123865Y190871D01*
X123843Y190982D01*
X123804Y191082D01*
X123765Y191165D01*
X123721Y191232D01*
X123682Y191281D01*
X123659Y191309D01*
X123648Y191320D01*
X123559Y191398D01*
X123465Y191454D01*
X123371Y191492D01*
X123288Y191520D01*
X123204Y191537D01*
X123143Y191542D01*
X123121Y191548D01*
D02*
G37*
G36*
X124620Y181003D02*
X124597D01*
X124586D01*
X124581D01*
X124436Y180992D01*
X124309Y180970D01*
X124203Y180937D01*
X124115Y180898D01*
X124042Y180854D01*
X123993Y180820D01*
X123959Y180798D01*
X123948Y180787D01*
X123870Y180704D01*
X123815Y180615D01*
X123776Y180526D01*
X123748Y180437D01*
X123732Y180365D01*
X123726Y180304D01*
X123721Y180282D01*
Y180249D01*
X123732Y180132D01*
X123754Y180027D01*
X123793Y179932D01*
X123837Y179849D01*
X123876Y179788D01*
X123915Y179738D01*
X123937Y179710D01*
X123948Y179699D01*
X124037Y179627D01*
X124137Y179572D01*
X124237Y179538D01*
X124331Y179511D01*
X124414Y179494D01*
X124448Y179488D01*
X124481D01*
X124509Y179483D01*
X124525D01*
X124536D01*
X124542D01*
X124686Y179494D01*
X124819Y179516D01*
X124936Y179555D01*
X125030Y179599D01*
X125108Y179638D01*
X125163Y179677D01*
X125180Y179688D01*
X125197Y179699D01*
X125202Y179710D01*
X125208D01*
X125252Y179755D01*
X125297Y179799D01*
X125358Y179894D01*
X125408Y179988D01*
X125435Y180077D01*
X125458Y180149D01*
X125463Y180210D01*
X125469Y180232D01*
Y180321D01*
X125458Y180376D01*
X125430Y180476D01*
X125391Y180565D01*
X125352Y180643D01*
X125308Y180704D01*
X125269Y180748D01*
X125241Y180776D01*
X125236Y180787D01*
X125230D01*
X125136Y180859D01*
X125030Y180915D01*
X124919Y180954D01*
X124814Y180976D01*
X124725Y180992D01*
X124686Y180998D01*
X124647D01*
X124620Y181003D01*
D02*
G37*
G36*
X141674Y138665D02*
X141640D01*
X141613D01*
X141596D01*
X141590D01*
X141496D01*
X141413Y138654D01*
X141329Y138643D01*
X141252Y138632D01*
X141185Y138616D01*
X141119Y138593D01*
X141063Y138577D01*
X141007Y138554D01*
X140963Y138532D01*
X140924Y138516D01*
X140891Y138493D01*
X140863Y138477D01*
X140841Y138466D01*
X140824Y138454D01*
X140819Y138444D01*
X140813D01*
X140763Y138399D01*
X140725Y138355D01*
X140686Y138310D01*
X140658Y138266D01*
X140608Y138177D01*
X140575Y138094D01*
X140558Y138022D01*
X140547Y137961D01*
X140541Y137938D01*
Y137855D01*
X140552Y137800D01*
X140580Y137694D01*
X140625Y137605D01*
X140669Y137528D01*
X140719Y137467D01*
X140763Y137422D01*
X140791Y137394D01*
X140797Y137383D01*
X140802D01*
X140852Y137345D01*
X140913Y137311D01*
X141035Y137256D01*
X141174Y137217D01*
X141302Y137195D01*
X141418Y137178D01*
X141474Y137172D01*
X141518D01*
X141557Y137167D01*
X141585D01*
X141601D01*
X141607D01*
X141701D01*
X141796Y137178D01*
X141879Y137189D01*
X141957Y137200D01*
X142029Y137217D01*
X142095Y137239D01*
X142151Y137261D01*
X142206Y137278D01*
X142251Y137300D01*
X142295Y137322D01*
X142328Y137339D01*
X142356Y137361D01*
X142378Y137372D01*
X142395Y137383D01*
X142401Y137394D01*
X142406D01*
X142450Y137439D01*
X142495Y137483D01*
X142562Y137572D01*
X142606Y137661D01*
X142639Y137744D01*
X142656Y137816D01*
X142667Y137877D01*
X142673Y137899D01*
Y137927D01*
X142667Y137999D01*
X142656Y138060D01*
X142639Y138127D01*
X142617Y138183D01*
X142556Y138288D01*
X142489Y138371D01*
X142428Y138444D01*
X142367Y138493D01*
X142345Y138510D01*
X142328Y138521D01*
X142317Y138532D01*
X142312D01*
X142267Y138554D01*
X142218Y138577D01*
X142106Y138610D01*
X141984Y138632D01*
X141868Y138649D01*
X141762Y138660D01*
X141712D01*
X141674Y138665D01*
D02*
G37*
G36*
X142284Y135757D02*
X142256D01*
X142251D01*
X142206Y135752D01*
X142162Y135746D01*
X142129Y135735D01*
X142095Y135724D01*
X142068Y135713D01*
X142045Y135707D01*
X142034Y135696D01*
X142029D01*
X141962Y135641D01*
X141918Y135574D01*
X141901Y135552D01*
X141890Y135530D01*
X141879Y135513D01*
Y135508D01*
X141857Y135452D01*
X141840Y135391D01*
X141823Y135324D01*
X141812Y135258D01*
X141801Y135197D01*
X141790Y135141D01*
X141785Y135108D01*
Y135097D01*
X141768Y135002D01*
X141757Y134914D01*
X141740Y134836D01*
X141724Y134758D01*
X141707Y134686D01*
X141690Y134625D01*
X141679Y134564D01*
X141662Y134514D01*
X141651Y134470D01*
X141640Y134431D01*
X141629Y134397D01*
X141618Y134370D01*
X141613Y134348D01*
X141607Y134331D01*
X141601Y134325D01*
Y134320D01*
X141779Y134325D01*
X141890Y134331D01*
X141984Y134336D01*
X142062Y134348D01*
X142129Y134364D01*
X142179Y134381D01*
X142218Y134392D01*
X142240Y134397D01*
X142245Y134403D01*
X142317Y134448D01*
X142384Y134492D01*
X142439Y134547D01*
X142484Y134597D01*
X142523Y134642D01*
X142551Y134680D01*
X142567Y134703D01*
X142573Y134714D01*
X142612Y134797D01*
X142639Y134880D01*
X142661Y134958D01*
X142673Y135036D01*
X142684Y135097D01*
X142689Y135152D01*
Y135197D01*
X142684Y135297D01*
X142673Y135380D01*
X142650Y135452D01*
X142628Y135513D01*
X142606Y135557D01*
X142584Y135591D01*
X142573Y135613D01*
X142567Y135618D01*
X142517Y135663D01*
X142462Y135696D01*
X142412Y135724D01*
X142362Y135741D01*
X142317Y135752D01*
X142284Y135757D01*
D02*
G37*
G36*
X201646Y160075D02*
X199925Y158865D01*
X201646D01*
Y160075D01*
D02*
G37*
G36*
X201796Y179353D02*
X201768D01*
X201757D01*
X201624Y179342D01*
X201507Y179320D01*
X201402Y179281D01*
X201318Y179242D01*
X201246Y179203D01*
X201196Y179165D01*
X201168Y179142D01*
X201157Y179131D01*
X201080Y179042D01*
X201024Y178954D01*
X200980Y178859D01*
X200952Y178776D01*
X200935Y178698D01*
X200930Y178643D01*
X200924Y178621D01*
Y178587D01*
X200935Y178471D01*
X200963Y178365D01*
X200996Y178276D01*
X201041Y178199D01*
X201085Y178138D01*
X201119Y178093D01*
X201146Y178066D01*
X201157Y178054D01*
X201252Y177982D01*
X201352Y177927D01*
X201457Y177888D01*
X201557Y177866D01*
X201646Y177849D01*
X201685Y177844D01*
X201718D01*
X201746Y177838D01*
X201768D01*
X201779D01*
X201784D01*
X201934Y177849D01*
X202062Y177871D01*
X202173Y177905D01*
X202267Y177944D01*
X202340Y177988D01*
X202395Y178021D01*
X202428Y178043D01*
X202434Y178054D01*
X202439D01*
X202484Y178093D01*
X202517Y178138D01*
X202578Y178226D01*
X202617Y178315D01*
X202650Y178393D01*
X202667Y178465D01*
X202673Y178521D01*
X202678Y178543D01*
Y178571D01*
X202673Y178648D01*
X202661Y178720D01*
X202639Y178787D01*
X202617Y178843D01*
X202600Y178893D01*
X202578Y178931D01*
X202567Y178954D01*
X202562Y178965D01*
X202512Y179031D01*
X202462Y179087D01*
X202401Y179137D01*
X202351Y179175D01*
X202301Y179209D01*
X202262Y179231D01*
X202234Y179248D01*
X202223Y179253D01*
X202140Y179287D01*
X202057Y179309D01*
X201979Y179331D01*
X201907Y179342D01*
X201846Y179348D01*
X201796Y179353D01*
D02*
G37*
G36*
X200136Y199742D02*
X200131D01*
X200125D01*
X200036Y199737D01*
X199959Y199714D01*
X199886Y199687D01*
X199825Y199653D01*
X199776Y199626D01*
X199737Y199598D01*
X199714Y199576D01*
X199709Y199570D01*
X199648Y199498D01*
X199603Y199426D01*
X199576Y199348D01*
X199553Y199276D01*
X199542Y199209D01*
X199531Y199159D01*
Y199115D01*
X199537Y199021D01*
X199559Y198932D01*
X199587Y198860D01*
X199620Y198793D01*
X199653Y198743D01*
X199681Y198704D01*
X199703Y198677D01*
X199709Y198671D01*
X199781Y198610D01*
X199853Y198566D01*
X199925Y198532D01*
X199992Y198510D01*
X200053Y198499D01*
X200103Y198488D01*
X200136D01*
X200142D01*
X200147D01*
X200236Y198493D01*
X200319Y198516D01*
X200392Y198543D01*
X200452Y198577D01*
X200502Y198610D01*
X200536Y198638D01*
X200564Y198660D01*
X200569Y198665D01*
X200625Y198732D01*
X200669Y198810D01*
X200697Y198882D01*
X200719Y198954D01*
X200730Y199021D01*
X200736Y199071D01*
X200741Y199104D01*
Y199115D01*
X200736Y199215D01*
X200713Y199304D01*
X200686Y199381D01*
X200652Y199448D01*
X200625Y199498D01*
X200597Y199537D01*
X200575Y199565D01*
X200569Y199570D01*
X200502Y199626D01*
X200425Y199670D01*
X200353Y199698D01*
X200280Y199720D01*
X200219Y199731D01*
X200169Y199737D01*
X200136Y199742D01*
D02*
G37*
G36*
X201929Y199898D02*
X201907D01*
X201896D01*
X201779Y199886D01*
X201674Y199864D01*
X201579Y199831D01*
X201496Y199787D01*
X201435Y199748D01*
X201385Y199714D01*
X201357Y199692D01*
X201346Y199681D01*
X201274Y199598D01*
X201219Y199504D01*
X201180Y199415D01*
X201152Y199326D01*
X201135Y199248D01*
X201130Y199187D01*
X201124Y199165D01*
Y199132D01*
X201135Y199010D01*
X201157Y198899D01*
X201196Y198799D01*
X201235Y198715D01*
X201279Y198649D01*
X201318Y198599D01*
X201341Y198571D01*
X201352Y198560D01*
X201441Y198482D01*
X201535Y198427D01*
X201629Y198388D01*
X201712Y198360D01*
X201796Y198344D01*
X201857Y198338D01*
X201879Y198332D01*
X201896D01*
X201907D01*
X201912D01*
X202029Y198344D01*
X202140Y198366D01*
X202234Y198405D01*
X202312Y198443D01*
X202373Y198482D01*
X202423Y198521D01*
X202450Y198543D01*
X202462Y198554D01*
X202534Y198643D01*
X202589Y198732D01*
X202623Y198826D01*
X202650Y198915D01*
X202667Y198993D01*
X202673Y199059D01*
X202678Y199082D01*
Y199115D01*
X202673Y199193D01*
X202661Y199270D01*
X202645Y199343D01*
X202628Y199404D01*
X202611Y199453D01*
X202595Y199492D01*
X202584Y199515D01*
X202578Y199526D01*
X202534Y199592D01*
X202489Y199648D01*
X202439Y199698D01*
X202390Y199737D01*
X202351Y199770D01*
X202317Y199792D01*
X202290Y199803D01*
X202284Y199809D01*
X202212Y199837D01*
X202145Y199859D01*
X202079Y199875D01*
X202018Y199886D01*
X201968Y199892D01*
X201929Y199898D01*
D02*
G37*
G36*
X200491Y210392D02*
X200475D01*
X200464D01*
X200458D01*
X200314Y210381D01*
X200181Y210359D01*
X200064Y210320D01*
X199970Y210276D01*
X199892Y210237D01*
X199837Y210198D01*
X199820Y210187D01*
X199803Y210176D01*
X199798Y210164D01*
X199792D01*
X199748Y210120D01*
X199703Y210076D01*
X199642Y209981D01*
X199592Y209887D01*
X199565Y209798D01*
X199542Y209726D01*
X199537Y209665D01*
X199531Y209643D01*
Y209554D01*
X199542Y209499D01*
X199570Y209399D01*
X199609Y209310D01*
X199648Y209232D01*
X199692Y209171D01*
X199731Y209127D01*
X199759Y209099D01*
X199764Y209088D01*
X199770D01*
X199864Y209016D01*
X199970Y208960D01*
X200081Y208921D01*
X200186Y208899D01*
X200275Y208882D01*
X200314Y208877D01*
X200353D01*
X200380Y208871D01*
X200403D01*
X200414D01*
X200419D01*
X200564Y208882D01*
X200691Y208905D01*
X200797Y208938D01*
X200885Y208977D01*
X200958Y209021D01*
X201008Y209054D01*
X201041Y209077D01*
X201052Y209088D01*
X201130Y209171D01*
X201185Y209260D01*
X201224Y209349D01*
X201252Y209437D01*
X201268Y209509D01*
X201274Y209571D01*
X201279Y209593D01*
Y209626D01*
X201268Y209743D01*
X201246Y209848D01*
X201207Y209943D01*
X201163Y210026D01*
X201124Y210087D01*
X201085Y210137D01*
X201063Y210164D01*
X201052Y210176D01*
X200963Y210248D01*
X200863Y210303D01*
X200763Y210336D01*
X200669Y210364D01*
X200586Y210381D01*
X200552Y210386D01*
X200519D01*
X200491Y210392D01*
D02*
G37*
G36*
X201196Y218959D02*
X201146D01*
X201119D01*
X201107D01*
X200935Y218953D01*
X200780Y218948D01*
X200636Y218937D01*
X200502Y218920D01*
X200386Y218904D01*
X200280Y218881D01*
X200186Y218859D01*
X200103Y218837D01*
X200031Y218815D01*
X199970Y218798D01*
X199920Y218776D01*
X199875Y218759D01*
X199848Y218743D01*
X199825Y218732D01*
X199814Y218720D01*
X199809D01*
X199759Y218682D01*
X199714Y218643D01*
X199681Y218598D01*
X199648Y218554D01*
X199598Y218465D01*
X199565Y218382D01*
X199548Y218310D01*
X199537Y218249D01*
X199531Y218227D01*
Y218193D01*
X199537Y218132D01*
X199542Y218071D01*
X199559Y218016D01*
X199581Y217966D01*
X199631Y217871D01*
X199687Y217788D01*
X199748Y217727D01*
X199798Y217677D01*
X199820Y217660D01*
X199837Y217649D01*
X199842Y217638D01*
X199848D01*
X199914Y217599D01*
X199992Y217566D01*
X200081Y217533D01*
X200175Y217511D01*
X200275Y217488D01*
X200380Y217472D01*
X200591Y217444D01*
X200697Y217433D01*
X200791Y217427D01*
X200880Y217422D01*
X200952D01*
X201019Y217416D01*
X201069D01*
X201096D01*
X201102D01*
X201107D01*
X201279D01*
X201435Y217427D01*
X201574Y217438D01*
X201707Y217449D01*
X201818Y217466D01*
X201923Y217488D01*
X202012Y217511D01*
X202095Y217527D01*
X202162Y217549D01*
X202218Y217572D01*
X202267Y217588D01*
X202306Y217610D01*
X202334Y217621D01*
X202351Y217633D01*
X202362Y217644D01*
X202367D01*
X202423Y217688D01*
X202467Y217733D01*
X202512Y217777D01*
X202545Y217821D01*
X202600Y217916D01*
X202639Y217999D01*
X202661Y218077D01*
X202673Y218132D01*
X202678Y218154D01*
Y218188D01*
X202673Y218249D01*
X202667Y218304D01*
X202628Y218410D01*
X202578Y218504D01*
X202523Y218587D01*
X202467Y218648D01*
X202417Y218698D01*
X202378Y218726D01*
X202373Y218737D01*
X202367D01*
X202301Y218776D01*
X202223Y218809D01*
X202134Y218843D01*
X202040Y218865D01*
X201940Y218887D01*
X201835Y218904D01*
X201618Y218931D01*
X201518Y218942D01*
X201424Y218948D01*
X201335Y218953D01*
X201263D01*
X201196Y218959D01*
D02*
G37*
%LPD*%
D15*
X77776Y187677D02*
G03*
X77776Y187677I-45276J0D01*
G01*
M02*
